<?xml version="1.0" encoding="utf-8"?>
<!-- Generator: Adobe Illustrator 24.0.2, SVG Export Plug-In . SVG Version: 6.00 Build 0)  -->
<svg version="1.1" xmlns="http://www.w3.org/2000/svg" xmlns:xlink="http://www.w3.org/1999/xlink" x="0px" y="0px"
	 viewBox="0 0 500 500" style="enable-background:new 0 0 500 500;" xml:space="preserve">
<style type="text/css">
	.st0{fill:#7E57C2;}
	.st1{opacity:0.8;fill:#FFFFFF;enable-background:new    ;}
	.st2{opacity:0.3;}
	.st3{fill:#FFFFFF;}
	.st4{opacity:0.4;}
	.st5{fill:#F5F5F5;}
	.st6{fill:#EBEBEB;}
	.st7{opacity:0.5;fill:#FFFFFF;enable-background:new    ;}
	.st8{fill:#BCBCBC;}
	.st9{fill:#37474F;}
	.st10{fill:#455A64;}
	.st11{fill:#263238;}
	.st12{fill:#B0BEC5;}
	.st13{opacity:0.7;enable-background:new    ;}
	.st14{opacity:0.5;enable-background:new    ;}
	.st15{opacity:0.6;enable-background:new    ;}
	.st16{fill:#D1D1D1;}
	.st17{fill:#E0E0E0;}
	.st18{opacity:0.1;fill:#FFFFFF;enable-background:new    ;}
	.st19{opacity:0.6;fill:#FFFFFF;enable-background:new    ;}
	.st20{fill:#F0F0F0;}
	.st21{opacity:0.79;fill:#263238;enable-background:new    ;}
	.st22{opacity:0.6;}
	.st23{opacity:0.5;fill:#E0E0E0;enable-background:new    ;}
	.st24{opacity:0.2;enable-background:new    ;}
	.st25{opacity:0.4;enable-background:new    ;}
	.st26{fill:#D1A78B;}
	.st27{fill:#FFA8A7;}
	.st28{fill:#FFCEA7;}
	.st29{fill:#F28F8F;}
</style>
<g id="Capa_2">
	<g id="freepik--Galaxy--inject-38">
		<path class="st0" d="M470,249.8c26.7-13.2,37.6-45.5,24.4-72.2c-4.2-8.6-10.7-15.9-18.7-21.2c-19.4-12.7-45.9-12.4-63.2-27.9
			c-29-26-14.1-78.2-39.6-107.7C357.6,3.1,331.2-1,308.3,4c-28.9,6.3-38.3,34.4-58.6,47.9c-18.7,12.5-32.6,10.3-54.1,4.5
			c-41.9-11.5-61.2-8-87.7,3.6c-6.7,3.3-13.2,7-19.5,11.1c-43.6,27.7-69.2,82.3-61,133.5c8.9,55.6,57,102.6,112.7,110.3
			c15.8,2.2,32.7,1.8,46.1,10.4c25.6,16.5,23.6,55.1,41.6,79.7c14.1,19.3,39.8,27.8,63.6,25.5s45.7-14.1,64.6-28.7
			c17.5-13.6,36-30.8,58.1-28.5c10.1,1.1,19.2,6.3,28.5,10.3c9.3,4.1,20,7.1,29.5,3.7c0,0-7.7-3-8.6-7.9
			c-2.9-15.8,6.6-18.1,18.4-18.1c-26.2-2.9-49.8-17.4-62.6-40.3c-8.1-14.5-11.3-33.9-1.2-47.1C429.9,258.4,452.7,258.3,470,249.8z"
			/>
		<path class="st1" d="M470,249.8c26.7-13.2,37.6-45.5,24.4-72.2c-4.2-8.6-10.7-15.9-18.7-21.2c-19.4-12.7-45.9-12.4-63.2-27.9
			c-29-26-14.1-78.2-39.6-107.7C357.6,3.1,331.2-1,308.3,4c-28.9,6.3-38.3,34.4-58.6,47.9c-18.7,12.5-32.6,10.3-54.1,4.5
			c-41.9-11.5-61.2-8-87.7,3.6c-6.7,3.3-13.2,7-19.5,11.1c-43.6,27.7-69.2,82.3-61,133.5c8.9,55.6,57,102.6,112.7,110.3
			c15.8,2.2,32.7,1.8,46.1,10.4c25.6,16.5,23.6,55.1,41.6,79.7c14.1,19.3,39.8,27.8,63.6,25.5s45.7-14.1,64.6-28.7
			c17.5-13.6,36-30.8,58.1-28.5c10.1,1.1,19.2,6.3,28.5,10.3c9.3,4.1,20,7.1,29.5,3.7c0,0-7.7-3-8.6-7.9
			c-2.9-15.8,6.6-18.1,18.4-18.1c-26.2-2.9-49.8-17.4-62.6-40.3c-8.1-14.5-11.3-33.9-1.2-47.1C429.9,258.4,452.7,258.3,470,249.8z"
			/>
		<path class="st0" d="M433,294.8c-1,4.3-0.4,8.8,1.5,12.8c1.9,3.9,4.9,7.1,8.7,9.3c15,8.6,29.3-4,30.6-18c0.3-3.7-0.6-7.5-2.4-10.7
			C462.1,271.5,437.1,276.2,433,294.8z"/>
		<path class="st1" d="M433,294.8c-1,4.3-0.4,8.8,1.5,12.8c1.9,3.9,4.9,7.1,8.7,9.3c15,8.6,29.3-4,30.6-18c0.3-3.7-0.6-7.5-2.4-10.7
			C462.1,271.5,437.1,276.2,433,294.8z"/>
		<path class="st0" d="M235.8,88.4c-0.1,0.2-0.3,0.3-0.4,0.5l-1.4,1.4l-5.4,5.2l-19.9,19.2l0.1-0.2c0.9,20.9,2.2,49.2,3.7,80.7v0.7
			l-0.6-0.4l-7.2-4.8l-45.6-30.6l-0.1-0.1V160c-6.8-20.3-12.5-37.5-16.6-49.6l-4.6-14.1c-0.5-1.6-0.9-2.8-1.2-3.7
			c-0.1-0.4-0.2-0.7-0.3-1c0-0.1-0.1-0.2-0.1-0.3l0.1,0.3l0.3,0.9c0.3,0.9,0.7,2.1,1.3,3.7c1.1,3.3,2.8,8,4.8,14
			c4.2,12.1,9.9,29.2,16.8,49.5l-0.1-0.2l45.6,30.5l7.2,4.8l-0.6,0.3c-1.4-31.5-2.6-59.8-3.5-80.6v-0.1l0.1-0.1l20.1-19l5.5-5.1
			l1.4-1.4C235.7,88.6,235.8,88.4,235.8,88.4z"/>
		<polygon class="st0" points="214.6,185.8 214.5,190.5 218.3,193.2 213.7,194.6 212.3,199 209.6,195.1 204.9,195.1 207.8,191.4 
			206.4,186.9 210.8,188.5 		"/>
		<polygon class="st0" points="159.7,153.8 159.8,156.9 162.3,158.5 159.5,159.5 158.7,162.5 156.8,160.1 153.8,160.3 155.5,157.7 
			154.4,154.9 157.3,155.7 		"/>
		<polygon class="st0" points="136,85.8 138.3,88.8 142,88.6 139.9,91.7 141.3,95.1 137.7,94.1 134.8,96.5 134.7,92.7 131.6,90.7 
			135.1,89.4 		"/>
		<polygon class="st0" points="233.5,82.9 235.8,85.8 239.6,85.6 237.5,88.7 238.8,92.2 235.2,91.1 232.4,93.5 232.2,89.8 
			229.1,87.8 232.6,86.5 		"/>
		<polygon class="st0" points="207.9,111.4 209.4,113.2 211.8,113.1 210.4,115.1 211.3,117.3 209,116.6 207.2,118.2 207.1,115.8 
			205.1,114.5 207.3,113.7 		"/>
		<path class="st0" d="M315.1,215.7c-0.1,0.3-0.1,0.6-0.2,0.9c-0.2,0.7-0.5,1.5-0.8,2.7l-3.2,9.7l-10.9,32.9l-0.2,0.5l-0.4-0.4
			l-5.2-4.8l-18.1-16.7h0.4l-17.9,13.7l-5.1,3.8l-1.4,1c-0.1,0.1-0.3,0.2-0.5,0.3c0.1-0.2,0.3-0.3,0.4-0.4l1.3-1.1l5-4l17.8-13.9
			l0.2-0.2l0.2,0.2l18.1,16.6l5.4,4.9l-0.6,0.2l11.1-32.8l3.4-9.7l0.9-2.6C314.9,216.2,315,215.9,315.1,215.7z"/>
		<polygon class="st0" points="298.4,256.3 300.2,258.3 302.9,258 301.5,260.4 302.6,262.9 299.9,262.2 297.9,264.1 297.7,261.3 
			295.3,260 297.8,258.9 		"/>
		<polygon class="st0" points="250.6,257.9 251.5,259 252.9,258.8 252.2,260 252.7,261.2 251.4,260.9 250.4,261.8 250.3,260.4 
			249.1,259.8 250.4,259.3 		"/>
		<polygon class="st0" points="314.8,214.8 315.7,215.9 317,215.7 316.3,216.9 316.9,218.1 315.6,217.8 314.6,218.7 314.4,217.4 
			313.3,216.7 314.5,216.2 		"/>
		<polygon class="st0" points="275.9,238.7 276.8,239.8 278.2,239.6 277.5,240.8 278,242 276.7,241.7 275.7,242.6 275.6,241.2 
			274.4,240.6 275.7,240 		"/>
		<path class="st0" d="M331.9,371.7c-0.1,0.2-0.1,0.5-0.3,0.7l-0.8,1.9c-0.8,1.7-1.8,4.2-3.1,7.3c-2.8,6.3-6.6,15.3-11.2,26v0.2
			h-0.2l-35.3,5.8l-11.8,1.9l-0.5,0.1l0.1-0.5l7.6-30.7l0.2,0.3l-20.7-9.3l-5.7-2.6l-1.5-0.7c-0.2-0.1-0.3-0.2-0.5-0.3
			c0.2,0,0.4,0.1,0.5,0.2l1.5,0.6l5.8,2.5l20.9,9.1l0.2,0.1v0.2c-2.2,8.9-4.8,19.4-7.6,30.7l-0.4-0.4l11.8-1.9l35.3-5.8l-0.2,0.2
			c4.7-10.6,8.7-19.6,11.5-25.9l3.3-7.3l0.9-1.9C331.6,372.1,331.7,371.9,331.9,371.7z"/>
		<polygon class="st0" points="273.2,411.5 272.3,414 273.8,416.2 271.1,416.1 269.5,418.3 268.7,415.6 266.2,414.7 268.5,413.2 
			268.5,410.5 270.6,412.2 		"/>
		<polygon class="st0" points="249,370.3 248.5,371.5 249.3,372.6 247.9,372.6 247.1,373.7 246.8,372.3 245.5,371.9 246.6,371.2 
			246.7,369.8 247.7,370.7 		"/>
		<polygon class="st0" points="317.5,406.1 317,407.4 317.8,408.5 316.4,408.4 315.6,409.5 315.2,408.2 314,407.7 315.1,407 
			315.1,405.6 316.2,406.5 		"/>
		<polygon class="st0" points="278,383.3 277.5,384.6 278.2,385.7 276.9,385.6 276.1,386.7 275.7,385.4 274.4,385 275.6,384.2 
			275.6,382.9 276.7,383.7 		"/>
		<polygon class="st0" points="333.5,370.5 333,371.7 333.8,372.8 332.4,372.8 331.6,373.8 331.3,372.6 330,372.1 331.1,371.4 
			331.2,370 332.2,370.9 		"/>
		<circle class="st0" cx="304.5" cy="86.9" r="14.7"/>
		<circle class="st0" cx="88.6" cy="251.3" r="46.8"/>
		<g class="st2">
			<path class="st3" d="M82.5,265.9c0,4.2-3.4,7.6-7.6,7.6c-4.2,0-7.6-3.4-7.6-7.6c0-4.2,3.4-7.6,7.6-7.6
				C79,258.3,82.5,261.7,82.5,265.9L82.5,265.9z"/>
		</g>
		<g class="st2">
			<path class="st3" d="M71.6,243.9c0,2.4-2,4.4-4.4,4.4c-2.4,0-4.4-2-4.4-4.4c0-2.4,2-4.4,4.4-4.4
				C69.7,239.4,71.6,241.4,71.6,243.9C71.6,243.9,71.6,243.9,71.6,243.9z"/>
		</g>
		<path class="st0" d="M43.2,262.7c0.2,0.8-40,39.4-29.7,47.7c10.4,8.2,54-12.9,91.2-42.9s71.2-66.5,61.9-76.2
			c-9.3-9.7-55.8,18.9-55.8,18.9l5.6,3.5c0,0,28.1-18.1,37-11c8.9,7-16.4,34.4-52.2,60.5c-35.8,26.1-70.3,44.5-75.7,37.3
			c-5.4-7.2,20-31,20-31L43.2,262.7z"/>
		<g class="st2">
			<path d="M43.2,262.7c0.2,0.8-40,39.4-29.7,47.7c10.4,8.2,54-12.9,91.2-42.9s71.2-66.5,61.9-76.2c-9.3-9.7-55.8,18.9-55.8,18.9
				l5.6,3.5c0,0,28.1-18.1,37-11c8.9,7-16.4,34.4-52.2,60.5c-35.8,26.1-70.3,44.5-75.7,37.3c-5.4-7.2,20-31,20-31L43.2,262.7z"/>
		</g>
		<g class="st2">
			<path class="st3" d="M62.8,218.4c0.4,0.4-2.8,3.1-6.4,8.5c-9.7,14.2-10.1,32.7-0.9,47.3c3.4,5.6,6.4,8.3,6,8.8
				c-0.4,0.5-4-1.8-8.2-7.4c-2.4-3.2-4.3-6.8-5.7-10.6c-3.4-9.5-3.2-19.9,0.6-29.2c1.5-3.8,3.6-7.3,6.1-10.4
				C58.7,220,62.5,218,62.8,218.4z"/>
		</g>
		<path class="st0" d="M132,352.7l0.6,1.1c0.7,1.3,1.7,2.3,3,3l1.1,0.6l-1.1,0.6c-1.3,0.7-2.3,1.7-3,3l-0.6,1.1l-0.6-1.1
			c-0.7-1.2-1.7-2.3-3-3l-1.1-0.6l1.1-0.6c1.3-0.7,2.3-1.7,3-3L132,352.7z"/>
		<path class="st0" d="M333.3,35.7l0.5,0.9c0.6,1,1.4,1.8,2.4,2.4l0.9,0.5l-0.9,0.5c-1,0.6-1.8,1.4-2.4,2.4l-0.5,0.9l-0.5-0.9
			c-0.6-1-1.4-1.9-2.4-2.4l-0.9-0.5l0.9-0.5c1-0.6,1.9-1.4,2.4-2.4L333.3,35.7z"/>
		<path class="st0" d="M88.3,141.9l1,1.7c1.1,1.9,2.8,3.4,4.7,4.4l1.7,0.9l-1.7,1c-1.9,1.1-3.4,2.8-4.4,4.7l-0.9,1.8l-1-1.7
			c-1.1-1.9-2.7-3.4-4.7-4.4l-1.8-0.9l1.7-1c1.9-1.1,3.4-2.8,4.4-4.7L88.3,141.9z"/>
		<path class="st0" d="M322.4,172.9l1,1.7c1.1,1.9,2.8,3.4,4.7,4.4l1.8,0.9l-1.7,1c-1.9,1.1-3.4,2.8-4.4,4.7l-0.9,1.8l-1-1.7
			c-1.1-1.9-2.8-3.4-4.7-4.4l-1.7-0.9l1.7-1c1.9-1.1,3.4-2.8,4.3-4.7L322.4,172.9z"/>
		<path class="st0" d="M397,342.9l1,2.5c1.1,1.9,2.8,3.4,4.7,4.4l1.7,0.9l-1.7,1c-1.9,1.1-3.4,2.8-4.4,4.7l-0.9,2.4l-1-2.3
			c-1.1-1.9-2.8-3.4-4.7-4.4l-1.7-0.9l1.7-1c1.9-1.1,3.4-2.8,4.4-4.7L397,342.9z"/>
		<path class="st0" d="M378.3,318l0.4,1.1c0.5,0.8,1.2,1.5,2.1,1.9l0.8,0.4l-0.7,0.4c-0.8,0.5-1.5,1.2-1.9,2.1l-0.4,1l-0.4-1
			c-0.5-0.8-1.2-1.5-2.1-1.9l-0.8-0.4l0.7-0.4c0.8-0.5,1.5-1.2,1.9-2.1L378.3,318z"/>
		<path class="st0" d="M206,281.8l1,0.4c1.1,0.4,2.3,0.6,3.4,0.3l1-0.2l-0.4,1c-0.4,1.1-0.6,2.3-0.3,3.4l0.2,1l-1-0.4
			c-1.1-0.4-2.3-0.5-3.4-0.3l-1,0.2l0.4-1c0.4-1.1,0.5-2.3,0.3-3.4L206,281.8z"/>
		<path class="st0" d="M474.1,216.2l0.5,0.2c0.5,0.2,1.1,0.3,1.7,0.2l0.5-0.1l-0.2,0.5c-0.2,0.5-0.3,1.1-0.2,1.7l0.1,0.5L476,219
			c-0.5-0.2-1.1-0.3-1.7-0.2l-0.5,0.2l0.2-0.5c0.2-0.5,0.3-1.1,0.2-1.7L474.1,216.2z"/>
		<path class="st0" d="M295.1,354.1l0.5,0.2c0.5,0.2,1.1,0.3,1.7,0.2l0.5-0.1l-0.2,0.5c-0.2,0.5-0.3,1.1-0.2,1.7l0.1,0.5l-0.5-0.2
			c-0.5-0.2-1.1-0.3-1.7-0.2l-0.5,0.1l0.2-0.5c0.2-0.5,0.3-1.1,0.2-1.7L295.1,354.1z"/>
		<path class="st0" d="M147.2,265.2l0.5,0.2c0.5,0.2,1.1,0.3,1.7,0.2l0.5-0.1l-0.2,0.5c-0.2,0.5-0.3,1.1-0.2,1.7l0.1,0.5l-0.5-0.2
			c-0.5-0.2-1.1-0.3-1.7-0.2l-0.5,0.1l0.2-0.5c0.2-0.5,0.3-1.1,0.2-1.7L147.2,265.2z"/>
		<path class="st0" d="M181,385.7l0.6,0.2c0.7,0.3,1.4,0.3,2.1,0.2l0.6-0.1l-0.2,0.6c-0.3,0.7-0.3,1.4-0.2,2.1l0.1,0.6l-0.6-0.2
			c-0.7-0.3-1.4-0.3-2.1-0.2l-0.6,0.1l0.3-0.6c0.3-0.7,0.3-1.4,0.2-2.1L181,385.7z"/>
		<path class="st0" d="M263.5,162.2l0.5,0.2c0.5,0.2,1.1,0.3,1.7,0.2l0.5-0.1L266,163c-0.2,0.5-0.3,1.1-0.2,1.7l0.1,0.5l-0.5-0.2
			c-0.5-0.2-1.1-0.3-1.7-0.2l-0.5,0.1l0.2-0.5c0.2-0.5,0.3-1.1,0.2-1.7L263.5,162.2z"/>
		<path class="st0" d="M360.7,59.6l0.5,0.2c0.5,0.2,1.1,0.3,1.7,0.2l0.5-0.1l-0.2,0.5c-0.2,0.5-0.3,1.1-0.2,1.7l0.1,0.5l-0.5-0.2
			c-0.5-0.2-1.1-0.3-1.7-0.2l-0.5,0.1l0.2-0.5c0.2-0.5,0.3-1.1,0.2-1.7L360.7,59.6z"/>
		<path class="st0" d="M65.3,108.6l0.5,0.2c0.5,0.2,1.1,0.3,1.7,0.2l0.5-0.1l-0.2,0.5c-0.2,0.5-0.3,1.1-0.2,1.7l0.1,0.5l-0.5-0.2
			c-0.5-0.2-1.1-0.3-1.7-0.2l-0.5,0.1l0.2-0.5c0.2-0.5,0.3-1.1,0.2-1.7L65.3,108.6z"/>
		<path class="st0" d="M319.3,289.6l0.5,0.2c0.5,0.2,1.1,0.3,1.7,0.2l0.5-0.1l-0.2,0.5c-0.2,0.5-0.3,1.1-0.2,1.7l0.1,0.5l-0.5-0.2
			c-0.5-0.2-1.1-0.3-1.7-0.2l-0.5,0.1l0.2-0.5c0.2-0.5,0.3-1.1,0.2-1.7L319.3,289.6z"/>
		
			<ellipse transform="matrix(0.9997 -2.338526e-02 2.338526e-02 0.9997 -4.5457 9.3462)" class="st0" cx="397.3" cy="199" rx="35.1" ry="35.1"/>
		<g class="st4">
			<path d="M408.8,185.6c0.1-3.2,2.7-5.7,5.9-5.6c3.2,0.1,5.7,2.7,5.6,5.9c-0.1,3.2-2.7,5.7-5.9,5.6c0,0,0,0,0,0
				C411.2,191.4,408.7,188.8,408.8,185.6z"/>
		</g>
		<g class="st4">
			<path d="M420.2,199c0-1.8,1.6-3.3,3.4-3.2c1.8,0,3.3,1.6,3.2,3.4c0,1.8-1.6,3.3-3.4,3.2C421.6,202.3,420.2,200.8,420.2,199
				C420.2,199,420.2,199,420.2,199z"/>
		</g>
		<g class="st4">
			<path d="M415.7,209.2c0.7,0,1.2,0.6,1.2,1.3c0,0.7-0.6,1.2-1.3,1.2c-0.7,0-1.2-0.6-1.2-1.2C414.5,209.8,415,209.2,415.7,209.2
				C415.7,209.2,415.7,209.2,415.7,209.2z"/>
		</g>
		<path class="st3" d="M341.2,124h87c0,0-7.7-14-30.1-12c-21.4,1.9-22.5-7-33.4-8C353.9,103.1,344.9,111.3,341.2,124z"/>
		<path class="st3" d="M228.8,337.5h109.2c0,0-9.7-17.6-37.8-15c-26.9,2.4-28.2-8.6-41.9-10S233.3,321.6,228.8,337.5z"/>
		<path class="st3" d="M330.8,279.4h50.9c0,0-4.5-8.2-17.6-7c-12.5,1.1-13.1-4-19.5-4.7C338.3,267.1,332.9,272,330.8,279.4z"/>
	</g>
</g>
<g id="Capa_1">
	<g id="freepik--Floor--inject-1--inject-25">
		<path class="st5" d="M97.8,419.9c84.1,43.9,220.4,43.9,304.5,0s84.1-115.1,0-159.1s-220.4-43.9-304.5,0S13.7,376,97.8,419.9z"/>
	</g>
	<g id="freepik--Shadows--inject-1--inject-25">
		<path class="st6" d="M204,381.8c22.7,10.8,59.4,10.8,82,0s22.7-28.3,0-39.1s-59.4-10.8-82,0S181.3,371,204,381.8z"/>
		<path class="st6" d="M400.2,355.1l-81,46.8c-1.4,0.7-3,0.7-4.3,0l-101.3-58.5c-0.7-0.2-1.1-1-0.8-1.7c0.1-0.4,0.4-0.7,0.8-0.8
			l81-46.8c1.4-0.7,3-0.7,4.3,0l101.3,58.5c0.7,0.2,1,1,0.8,1.7C400.9,354.6,400.6,354.9,400.2,355.1z"/>
	</g>
	<g id="freepik--Pencil--inject-1--inject-25">
		<path class="st5" d="M422.7,98.1v21.5c0,0-8.8,4.1-25,4.1s-25-4.1-25-4.1v-21l16.9-47.8c-0.2,1.5,0.6,3,2.6,4.2
			c2.9,1.8,6.6,2,9.7,0.6c0.4-0.2,0.9-0.4,1.3-0.6c2.1-1.2,3-2.9,2.6-4.5L422.7,98.1z"/>
		<path class="st7" d="M422.7,98.1v21.5c0,0-8.8,4.1-25,4.1s-25-4.1-25-4.1v-21l16.9-47.8c-0.2,1.5,0.6,3,2.6,4.2
			c2.9,1.8,6.6,2,9.7,0.6c0.4-0.2,0.9-0.4,1.3-0.6c2.1-1.2,3-2.9,2.6-4.5L422.7,98.1z"/>
		<path class="st5" d="M420.8,248.6c-1.4,1.9-3.3,3.5-5.4,4.6c-9.8,5.7-25.6,5.7-35.4,0c-2.1-1.1-3.9-2.7-5.4-4.6
			c-1.1-1.5-1.8-3.3-1.9-5.2v11.1c0.2,3.6,2.6,7.1,7.3,9.8c9.8,5.6,25.6,5.6,35.4,0c4.9-2.8,7.3-6.5,7.3-10.2V243
			C422.7,245,422,247,420.8,248.6z"/>
		<path class="st8" d="M420.8,237.4c-1.4,1.9-3.3,3.5-5.4,4.6c-0.6,0.3-1.2,0.6-1.8,0.9c-9.2,4.4-22.6,4.4-31.8,0
			c-0.6-0.3-1.2-0.6-1.8-0.9c-2.1-1.1-3.9-2.7-5.4-4.6c-1.1-1.5-1.8-3.3-1.9-5.2v11.1c0.1,1.9,0.8,3.7,1.9,5.2
			c1.5,1.9,3.3,3.5,5.4,4.6c9.8,5.6,25.6,5.6,35.4,0c2.1-1.1,3.9-2.7,5.4-4.6c1.2-1.6,1.9-3.6,1.9-5.6v-11.1
			C422.7,233.9,422,235.8,420.8,237.4z"/>
		<path class="st5" d="M420.8,226.3c-1.5,1.9-3.3,3.5-5.4,4.6c-0.6,0.3-1.2,0.6-1.8,0.9c-9.2,4.4-22.6,4.4-31.8,0
			c-0.6-0.3-1.2-0.6-1.8-0.9c-2.1-1.2-3.9-2.7-5.4-4.6c-1.1-1.5-1.8-3.3-1.9-5.2v11.1c0.1,1.9,0.8,3.7,1.9,5.2
			c1.5,1.9,3.3,3.5,5.4,4.6c0.6,0.3,1.2,0.6,1.8,0.9c9.2,4.4,22.6,4.4,31.8,0c0.6-0.3,1.2-0.6,1.8-0.9c2.1-1.1,3.9-2.7,5.4-4.6
			c1.2-1.6,1.9-3.6,1.9-5.6v-11.1C422.7,222.7,422,224.7,420.8,226.3z"/>
		<path class="st5" d="M372.6,98.5v122.6c0.1,1.9,0.8,3.7,1.9,5.2c1.5,1.9,3.3,3.5,5.4,4.6c0.6,0.3,1.2,0.6,1.8,0.9
			c2.4,1.1,5,2,7.6,2.5l-4.5-129.2L372.6,98.5z"/>
		<path class="st5" d="M410.5,105.1L406,234.3c2.6-0.5,5.2-1.3,7.6-2.5c0.6-0.3,1.2-0.6,1.8-0.9c2.1-1.2,3.9-2.7,5.4-4.6
			c1.2-1.6,1.9-3.6,1.9-5.6V98.1L410.5,105.1z"/>
		<path class="st8" d="M372.6,98.5v122.6c0.1,1.9,0.8,3.7,1.9,5.2c1.5,1.9,3.3,3.5,5.4,4.6c0.6,0.3,1.2,0.6,1.8,0.9
			c2.4,1.1,5,2,7.6,2.5l-4.5-129.2L372.6,98.5z"/>
		<path class="st8" d="M410.5,105.1L406,234.3c2.6-0.5,5.2-1.3,7.6-2.5c0.6-0.3,1.2-0.6,1.8-0.9c2.1-1.2,3.9-2.7,5.4-4.6
			c1.2-1.6,1.9-3.6,1.9-5.6V98.1L410.5,105.1z"/>
		<path class="st6" d="M384.8,105.1v128c1.5,0.5,3,0.9,4.5,1.2c2.7,0.6,5.5,0.8,8.3,0.8l0,0c2.8,0,5.6-0.3,8.3-0.8
			c1.5-0.3,3-0.7,4.5-1.2v-128H384.8z"/>
		<path class="st8" d="M403.2,54.9c-0.4,0.2-0.8,0.4-1.3,0.6c-3.1,1.4-6.8,1.2-9.7-0.6c-2-1.1-2.9-2.7-2.6-4.2l5.8-16.1
			c0.4-1,1.3-1.6,2.4-1.6l0,0c1,0,2,0.6,2.4,1.6l5.7,15.8l0,0C406.1,52,405.3,53.7,403.2,54.9z"/>
		<path class="st8" d="M415.4,264.4c-8.4,4.9-21.3,5.5-30.9,2c-0.5-0.2-1.1-0.4-1.6-0.6l-0.7-0.3c-0.8-0.3-1.5-0.7-2.1-1.1
			c-4.7-2.7-7.1-6.3-7.3-9.8v30.4c-0.2,3.8,2.3,7.7,7.3,10.6c0.6,0.4,1.2,0.7,1.9,1c0.2,0.1,0.5,0.2,0.7,0.3
			c0.4,0.2,0.8,0.4,1.3,0.5s0.7,0.2,1,0.4s0.7,0.3,1.1,0.4s0.8,0.2,1.2,0.3s0.6,0.2,1,0.3s1,0.2,1.4,0.3c0.3,0,0.5,0.1,0.8,0.2
			c0.5,0.1,1.1,0.2,1.6,0.3l0.6,0.1c0.6,0.1,1.2,0.1,1.8,0.2h0.5c0.7,0,1.3,0.1,2,0.1h0.3c0.7,0,1.4,0,2.2,0h0.2
			c0.8,0,1.5-0.1,2.3-0.2l0,0c4.5-0.4,8.8-1.6,12.8-3.7l0,0c0.2-0.1,0.5-0.2,0.7-0.4c4.9-2.8,7.3-6.5,7.3-10.2v-31.2
			C422.7,257.8,420.3,261.5,415.4,264.4z"/>
	</g>
	<g id="freepik--Backpack--inject-1--inject-25">
		<path class="st9" d="M113.5,282.1c-2.9-0.7-18.3-9.5-19.9-10.6s-4.7-3.3-4.7-7.1c0-3.4,0.3-35.1,3.1-50.5
			c1.8-9.7,7.6-18.1,15.8-23.4c9.6-5.9,19.3-10.3,27.4-6.9s15.6,9.6,18.8,17.1s5.4,22.5,5.6,28.3s0,25.7,0,27.5s-0.3,4.1-9.9,10
			s-22.7,13-26.8,14.8C120,282.6,116.7,282.9,113.5,282.1z"/>
		<path class="st10" d="M111.1,194.6c-0.9,0.5-3.4-0.8-3.8-1.4s-0.5-6.1,1.4-9.1s13.8-8.6,16.7-8.1c2.2,0.4,4.2,1.6,5.4,3.5
			c0.4,0.8,0.8,5.8,0,6.9s-3.5-0.6-3.7-1s0.9-4.1-1-4.9c-1.7-0.7-10,2.8-13.4,5.6c-1.5,1.2-1.4,4.3-1.3,5.8S111.5,194.4,111.1,194.6
			z"/>
		<path class="st10" d="M108.7,230.4c1.7-16.5,4.8-26.1,20.9-33.3s22.4-1.1,24.7,4.4c3,7.7,5.1,21.9,5.3,27.5c0.2,5.8,0,25.7,0,27.5
			s-0.3,4.1-9.9,10s-22.7,13-26.8,14.8c-3,1.2-6.4,1.5-9.5,0.7c-0.6-0.2-1.3-0.4-1.9-0.7C106.6,274.9,107.2,245.5,108.7,230.4z"/>
		<path class="st11" d="M146.4,190.6c-4.2-2.5-11.1-4.1-21.3,0.4c-18.2,8.1-22.8,18.2-24.6,36c-0.3,3.3-0.8,7.1-1,11.3l-1.5-0.9
			c0.2-4.5,0.7-8.4,1-11.8c2-17.9,7.4-27.8,24.7-35.5c9.6-4.3,15.9-3.7,20.1-1.6C144.7,189.2,145.5,189.9,146.4,190.6z"/>
		<path class="st10" d="M147,191.1c-4.2-2.5-11.1-4.1-21.3,0.4c-18.2,8.1-22.8,18.2-24.6,36c-0.3,3.3-0.8,7.1-1,11.3l-1.5-0.9
			c0.2-4.5,0.7-8.4,1-11.8c2-17.9,7.4-27.8,24.7-35.5c9.6-4.3,16.1-3.6,20.3-1.5C145.4,189.7,146.2,190.4,147,191.1z"/>
		<path class="st11" d="M141.1,206.8l-5.5-3.1c-0.6-0.3-1.3-0.1-1.6,0.4l-5.6,9.8c-0.3,0.6-0.1,1.3,0.4,1.6l5.4,3.2
			c0.6,0.3,1.3,0.1,1.6-0.4l5.7-9.9C141.9,207.8,141.7,207.1,141.1,206.8C141.1,206.8,141.1,206.8,141.1,206.8z"/>
		<path class="st10" d="M135.2,217.5l5.4-9.3c0.2-0.3,0.1-0.6-0.2-0.8c0,0,0,0,0,0l-5-2.8c-0.3-0.2-0.6-0.1-0.8,0.2l-5.4,9.3
			c-0.2,0.3-0.1,0.6,0.2,0.8l4.9,2.9C134.7,217.9,135,217.8,135.2,217.5C135.2,217.5,135.2,217.5,135.2,217.5z"/>
		<path class="st9" d="M136.4,213.1L136.4,213.1c0.3-0.2,0.5-0.5,0.5-0.8v-4.5c0-0.3-0.2-0.4-0.5-0.2l0,0c-0.3,0.2-0.5,0.5-0.5,0.8
			v4.5C135.9,213.1,136.1,213.2,136.4,213.1z"/>
		<path class="st9" d="M133.5,214.8L133.5,214.8c0.3-0.2,0.5-0.5,0.5-0.8v-4.5c0-0.3-0.2-0.4-0.5-0.2l0,0c-0.3,0.2-0.5,0.5-0.5,0.8
			v4.5C133,214.8,133.2,214.9,133.5,214.8z"/>
		<path class="st11" d="M116.2,244.4c0,0,2.7,2.2,4.7,10.7c2,8.4,3.1,19.1,1,20.4s-5.2-1.4-6-2.3
			C114.3,271.2,114.7,251.1,116.2,244.4z"/>
		<path class="st9" d="M116.2,244.4c0,0,2.7,2.2,4.7,10.7c2,8.4,3.1,19.1,1,20.4l33-19.5c2.2-1.3,2.7-12.4,0.7-20.9
			c-1.3-5.6-3.7-8.2-5.1-9.4c-0.7-0.5-1.6-0.6-2.4-0.1L116.2,244.4"/>
		<path class="st11" d="M149.8,227c1.6,0.8,4.3,2.9,5.5,8.6c0.4,1.6-0.1,3.3-1.4,4.3c-1.1,0.8-24.7,14.2-27.8,16.1
			c-2.7,1.6-4.1-0.5-4.7-1.9l0,0c-1-2.4-1.9-4.2-2.6-5.6c-0.6-1.5-1.4-3-2.6-4.1l31.5-17.3C148.3,226.7,149.1,226.7,149.8,227z"/>
		<path class="st11" d="M100.5,239.8c0.5,1.7,0.8,3.5,0.9,5.3c0,0.4-0.5,0.6-0.6,0.6c-1.1-0.2-2.2-0.8-3.1-1.6
			c0.2-1.5,0.4-3,0.8-4.5L100.5,239.8z"/>
		<path class="st11" d="M101.5,238.4c0-1.1-0.9-1.9-1.9-1.9c-1.1,0-1.9,0.9-1.9,1.9c0,1.1,0.9,1.9,1.9,1.9S101.5,239.4,101.5,238.4
			L101.5,238.4z"/>
		<path class="st11" d="M125.4,180.4c2.1-0.2,4.1,0,4.6,2.1s0.3,4,0,4.3c-1.1-0.1-2-0.6-2.8-1.3c-0.2-0.4,0.9-4.1-1-4.9
			C125.9,180.4,125.7,180.4,125.4,180.4L125.4,180.4z"/>
		<path class="st9" d="M148.3,225.4c0.7-0.4,1.5-0.4,2.1-0.1c1.6,0.8,4.3,2.9,5.5,8.6c0.4,1.6-0.1,3.3-1.4,4.3
			c-1.1,0.8-24.7,14.2-27.8,16.1c-2.7,1.6-4.1-0.5-4.7-1.9l0,0c-3.3-6.8-5.9-8.2-5.9-8.2L148.3,225.4z"/>
	</g>
	<g id="freepik--game-console--inject-1--inject-25">
		<path class="st12" d="M142.7,341.8l-26.5-15.3c-1.4-0.9-2.3-2.4-2.4-4.1v0.3c0.1-1.7,1-3.2,2.4-4.1l53.3-30.7
			c1.5-0.8,3.3-0.8,4.8,0l26.5,15.3c1.4,0.9,2.3,2.4,2.4,4.1v-0.3c-0.1,1.7-1,3.2-2.4,4.1l-53.3,30.7
			C145.9,342.6,144.2,342.6,142.7,341.8z"/>
		<path class="st13" d="M142.7,341.8l-26.5-15.3c-1.4-0.9-2.3-2.4-2.4-4.1v0.3c0.1-1.7,1-3.2,2.4-4.1l53.3-30.7
			c1.5-0.8,3.3-0.8,4.8,0l26.5,15.3c1.4,0.9,2.3,2.4,2.4,4.1v-0.3c-0.1,1.7-1,3.2-2.4,4.1l-53.3,30.7
			C145.9,342.6,144.2,342.6,142.7,341.8z"/>
		<path class="st12" d="M145,301.9l-28.8,16.7c-1.4,0.9-2.3,2.4-2.4,4.1v-0.3c0.1,1.7,1,3.2,2.4,4.1l26.5,15.3
			c0.7,0.4,1.6,0.6,2.4,0.6L145,301.9z"/>
		<path class="st13" d="M145,301.9l-28.8,16.7c-1.4,0.9-2.3,2.4-2.4,4.1v-0.3c0.1,1.7,1,3.2,2.4,4.1l26.5,15.3
			c0.7,0.4,1.6,0.6,2.4,0.6L145,301.9z"/>
		<path class="st12" d="M116.2,321.3l26.5,15.3c1.5,0.7,3.3,0.7,4.8,0l53.3-30.8c1.3-0.8,1.3-2,0-2.7l-26.5-15.3
			c-1.5-0.8-3.3-0.8-4.8,0l-53.3,30.7C114.9,319.3,114.9,320.6,116.2,321.3z"/>
		<path class="st14" d="M116.2,321.3l26.5,15.3c1.5,0.7,3.3,0.7,4.8,0l53.3-30.8c1.3-0.8,1.3-2,0-2.7l-26.5-15.3
			c-1.5-0.8-3.3-0.8-4.8,0l-53.3,30.7C114.9,319.3,114.9,320.6,116.2,321.3z"/>
		<path class="st12" d="M116.2,316.3v2.5l27.5,15.9c0.9,0.5,1.9,0.5,2.8,0l54.3-31.3v-2.6l-55.6,27L116.2,316.3z"/>
		<path class="st12" d="M142.7,331.6l-26.5-15.3c-1.4-0.9-2.3-2.4-2.4-4.1v-4.9c0.1-1.7,1-3.2,2.4-4.1l53.3-30.8
			c1.5-0.8,3.3-0.8,4.8,0l26.5,15.3c1.4,0.9,2.3,2.4,2.4,4.1v4.9c-0.1,1.6-1,3.1-2.4,4l-53.3,30.8
			C145.9,332.3,144.2,332.3,142.7,331.6z"/>
		<path class="st15" d="M142.7,331.6l-26.5-15.3c-1.4-0.9-2.3-2.4-2.4-4.1v-4.9c0.1-1.7,1-3.2,2.4-4.1l53.3-30.8
			c1.5-0.8,3.3-0.8,4.8,0l26.5,15.3c1.4,0.9,2.3,2.4,2.4,4.1v4.9c-0.1,1.6-1,3.1-2.4,4l-53.3,30.8
			C145.9,332.3,144.2,332.3,142.7,331.6z"/>
		<path class="st12" d="M145,286.5l-28.8,16.7c-1.4,0.9-2.3,2.4-2.4,4.1v4.9c0.1,1.7,1,3.2,2.4,4.1l26.5,15.3
			c0.7,0.4,1.5,0.6,2.4,0.6V286.5z"/>
		<path class="st13" d="M145,286.5l-28.8,16.7c-1.4,0.9-2.3,2.4-2.4,4.1v4.9c0.1,1.7,1,3.2,2.4,4.1l26.5,15.3
			c0.7,0.4,1.5,0.6,2.4,0.6V286.5z"/>
		<path class="st12" d="M116.2,305.9l26.5,15.3c1.5,0.8,3.3,0.8,4.8,0l53.3-30.7c1.3-0.8,1.3-2,0-2.8l-26.5-15.3
			c-1.5-0.8-3.3-0.8-4.8,0l-53.3,30.8C114.9,303.9,114.9,305.1,116.2,305.9z"/>
		<path class="st14" d="M116.2,305.9l26.5,15.3c1.5,0.8,3.3,0.8,4.8,0l53.3-30.7c1.3-0.8,1.3-2,0-2.8l-26.5-15.3
			c-1.5-0.8-3.3-0.8-4.8,0l-53.3,30.8C114.9,303.9,114.9,305.1,116.2,305.9z"/>
		<path class="st12" d="M153.1,293.8c-2.9,1.7-2.9,4.4,0,6.1c3.3,1.7,7.3,1.7,10.6,0c2.9-1.7,2.9-4.4,0-6.1
			C160.4,292.1,156.4,292.1,153.1,293.8z"/>
		<path class="st12" d="M196.4,295.5c-0.6,0.4-0.9,1-0.9,1.6c0,0.6,0.4,0.9,0.9,0.6c0.6-0.4,0.9-1,0.9-1.6
			C197.3,295.5,196.9,295.3,196.4,295.5z"/>
		<path class="st12" d="M196.4,299.1c-0.6,0.4-0.9,1-0.9,1.6c0,0.6,0.4,0.9,0.9,0.6c0.6-0.4,0.9-1,0.9-1.6
			C197.3,299.1,196.9,298.8,196.4,299.1z"/>
		<path class="st12" d="M131.6,362c-0.1,0-0.2,0-0.4-0.1L105.6,347c-2.1-1.2-2.8-3.9-1.6-6c0.4-0.7,0.9-1.2,1.6-1.6l18.8-10.9
			c0.3-0.2,0.8,0,0.9,0.3c0.2,0.3,0.1,0.7-0.2,0.9l-18.8,10.8c-1.4,0.8-1.9,2.7-1,4.1c0.3,0.4,0.6,0.8,1,1l25.7,14.9
			c0.3,0.2,0.5,0.6,0.3,0.9c0,0,0,0,0,0.1C132.1,361.9,131.8,362,131.6,362z"/>
		<path class="st12" d="M163.7,347.6l-5.6-22.3c-0.1-0.3-0.2-0.6-0.3-0.9l1.6-0.2l-3.5-2l0,0c-1.5-0.8-3.3-0.7-4.8,0.2L128,335.8
			c-3.2,2.1-5.2,5.6-5.4,9.5v26.8c0,2.1,0.5,3.6,1.6,4.1l0,0l3.3,1.9l-0.8-2.1l0.2-0.1c3.8-1.8,5.2-5.1,6.3-8.4l4.4-12.8
			c1.1-3.3,4-7.1,6.3-8.4s5.7,0,7.4,3l2.2,3.9c0.7,1.2,1.7,2.2,2.9,2.9l0,0l3.4,2l-0.9-1.3c0.7,0,1.4-0.2,2-0.5
			C163.3,354.8,164.6,351,163.7,347.6z"/>
		<path class="st13" d="M163.7,347.6l-5.6-22.3c-0.1-0.3-0.2-0.6-0.3-0.9l1.6-0.2l-3.5-2l0,0c-1.5-0.8-3.3-0.7-4.8,0.2L128,335.8
			c-3.2,2.1-5.2,5.6-5.4,9.5v26.8c0,2.1,0.5,3.6,1.6,4.1l0,0l3.3,1.9l-0.8-2.1l0.2-0.1c3.8-1.8,5.2-5.1,6.3-8.4l4.4-12.8
			c1.1-3.3,4-7.1,6.3-8.4s5.7,0,7.4,3l2.2,3.9c0.7,1.2,1.7,2.2,2.9,2.9l0,0l3.4,2l-0.9-1.3c0.7,0,1.4-0.2,2-0.5
			C163.3,354.8,164.6,351,163.7,347.6z"/>
		<path class="st12" d="M157.8,324.4l1.6-0.2l-3.5-2l0,0c-1.5-0.8-3.3-0.7-4.8,0.2L128,335.8c-1.3,0.8-2.4,1.9-3.2,3.1l5.5,3.4
			l28.2-15.9l-0.3-1.1C158.1,325,158,324.7,157.8,324.4z"/>
		<path class="st14" d="M157.8,324.4l1.6-0.2l-3.5-2l0,0c-1.5-0.8-3.3-0.7-4.8,0.2L128,335.8c-1.3,0.8-2.4,1.9-3.2,3.1l5.5,3.4
			l28.2-15.9l-0.3-1.1C158.1,325,158,324.7,157.8,324.4z"/>
		<path class="st12" d="M164.5,358.3c-2.4,1.4-5.7,0-7.4-3l-2.2-3.9c-1.7-3-5-4.4-7.4-3s-5.2,5.1-6.3,8.4l-4.4,12.7
			c-1.1,3.3-2.5,6.6-6.3,8.4c-2.9,1.4-4.3-0.4-4.3-3.8v-26.9c0.2-3.8,2.2-7.4,5.5-9.5l23.2-13.5c2-1.4,4.8-0.9,6.2,1.1
			c0.4,0.6,0.7,1.2,0.8,1.9l5.6,22.3C168.2,353.1,166.9,356.9,164.5,358.3z"/>
		<path class="st15" d="M164.5,358.3c-2.4,1.4-5.7,0-7.4-3l-2.2-3.9c-1.7-3-5-4.4-7.4-3s-5.2,5.1-6.3,8.4l-4.4,12.7
			c-1.1,3.3-2.5,6.6-6.3,8.4c-2.9,1.4-4.3-0.4-4.3-3.8v-26.9c0.2-3.8,2.2-7.4,5.5-9.5l23.2-13.5c2-1.4,4.8-0.9,6.2,1.1
			c0.4,0.6,0.7,1.2,0.8,1.9l5.6,22.3C168.2,353.1,166.9,356.9,164.5,358.3z"/>
		<polygon class="st11" points="155.5,332.1 156.1,335.4 158.7,333.8 159.3,337.1 156.7,338.7 157.3,342 154.7,343.6 154.1,340.4 
			151.6,342 151,338.7 153.6,337.1 153,333.8 		"/>
		<polygon class="st12" points="156.3,332.5 156.9,335.8 159.4,334.2 160,337.5 157.4,339.1 158,342.4 155.5,344 154.9,340.8 
			152.3,342.4 151.7,339.1 154.3,337.5 153.7,334.2 		"/>
		<path class="st11" d="M136.1,343.8c0.1,0.9-0.2,1.9-1,2.5c-0.7,0.5-1.4,0.1-1.6-0.8c-0.1-0.9,0.2-1.9,1-2.5
			C135.3,342.5,136,342.9,136.1,343.8z"/>
		<path class="st11" d="M137.3,350.4c0.1,0.9-0.2,1.9-1,2.5c-0.7,0.5-1.4,0.1-1.6-0.8c-0.1-0.9,0.2-1.9,1-2.5
			C136.4,349.1,137.1,349.5,137.3,350.4z"/>
		<path class="st11" d="M139.3,345.4c0.1,0.9-0.2,1.9-1,2.5c-0.7,0.5-1.4,0.1-1.6-0.8c-0.1-0.9,0.2-1.9,1-2.5
			C138.4,344.1,139.1,344.5,139.3,345.4z"/>
		<path class="st11" d="M134.2,348.7c0.1,0.9-0.2,1.9-1,2.5c-0.7,0.5-1.4,0.1-1.6-0.8c-0.1-0.9,0.2-1.9,1-2.5
			C133.3,347.4,134,347.8,134.2,348.7z"/>
		<path class="st11" d="M136.2,343.8c0.1,0.9-0.2,1.9-1,2.5c-0.7,0.5-1.4,0.1-1.6-0.8c-0.1-0.9,0.2-1.9,1-2.5
			C135.3,342.5,136,342.9,136.2,343.8z"/>
		<path class="st11" d="M137.4,350.4c0.1,0.9-0.2,1.9-1,2.5c-0.7,0.5-1.4,0.1-1.6-0.8c-0.1-0.9,0.2-1.9,1-2.5
			C136.5,349.1,137.2,349.5,137.4,350.4z"/>
		<path class="st11" d="M139.3,345.5c0.1,0.9-0.2,1.9-1,2.5c-0.7,0.5-1.4,0.1-1.6-0.8c-0.1-0.9,0.2-1.9,1-2.5
			C138.5,344.2,139.2,344.5,139.3,345.5z"/>
		<path class="st11" d="M134.2,348.8c0.1,0.9-0.2,1.9-1,2.5c-0.7,0.5-1.4,0.1-1.6-0.8c-0.1-0.9,0.2-1.9,1-2.5
			C133.4,347.5,134.1,347.8,134.2,348.8z"/>
		<path class="st11" d="M136.2,343.8c0.1,0.9-0.2,1.9-1,2.5c-0.7,0.5-1.4,0.1-1.6-0.8c-0.1-0.9,0.2-1.9,1-2.5
			C135.4,342.6,136.1,342.9,136.2,343.8z"/>
		<path class="st11" d="M137.4,350.4c0.1,0.9-0.2,1.9-1,2.5c-0.7,0.5-1.4,0.1-1.6-0.8c-0.1-0.9,0.2-1.9,1-2.5
			C136.5,349.1,137.2,349.5,137.4,350.4z"/>
		<path class="st11" d="M139.4,345.5c0.1,0.9-0.2,1.9-1,2.5c-0.7,0.5-1.4,0.1-1.6-0.8c-0.1-0.9,0.2-1.9,1-2.5
			C138.5,344.2,139.2,344.6,139.4,345.5z"/>
		<path class="st11" d="M134.3,348.8c0.1,0.9-0.2,1.9-1,2.5c-0.7,0.5-1.4,0.1-1.6-0.8c-0.1-0.9,0.2-1.9,1-2.5
			C133.4,347.5,134.1,347.9,134.3,348.8z"/>
		<path class="st11" d="M136.3,343.9c0.1,0.9-0.2,1.9-1,2.5c-0.7,0.5-1.4,0.1-1.6-0.8c-0.1-0.9,0.2-1.9,1-2.5
			C135.4,342.6,136.1,343,136.3,343.9z"/>
		<path class="st11" d="M137.5,350.5c0.1,0.9-0.2,1.9-1,2.5c-0.7,0.5-1.4,0.1-1.6-0.8c-0.1-0.9,0.2-1.9,1-2.5
			C136.6,349.2,137.3,349.5,137.5,350.5z"/>
		<path class="st11" d="M139.4,345.5c0.1,0.9-0.2,1.9-1,2.5c-0.7,0.5-1.4,0.1-1.6-0.8c-0.1-0.9,0.2-1.9,1-2.5
			C138.6,344.3,139.3,344.6,139.4,345.5z"/>
		<path class="st11" d="M134.3,348.8c0.1,0.9-0.2,1.9-1,2.5c-0.7,0.5-1.4,0.1-1.6-0.8c-0.1-0.9,0.2-1.9,1-2.5
			C133.5,347.5,134.2,347.9,134.3,348.8z"/>
		<path class="st11" d="M136.4,343.9c0.1,0.9-0.2,1.9-1,2.5c-0.7,0.5-1.4,0.1-1.6-0.8c-0.1-0.9,0.2-1.9,1-2.5
			C135.5,342.6,136.2,343,136.4,343.9z"/>
		<path class="st11" d="M137.5,350.5c0.1,0.9-0.2,1.9-1,2.5c-0.7,0.5-1.4,0.1-1.6-0.8c-0.1-0.9,0.2-1.9,1-2.5
			C136.6,349.2,137.4,349.6,137.5,350.5z"/>
		<path class="st11" d="M139.5,345.6c0.1,0.9-0.2,1.9-1,2.5c-0.7,0.5-1.4,0.1-1.6-0.8c-0.1-0.9,0.2-1.9,1-2.5
			C138.6,344.3,139.3,344.6,139.5,345.6z"/>
		<path class="st11" d="M134.4,348.9c0.1,0.9-0.2,1.9-1,2.5c-0.7,0.5-1.4,0.1-1.6-0.8c-0.1-0.9,0.2-1.9,1-2.5
			C133.5,347.6,134.2,347.9,134.4,348.9z"/>
		<path class="st11" d="M136.4,343.9c0.1,0.9-0.2,1.9-1,2.5c-0.7,0.5-1.4,0.1-1.6-0.8c-0.1-0.9,0.2-1.9,1-2.5
			C135.5,342.7,136.2,343,136.4,343.9z"/>
		<path class="st11" d="M137.6,350.5c0.1,0.9-0.2,1.9-1,2.5c-0.7,0.5-1.4,0.1-1.6-0.8c-0.1-0.9,0.2-1.9,1-2.5
			C136.7,349.3,137.4,349.6,137.6,350.5z"/>
		<path class="st11" d="M139.5,345.6c0.1,0.9-0.2,1.9-1,2.5c-0.7,0.5-1.4,0.1-1.6-0.8c-0.1-0.9,0.2-1.9,1-2.5
			C138.7,344.3,139.4,344.7,139.5,345.6z"/>
		<path class="st11" d="M134.4,348.9c0.1,0.9-0.2,1.9-1,2.5c-0.7,0.5-1.4,0.1-1.6-0.8c-0.1-0.9,0.2-1.9,1-2.5
			C133.6,347.6,134.3,348,134.4,348.9z"/>
		<path class="st11" d="M136.5,344c0.1,0.9-0.2,1.9-1,2.5c-0.7,0.5-1.4,0.1-1.6-0.8c-0.1-0.9,0.2-1.9,1-2.5
			C135.6,342.7,136.3,343.1,136.5,344z"/>
		<path class="st11" d="M137.6,350.6c0.1,0.9-0.2,1.9-1,2.5c-0.7,0.5-1.4,0.1-1.6-0.8c-0.1-0.9,0.2-1.9,1-2.5
			C136.8,349.3,137.5,349.6,137.6,350.6z"/>
		<path class="st11" d="M139.6,345.6c0.1,0.9-0.2,1.9-1,2.5c-0.7,0.5-1.4,0.1-1.6-0.8c-0.1-0.9,0.2-1.9,1-2.5
			C138.7,344.4,139.4,344.7,139.6,345.6z"/>
		<path class="st11" d="M134.5,348.9c0.1,0.9-0.2,1.9-1,2.5c-0.7,0.5-1.4,0.1-1.6-0.8c-0.1-0.9,0.2-1.9,1-2.5
			C133.6,347.6,134.3,348,134.5,348.9z"/>
		<path class="st11" d="M136.5,344c0.1,0.9-0.2,1.9-1,2.5c-0.7,0.5-1.4,0.1-1.6-0.8c-0.1-0.9,0.2-1.9,1-2.5
			C135.6,342.7,136.4,343.1,136.5,344z"/>
		<path class="st11" d="M137.7,350.6c0.1,0.9-0.2,1.9-1,2.5c-0.7,0.5-1.4,0.1-1.6-0.8c-0.1-0.9,0.2-1.9,1-2.5
			C136.8,349.3,137.5,349.7,137.7,350.6z"/>
		<path class="st11" d="M139.6,345.7c0.1,0.9-0.2,1.9-1,2.5c-0.7,0.5-1.4,0.1-1.6-0.8c-0.1-0.9,0.2-1.9,1-2.5
			C138.8,344.4,139.5,344.8,139.6,345.7z"/>
		<path class="st11" d="M134.5,349c0.1,0.9-0.2,1.9-1,2.5c-0.7,0.5-1.4,0.1-1.6-0.8c-0.1-0.9,0.2-1.9,1-2.5
			C133.7,347.7,134.4,348,134.5,349z"/>
		<path class="st11" d="M136.6,344c0.1,0.9-0.2,1.9-1,2.5c-0.7,0.5-1.4,0.1-1.6-0.8c-0.1-0.9,0.2-1.9,1-2.5
			C135.7,342.8,136.4,343.1,136.6,344z"/>
		<path class="st11" d="M137.7,350.6c0.1,0.9-0.2,1.9-1,2.5c-0.7,0.5-1.4,0.1-1.6-0.8c-0.1-0.9,0.2-1.9,1-2.5
			C136.9,349.4,137.6,349.7,137.7,350.6z"/>
		<path class="st11" d="M139.7,345.7c0.1,0.9-0.2,1.9-1,2.5c-0.7,0.5-1.4,0.1-1.6-0.8c-0.1-0.9,0.2-1.9,1-2.5
			C138.8,344.4,139.5,344.8,139.7,345.7z"/>
		<path class="st11" d="M134.6,349c0.1,0.9-0.2,1.9-1,2.5c-0.7,0.5-1.4,0.1-1.6-0.8c-0.1-0.9,0.2-1.9,1-2.5
			C133.7,347.7,134.4,348.1,134.6,349z"/>
		<path class="st11" d="M136.6,344.1c0.1,0.9-0.2,1.9-1,2.5c-0.7,0.5-1.4,0.1-1.6-0.8c-0.1-0.9,0.2-1.9,1-2.5
			C135.8,342.8,136.4,343.2,136.6,344.1z"/>
		<path class="st11" d="M137.8,350.7c0.1,0.9-0.2,1.9-1,2.5c-0.7,0.5-1.4,0.1-1.6-0.8c-0.1-0.9,0.2-1.9,1-2.5
			C136.9,349.4,137.6,349.8,137.8,350.7z"/>
		<path class="st11" d="M139.8,345.7c0.1,0.9-0.2,1.9-1,2.5c-0.7,0.5-1.4,0.1-1.6-0.8c-0.1-0.9,0.2-1.9,1-2.5
			C138.9,344.5,139.6,344.8,139.8,345.7z"/>
		<path class="st11" d="M134.6,349c0.1,0.9-0.2,1.9-1,2.5c-0.7,0.5-1.4,0.1-1.6-0.8c-0.1-0.9,0.2-1.9,1-2.5
			C133.8,347.7,134.5,348.1,134.6,349z"/>
		<path class="st11" d="M136.7,344.1c0.1,0.9-0.2,1.9-1,2.5c-0.7,0.5-1.4,0.1-1.6-0.8c-0.1-0.9,0.2-1.9,1-2.5
			C135.8,342.8,136.5,343.2,136.7,344.1z"/>
		<path class="st11" d="M137.8,350.7c0.1,0.9-0.2,1.9-1,2.5c-0.7,0.5-1.4,0.1-1.6-0.8c-0.1-0.9,0.2-1.9,1-2.5
			C137,349.4,137.7,349.8,137.8,350.7z"/>
		<path class="st11" d="M139.8,345.8c0.1,0.9-0.2,1.9-1,2.5c-0.7,0.5-1.4,0.1-1.6-0.8c-0.1-0.9,0.2-1.9,1-2.5
			C139,344.5,139.6,344.9,139.8,345.8z"/>
		<path class="st11" d="M134.7,349c0.1,0.9-0.2,1.9-1,2.5c-0.7,0.5-1.4,0.1-1.6-0.8c-0.1-0.9,0.2-1.9,1-2.5
			C133.8,347.8,134.5,348.1,134.7,349z"/>
		<path class="st11" d="M136.7,344.1c0.1,0.9-0.2,1.9-1,2.5c-0.7,0.5-1.4,0.1-1.6-0.8c-0.1-0.9,0.2-1.9,1-2.5
			C135.9,342.9,136.6,343.2,136.7,344.1z"/>
		<path class="st11" d="M137.9,350.7c0.1,0.9-0.2,1.9-1,2.5c-0.7,0.5-1.4,0.1-1.6-0.8c-0.1-0.9,0.2-1.9,1-2.5
			C137,349.5,137.7,349.8,137.9,350.7z"/>
		<path class="st11" d="M139.9,345.8c0.1,0.9-0.2,1.9-1,2.5c-0.7,0.5-1.4,0.1-1.6-0.8c-0.1-0.9,0.2-1.9,1-2.5
			C139,344.5,139.7,344.9,139.9,345.8z"/>
		<path class="st11" d="M134.7,349.1c0.1,0.9-0.2,1.9-1,2.5c-0.7,0.5-1.4,0.1-1.6-0.8c-0.1-0.9,0.2-1.9,1-2.5
			C133.9,347.8,134.6,348.2,134.7,349.1z"/>
		<polygon class="st11" points="155.5,332.1 156.3,332.5 153.7,334.2 153,333.8 		"/>
		<polygon class="st11" points="153.6,337.1 154.3,337.5 151.7,339.1 151,338.7 		"/>
		<polygon class="st11" points="156.9,335.8 156.7,335 158.7,333.8 159.4,334.2 		"/>
		<polygon class="st11" points="151,338.7 151.7,339.1 152.3,342.4 151.6,342 		"/>
		<polygon class="st11" points="154.7,343.6 155.5,344 154.9,340.8 154.3,341.1 		"/>
		<path class="st12" d="M136.7,344.1c0.1,0.9-0.2,1.9-1,2.5c-0.7,0.5-1.4,0.1-1.6-0.8c-0.1-0.9,0.2-1.9,1-2.5
			C135.9,342.9,136.6,343.2,136.7,344.1z"/>
		<path class="st12" d="M137.9,350.7c0.1,0.9-0.2,1.9-1,2.5c-0.7,0.5-1.4,0.1-1.6-0.8c-0.1-0.9,0.2-1.9,1-2.5
			C137,349.5,137.7,349.8,137.9,350.7z"/>
		<path class="st12" d="M139.9,345.8c0.1,0.9-0.2,1.9-1,2.5c-0.7,0.5-1.4,0.1-1.6-0.8c-0.1-0.9,0.2-1.9,1-2.5
			C139,344.5,139.7,344.9,139.9,345.8z"/>
		<path class="st12" d="M134.7,349.1c0.1,0.9-0.2,1.9-1,2.5c-0.7,0.5-1.4,0.1-1.6-0.8c-0.1-0.9,0.2-1.9,1-2.5
			C133.9,347.8,134.6,348.2,134.7,349.1z"/>
	</g>
	<g id="freepik--Cloud--inject-1--inject-25">
		<path class="st16" d="M161.3,64.7l-10.8,6.2c0.1-0.5,0.1-0.9,0.1-1.4v-3.1c0-5.5-3.9-7.8-8.7-5c-2.1,1.3-3.8,3-5.2,5
			c-0.8-7-6.3-9.6-12.9-5.7c-7.2,4.1-13,14.2-13,22.5v4.7c0,1.9,0.3,3.7,1.1,5.4l-8.9,5.2c-2.8,1.9-4.6,5-4.8,8.3
			c0,3.1,2.2,4.3,4.8,2.8l58.2-33.6c2.8-1.9,4.6-5,4.8-8.3C166.1,64.4,164,63.2,161.3,64.7z"/>
	</g>
	<g id="freepik--Character--inject-1--inject-25">
		<path class="st17" d="M384.7,344.1l-2-1.1l1.4-0.6c0,0,1.1,0.3,1.1,0.4c0,0.3,0,0.5-0.1,0.8L384.7,344.1z"/>
		<path class="st12" d="M384.7,344.1l-2-1.1l1.4-0.6c0,0,1.1,0.3,1.1,0.4c0,0.3,0,0.5-0.1,0.8L384.7,344.1z"/>
		<path class="st18" d="M384.7,344.1l-2-1.1l1.4-0.6c0,0,1.1,0.3,1.1,0.4c0,0.3,0,0.5-0.1,0.8L384.7,344.1z"/>
		<path class="st12" d="M310.3,381.6c1.8,0.9,3.9,0.9,5.7,0l64.1-37l-96-55.4l-2.2-1.3l-64.1,37c-1.6,0.9-1.6,2.4,0,3.3L310.3,381.6
			z"/>
		<path class="st1" d="M310.3,381.6c1.8,0.9,3.9,0.9,5.7,0l64.1-37l-96-55.4l-2.2-1.3l-64.1,37c-1.6,0.9-1.6,2.4,0,3.3L310.3,381.6z
			"/>
		<path class="st17" d="M334.3,311.6l22.4,12.9l14.5-8.4l16.8,9.7V338c0,1.5-1.6,3.6-2.3,3.2c-1.1,0.3-2.2,0.7-3.2,1.1
			c-1.7,1-3.2,2.1-4.6,3.4l-51.4-29.7L334.3,311.6z"/>
		<path class="st12" d="M334.3,311.6l22.4,12.9l14.5-8.4l16.8,9.7V338c0,1.5-1.6,3.6-2.3,3.2c-1.1,0.3-2.2,0.7-3.2,1.1
			c-1.7,1-3.2,2.1-4.6,3.4l-51.4-29.7L334.3,311.6z"/>
		<path class="st18" d="M334.3,311.6l22.4,12.9l14.5-8.4l16.8,9.7V338c0,1.5-1.6,3.6-2.3,3.2c-1.1,0.3-2.2,0.7-3.2,1.1
			c-1.7,1-3.2,2.1-4.6,3.4l-51.4-29.7L334.3,311.6z"/>
		<path class="st12" d="M316,381.6l3.9-2.2l58.1-33.5c0-0.8,0.3-1.5,0.8-2.1c0.7-0.9,1.6-1.7,2.5-2.2c0.8-0.5,1.8-0.8,2.7-0.9
			c0.6,0,1.3,0.2,1.8,0.6c0.8-1.5,1.1-3.1,1.1-4.8h2.2c0,3-1,6.1-2.2,6.8l-1.1,0.6c-0.6,0.4-1.1,0.4-1.1,0v-0.6c0-0.7-1-0.6-2.2,0.1
			s-2.2,1.8-2.2,2.5v0.6c0,0.3-0.9,1.1-1.9,1.7l-56.2,32.4l-6.1,3.5l0,0c-0.9,0.5-1.9,0.7-2.9,0.7v-2.5
			C314.1,382.3,315.1,382,316,381.6z"/>
		<path class="st19" d="M316,381.6l3.9-2.2l58.1-33.5c0-0.8,0.3-1.5,0.8-2.1c0.7-0.9,1.6-1.7,2.5-2.2c0.8-0.5,1.8-0.8,2.7-0.9
			c0.6,0,1.3,0.2,1.8,0.6c0.8-1.5,1.1-3.1,1.1-4.8h2.2c0,3-1,6.1-2.2,6.8l-1.1,0.6c-0.6,0.4-1.1,0.4-1.1,0v-0.6c0-0.7-1-0.6-2.2,0.1
			s-2.2,1.8-2.2,2.5v0.6c0,0.3-0.9,1.1-1.9,1.7l-56.2,32.4l-6.1,3.5l0,0c-0.9,0.5-1.9,0.7-2.9,0.7v-2.5
			C314.1,382.3,315.1,382,316,381.6z"/>
		<path class="st12" d="M216.5,326.5v2.6c0.1,0.7,0.5,1.3,1.1,1.6l0,0l86.5,49.9l6.1,3.5l0,0l0,0c0.9,0.5,1.9,0.7,2.9,0.7v-2.5
			c-1,0-2-0.2-2.9-0.7l-3.9-2.2l0,0l-88.7-51.2C217,327.8,216.6,327.2,216.5,326.5z"/>
		<path class="st18" d="M216.5,326.5v2.6c0.1,0.7,0.5,1.3,1.1,1.6l0,0l86.5,49.9l6.1,3.5l0,0l0,0c0.9,0.5,1.9,0.7,2.9,0.7v-2.5
			c-1,0-2-0.2-2.9-0.7l-3.9-2.2l0,0l-88.7-51.2C217,327.8,216.6,327.2,216.5,326.5z"/>
		<path class="st3" d="M313.1,365.2V380c0.7,0,1.3-0.1,1.9-0.5l7-4.1l53.6-30.9v-15.5L313.1,365.2z"/>
		<path class="st20" d="M219.3,312.9v11.4c0.1,1.3,0.8,2.6,1.9,3.3l83,47.9l7,4.1c0.6,0.3,1.2,0.5,1.9,0.5v-13.2L219.3,312.9z"/>
		<path class="st10" d="M375.6,344.5c0.1-0.8,0.3-1.5,0.8-2.1c0.7-0.9,1.6-1.7,2.5-2.2c0.8-0.5,1.8-0.8,2.7-0.9
			c0.7,0,1.3,0.2,1.8,0.6v-15.5l-7.9,4.5L375.6,344.5z"/>
		<path class="st5" d="M378.8,340.4c-0.9,0.5-1.7,1.3-2.3,2.1c-0.5,0.6-0.8,1.3-0.8,2.1v-14.8h3.1L378.8,340.4z"/>
		<path class="st12" d="M284.1,271l96,55.4v1.3c0,0.7,1,1,2.2,0.3s2.2-1.6,2.2-2.8l0.1-1.2l-97.8-56.5l-0.4-0.2
			c-0.1,0.2-0.2,0.4-0.2,0.6v0.6C286.3,269.2,285.3,270.3,284.1,271z"/>
		<path class="st19" d="M284.1,271l96,55.4v1.3c0,0.7,1,1,2.2,0.3s2.2-1.6,2.2-2.8l0.1-1.2l-97.8-56.5l-0.4-0.2
			c-0.1,0.2-0.2,0.4-0.2,0.6v0.6C286.3,269.2,285.3,270.3,284.1,271z"/>
		<path class="st12" d="M316,363.5l62.7-36.2c0.8-0.4,1.5-0.8,1.8-0.6l-0.4-0.2l-96-55.4l-1.1-0.6c-1-0.3-2.1-0.1-3,0.5l-62.2,35.9
			c-1.6,0.9-1.6,2.4,0,3.3l92.5,53.4C312.1,364.4,314.2,364.4,316,363.5z"/>
		<path class="st1" d="M316,363.5l62.7-36.2c0.8-0.4,1.5-0.8,1.8-0.6l-0.4-0.2l-96-55.4l-1.1-0.6c-1-0.3-2.1-0.1-3,0.5l-62.2,35.9
			c-1.6,0.9-1.6,2.4,0,3.3l92.5,53.4C312.1,364.4,314.2,364.4,316,363.5z"/>
		<path class="st12" d="M286.5,267.3l0.4,0.2l97.8,56.5c0-0.1,0.1-0.2,0.2-0.3l0.3-0.2l0.7-0.4l0.9-0.5c0.3-0.2,0.8-0.2,1.1,0.1
			c0,0,0.1,0.1,0.1,0.1c0.1,0.1,0.2,0.3,0.3,0.4c0.1,0.2,0.2,0.4,0.3,0.5c0.1,0.2,0.1,0.4,0.2,0.6c0.1,0.3,0.1,0.5,0.1,0.8
			c0,0.1,0,0.3,0,0.5c0,0.1,0,0.2,0,0.4s0,0.6,0,0.9v-2.8c-0.2-1.8-1.3-3.5-2.9-4.4l-92.6-53.4c-1.5-0.9-3.4-1-5.1-0.4l-1.2,0.7l0,0
			l-0.5,0.3l0,0C286.7,267,286.6,267.1,286.5,267.3z"/>
		<path class="st1" d="M286.5,267.3l0.4,0.2l97.8,56.5c0-0.1,0.1-0.2,0.2-0.3l0.3-0.2l0.7-0.4l0.9-0.5c0.3-0.2,0.8-0.2,1.1,0.1
			c0,0,0.1,0.1,0.1,0.1c0.1,0.1,0.2,0.3,0.3,0.4c0.1,0.2,0.2,0.4,0.3,0.5c0.1,0.2,0.1,0.4,0.2,0.6c0.1,0.3,0.1,0.5,0.1,0.8
			c0,0.1,0,0.3,0,0.5c0,0.1,0,0.2,0,0.4s0,0.6,0,0.9v-2.8c-0.2-1.8-1.3-3.5-2.9-4.4l-92.6-53.4c-1.5-0.9-3.4-1-5.1-0.4l-1.2,0.7l0,0
			l-0.5,0.3l0,0C286.7,267,286.6,267.1,286.5,267.3z"/>
		<path class="st12" d="M316,363.5L316,363.5l3.9-2.3l44.6-25.7l14.2-8.2c1-0.6,1.8-0.8,1.9-0.5l0,0v0.6c0,0.7,1,0.7,2.2,0
			c0.9-0.4,1.6-1.2,1.8-2.2v-0.7c0-0.3,0.1-0.6,0.3-0.8l0.3-0.2l0.7-0.4l0.9-0.5c0.3-0.2,0.8-0.2,1.1,0.1c0,0,0.1,0.1,0.1,0.1
			c0.1,0.1,0.1,0.2,0.2,0.3c0,0,0.1,0.1,0.1,0.1c0.1,0.2,0.2,0.4,0.3,0.5c0.1,0.2,0.1,0.4,0.2,0.6c0.1,0.3,0.1,0.5,0.1,0.8
			c0,0.1,0,0.3,0,0.5c0,0.1,0,0.2,0,0.4s0,0.6,0,0.9v9.6h-2.2v-9.6c0-0.2,0-0.5,0-0.7l-0.1-0.5c0,0,0,0,0,0
			c-0.2,1.8-1.9,3.3-3.3,4.1c-0.8,0.5-1.7,0.8-2.7,0.8c-0.7,0-1.4-0.3-2-0.7l-0.2,0.1l-0.4,0.2L322,362.5l-6,3.5l0,0l0,0
			c-0.9,0.4-1.8,0.7-2.8,0.6v-2.5C314.2,364.2,315.1,364,316,363.5z"/>
		<path class="st19" d="M316,363.5L316,363.5l3.9-2.3l44.6-25.7l14.2-8.2c1-0.6,1.8-0.8,1.9-0.5l0,0v0.6c0,0.7,1,0.7,2.2,0
			c0.9-0.4,1.6-1.2,1.8-2.2v-0.7c0-0.3,0.1-0.6,0.3-0.8l0.3-0.2l0.7-0.4l0.9-0.5c0.3-0.2,0.8-0.2,1.1,0.1c0,0,0.1,0.1,0.1,0.1
			c0.1,0.1,0.1,0.2,0.2,0.3c0,0,0.1,0.1,0.1,0.1c0.1,0.2,0.2,0.4,0.3,0.5c0.1,0.2,0.1,0.4,0.2,0.6c0.1,0.3,0.1,0.5,0.1,0.8
			c0,0.1,0,0.3,0,0.5c0,0.1,0,0.2,0,0.4s0,0.6,0,0.9v9.6h-2.2v-9.6c0-0.2,0-0.5,0-0.7l-0.1-0.5c0,0,0,0,0,0
			c-0.2,1.8-1.9,3.3-3.3,4.1c-0.8,0.5-1.7,0.8-2.7,0.8c-0.7,0-1.4-0.3-2-0.7l-0.2,0.1l-0.4,0.2L322,362.5l-6,3.5l0,0l0,0
			c-0.9,0.4-1.8,0.7-2.8,0.6v-2.5C314.2,364.2,315.1,364,316,363.5z"/>
		<path class="st12" d="M216.5,308.4v2.6c0.1,0.7,0.5,1.3,1.1,1.6l0,0l86.5,49.9l6.1,3.5l0,0c0.9,0.5,1.9,0.7,2.9,0.7v-2.5
			c-1,0-2-0.2-2.9-0.7l-3.9-2.2l0,0l-88.7-51.2C217,309.8,216.6,309.1,216.5,308.4z"/>
		<path class="st18" d="M216.5,308.4v2.6c0.1,0.7,0.5,1.3,1.1,1.6l0,0l86.5,49.9l6.1,3.5l0,0c0.9,0.5,1.9,0.7,2.9,0.7v-2.5
			c-1,0-2-0.2-2.9-0.7l-3.9-2.2l0,0l-88.7-51.2C217,309.8,216.6,309.1,216.5,308.4z"/>
		<path class="st11" d="M279.9,270.8c0.9-0.6,2-0.7,3-0.5l1.1,0.6c1.2-0.7,2.2-1.9,2.2-2.6v-0.6c0-0.2,0.1-0.4,0.2-0.6
			c0.1-0.2,0.2-0.3,0.4-0.4l0,0l0.5-0.3l0,0l1.2-0.7c1.7-0.7,3.5-0.5,5.1,0.4l92.6,53.4l0.1,0.1l-65.3,37.7c-1.2,0.6-2.6,0.6-3.8,0
			l-93.1-54.3L279.9,270.8z"/>
		<path class="st12" d="M326.1,352l-2.5-1.4c0.7-0.2,1.4-0.3,2.1-0.1C326.4,350.8,326.1,352,326.1,352z"/>
		<path class="st13" d="M326.1,352l-2.5-1.4c0.7-0.2,1.4-0.3,2.1-0.1C326.4,350.8,326.1,352,326.1,352z"/>
		<path class="st12" d="M327.8,350.5c-1.1-1.2-3-1.3-4.2-0.2c-0.1,0.1-0.1,0.1-0.2,0.2c-2.4,2.2-2.5,4.4-3.5,4.4s-1-17.6-1-17.6
			l9.5,8.8L327.8,350.5z"/>
		<path class="st13" d="M327.8,350.5c-1.1-1.2-3-1.3-4.2-0.2c-0.1,0.1-0.1,0.1-0.2,0.2c-2.4,2.2-2.5,4.4-3.5,4.4s-1-17.6-1-17.6
			l9.5,8.8L327.8,350.5z"/>
		<path class="st12" d="M228.4,286.4l-0.2-0.1l1.5-0.9l65.5-37.8l95.4,61.7c1.6,0.9,1.9,2.2,0.6,2.9l-2.2,1.3L327.9,349l-0.4-0.3
			L228.4,286.4z"/>
		<path class="st14" d="M228.4,286.4l-0.2-0.1l1.5-0.9l65.5-37.8l95.4,61.7c1.6,0.9,1.9,2.2,0.6,2.9l-2.2,1.3L327.9,349l-0.4-0.3
			L228.4,286.4z"/>
		<path class="st10" d="M319.7,328.9l4.7-1v19c-2.9,1.2-4.7,2.4-5,4.8L319.7,328.9z"/>
		<path class="st20" d="M326.5,347.1l60.6-35c1.1-0.7,1.8-2,1.9-3.3v-18.7l-61.2,35.6c0,0-0.7,2.6-2.9,3.5s-0.5,1.7-0.5,1.7v16
			C326.3,346.6,326.5,347.1,326.5,347.1z"/>
		<path class="st12" d="M320.9,328.2c0.6-0.4,1.1-0.4,1.1,0v0.6c0,0.7,1,0.6,2.2-0.1s2.2-1.8,2.2-2.5v-0.6c0-0.3,0.9-1.1,1.9-1.7
			l-98.6-56.5l-1.5,0.9c-0.2,0.2-0.3,0.5-0.4,0.8v0.6c0,0.7-1,1.8-2.2,2.5s-2.2,0.8-2.2,0.1v-0.6c0-0.3-0.5-0.3-1.1,0L320.9,328.2z"
			/>
		<path class="st15" d="M320.9,328.2c0.6-0.4,1.1-0.4,1.1,0v0.6c0,0.7,1,0.6,2.2-0.1s2.2-1.8,2.2-2.5v-0.6c0-0.3,0.9-1.1,1.9-1.7
			l-98.6-56.5l-1.5,0.9c-0.2,0.2-0.3,0.5-0.4,0.8v0.6c0,0.7-1,1.8-2.2,2.5s-2.2,0.8-2.2,0.1v-0.6c0-0.3-0.5-0.3-1.1,0L320.9,328.2z"
			/>
		<path class="st12" d="M228.4,268.3l-0.2-0.1l1.5-0.9l65.5-37.8l95.4,55.1c1.6,0.9,1.9,2.2,0.6,2.9l-2.2,1.3l-61.2,36.9
			L228.4,268.3z"/>
		<path class="st14" d="M228.4,268.3l-0.2-0.1l1.5-0.9l65.5-37.8l95.4,55.1c1.6,0.9,1.9,2.2,0.6,2.9l-2.2,1.3l-61.2,36.9
			L228.4,268.3z"/>
		<path class="st12" d="M223.4,271.1L322,328l-3.5,2.7L220.3,274c0.2-0.7,0.7-1.4,1.3-1.8L223.4,271.1z"/>
		<path class="st14" d="M223.4,271.1L322,328l-3.5,2.7L220.3,274c0.2-0.7,0.7-1.4,1.3-1.8L223.4,271.1z"/>
		<path class="st12" d="M220.6,299.4c-0.1,0-0.1-0.1-0.2-0.1c0,0-0.1-0.1-0.1-0.1c-0.1-0.1-0.1-0.2-0.2-0.3c0,0-0.1-0.1-0.1-0.1
			c-0.1-0.2-0.2-0.4-0.3-0.5c-0.1-0.2-0.1-0.4-0.2-0.6c-0.1-0.2-0.1-0.5-0.1-0.7c0-0.1-0.1-0.3-0.1-0.5V296c0-0.3,0-0.6,0-0.9v-16.3
			c0-1.7,0.3-3.4,0.9-5l98.3,56.7l0.4,25.5l-98.2-56.7L220.6,299.4z"/>
		<path class="st13" d="M220.6,299.4c-0.1,0-0.1-0.1-0.2-0.1c0,0-0.1-0.1-0.1-0.1c-0.1-0.1-0.1-0.2-0.2-0.3c0,0-0.1-0.1-0.1-0.1
			c-0.1-0.2-0.2-0.4-0.3-0.5c-0.1-0.2-0.1-0.4-0.2-0.6c-0.1-0.2-0.1-0.5-0.1-0.7c0-0.1-0.1-0.3-0.1-0.5V296c0-0.3,0-0.6,0-0.9v-16.3
			c0-1.7,0.3-3.4,0.9-5l98.3,56.7l0.4,25.5l-98.2-56.7L220.6,299.4z"/>
		<path class="st21" d="M318.5,330.7L318.5,330.7c0,0-77.4-36.2-84.4-39.5c-4.6-2.2-6.9,2.4-5.8,7.2c1,4.2,5.1,8.5,5.1,8.5l0,0
			l-12.6-7.3l0,0c-0.1,0-0.1-0.1-0.2-0.1c0,0-0.1-0.1-0.1-0.1c-0.1-0.1-0.1-0.2-0.2-0.3c0,0-0.1-0.1-0.1-0.1
			c-0.1-0.2-0.2-0.4-0.3-0.5c-0.1-0.2-0.1-0.4-0.2-0.6c-0.1-0.2-0.1-0.5-0.1-0.7c0-0.1-0.1-0.3-0.1-0.5v-0.4c0-0.3,0-0.6,0-0.9
			v-16.3c0-1.7,0.3-3.4,0.9-5L318.5,330.7z"/>
		<path class="st12" d="M317.6,335.6h2.2c-0.1-1.7,0.3-3.3,1.1-4.8c0.5,0.4,1.2,0.6,1.8,0.6c1,0,1.9-0.3,2.7-0.9
			c1-0.6,1.9-1.3,2.5-2.2c0.1-0.1,0.1-0.1,0.1-0.2c0.4-0.6,0.6-1.2,0.6-1.9l58.1-33.5l2-1.1l2.5-1.5c0.4-0.2,0.7-0.6,0.8-1.1v-2.6
			c0,0.5-0.3,0.9-0.8,1.2l0,0l-6.7,3.8l-56.1,32.4c-1,0.6-1.9,1.4-1.9,1.7v0.6c-0.1,0.4-0.2,0.7-0.5,1c-0.5,0.6-1.1,1.1-1.7,1.4
			c-1.2,0.7-2.2,0.8-2.2,0.1v-0.6c0-0.4-0.5-0.3-1.1,0l-1.1,0.6C318.6,329.5,317.6,332.6,317.6,335.6z"/>
		<path class="st12" d="M319.8,335.6v16.3c0,0.2,0,0.5,0,0.7l0,0.5c0,0,0,0,0,0c0.2-1.8,1.9-3.3,3.3-4.1c0.8-0.5,1.7-0.8,2.7-0.8
			c0.7,0,1.4,0.3,2,0.7l0.2-0.1l0.4-0.2l56.1-32.4l3.2-1.9l0.9-0.5l2.7-1.6c0.4-0.2,0.6-0.6,0.6-1v2.6c0,0.4-0.2,0.8-0.6,1l0,0
			c-0.3,0.2-0.7,0.4-1,0.6l-0.6,0.4l-1.1,0.6c-0.2,0.1-0.5,0.3-0.7,0.4s-0.3,0.2-0.5,0.3l-0.8,0.5l-44.6,25.7l-14.2,8.2
			c-1,0.6-1.8,0.8-1.9,0.5c0,0,0-0.1,0-0.1v-0.6c0-0.7-1-0.7-2.2,0c-0.9,0.4-1.6,1.2-1.8,2.2v0.7c0,0.3-0.1,0.6-0.3,0.8l-0.3,0.2
			l-0.7,0.4l-0.9,0.5c-0.3,0.2-0.8,0.2-1.1-0.1c0,0-0.1-0.1-0.1-0.1c-0.1-0.1-0.1-0.2-0.2-0.3l0,0c0,0-0.1-0.1-0.1-0.1
			c-0.1-0.2-0.2-0.4-0.3-0.5c-0.1-0.2-0.2-0.4-0.2-0.6c-0.1-0.3-0.1-0.5-0.1-0.8c0-0.1-0.1-0.3-0.1-0.5c0-0.1,0-0.2,0-0.4
			s0-0.6,0-0.9v-16.3H319.8z"/>
		<g class="st22">
			<path d="M317.6,335.6h2.2c-0.1-1.7,0.3-3.3,1.1-4.8c0.5,0.4,1.2,0.6,1.8,0.6c1,0,1.9-0.3,2.7-0.9c1-0.6,1.9-1.3,2.5-2.2
				c0.1-0.1,0.1-0.1,0.1-0.2c0.4-0.6,0.6-1.2,0.6-1.9l58.1-33.5l2-1.1l2.5-1.5c0.4-0.2,0.7-0.6,0.8-1.1v-2.6c0,0.5-0.3,0.9-0.8,1.2
				l0,0l-6.7,3.8l-56.1,32.4c-1,0.6-1.9,1.4-1.9,1.7v0.6c-0.1,0.4-0.2,0.7-0.5,1c-0.5,0.6-1.1,1.1-1.7,1.4c-1.2,0.7-2.2,0.8-2.2,0.1
				v-0.6c0-0.4-0.5-0.3-1.1,0l-1.1,0.6C318.6,329.5,317.6,332.6,317.6,335.6z"/>
			<path d="M319.8,335.6v16.3c0,0.2,0,0.5,0,0.7l0,0.5c0,0,0,0,0,0c0.2-1.8,1.9-3.3,3.3-4.1c0.8-0.5,1.7-0.8,2.7-0.8
				c0.7,0,1.4,0.3,2,0.7l0.2-0.1l0.4-0.2l56.1-32.4l3.2-1.9l0.9-0.5l2.7-1.6c0.4-0.2,0.6-0.6,0.6-1v2.6c0,0.4-0.2,0.8-0.6,1l0,0
				c-0.3,0.2-0.7,0.4-1,0.6l-0.6,0.4l-1.1,0.6c-0.2,0.1-0.5,0.3-0.7,0.4s-0.3,0.2-0.5,0.3l-0.8,0.5l-44.6,25.7l-14.2,8.2
				c-1,0.6-1.8,0.8-1.9,0.5c0,0,0-0.1,0-0.1v-0.6c0-0.7-1-0.7-2.2,0c-0.9,0.4-1.6,1.2-1.8,2.2v0.7c0,0.3-0.1,0.6-0.3,0.8l-0.3,0.2
				l-0.7,0.4l-0.9,0.5c-0.3,0.2-0.8,0.2-1.1-0.1c0,0-0.1-0.1-0.1-0.1c-0.1-0.1-0.1-0.2-0.2-0.3l0,0c0,0-0.1-0.1-0.1-0.1
				c-0.1-0.2-0.2-0.4-0.3-0.5c-0.1-0.2-0.2-0.4-0.2-0.6c-0.1-0.3-0.1-0.5-0.1-0.8c0-0.1-0.1-0.3-0.1-0.5c0-0.1,0-0.2,0-0.4
				s0-0.6,0-0.9v-16.3H319.8z"/>
		</g>
		<path class="st11" d="M220.3,273.9l93.4,53.9l70.6-40.8c0.6-0.2,0.9-0.9,0.7-1.5c-0.1-0.3-0.4-0.6-0.7-0.7l-92.4-53.4l-62,35.8
			l0,0l-1.5,0.9c-0.2,0.2-0.3,0.5-0.4,0.8v0.6c0,0.7-1,1.8-2.2,2.5c-0.1,0-0.1,0.1-0.2,0.1l-2.1-1.2l-1,0.6l-0.1,0.1l0,0l-0.7,0.4
			C220.9,272.6,220.5,273.2,220.3,273.9z"/>
		<path class="st17" d="M379,287.5l-2.8-1.5l2.6-0.6C379.3,286,379.4,286.8,379,287.5z"/>
		<path class="st23" d="M379,287.5l-2.8-1.5l2.6-0.6C379.3,286,379.4,286.8,379,287.5z"/>
		<path class="st12" d="M304.5,325c1.8,0.9,3.9,0.9,5.7,0l64.1-37l-96-60.7l-2.3-1.3L212,268.3c-1.6,0.9-1.6,2.4,0,3.3L304.5,325z"
			/>
		<path class="st12" d="M328.6,249.8l48.5,32.8l-26.1-20l14.5-8.4l16.8,9.7v17.4c0,1.5-1.6,3.6-2.3,3.2c-1.1,0.3-2.2,0.7-3.2,1.1
			c-1.7,1-3.2,2.1-4.6,3.4l-51.4-34.9L328.6,249.8z"/>
		<path class="st24" d="M328.6,249.8l48.5,32.8l-26.1-20l14.5-8.4l16.8,9.7v17.4c0,1.5-1.6,3.6-2.3,3.2c-1.1,0.3-2.2,0.7-3.2,1.1
			c-1.7,1-3.2,2.1-4.6,3.4l-51.4-34.9L328.6,249.8z"/>
		<path class="st3" d="M307.4,303.3v20.1c0.7,0,1.3-0.1,1.9-0.5l7-4.1l53.6-30.9v-20.7L307.4,303.3z"/>
		<path class="st20" d="M213.6,251v16.7c0.1,1.3,0.8,2.6,1.9,3.3l83,47.9l7,4.1c0.6,0.3,1.2,0.5,1.9,0.5v-18.5L213.6,251z"/>
		<path class="st10" d="M369.9,287.9c0-0.8,0.3-1.5,0.8-2.1c0.7-0.9,1.5-1.7,2.5-2.2c0.8-0.5,1.8-0.8,2.7-0.9
			c0.6-0.1,1.3,0.1,1.8,0.4v-20.5l-7.9,4.5L369.9,287.9z"/>
		<path class="st5" d="M373.1,283.7c-0.9,0.5-1.7,1.3-2.3,2.1c-0.5,0.6-0.8,1.3-0.8,2.1v-20h3.1L373.1,283.7z"/>
		<path class="st12" d="M278.4,209.2l96,55.5v1.3c0,0.7,1,1,2.2,0.3s2.3-1.6,2.3-2.8l0.1-1.2l-97.8-56.5l-0.4-0.2
			c-0.1,0.2-0.2,0.4-0.2,0.6v0.6C280.6,207.3,279.6,208.4,278.4,209.2z"/>
		<path class="st24" d="M278.4,209.2l96,55.5v1.3c0,0.7,1,1,2.2,0.3s2.3-1.6,2.3-2.8l0.1-1.2l-97.8-56.5l-0.4-0.2
			c-0.1,0.2-0.2,0.4-0.2,0.6v0.6C280.6,207.3,279.6,208.4,278.4,209.2z"/>
		<path class="st12" d="M310.2,301.6l62.8-36.2c0.8-0.4,1.5-0.8,1.8-0.6l-0.4-0.2l-96-55.4l-1.1-0.6c-1-0.3-2.1-0.1-3,0.4L212,244.9
			c-1.6,0.9-1.6,2.4,0,3.3l92.5,53.4C306.3,302.5,308.5,302.5,310.2,301.6z"/>
		<path class="st12" d="M280.8,205.4l0.4,0.2l97.9,56.5c0-0.1,0.1-0.2,0.2-0.3l0.3-0.2l0.7-0.4l0.9-0.5c0.3-0.2,0.8-0.2,1.1,0.1
			c0,0,0.1,0.1,0.1,0.1c0.1,0.1,0.2,0.3,0.3,0.4c0.1,0.2,0.2,0.4,0.3,0.5c0.1,0.2,0.1,0.4,0.2,0.6c0,0.2,0.1,0.5,0.1,0.7
			c0,0.2,0.1,0.3,0.1,0.5v0.4c0,0.3,0,0.6,0,0.9v-2.7c-0.2-1.8-1.3-3.5-2.9-4.4l-92.5-53.4c-1.5-0.9-3.4-1-5.1-0.4l-1.2,0.7l0,0
			l-0.5,0.3l0,0C281,205.1,280.8,205.2,280.8,205.4z"/>
		<path class="st12" d="M310.2,325l3.9-2.2l58.1-33.5c0.1-0.8,0.3-1.5,0.8-2.1c0.7-0.9,1.6-1.7,2.5-2.2c0.8-0.5,1.8-0.8,2.7-0.9
			c0.7,0,1.3,0.2,1.8,0.6c0.7-1.5,1.1-3.1,1.1-4.8h2.2c0,3-1,6.1-2.2,6.8l-1.1,0.6c-0.6,0.4-1.1,0.4-1.1,0v-0.6c0-0.7-1-0.6-2.3,0.1
			s-2.2,1.8-2.2,2.5v0.6c0,0.3-0.9,1.1-1.9,1.7L316.3,324l-6.1,3.5l0,0c-0.9,0.5-1.9,0.7-2.9,0.7v-2.5
			C308.4,325.7,309.4,325.5,310.2,325z"/>
		<path class="st25" d="M310.2,325l3.9-2.2l58.1-33.5c0.1-0.8,0.3-1.5,0.8-2.1c0.7-0.9,1.6-1.7,2.5-2.2c0.8-0.5,1.8-0.8,2.7-0.9
			c0.7,0,1.3,0.2,1.8,0.6c0.7-1.5,1.1-3.1,1.1-4.8h2.2c0,3-1,6.1-2.2,6.8l-1.1,0.6c-0.6,0.4-1.1,0.4-1.1,0v-0.6c0-0.7-1-0.6-2.3,0.1
			s-2.2,1.8-2.2,2.5v0.6c0,0.3-0.9,1.1-1.9,1.7L316.3,324l-6.1,3.5l0,0c-0.9,0.5-1.9,0.7-2.9,0.7v-2.5
			C308.4,325.7,309.4,325.5,310.2,325z"/>
		<path class="st12" d="M310.2,301.6L310.2,301.6l3.9-2.2l44.6-25.7l14.3-8.2c1-0.6,1.8-0.8,1.9-0.5l0,0v0.6c0,0.7,1,0.7,2.2,0
			c0.9-0.4,1.6-1.3,1.8-2.3v-0.7c0-0.3,0.1-0.6,0.3-0.8l0.3-0.2l0.7-0.4l0.9-0.5c0.3-0.2,0.8-0.2,1.1,0.1c0,0,0.1,0.1,0.1,0.1
			c0.1,0.1,0.1,0.2,0.2,0.3c0,0,0.1,0.1,0.1,0.1c0.1,0.2,0.2,0.4,0.3,0.5c0.1,0.2,0.1,0.4,0.2,0.6c0,0.2,0.1,0.5,0.1,0.7
			c0,0.2,0.1,0.3,0.1,0.5v0.4c0,0.3,0,0.6,0,0.9v14.9h-2.2V265c0-0.2,0-0.5,0-0.7l0-0.5l0,0c-0.2,1.8-1.9,3.3-3.3,4.1
			c-0.8,0.5-1.7,0.8-2.7,0.8c-0.7,0-1.4-0.3-2-0.7l-0.2,0.1l-0.4,0.2l-56.2,32.4l-6.1,3.5l0,0l0,0c-0.9,0.4-1.8,0.7-2.8,0.6v-2.5
			C308.4,302.4,309.4,302.1,310.2,301.6z"/>
		<path class="st25" d="M310.2,301.6L310.2,301.6l3.9-2.2l44.6-25.7l14.3-8.2c1-0.6,1.8-0.8,1.9-0.5l0,0v0.6c0,0.7,1,0.7,2.2,0
			c0.9-0.4,1.6-1.3,1.8-2.3v-0.7c0-0.3,0.1-0.6,0.3-0.8l0.3-0.2l0.7-0.4l0.9-0.5c0.3-0.2,0.8-0.2,1.1,0.1c0,0,0.1,0.1,0.1,0.1
			c0.1,0.1,0.1,0.2,0.2,0.3c0,0,0.1,0.1,0.1,0.1c0.1,0.2,0.2,0.4,0.3,0.5c0.1,0.2,0.1,0.4,0.2,0.6c0,0.2,0.1,0.5,0.1,0.7
			c0,0.2,0.1,0.3,0.1,0.5v0.4c0,0.3,0,0.6,0,0.9v14.9h-2.2V265c0-0.2,0-0.5,0-0.7l0-0.5l0,0c-0.2,1.8-1.9,3.3-3.3,4.1
			c-0.8,0.5-1.7,0.8-2.7,0.8c-0.7,0-1.4-0.3-2-0.7l-0.2,0.1l-0.4,0.2l-56.2,32.4l-6.1,3.5l0,0l0,0c-0.9,0.4-1.8,0.7-2.8,0.6v-2.5
			C308.4,302.4,309.4,302.1,310.2,301.6z"/>
		<path class="st12" d="M210.8,246.5v2.6c0.1,0.7,0.5,1.3,1.1,1.6l0,0l86.5,49.9l6.1,3.5l0,0c0.9,0.5,1.9,0.7,2.8,0.7v-2.5
			c-1,0-2-0.2-2.9-0.7l-3.9-2.2l0,0L212,248.2C211.3,247.9,210.9,247.3,210.8,246.5z"/>
		<path class="st24" d="M210.8,246.5v2.6c0.1,0.7,0.5,1.3,1.1,1.6l0,0l86.5,49.9l6.1,3.5l0,0c0.9,0.5,1.9,0.7,2.8,0.7v-2.5
			c-1,0-2-0.2-2.9-0.7l-3.9-2.2l0,0L212,248.2C211.3,247.9,210.9,247.3,210.8,246.5z"/>
		<path class="st12" d="M210.8,269.9v2.6c0.1,0.7,0.5,1.3,1.1,1.6l0,0l86.5,49.9l6.1,3.5l0,0c0.9,0.5,1.9,0.7,2.8,0.7v-2.5
			c-1,0-2-0.2-2.9-0.7l-3.9-2.2l0,0L212,271.5C211.3,271.3,210.9,270.6,210.8,269.9z"/>
		<path class="st24" d="M210.8,269.9v2.6c0.1,0.7,0.5,1.3,1.1,1.6l0,0l86.5,49.9l6.1,3.5l0,0c0.9,0.5,1.9,0.7,2.8,0.7v-2.5
			c-1,0-2-0.2-2.9-0.7l-3.9-2.2l0,0L212,271.5C211.3,271.3,210.9,270.6,210.8,269.9z"/>
		<polygon class="st26" points="250.8,179.1 241.6,195.5 254.9,202.6 264.7,188.1 		"/>
		<path class="st12" d="M283.3,142.3c-5.1-0.9-12.8-1.1-17.8,7.5s-15.8,29.9-15.8,29.9s6.3,8.2,15.5,9.7l15-23.7L283.3,142.3z"/>
		<rect x="259.9" y="342.6" class="st27" width="11.4" height="19.5"/>
		<polygon class="st27" points="238.2,337.9 226.8,338.3 226.2,317.6 237.6,317.2 		"/>
		<path class="st11" d="M259.9,356.5v-1.6c-1.1,0.5-3.6,10.2-8.2,14.3c-3.6,3.3-8.5,7.1-9.8,10.7c-1.3,3.8,6.8,5.9,10.2,5.3
			c3.9-0.7,10.7-3.4,12.4-6s2.5-6.3,3.9-8.2s4.6-4,5.3-6.1c0.4-1.2-0.1-3.8-0.6-6c-0.5-2-1.1-4.2-1.8-4v1.2
			c-0.8,0.9-3.1,1.8-5.7,1.9C263.9,358.2,259.8,357.8,259.9,356.5z"/>
		<path class="st11" d="M226.7,334.8c-0.6,0-1.1,0.9-2.4,2.3c-2,2-4.2,3.6-6.7,4.8c-4.3,2.2-12.6,5.4-16.3,7.2
			c-2.4,1.1-2.2,3.9,0.2,5.5s8.3,2.8,15.3,1.2c3.8-0.9,8.8-4.4,12-4.2s9.1,0.1,11.4-1.5s1.4-5,0.7-8c-0.7-3.2-1.8-8.1-2.8-7.9v1
			c-1.4,2.1-8.4,2.9-11.4,1.4L226.7,334.8z"/>
		<path class="st10" d="M317.3,223.8c2.5,17.6-0.9,21-17.6,37.9c-9,9.1-23.5,22.4-23.5,22.4s0.2,5.6,0.3,18.3
			c0.1,11.1-4.5,47.4-4.5,47.4s-7.6,3.2-12.8-0.1c0,0-2.4-27-3.6-41c-1.7-19-2.6-28.6-1.6-32.7c0.9-3.6,17.9-25.2,21.9-31.2
			l-36.3,21.1c0.7,5.3,1.1,10.7,1.1,16.1c-0.4,15.1-2.3,45.3-2.3,45.3s-8.3,3.7-12.4,0.5c0,0-10.4-66-10.4-71.4
			c0-8.2,35.7-32.8,42.5-38.5c3.9-3.3,8.2-6.8,8.2-6.8L317.3,223.8z"/>
		<path class="st9" d="M275.7,244.8c-3.8-3.1-6.7-7.2-8.3-11.8c0.2,3,0.6,6,1.3,9c1,3.9-29.3,23.9-29.3,23.9L275.7,244.8z"/>
		<circle class="st11" cx="280.1" cy="107" r="16.2"/>
		<path class="st11" d="M314.1,152.1c0,0,4,3.3,4,13.6v22.4l-0.6,37.6c-8,8.7-44,5.4-52.9-13.6c0,0,0.1-39.7,0.1-48.6
			s5-20.4,18.6-21.3l17.6,4.1L314.1,152.1z"/>
		<path class="st11" d="M308.1,118.5c0,0-2.6,12.3-3.7,14.4c-0.7,1.3-1.9,2.2-3.2,2.6l0.2-8.7L308.1,118.5z"/>
		<path class="st11" d="M304.8,100.9c1.8-0.2,3.7,0.4,5,1.8c2.2,2.2,1,9.1-1.7,15.9l-5,0.6L304.8,100.9z"/>
		<path class="st28" d="M301.6,119.1c1,0.6,2.4-1.3,3.6-2.6s5.2-3,7.2,1.2s-1.8,9.9-4.9,10.9c-5.4,1.7-6.2-1.8-6.2-1.8l-0.4,19.6
			c-4.7,5.2-20.6,4-17.6-0.5v-6c0,0-4.9,0.8-7.3,0.4c-4-0.6-6.5-3.8-7.7-8.1c-1.9-6.9-2.7-12.5-1-26.2c1.8-14.9,19.2-15.1,28.6-9.2
			S301.6,119.1,301.6,119.1z"/>
		<path class="st11" d="M287.8,122.5H287c-3.1,0-5.5-2.5-5.5-5.5c0-3.1,2.5-5.5,5.5-5.5h0.9c3.1,0,5.5,2.5,5.5,5.5
			C293.4,120.1,290.9,122.5,287.8,122.5C287.9,122.5,287.9,122.5,287.8,122.5L287.8,122.5z M287,112.4c-2.5,0-4.6,2.1-4.6,4.6
			c0,2.5,2.1,4.6,4.6,4.6h0.9c2.5,0,4.6-2.1,4.6-4.6c0-2.5-2.1-4.6-4.6-4.6c0,0,0,0,0,0H287z"/>
		<path class="st11" d="M271,122.5h-0.9c-3.1,0-5.5-2.5-5.5-5.5c0-3.1,2.5-5.5,5.5-5.5c0,0,0,0,0,0h0.9c3.1,0,5.5,2.5,5.5,5.5
			C276.5,120.1,274.1,122.5,271,122.5z M270.1,112.4c-2.5,0-4.6,2.1-4.6,4.6c0,2.5,2.1,4.6,4.6,4.6h0.9c2.5,0,4.6-2.1,4.6-4.6
			c0-2.5-2.1-4.6-4.6-4.6H270.1z"/>
		<path class="st11" d="M281.5,115.9c-0.7-0.9-1.8-1.5-2.9-1.5c-1-0.1-1.9,0.3-2.5,1l-0.7-0.6c0.8-1,2.1-1.5,3.3-1.3
			c1.5,0,2.8,0.7,3.7,1.9L281.5,115.9z"/>
		<rect x="292.9" y="115.9" class="st11" width="11.8" height="0.9"/>
		<path class="st11" d="M301.6,120.8c0.5,0,2.4-3.1,3.6-4.3c1.7-1.6-0.5-15.7-0.5-15.7s1.6-3.5-1.6-7.1c-2.3-2.6-6.3-2.9-13-3.9
			c-3.5-0.6-8.8-1.5-12.3-2.2c-4.2-0.8-7.6-1.6-10.6,1c-2.4,2.1-3.2,5.4-2,8.3c0.8,1.8,2.4,3.2,4.2,3.8c0,0,1.8,1.6,8.2,2.4
			s16.2-0.1,17.6-0.3c1.8-0.3,2.2,1.5,3.2,6.4C299.3,113.5,300,120.8,301.6,120.8z"/>
		<path class="st11" d="M304.8,102l6-3.2c-0.8-1.7-2.8-2.4-4.4-1.6c0,0-0.1,0-0.1,0.1C304.6,98.2,303.9,100.3,304.8,102z"/>
		<path class="st26" d="M283.3,139.9c0,0,8.9-1.8,12-3.4c1.8-1,3.3-2.4,4.3-4.3c-0.5,1.8-1.3,3.5-2.4,5c-2.3,2.9-13.9,5.1-13.9,5.1
			L283.3,139.9z"/>
		<path class="st11" d="M285.5,116.9c0,1,0.9,1.8,1.9,1.7c1,0,1.8-0.9,1.7-1.9c0-1-0.8-1.7-1.8-1.7
			C286.2,115.1,285.4,115.9,285.5,116.9C285.5,116.9,285.5,116.9,285.5,116.9z"/>
		<path class="st11" d="M288.3,109.5l3.8,2.1c0.5-1.1,0.1-2.4-0.9-3C290.2,108,288.9,108.4,288.3,109.5
			C288.3,109.5,288.3,109.5,288.3,109.5z"/>
		<path class="st29" d="M284.1,129.2l-4.1,1.5c0.4,1.1,1.6,1.7,2.7,1.4c0,0,0.1,0,0.1,0C284,131.6,284.5,130.4,284.1,129.2z"/>
		<path class="st11" d="M269.1,111.1l3.5-2.7c-0.7-1-2-1.2-2.9-0.5c0,0-0.1,0-0.1,0.1C268.6,108.7,268.4,110.1,269.1,111.1z"/>
		<path class="st11" d="M270.6,116.4c0,1,0.9,1.8,1.9,1.7c1,0,1.8-0.9,1.7-1.9c0-1-0.8-1.7-1.8-1.7
			C271.4,114.5,270.6,115.4,270.6,116.4C270.6,116.4,270.6,116.4,270.6,116.4z"/>
		<polygon class="st26" points="279.4,114.9 279.2,125.8 272.9,124.3 		"/>
		<path class="st12" d="M268.5,204.8v1c0,1-0.6,2-1.5,2.5l-27.8,16c-0.9,0.5-2,0.5-2.9,0l-50.9-29.4c-0.9-0.5-1.5-1.5-1.5-2.5v-0.7
			l53.9,31.1L268.5,204.8z"/>
		<path class="st15" d="M268.5,204.8v1c0,1-0.6,2-1.5,2.5l-27.8,16c-0.9,0.5-2,0.5-2.9,0l-50.9-29.4c-0.9-0.5-1.5-1.5-1.5-2.5v-0.7
			l53.9,31.1L268.5,204.8z"/>
		<path class="st12" d="M184,191.7l30.2-17.4c0.5-0.3,1.2-0.3,1.7,0l52.4,30.3c0.2,0.1,0.2,0.3,0.1,0.5c0,0.1-0.1,0.1-0.1,0.1
			l-30.5,17.6L184,191.7z"/>
		<path class="st14" d="M184,191.7l30.2-17.4c0.5-0.3,1.2-0.3,1.7,0l52.4,30.3c0.2,0.1,0.2,0.3,0.1,0.5c0,0.1-0.1,0.1-0.1,0.1
			l-30.5,17.6L184,191.7z"/>
		<polygon class="st11" points="238.1,220.2 254.4,210.8 206.8,183.3 190.4,192.7 		"/>
		<polygon class="st11" points="246.1,194.1 245.8,194.3 237.8,198.9 223.6,190.7 223.3,190.5 231.6,185.7 		"/>
		<polygon class="st11" points="245.8,194.3 237.8,198.9 223.6,190.7 231.6,186.1 		"/>
		<path class="st13" d="M237.8,222.8v1.9c-0.5,0-1-0.1-1.4-0.4l-50.9-29.4c-0.9-0.5-1.5-1.5-1.5-2.5v-0.7L237.8,222.8z"/>
		<path class="st12" d="M237,223.2c-1,0.4-2.1,0.3-3-0.2l-50.7-29.3c-0.9-0.5-1.5-1.4-1.7-2.4l-5.6-33.1c0-0.2,0-0.4-0.1-0.6
			c0-0.9,0.4-1.8,1-2.5l52.7,30.4c0.7,0.4,1.2,1,1.3,1.8L237,223.2z"/>
		<path class="st14" d="M237,223.2c-1,0.4-2.1,0.3-3-0.2l-50.7-29.3c-0.9-0.5-1.5-1.4-1.7-2.4l-5.6-33.1c0-0.2,0-0.4-0.1-0.6
			c0-0.9,0.4-1.8,1-2.5l52.7,30.4c0.7,0.4,1.2,1,1.3,1.8L237,223.2z"/>
		<path class="st17" d="M237.8,222.8l-0.3,0.2c-0.2,0.1-0.3,0.2-0.5,0.2l-6-35.8c-0.1-0.8-0.6-1.4-1.2-1.8l-52.7-30.4
			c0.2-0.2,0.4-0.4,0.7-0.5l52.8,30.5c0.7,0.4,1.1,1,1.2,1.8L237.8,222.8z"/>
		<path class="st12" d="M208.4,192.7c-0.4-2.2-2.7-5.2-5.1-6.6s-4.1-0.8-3.8,1.4s2.7,5.2,5.1,6.6S208.8,194.9,208.4,192.7z"/>
		<path class="st28" d="M218.8,214.2c-0.1-1.4-0.4-2.9-0.8-4.2c-0.8-2.4-3.1-11.9-8.4-13.3c-0.6-0.2-1.3-0.2-1.9-0.1
			c-1.5,0.4-2.1,1.9-2.4,3.3c-0.3,2-0.3,4.1,0,6.1c-0.8-0.9-1.8-1.7-2.8-2.4c-0.9-0.7-2.1-1.1-3.3-1.2c-0.3,0-0.7,0.1-0.9,0.4
			c-0.2,0.4,0,0.8,0.3,1.1c0.5,0.6,1.2,1.2,1.7,1.8c0.4,0.6,0.8,1.1,1.1,1.7c0.7,1.1,1.4,2.1,2.2,3.1c1.4,2.1,3.2,4,5.3,5.5
			c2.4,1.6,5.1,2.7,8,3.2c3.9,0.5,7.6,0.4,10.1-0.4L218.8,214.2z"/>
		<path class="st28" d="M313.1,152.4c-3.6-1.8-8.8,5.4-7.1,13.1s9.8,34.4,9.8,34.4s-37,3.3-40.1,3.7c-2.2,0.3-4.6-0.9-6.7-1.5
			c-2.8-0.9-5.5-1.6-8.3-2.6c-0.5-0.2-1-0.3-1.5-0.3c-0.5,0-1,0.4-1.1,0.9c0,0.3,0.1,0.6,0.2,0.9c0.9,1.8,2.2,3.3,3.8,4.4
			c0.8,0.5,1.5,1,2.2,1.6c0.4,0.4,1.4,1.6,1,2.3l-14.7,8.4c0,0,3.4,2.9,15.6-0.5c4.4-1.2,8.7-2.7,12.9-4.6c0,0,43.5,1.8,51.4-0.6
			c2.8-0.9,3.8-2.8,1.9-11.8c-2.1-10.4-8.3-29.3-9.7-34.3C319.7,155.2,319,155.4,313.1,152.4z"/>
		<path class="st12" d="M311.2,150.8c0,0,5.9,1.7,8.4,5s12.3,35.7,12.3,35.7c-5.2,4.3-12,6.2-18.7,5c0,0-7.9-22.4-8.7-28.3
			C303.1,158.9,307.6,151.6,311.2,150.8z"/>
		<path class="st12" d="M279.4,172.5c-0.5-2.5,1.1-3.9,3.5-3c2.6,1.1,4.5,3.3,5.2,6C288.5,178.1,279.9,175,279.4,172.5z"/>
		<path class="st12" d="M295.9,180.3l-7.1-4.5c0.4,1.9-2.2,1.6-4.6,0.8s-5.2-2.4-5.5-4.4l-6.2-0.1c-0.6,0-0.6,0.7,0,1.4
			c1.5,1.7,5.1,4.7,12.6,7.4s10.4,1.8,11.4,1C296.8,181.6,296.5,180.7,295.9,180.3z"/>
	</g>
</g>
</svg>
