<?xml version="1.0" encoding="utf-8"?>
<!-- Generator: Adobe Illustrator 24.0.2, SVG Export Plug-In . SVG Version: 6.00 Build 0)  -->
<svg version="1.1" id="Capa_1" xmlns="http://www.w3.org/2000/svg" xmlns:xlink="http://www.w3.org/1999/xlink" x="0px" y="0px"
	 viewBox="0 0 500 500" style="enable-background:new 0 0 500 500;" xml:space="preserve">
<style type="text/css">
	.st0{fill:#F5F5F5;}
	.st1{opacity:0.2;}
	.st2{fill:#E0E0E0;}
	.st3{fill:#263238;}
	.st4{fill:#B78876;}
	.st5{fill:#AA6550;}
	.st6{fill:#455A64;}
	.st7{fill:#E58D5C;}
	.st8{opacity:0.3;}
	.st9{fill:#FAFAFA;}
	.st10{fill:#5F65E0;}
	.st11{opacity:0.8;fill:#FFFFFF;enable-background:new    ;}
	.st12{fill:#FFFFFF;}
	.st13{opacity:0.4;}
</style>
<g id="freepik--background-simple--inject-38">
	<path class="st0" d="M421,89.7c-1.1-11-10.6-21-21.6-21c-8.6,0-16.8,5.4-25.3,4.2C362.9,71.2,356.5,59,346.3,54
		c-11.6-5.7-25.7-1-31.4,10.6c-1.6,3.3-2.5,6.9-2.4,10.6c1.1,9.1,4.9,17.7,10.9,24.6c5.4,6.1,12.8,10.1,20.1,13.7
		c9.9,4.8,20.3,8.9,31.2,10.3s22.5-0.2,31.8-6.3S422,100.7,421,89.7z"/>
	<g class="st1">
		<path class="st2" d="M312.4,75.2L312.4,75.2L312.4,75.2z"/>
	</g>
	<path class="st0" d="M232,371.7c-1.8-10.5-9.8-18.7-20.2-20.7l-0.7-0.1c-13.5-2-26.1,7.4-28,20.9c-2,13.5,7.4,26.1,20.9,28
		c13.5,2,26.1-7.4,28-20.9C232.4,376.6,232.4,374.1,232,371.7z"/>
	<path class="st0" d="M254.3,347.4l-2.7,0.9c-4.2,2.4-4.6,9.3-0.7,12.3s10.4,0.6,11.6-4S259.1,346.7,254.3,347.4z"/>
	<path class="st0" d="M54.3,53.2l-2.7,0.9c-4.2,2.4-4.6,9.3-0.7,12.2s10.4,0.7,11.6-4S59.1,52.5,54.3,53.2z"/>
</g>
<g id="freepik--Floor--inject-38">
	<path class="st3" d="M466.5,474.9c0,0.1-96.9,0.3-216.5,0.3s-216.5-0.1-216.5-0.3s96.9-0.3,216.5-0.3S466.5,474.8,466.5,474.9z"/>
</g>
<g id="freepik--Character--inject-38">
	<path class="st3" d="M414.3,301.8c0-9,2.5-18,2.4-23.5s-3.6-11.3-9.1-12.3c-1.9-0.3-3.9-0.1-5.8-0.5c-2.2-0.5-4.1-2.1-5.9-3.5
		c-4.7-3.8-9.8-7.4-15.6-8.9s-12.7-0.3-16.6,4.3c-2.8,3.3-3.8,7.8-4.4,12.1c-0.3,2.2-0.6,4.6,0.3,6.6c1.3,2.8,4.5,4.2,7.5,3.3"/>
	<path class="st4" d="M408.1,358.8l-33.9-1.6c-0.2-3.6,1.6-25.9,1.6-25.9s-12.8-2-13-14.8s2.1-42.2,2.1-42.2l0,0
		c14.8-6.4,31.9-4.2,44.7,5.6l1.9,1.5L408.1,358.8z"/>
	<path class="st5" d="M375.9,331.2c5.9,0.1,11.7-1.5,16.7-4.7c0,0-3.9,9.2-16.7,8.1L375.9,331.2z"/>
	<path class="st4" d="M410,294.7c0.2-0.1,8.8-2.6,8.5,6.1s-9,6.7-9,6.4S410,294.7,410,294.7z"/>
	<path class="st5" d="M412.3,304.1c0,0,0.1,0.1,0.4,0.2c0.4,0.2,0.8,0.2,1.1,0.1c0.9-0.3,1.8-1.8,1.9-3.3c0-0.8-0.1-1.5-0.4-2.2
		c-0.2-0.6-0.6-1-1.1-1.2c-0.4-0.1-0.7,0.1-0.9,0.4c-0.1,0.2-0.1,0.4-0.1,0.4s-0.2-0.1-0.1-0.5c0.1-0.2,0.2-0.4,0.4-0.5
		c0.3-0.2,0.6-0.2,0.9-0.2c0.7,0.2,1.3,0.7,1.5,1.4c0.3,0.8,0.5,1.6,0.5,2.5c-0.1,1.8-1.1,3.4-2.4,3.7c-0.5,0.1-1,0-1.4-0.3
		C412.3,304.3,412.3,304.1,412.3,304.1z"/>
	<path class="st3" d="M367.8,294.4c0,1,0.8,1.8,1.8,1.9c1,0.1,1.8-0.7,1.9-1.6c0,0,0,0,0,0c0-1-0.8-1.8-1.8-1.9
		C368.7,292.7,367.9,293.4,367.8,294.4C367.8,294.4,367.8,294.4,367.8,294.4z"/>
	<path class="st3" d="M367.4,292.4c0.2,0.2,1.6-0.8,3.6-0.8s3.4,1,3.6,0.8s-0.1-0.5-0.8-1c-0.9-0.6-1.9-0.9-2.9-0.9
		c-1,0-2,0.3-2.9,0.9C367.5,291.9,367.3,292.3,367.4,292.4z"/>
	<path class="st3" d="M387.1,294.9c0,1,0.8,1.8,1.8,1.9c1,0.1,1.8-0.7,1.9-1.6c0,0,0,0,0,0c0-1-0.8-1.8-1.8-1.9
		C388,293.2,387.2,293.9,387.1,294.9C387.1,294.9,387.1,294.9,387.1,294.9z"/>
	<path class="st3" d="M386.8,292.8c0.2,0.2,1.6-0.8,3.6-0.8s3.4,1,3.6,0.8s-0.1-0.5-0.8-1c-0.9-0.6-1.9-0.9-2.9-0.9
		c-1,0-2,0.3-2.9,0.9C386.9,292.2,386.6,292.6,386.8,292.8z"/>
	<path class="st3" d="M379.6,307.4c-1-0.3-2.1-0.5-3.2-0.6c-0.5-0.1-1-0.2-1.1-0.5c0-0.5,0.1-1,0.3-1.5c0.5-1.2,1-2.5,1.5-3.8
		c2.1-5.5,3.6-9.9,3.3-10s-2.1,4.3-4.1,9.7c-0.5,1.3-1,2.6-1.4,3.9c-0.3,0.6-0.4,1.3-0.3,2c0.2,0.4,0.5,0.6,0.8,0.7
		c0.3,0.1,0.6,0.1,0.9,0.1C377.4,307.5,378.5,307.5,379.6,307.4z"/>
	<path class="st3" d="M385.4,308.7c-0.3,0-0.3,2.1-2.1,3.6s-4.1,1.3-4.1,1.6c0,0.1,0.5,0.4,1.5,0.4c1.3,0,2.5-0.4,3.4-1.2
		c0.9-0.7,1.5-1.8,1.7-3C385.8,309.2,385.6,308.7,385.4,308.7z"/>
	<path class="st3" d="M386.3,285c0.2,0.5,2.2,0.3,4.5,0.6s4.2,0.9,4.5,0.4c0.1-0.2-0.2-0.7-0.9-1.3c-1-0.6-2.1-1-3.3-1.2
		c-1.2-0.1-2.4,0-3.5,0.4C386.6,284.4,386.2,284.8,386.3,285z"/>
	<path class="st3" d="M368.1,286.7c0.4,0.4,1.7,0,3.3,0s3,0.3,3.3-0.2c0.1-0.2-0.1-0.7-0.7-1.1c-1.7-1-3.8-1-5.4,0.2
		C368.2,286,368,286.5,368.1,286.7z"/>
	<path class="st3" d="M412.3,280.9c-0.2,3.7,0.7,7.9,0,11.6c-0.1,0.5-1.5,2-1.7,2.6c-0.8,3.3-2.1,4.6-4,1.3
		c-0.7-1.3-1.2-4.9-1.5-6.3c-0.8-3.9-1.6-7.9-2.3-11.8c-3,1.6-6.4,2.4-9.7,2.3c-3.4-0.2-6.8-1.9-8.3-4.9c-3,4.9-9.3,6.4-14.2,3.5
		c-0.6-0.4-1.3-0.9-1.8-1.4c-1.3,1.8-3.8,2.4-5.7,1.2c-1.8-1.2-2.7-3.5-2.1-5.6c0.9-3.1,4.2-4.8,7.4-5.7c12.2-3.6,25.7-0.8,36.6,5.6
		c1.6,0.9,3.1,2,4.4,3.3c1.3,1.4,3,3,3,4.8"/>
	<path class="st6" d="M362.6,258.5c0.7-0.7,1.5-1.3,2.4-1.9c2.4-1.4,5.1-2.1,7.9-1.9c6.9,0.4,16.5,4.1,24.1,11.7
		c1.1,1.1,2.1,2.2,3,3.3l0.2,0.3l0.3-0.1c4.1-1.8,8.9-0.6,11.6,3c2.3,3.3,2.3,7.3,1.8,10.3c-0.5,2.4-1.2,4.7-2.1,6.9
		c-0.4,0.8-0.7,1.6-0.9,2.5c0.5-0.7,0.9-1.5,1.2-2.4c1.1-2.2,1.9-4.6,2.4-7c0.3-1.7,0.4-3.4,0.3-5.2c-0.2-2-0.9-4-2-5.7
		c-2.9-4-8.3-5.4-12.8-3.3l0.6,0.1c-1-1.2-2-2.3-3-3.4c-7.7-7.7-17.5-11.4-24.7-11.7c-2.9-0.1-5.7,0.6-8.1,2.2
		c-0.6,0.4-1.2,1-1.7,1.5C362.8,258,362.7,258.2,362.6,258.5z"/>
	<path class="st6" d="M369.2,273.2c0.3-1.8,1.1-3.5,2.1-5c1.2-1.6,2.8-2.8,4.5-3.7c2.2-1,4.6-1.4,7-1.3c5.2,0.3,9.5,2.6,12.5,4.2
		c1.6,1,3.2,1.9,4.9,2.7c0,0-0.4-0.4-1.2-1s-1.9-1.4-3.4-2.3c-2.9-1.8-7.4-4.2-12.8-4.5c-2.6-0.2-5.1,0.3-7.5,1.4
		c-1.9,0.9-3.5,2.3-4.7,4.1c-0.8,1.2-1.3,2.5-1.6,3.9C369,272.1,369,272.7,369.2,273.2z"/>
	<path class="st7" d="M400.8,304.5h-30.1c-5.3,0-9.6-4.3-9.6-9.6l0,0l0,0c0-5.3,4.3-9.6,9.6-9.6h30.1c5.3,0,9.6,4.3,9.6,9.6l0,0
		C410.4,300.2,406.1,304.5,400.8,304.5z"/>
	<g class="st8">
		<path d="M400.8,304.5h-30.1c-5.3,0-9.6-4.3-9.6-9.6l0,0l0,0c0-5.3,4.3-9.6,9.6-9.6h30.1c5.3,0,9.6,4.3,9.6,9.6l0,0
			C410.4,300.2,406.1,304.5,400.8,304.5z"/>
	</g>
	<path class="st7" d="M388.1,304.5H358c-5.3,0-9.6-4.3-9.6-9.6l0,0c0-5.3,4.3-9.6,9.6-9.6h30.1c5.3,0,9.6,4.3,9.6,9.6l0,0
		C397.8,300.2,393.4,304.5,388.1,304.5C388.1,304.5,388.1,304.5,388.1,304.5z"/>
	<path class="st3" d="M387.8,303.6h-29.5c-4.8,0-8.6-3.9-8.6-8.6l0,0c0-4.8,3.9-8.6,8.6-8.6h29.5c4.8,0,8.6,3.9,8.6,8.6l0,0
		C396.4,299.8,392.5,303.6,387.8,303.6z"/>
	<polygon class="st2" points="371.7,286.4 357.7,303.6 361.6,303.6 375.8,286.4 	"/>
	<path class="st2" d="M375.1,291.9c-1.4,2-2.9,3.9-4.5,5.7c-1.5,1.9-3.2,3.7-4.9,5.4C368.5,299.1,371.7,295.4,375.1,291.9
		L375.1,291.9z"/>
	<path class="st2" d="M377.4,288.9c0.1,0.1-0.1,0.5-0.5,1s-0.8,0.7-0.9,0.6s0.1-0.5,0.5-1S377.2,288.8,377.4,288.9z"/>
	<path class="st2" d="M367.1,288c-0.6,1.4-1.5,2.6-2.5,3.7c-0.9,1.2-2,2.3-3.2,3.2c0.8-1.2,1.8-2.4,2.8-3.5
		C365.1,290.2,366,289.1,367.1,288z"/>
	<polygon class="st4" points="454.4,425.5 460.4,474.9 439.7,474.8 430.9,424.8 	"/>
	<path class="st7" d="M310,416.1l35-18.5l4.5,77.1l90.2,0.1l-6.6-47.7l32.2-0.8c0,0-6-37.8-8.4-46.3s-11.9-18.1-19.2-22
		s-28.9-13.4-28.9-13.4c-12.3,5.1-23.6,5-33.8-1.4c-6,0.8-11.8,2.2-17.5,4.2c-7.5,2.6-15.1,5.7-18.3,7.6S302,378.5,302,378.5
		L310,416.1z"/>
	<path class="st3" d="M431.3,386.8c0,0.2,0.1,0.3,0.1,0.5c0,0.4,0.1,0.8,0.1,1.4c0.1,1.3,0.1,3,0.2,5.2c0.2,4.4,0.5,10.4,0.7,17
		s0.6,12.7,0.9,17c0.1,2.1,0.3,3.9,0.3,5.1c0,0.6,0.1,1,0.1,1.4c0,0.2,0,0.3,0,0.5c-0.1-0.2-0.1-0.3-0.1-0.5c0-0.4-0.1-0.8-0.2-1.4
		c-0.1-1.2-0.3-3-0.5-5.1c-0.4-4.3-0.7-10.4-1-17s-0.5-12.7-0.6-17c0-2.1,0-3.9-0.1-5.2c0-0.6,0-1,0-1.4
		C431.2,387.2,431.2,387,431.3,386.8z"/>
	<path class="st3" d="M346.9,423.7c-0.1-0.5-0.1-0.9-0.1-1.4c0-1-0.1-2.3-0.2-3.9c-0.1-3.4-0.4-7.9-0.6-12.8s-0.4-9.5-0.4-12.8
		c0-1.6,0-3,0-3.9c0-0.5,0-1,0.1-1.4c0.1,0.5,0.1,1,0.1,1.4c0,1,0.1,2.3,0.2,3.9c0.2,3.4,0.4,7.9,0.6,12.8s0.4,9.5,0.4,12.8
		c0,1.6,0,3,0,3.9C347,422.8,346.9,423.3,346.9,423.7z"/>
	<g class="st8">
		<path d="M431.4,390.7c2.9,8.6,5.8,17.1,8.7,25.7c0.8,2.4,1.6,5,0.9,7.5s-4.2,3.2-7.9,3.2c0,0-0.1-3.5-0.3-5.6
			c-0.7-9.7-1.3-19.5-1.9-29.2"/>
	</g>
	<path class="st9" d="M451.4,404.5c0.1-0.2,0.3-0.4,0.4-0.6l1.1-1.7c1-1.4,2.4-3.5,4-5.8l0,0.3l-8-5.7l0.4-0.1l0,0l0,0l0,0l0,0.1
		l-0.1,0.1l-0.2,0.3l-0.4,0.5c-0.3,0.4-0.5,0.7-0.8,1.1c-0.5,0.7-1,1.4-1.5,2.1l-2.7,3.8l-0.1-0.3c2.4,1.7,4.3,3.2,5.7,4.2l1.6,1.2
		C451,404.2,451.2,404.3,451.4,404.5c-0.2-0.1-0.4-0.2-0.5-0.4l-1.6-1.1c-1.4-1-3.5-2.4-6-4.1l-0.2-0.1l0.1-0.2l2.7-3.8l1.5-2.1
		c0.3-0.4,0.5-0.7,0.8-1.1l0.4-0.5l0.2-0.3l0.1-0.1l0-0.1l0,0l0,0l0,0l0.4-0.1l8,5.8l0.2,0.1l-0.1,0.2c-1.8,2.4-3.3,4.4-4.3,5.8
		l-1.2,1.6C451.5,404.4,451.4,404.5,451.4,404.5z"/>
	<path class="st9" d="M417.3,384.6c0.1-0.2,0.2-0.4,0.4-0.6c0.3-0.5,0.7-1,1.1-1.7c1-1.4,2.4-3.5,4-5.8l0.1,0.3l-8-5.7l0.4-0.1l0,0
		l0,0l0,0l0,0.1l-0.1,0.1l-0.2,0.3l-0.4,0.5l-0.8,1.1c-0.5,0.7-1,1.4-1.5,2.1l-2.8,3.8l0-0.3c2.4,1.7,4.3,3.2,5.7,4.2l1.6,1.2
		C416.9,384.3,417.1,384.4,417.3,384.6c0,0-0.2-0.1-0.6-0.3l-1.6-1.1c-1.4-1-3.5-2.4-5.9-4.1l-0.2-0.1l0.1-0.2l2.7-3.8l1.5-2.1
		l0.8-1.1l0.4-0.5l0.2-0.3l0.1-0.1v-0.1l0,0l0,0l0,0c-0.3,0,0.4-0.1,0.4-0.1l8,5.8l0.2,0.1l-0.1,0.2c-1.8,2.4-3.3,4.4-4.3,5.8
		l-1.2,1.6C417.5,384.3,417.4,384.5,417.3,384.6z"/>
	<path class="st9" d="M367.3,389.1c0.1-0.2,0.3-0.4,0.4-0.6l1.1-1.7c1-1.4,2.4-3.5,4-5.8l0,0.3l-8-5.7l0.4-0.1l0,0l0,0l0,0l0,0.1
		l-0.1,0.1l-0.2,0.3l-0.4,0.5c-0.3,0.4-0.5,0.7-0.8,1.1c-0.5,0.7-1,1.4-1.5,2.1l-2.7,3.8v-0.3c2.4,1.7,4.3,3.2,5.7,4.2l1.6,1.2
		C366.9,388.7,367.1,388.9,367.3,389.1c-0.1-0.2-0.3-0.3-0.5-0.4l-1.7-1c-1.4-1-3.5-2.4-6-4.1l-0.2-0.1l0.1-0.2l2.7-3.8l1.5-2.1
		l0.8-1.1l0.4-0.5l0.2-0.3l0.1-0.1l0-0.1l0,0l0,0l0.4-0.1l8,5.8l0.2,0.1l-0.1,0.2c-1.8,2.4-3.3,4.4-4.3,5.8l-1.2,1.6
		C367.4,388.8,367.4,389,367.3,389.1z"/>
	<path class="st9" d="M372,425.3c0.1-0.2,0.3-0.4,0.4-0.6l1.1-1.7c1-1.4,2.4-3.5,4-5.8v0.3l-8-5.7l0.4-0.1l0,0l0,0l0,0l0,0.1
		l-0.1,0.1l-0.2,0.3l-0.4,0.5c-0.3,0.4-0.5,0.7-0.8,1.1c-0.5,0.7-1,1.4-1.5,2.1l-2.7,3.8l-0.1-0.3c2.4,1.7,4.3,3.2,5.7,4.2l1.6,1.2
		C371.6,424.9,371.8,425.1,372,425.3c-0.2-0.2-0.4-0.3-0.6-0.4l-1.6-1.1c-1.4-1-3.5-2.4-6-4.1l-0.2-0.1l0.1-0.2l2.7-3.8l1.5-2.1
		l0.8-1.1l0.4-0.5l0.2-0.3l0.1-0.1l0-0.1l0,0l0,0l0,0l0.4-0.1l8,5.8l0.2,0.1l-0.1,0.2c-1.8,2.4-3.3,4.4-4.3,5.8l-1.2,1.6
		C372.2,425.1,372,425.3,372,425.3z"/>
	<path class="st9" d="M328.7,395.2c0.1-0.2,0.2-0.4,0.4-0.6c0.3-0.5,0.7-1,1.1-1.7c1-1.4,2.4-3.5,4-5.8l0.1,0.3l-8-5.7l0.4-0.1l0,0
		l0,0l0,0l0,0.1l-0.1,0.1l-0.2,0.3l-0.4,0.5l-0.8,1.1c-0.5,0.7-1,1.4-1.5,2.1c-1,1.3-1.9,2.6-2.7,3.8l0-0.3c2.4,1.7,4.3,3.2,5.7,4.2
		l1.6,1.2C328.4,394.8,328.6,395,328.7,395.2c0.1-0.1-0.1-0.1-0.5-0.4l-1.6-1.1c-1.4-1-3.5-2.4-5.9-4.1l-0.2-0.1l0.1-0.2l2.7-3.8
		l1.5-2.1l0.8-1.1l0.4-0.5l0.2-0.3l0.1-0.1l0-0.1l0,0l0,0l0,0l0.4-0.1l8,5.8l0.2,0.1l-0.1,0.2c-1.8,2.4-3.3,4.4-4.3,5.8l-1.2,1.6
		C329,394.9,328.8,395.1,328.7,395.2z"/>
	<path class="st9" d="M397.1,399.5c0.2-0.5,0.5-0.9,0.8-1.4c0.5-0.8,1.3-2,2.2-3.3l0,0.3l-4.5-3.2l0.4,0l0,0l0,0l0,0l-0.1,0.1
		l-0.1,0.2l-0.2,0.3c-0.1,0.2-0.3,0.4-0.4,0.6c-0.3,0.4-0.6,0.8-0.8,1.2l-1.5,2.1l0-0.3c1.3,1,2.4,1.8,3.1,2.4
		C396.3,398.8,396.7,399.1,397.1,399.5c-0.4-0.3-0.8-0.5-1.2-0.8c-0.8-0.5-2-1.3-3.4-2.3l-0.2-0.1l0.1-0.2l1.5-2.1l0.8-1.2l0.4-0.6
		l0.2-0.3l0.1-0.2v-0.1l0,0l0,0l0,0l0.4-0.1l4.5,3.3l0.2,0.1l-0.1,0.2c-1,1.4-1.9,2.5-2.5,3.3C397.7,398.8,397.4,399.2,397.1,399.5z
		"/>
	<path class="st9" d="M440.1,379.2c0.3-0.5,0.5-0.9,0.8-1.4c0.5-0.8,1.3-2,2.2-3.3l0,0.3l-4.5-3.2l0.4-0.1l0,0l0,0l0,0v0.1l-0.1,0.1
		l-0.2,0.3l-0.4,0.6l-0.8,1.2l-1.5,2.1l-0.1-0.3c1.3,1,2.4,1.8,3.1,2.4c0.4,0.3,0.8,0.6,1.2,1c-0.4-0.2-0.8-0.5-1.2-0.8
		c-0.8-0.5-2-1.3-3.4-2.3l-0.2-0.1l0.1-0.2l1.5-2.1l0.8-1.2l0.4-0.6l0.2-0.3l0.1-0.1l0-0.1l0,0l0,0l0,0l0.4-0.1l4.5,3.3l0.2,0.1
		l-0.1,0.2c-1,1.4-1.9,2.5-2.5,3.3C440.8,378.5,440.5,378.9,440.1,379.2z"/>
	<path class="st9" d="M337.5,372.6c0.2-0.5,0.5-0.9,0.8-1.4c0.5-0.8,1.3-2,2.2-3.3l0,0.3l-4.5-3.2l0.4-0.1l0,0l0,0l0,0l-0.1,0.1
		l-0.1,0.2l-0.2,0.3l-0.4,0.6l-0.8,1.2l-1.5,2.1l-0.1-0.3c1.3,1,2.4,1.8,3.1,2.4C336.7,371.8,337.1,372.2,337.5,372.6
		c-0.4-0.3-0.8-0.5-1.2-0.8c-0.8-0.5-2-1.3-3.4-2.3l-0.2-0.1l0.1-0.2l1.5-2.1l0.8-1.2l0.4-0.6l0.2-0.3l0.1-0.1v-0.1l0,0l0,0l0,0
		l0.4-0.1l4.5,3.3l0.2,0.1l-0.1,0.2c-1,1.4-1.9,2.5-2.5,3.3C338.1,371.9,337.8,372.2,337.5,372.6z"/>
	<path class="st9" d="M409.8,419.9c0.2,0.1,0.5,0.1,0.7,0.2l1.9,0.6c1.6,0.5,4,1.3,6.7,2.3l-0.3,0.1c1-2.7,2.1-5.9,3.3-9.3
		c0-0.1,0.3,0.6,0.2,0.3l0,0l0,0h-0.1L422,414l-0.3-0.1l-0.6-0.2l-1.3-0.4l-2.4-0.9l-4.4-1.6l0.3-0.1c-1,2.7-1.9,5-2.5,6.6
		c-0.3,0.8-0.5,1.4-0.7,1.9C410,419.4,409.9,419.6,409.8,419.9c0-0.2,0.1-0.4,0.1-0.6l0.6-1.9c0.5-1.6,1.3-4,2.3-6.9l0.1-0.2
		l0.2,0.1l4.4,1.5l2.4,0.9l1.2,0.4l0.6,0.2l0.3,0.1l0.2,0h0.1l0,0l0,0c-0.1-0.3,0.2,0.4,0.2,0.3c-1.2,3.4-2.4,6.6-3.3,9.3l-0.1,0.2
		l-0.2-0.1c-2.8-1-5.2-1.9-6.8-2.5l-1.8-0.7C410.1,420,410,419.9,409.8,419.9z"/>
	<g class="st1">
		<path d="M310.7,373.3c2.9,4.9,5.8,9.8,7.6,15.2c1.7,4.4,2.3,9.1,1.7,13.8c-0.5,4.7-2.8,9-6.5,12.1c-1,0.9-2.3,1.5-3.7,1.6
			c-2.4,0.1-4.3-2-5.4-4.2c-2.6-5.3-2.2-11.5-1.4-17.3c0.8-6.2,2-12.3,3.5-18.4"/>
	</g>
	<path class="st4" d="M315.2,401.5l-9.6-67.9v-11.1c0,0-1.5-25-1.3-27.5c0.2-2.8-1.1-3.6-2.1-3.6c-1.6,0-2.9,1.9-3.1,4.3
		c-0.1,0.8-0.9,14-0.9,14c-0.7-1.3-1.4-2.5-2.3-3.7c-1.8-2.6-6.2-4.3-10.9-4.5s-6,0.2-6.2,2c0,0.7,0.3,1.4,0.8,1.8
		c0.8,0.8,1.9,1.2,3,1.3c7.5,0.4,9.3,4.5,9.3,4.5v1.5c0,0-4.3-3.5-8-2.4c-0.5,0.2-1.1,0.4-1.5,0.8c-3.2-0.2-6,2.2-6.2,5.5
		c-0.1,1,0.1,2,0.6,2.9c0.3,1,1.3,1.6,2.3,1.6c0.5-0.1,1-0.4,1.4-0.7c0.2-0.2,0.5-0.3,0.7-0.5l0.6,4.1c0,0,1.8,9.1,2.1,13.1
		l-1.2,66.4c-0.2,9.1,7.1,16.6,16.2,16.8c0.1,0,0.2,0,0.3,0l0,0c9.1,0,16.5-7.4,16.5-16.5C315.3,403,315.3,402.2,315.2,401.5z"/>
	<path class="st4" d="M303.4,332.5c-1.4,0.3-2.8-0.8-3.4-2.1s-0.9-2.7-1.4-4c-1.7-3.9-6.3-6-7.8-10c-0.2-0.6-0.3-1.3,0.2-1.6
		s1.1,0,1.5,0.3l11.9,7.7"/>
	<path class="st5" d="M304.4,322.7c-0.4-0.4-0.8-0.7-1.2-1c-0.8-0.6-2-1.4-3.4-2.4l-5.2-3.3l-1.5-1c-0.5-0.5-1.3-0.7-2-0.7
		c-0.5,0.1-0.8,0.5-0.9,1c0,0.4,0,0.8,0.1,1.1c0.2,0.7,0.6,1.3,1,1.9c1.6,2.3,3.7,3.9,5.2,5.6c0.7,0.8,1.3,1.7,1.8,2.6
		c0.4,0.9,0.6,1.9,1,2.7c0.4,1.4,1.3,2.6,2.7,3.3c0.5,0.2,1.1,0.2,1.6,0c-0.5,0-1-0.1-1.4-0.3c-1.2-0.7-2-1.8-2.3-3.2
		c-0.2-0.9-0.5-1.9-0.9-2.8c-0.5-1-1.1-2-1.8-2.9c-1.5-1.8-3.6-3.4-5-5.6c-0.3-0.5-0.6-1.1-0.9-1.7c-0.2-0.6-0.1-1.1,0.2-1.1
		s0.9,0.3,1.4,0.6l1.5,1l5.3,3.3c1.5,0.9,2.7,1.6,3.6,2.1C303.5,322.3,303.9,322.5,304.4,322.7z"/>
	<path class="st5" d="M291.9,312.7c0-0.9-0.3-1.8-0.7-2.6c-0.5-0.8-1.3-1.4-2.2-1.8c-1.1-0.4-2.3-0.7-3.5-0.8
		c-1.2-0.1-2.5-0.3-3.7-0.6c-1-0.3-1.9-0.8-2.7-1.6c-0.5-0.5-0.7-1.3-0.6-2c0-0.3,0.1-0.5,0.3-0.7c0,0,0,0.3-0.1,0.7
		c0,0.6,0.2,1.3,0.7,1.7c0.7,0.7,1.6,1.1,2.5,1.4c1.2,0.3,2.4,0.4,3.6,0.5c1.3,0.1,2.5,0.4,3.7,0.8c1,0.4,1.8,1.1,2.3,2.1
		c0.3,0.6,0.5,1.3,0.5,2C292.1,312.2,292,312.4,291.9,312.7z"/>
	<path class="st5" d="M299,294.8c0,0.9,0,1.7-0.1,2.6c-0.1,1.8-0.3,3.9-0.5,6.3s-0.3,4.5-0.4,6.3c0,0.9-0.1,1.7-0.2,2.6
		c-0.1-0.9-0.2-1.7-0.1-2.6c0-1.6,0.1-3.9,0.2-6.3s0.4-4.7,0.6-6.3C298.6,296.5,298.8,295.7,299,294.8z"/>
	<path class="st5" d="M288.8,315.4c0,0-0.3-0.1-0.7-0.3c-0.6-0.4-1.3-0.4-2-0.2c-0.4,0.2-0.7,0.6-0.8,1c-0.1,0.6-0.1,1.1,0,1.7
		c0.1,0.7-0.1,1.4-0.5,2c-0.5,0.6-1.3,0.9-2.1,0.9c-0.8,0-1.5-0.4-2-1c-0.5-0.5-0.8-1.2-0.9-1.9c-0.1-1.1,0-2.3,0.3-3.4
		c0.1-0.7,0.4-1.5,0.8-2.1c0.3-0.5,0.6-0.6,0.6-0.6s-0.2,0.2-0.4,0.7c-0.3,0.7-0.5,1.4-0.6,2.1c-0.2,1.1-0.2,2.1-0.2,3.2
		c0.1,1.3,1.1,2.3,2.4,2.5c0.6,0,1.2-0.2,1.6-0.7c0.3-0.5,0.5-1.1,0.4-1.7c-0.1-0.6-0.1-1.2,0-1.8c0.1-0.6,0.5-1.1,1-1.3
		c0.8-0.2,1.6-0.1,2.3,0.4C288.3,315,288.6,315.2,288.8,315.4z"/>
	<path class="st5" d="M281,319.1c0,0,0.1,0.3-0.1,0.7c-0.3,0.6-0.9,1.1-1.6,1.2c-1.1,0.2-2.1-0.2-2.8-1.1c-0.8-1-1.2-2.3-1-3.5
		c0.1-1.3,0.6-2.5,1.4-3.4c0.7-0.8,1.5-1.4,2.5-1.7c0.6-0.2,1.3-0.3,2-0.3c0.2,0,0.5,0,0.7,0.1c-0.9,0.1-1.8,0.2-2.6,0.5
		c-0.9,0.4-1.6,0.9-2.2,1.7c-0.7,0.9-1.1,2-1.2,3.2c-0.1,1.1,0.2,2.3,0.9,3.2c0.6,0.7,1.5,1.1,2.4,1c0.6-0.1,1.2-0.5,1.5-1
		C281,319.4,281,319.1,281,319.1z"/>
	<path class="st5" d="M289.5,328.5c0,0,0.5-0.1,1.3,0.1c1.1,0.3,2,1,2.6,1.8l-0.5,0.1c0.1-0.6,0.2-1.2,0.4-1.7
		c0.5-2,1.6-3.8,3.1-5.3c-1,1.7-1.9,3.5-2.6,5.5c-0.2,0.6-0.3,1.1-0.4,1.7l-0.1,0.6l-0.3-0.5c-0.6-0.8-1.4-1.4-2.3-1.8
		C290.2,328.8,289.8,328.7,289.5,328.5z"/>
	<path class="st5" d="M290.7,306.2c0.1,0.1-0.5,1-1.6,1.4s-2.2,0.1-2.1,0s0.9-0.1,2-0.5S290.6,306.1,290.7,306.2z"/>
</g>
<g id="freepik--Galaxy--inject-38">
	<path class="st10" d="M354.2,205.2c19.2-9.5,27.1-32.7,17.6-51.9c-3.1-6.2-7.7-11.4-13.5-15.2c-13.9-9.2-33-8.9-45.5-20.1
		c-20.9-18.7-10.2-56.2-28.5-77.4c-11-12.7-30-15.7-46.5-12.1c-20.8,4.5-27.5,24.7-42.2,34.5c-13.5,9-23.5,7.4-38.9,3.2
		c-30.1-8.3-44-5.8-63.1,2.6c-4.8,2.4-9.5,5.1-14,8c-31.4,19.9-49.8,59.2-43.8,96c6.4,40,41,73.8,81.1,79.3
		c11.3,1.6,23.6,1.3,33.2,7.5c18.4,11.9,17,39.6,29.9,57.3c10.1,13.9,28.6,20,45.7,18.3s32.9-10.1,46.5-20.6
		c12.6-9.8,25.9-22.2,41.8-20.5c7.3,0.8,13.8,4.5,20.5,7.4s14.4,5.1,21.2,2.6c0,0-5.5-2.2-6.2-5.7c-2.1-11.3,4.7-13,13.2-13
		c-18.8-2.1-35.8-12.5-45-29c-5.8-10.4-8.1-24.4-0.9-33.9C325.4,211.3,341.8,211.3,354.2,205.2z"/>
	<path class="st11" d="M354.2,205.2c19.2-9.5,27.1-32.7,17.6-51.9c-3.1-6.2-7.7-11.4-13.5-15.2c-13.9-9.2-33-8.9-45.5-20.1
		c-20.9-18.7-10.2-56.2-28.5-77.4c-11-12.7-30-15.7-46.5-12.1c-20.8,4.5-27.5,24.7-42.2,34.5c-13.5,9-23.5,7.4-38.9,3.2
		c-30.1-8.3-44-5.8-63.1,2.6c-4.8,2.4-9.5,5.1-14,8c-31.4,19.9-49.8,59.2-43.8,96c6.4,40,41,73.8,81.1,79.3
		c11.3,1.6,23.6,1.3,33.2,7.5c18.4,11.9,17,39.6,29.9,57.3c10.1,13.9,28.6,20,45.7,18.3s32.9-10.1,46.5-20.6
		c12.6-9.8,25.9-22.2,41.8-20.5c7.3,0.8,13.8,4.5,20.5,7.4s14.4,5.1,21.2,2.6c0,0-5.5-2.2-6.2-5.7c-2.1-11.3,4.7-13,13.2-13
		c-18.8-2.1-35.8-12.5-45-29c-5.8-10.4-8.1-24.4-0.9-33.9C325.4,211.3,341.8,211.3,354.2,205.2z"/>
	<path class="st7" d="M327.6,237.5c-0.7,3.1-0.3,6.4,1,9.2c1.4,2.8,3.5,5.1,6.3,6.7c10.8,6.2,21.1-2.9,22-12.9
		c0.2-2.7-0.4-5.4-1.7-7.7C348.6,220.8,330.6,224.1,327.6,237.5z"/>
	<path class="st11" d="M327.6,237.5c-0.7,3.1-0.3,6.4,1,9.2c1.4,2.8,3.5,5.1,6.3,6.7c10.8,6.2,21.1-2.9,22-12.9
		c0.2-2.7-0.4-5.4-1.7-7.7C348.6,220.8,330.6,224.1,327.6,237.5z"/>
	<path class="st7" d="M185.8,89.1c-0.1,0.1-0.2,0.2-0.3,0.3l-1,1l-3.9,3.8L166.3,108l0.1-0.1c0.7,15,1.6,35.4,2.6,58.1v0.5l-0.4-0.3
		l-5.2-3.5l-32.8-22l-0.1-0.1v-0.1c-4.9-14.6-9-26.9-11.9-35.6l-3.3-10.1c-0.4-1.2-0.7-2-0.9-2.7c-0.1-0.3-0.2-0.5-0.2-0.7
		c0-0.1-0.1-0.2-0.1-0.2l0.1,0.2l0.3,0.7c0.2,0.6,0.5,1.5,0.9,2.7c0.8,2.4,2,5.8,3.5,10.1c3,8.7,7.2,21,12.1,35.6l-0.1-0.1
		l32.8,21.9l5.2,3.5l-0.4,0.2c-1-22.7-1.8-43-2.5-58v-0.1l0.1-0.1l14.4-13.7l3.9-3.7l1-1C185.7,89.2,185.8,89.1,185.8,89.1z"/>
	<polygon class="st7" points="170.5,159.1 170.4,162.5 173.2,164.5 169.9,165.4 168.9,168.6 166.9,165.9 163.6,165.8 165.6,163.2 
		164.6,159.9 167.8,161.1 	"/>
	<polygon class="st7" points="131,136.1 131.1,138.3 132.9,139.5 130.9,140.3 130.3,142.4 129,140.6 126.8,140.8 128,138.9 
		127.2,136.9 129.3,137.5 	"/>
	<polygon class="st7" points="114,87.2 115.7,89.3 118.3,89.2 116.8,91.4 117.8,93.9 115.2,93.2 113.2,94.9 113.1,92.2 110.8,90.7 
		113.3,89.8 	"/>
	<polygon class="st7" points="184.2,85.1 185.8,87.2 188.5,87.1 187,89.3 188,91.8 185.4,91.1 183.3,92.8 183.2,90.1 180.9,88.6 
		183.5,87.7 	"/>
	<polygon class="st7" points="165.7,105.6 166.8,106.9 168.5,106.8 167.6,108.3 168.2,109.9 166.5,109.4 165.2,110.5 165.1,108.8 
		163.7,107.8 165.3,107.3 	"/>
	<path class="st7" d="M242.9,180.6c0,0.2-0.1,0.4-0.2,0.7c-0.1,0.5-0.4,1.1-0.6,1.9l-2.3,7l-7.8,23.7l-0.1,0.4l-0.3-0.3l-3.8-3.5
		l-13-12h0.3l-12.9,9.9l-3.7,2.8l-1,0.7c-0.1,0.1-0.2,0.2-0.4,0.2c0.1-0.1,0.2-0.2,0.3-0.3l0.9-0.8l3.6-2.9l12.8-10l0.2-0.1l0.1,0.1
		l13,11.9l3.9,3.5l-0.4,0.1l8-23.6l2.4-7l0.7-1.9C242.7,181,242.8,180.8,242.9,180.6z"/>
	<polygon class="st7" points="230.8,209.8 232.1,211.3 234,211.1 233,212.8 233.8,214.6 231.9,214.1 230.5,215.4 230.3,213.5 
		228.6,212.5 230.4,211.7 	"/>
	<polygon class="st7" points="196.5,211 197.1,211.8 198.1,211.6 197.6,212.5 197.9,213.4 197,213.1 196.3,213.8 196.2,212.8 
		195.4,212.3 196.3,212 	"/>
	<polygon class="st7" points="242.6,180 243.2,180.8 244.2,180.7 243.7,181.5 244.1,182.4 243.1,182.2 242.4,182.8 242.4,181.8 
		241.5,181.4 242.4,181 	"/>
	<polygon class="st7" points="214.7,197.2 215.3,197.9 216.3,197.8 215.8,198.7 216.2,199.6 215.2,199.3 214.5,200 214.4,199 
		213.6,198.5 214.5,198.1 	"/>
	<path class="st7" d="M254.9,292.9c0,0.2-0.1,0.3-0.2,0.5l-0.6,1.4c-0.5,1.3-1.3,3-2.2,5.3c-2,4.6-4.8,11-8.1,18.7v0.1h-0.1
		l-25.4,4.2l-8.5,1.4l-0.4,0.1l0.1-0.4L215,302l0.1,0.2l-14.9-6.7l-4.1-1.9l-1.1-0.5c-0.1-0.1-0.2-0.1-0.4-0.2
		c0.1,0,0.3,0.1,0.4,0.1l1.1,0.5l4.2,1.8l15,6.5l0.2,0.1v0.2c-1.6,6.4-3.5,13.9-5.5,22.1l-0.3-0.3l8.5-1.4l25.4-4.1l-0.2,0.1
		c3.4-7.7,6.2-14.1,8.3-18.6l2.3-5.2l0.6-1.4C254.7,293.2,254.8,293,254.9,292.9z"/>
	<polygon class="st7" points="212.7,321.4 212,323.3 213.1,324.9 211.2,324.8 210,326.3 209.5,324.5 207.6,323.8 209.3,322.7 
		209.3,320.8 210.8,322 	"/>
	<polygon class="st7" points="195.3,291.8 194.9,292.7 195.5,293.5 194.5,293.5 193.9,294.3 193.7,293.3 192.8,293 193.6,292.5 
		193.6,291.5 194.3,292.1 	"/>
	<polygon class="st7" points="244.5,317.6 244.2,318.5 244.7,319.3 243.8,319.2 243.2,320 242.9,319.1 242,318.8 242.8,318.2 
		242.8,317.3 243.6,317.9 	"/>
	<polygon class="st7" points="216.1,301.2 215.8,302.1 216.3,302.9 215.3,302.9 214.8,303.7 214.5,302.7 213.6,302.4 214.4,301.9 
		214.4,300.9 215.2,301.5 	"/>
	<polygon class="st7" points="256.1,292 255.7,292.9 256.3,293.7 255.3,293.6 254.7,294.4 254.5,293.5 253.5,293.1 254.4,292.6 
		254.4,291.6 255.1,292.2 	"/>
	<circle class="st7" cx="235.2" cy="88" r="10.6"/>
	
		<ellipse transform="matrix(0.1656 -0.9862 0.9862 0.1656 -136.7609 250.8854)" class="st7" cx="79.9" cy="206.3" rx="33.7" ry="33.6"/>
	<g class="st8">
		<path class="st12" d="M75.5,216.8c0,3-2.4,5.5-5.5,5.5s-5.5-2.4-5.5-5.5c0-3,2.4-5.5,5.5-5.5S75.5,213.7,75.5,216.8L75.5,216.8z"
			/>
	</g>
	<g class="st8">
		<path class="st12" d="M67.7,200.9c0,1.8-1.4,3.2-3.2,3.2c-1.8,0-3.2-1.4-3.2-3.2c0-1.8,1.4-3.2,3.2-3.2
			C66.3,197.7,67.7,199.1,67.7,200.9C67.7,200.9,67.7,200.9,67.7,200.9z"/>
	</g>
	<path class="st7" d="M47.2,214.4c0.2,0.6-28.8,28.4-21.3,34.3s38.8-9.3,65.6-30.9S142.7,170,136,163s-40.1,13.6-40.1,13.6l4,2.6
		c0,0,20.2-13,26.6-7.9s-11.8,24.8-37.6,43.5s-50.6,32-54.5,26.8s14.4-22.3,14.4-22.3L47.2,214.4z"/>
	<g class="st8">
		<path d="M47.2,214.4c0.2,0.6-28.8,28.4-21.3,34.3s38.8-9.3,65.6-30.9S142.7,170,136,163s-40.1,13.6-40.1,13.6l4,2.6
			c0,0,20.2-13,26.6-7.9s-11.8,24.8-37.6,43.5s-50.6,32-54.5,26.8s14.4-22.3,14.4-22.3L47.2,214.4z"/>
	</g>
	<g class="st8">
		<path class="st12" d="M61.3,182.6c0.3,0.3-2,2.3-4.6,6.1c-7,10.2-7.2,23.5-0.7,34c2.4,4,4.6,6,4.3,6.3s-2.9-1.3-5.9-5.3
			c-1.7-2.3-3.1-4.9-4.1-7.6c-2.5-6.8-2.3-14.3,0.4-21c1.1-2.7,2.6-5.2,4.4-7.5C58.4,183.8,61.2,182.3,61.3,182.6z"/>
	</g>
	<path class="st7" d="M111.2,279.2l0.4,0.8c0.5,0.9,1.2,1.6,2.1,2.1l0.8,0.4l-0.8,0.4c-0.9,0.5-1.6,1.2-2.1,2.1l-0.4,0.8l-0.4-0.8
		c-0.5-0.9-1.2-1.6-2.1-2.1l-0.8-0.4l0.8-0.4c0.9-0.5,1.6-1.2,2.1-2.1L111.2,279.2z"/>
	<path class="st7" d="M255.9,51.2l0.3,0.7c0.4,0.7,1,1.3,1.7,1.7l0.7,0.4l-0.7,0.4c-0.7,0.4-1.3,1-1.7,1.7l-0.4,0.7l-0.4-0.7
		c-0.4-0.7-1-1.3-1.7-1.7l-0.6-0.4l0.6-0.4c0.7-0.4,1.3-1,1.7-1.7L255.9,51.2z"/>
	<path class="st7" d="M79.7,127.5l0.7,1.2c0.8,1.3,2,2.4,3.4,3.1l1.3,0.6l-1.2,0.7c-1.3,0.8-2.4,2-3.1,3.4l-0.6,1.3l-0.7-1.2
		c-0.8-1.3-2-2.4-3.4-3.1l-1.3-0.6l1.2-0.7c1.3-0.8,2.4-2,3.1-3.4L79.7,127.5z"/>
	<path class="st7" d="M248.1,149.8l0.7,1.2c0.8,1.3,2,2.4,3.4,3.1l1.3,0.6l-1.2,0.7c-1.3,0.8-2.4,2-3.1,3.4l-0.6,1.3l-0.7-1.2
		c-0.8-1.3-2-2.4-3.4-3.1l-1.3-0.6l1.2-0.7c1.3-0.8,2.4-2,3.1-3.4L248.1,149.8z"/>
	<path class="st7" d="M301.7,272.1l0.7,1.8c0.8,1.3,2,2.4,3.4,3.1l1.3,0.6l-1.2,0.7c-1.3,0.8-2.4,2-3.1,3.4l-0.6,1.7l-0.7-1.7
		c-0.8-1.3-2-2.4-3.4-3.1l-1.3-0.6l1.2-0.7c1.3-0.8,2.4-2,3.1-3.4L301.7,272.1z"/>
	<path class="st7" d="M288.3,254.2l0.3,0.8c0.4,0.6,0.9,1.1,1.5,1.4l0.5,0.3l-0.5,0.3c-0.6,0.4-1.1,0.9-1.4,1.5l-0.3,0.8l-0.3-0.7
		c-0.4-0.6-0.9-1.1-1.5-1.4l-0.5-0.3l0.5-0.3c0.6-0.4,1.1-0.9,1.4-1.5L288.3,254.2z"/>
	<path class="st7" d="M164.4,228.2l0.7,0.3c0.8,0.3,1.6,0.4,2.4,0.2l0.7-0.1l-0.3,0.7c-0.3,0.8-0.4,1.6-0.2,2.4l0.1,0.7l-0.7-0.3
		c-0.8-0.3-1.6-0.4-2.4-0.2l-0.7,0.1l0.3-0.7c0.3-0.8,0.4-1.6,0.2-2.4L164.4,228.2z"/>
	<path class="st7" d="M357.2,181l0.3,0.1c0.4,0.2,0.8,0.2,1.2,0.1l0.4-0.1l-0.1,0.4c-0.2,0.4-0.2,0.8-0.1,1.2l0.1,0.4l-0.4-0.1
		c-0.4-0.2-0.8-0.2-1.2-0.1L357,183l0.1-0.4c0.2-0.4,0.2-0.8,0.1-1.2L357.2,181z"/>
	<path class="st7" d="M228.4,280.2l0.4,0.1c0.4,0.2,0.8,0.2,1.2,0.1l0.4-0.1l-0.1,0.3c-0.2,0.4-0.2,0.8-0.1,1.2l0.1,0.4l-0.4-0.1
		c-0.4-0.1-0.8-0.2-1.2-0.1l-0.4,0.1l0.1-0.3c0.2-0.4,0.2-0.8,0.1-1.2L228.4,280.2z"/>
	<path class="st7" d="M122.1,216.3l0.3,0.1c0.4,0.2,0.8,0.2,1.2,0.1l0.4-0.1l-0.1,0.4c-0.2,0.4-0.2,0.8-0.1,1.2l0.1,0.4l-0.3-0.1
		c-0.4-0.2-0.8-0.2-1.2-0.1l-0.4,0.1l0.1-0.4c0.2-0.4,0.2-0.8,0.1-1.2L122.1,216.3z"/>
	<path class="st7" d="M146.4,302.9l0.4,0.2c0.5,0.2,1,0.2,1.5,0.1l0.4-0.1l-0.2,0.4c-0.2,0.5-0.3,1-0.1,1.5l0.1,0.5l-0.4-0.2
		c-0.5-0.2-1-0.2-1.5-0.1l-0.4,0.1l0.2-0.4c0.2-0.5,0.2-1,0.1-1.5L146.4,302.9z"/>
	<path class="st7" d="M205.7,142.2l0.4,0.1c0.4,0.2,0.8,0.2,1.2,0.1l0.4-0.1l-0.1,0.4c-0.2,0.4-0.2,0.8-0.1,1.2l0.1,0.4l-0.4-0.1
		c-0.4-0.2-0.8-0.2-1.2-0.1l-0.4,0.1l0.1-0.4c0.2-0.4,0.2-0.8,0.1-1.2L205.7,142.2z"/>
	<path class="st7" d="M275.6,68.3l0.3,0.1c0.4,0.2,0.8,0.2,1.2,0.1l0.4-0.1l-0.1,0.3c-0.1,0.4-0.2,0.8-0.1,1.2l0.1,0.4l-0.3-0.1
		c-0.4-0.2-0.8-0.2-1.2-0.1l-0.4,0.1l0.1-0.3c0.2-0.4,0.2-0.8,0.1-1.2L275.6,68.3z"/>
	<path class="st7" d="M63.1,103.6l0.3,0.1c0.4,0.2,0.8,0.2,1.2,0.1l0.4-0.1l-0.1,0.3c-0.2,0.4-0.2,0.8-0.1,1.2l0.1,0.4l-0.3-0.1
		c-0.4-0.2-0.8-0.2-1.2-0.1l-0.4,0.1l0.1-0.3c0.2-0.4,0.2-0.8,0.1-1.2L63.1,103.6z"/>
	<path class="st7" d="M245.8,233.8l0.4,0.1c0.4,0.2,0.8,0.2,1.2,0.1l0.4-0.1l-0.1,0.4c-0.2,0.4-0.2,0.8-0.1,1.2l0.1,0.4l-0.4-0.1
		c-0.4-0.2-0.8-0.2-1.2-0.1l-0.4,0.1l0.1-0.3c0.2-0.4,0.2-0.8,0.1-1.2L245.8,233.8z"/>
	
		<ellipse transform="matrix(0.9997 -2.338530e-02 2.338530e-02 0.9997 -3.8614 7.1078)" class="st7" cx="302" cy="168.7" rx="25.2" ry="25.2"/>
	<g class="st13">
		<path d="M310.2,159c0.1-2.3,1.9-4.1,4.2-4c2.3,0.1,4.1,1.9,4,4.2c-0.1,2.3-1.9,4.1-4.2,4c0,0,0,0,0,0
			C311.9,163.1,310.1,161.3,310.2,159z"/>
	</g>
	<g class="st13">
		<path d="M318.4,168.6c0-1.3,1.1-2.4,2.4-2.3c1.3,0,2.4,1.1,2.3,2.4c0,1.3-1.1,2.4-2.4,2.3C319.4,171,318.4,169.9,318.4,168.6
			C318.4,168.6,318.4,168.6,318.4,168.6z"/>
	</g>
	<g class="st13">
		<path d="M315.2,176c0.5,0,0.9,0.4,0.8,0.9c0,0.5-0.4,0.9-0.9,0.8c-0.5,0-0.9-0.4-0.8-0.9C314.3,176.4,314.7,176,315.2,176
			C315.2,176,315.2,176,315.2,176z"/>
	</g>
	<path class="st12" d="M261.6,114.7h62.6c0,0-5.5-10.1-21.6-8.6c-15.4,1.4-16.2-5-24-5.7S264.2,105.6,261.6,114.7z"/>
	<path class="st12" d="M180.8,268.3h78.6c0,0-6.9-12.6-27.2-10.8c-19.3,1.8-20.3-6.2-30.1-7.2S184,256.8,180.8,268.3z"/>
	<path class="st12" d="M254.1,226.4h36.6c0,0-3.2-5.9-12.6-5c-9,0.8-9.5-2.9-14-3.4S255.6,221.1,254.1,226.4z"/>
</g>
</svg>
