<svg xmlns="http://www.w3.org/2000/svg" viewBox="0 0 500 500"><g id="freepik--background-simple--inject-8"><path d="M122.88,95.32c19-12.33,45-14.71,65.21-4,61.64,32.67,31.58,124.87,90,160.28,25.72,15.59,60.6,5.63,88.87,11.11,15.55,3,30.4,13.27,35.51,28.77,11.61,35.21-16.91,65.84-44.32,83.42-74.39,47.7-177.77,19.55-232.19-45.37a183.72,183.72,0,0,1-17.69-25c-19.38-33-27.31-72-25.68-110C84.07,159.41,91,116,122.88,95.32Z" style="fill:#2E4D94"></path><path d="M122.88,95.32c19-12.33,45-14.71,65.21-4,61.64,32.67,31.58,124.87,90,160.28,25.72,15.59,60.6,5.63,88.87,11.11,15.55,3,30.4,13.27,35.51,28.77,11.61,35.21-16.91,65.84-44.32,83.42-74.39,47.7-177.77,19.55-232.19-45.37a183.72,183.72,0,0,1-17.69-25c-19.38-33-27.31-72-25.68-110C84.07,159.41,91,116,122.88,95.32Z" style="fill:#fff;opacity:0.9;isolation:isolate"></path></g><g id="freepik--Shadow--inject-8"><ellipse id="freepik--path--inject-8" cx="250" cy="416.24" rx="193.89" ry="11.32" style="fill:#f5f5f5"></ellipse></g><g id="freepik--Script--inject-8"><rect x="59.58" y="127.01" width="104.42" height="178.9" rx="2.37" style="fill:#2E4D94"></rect><rect x="59.58" y="127.01" width="104.42" height="178.9" rx="2.37" style="fill:#fff;opacity:0.7000000000000001;isolation:isolate"></rect><rect x="66.67" y="149.68" width="19.67" height="2.67" style="fill:#2E4D94"></rect><rect x="66.67" y="155.68" width="19.67" height="2.67" style="fill:#2E4D94"></rect><rect x="136.71" y="149.68" width="19.67" height="2.67" style="fill:#2E4D94"></rect><rect x="100.04" y="137.33" width="19.67" height="2.67" style="fill:#2E4D94"></rect><rect x="66.67" y="132.67" width="89.71" height="2.67" style="fill:#2E4D94"></rect><rect x="76.67" y="164" width="79.7" height="2.67" style="fill:#2E4D94"></rect><rect x="66.67" y="169.33" width="89.71" height="2.67" style="fill:#2E4D94"></rect><rect x="66.67" y="174.67" width="89.71" height="2.67" style="fill:#2E4D94"></rect><rect x="66.67" y="180" width="89.71" height="2.67" style="fill:#2E4D94"></rect><rect x="66.67" y="185.33" width="79.7" height="2.67" style="fill:#2E4D94"></rect><rect x="76.67" y="195.02" width="79.7" height="2.67" style="fill:#2E4D94"></rect><rect x="66.67" y="200.35" width="89.71" height="2.67" style="fill:#2E4D94"></rect><rect x="66.67" y="205.69" width="89.71" height="2.67" style="fill:#2E4D94"></rect><rect x="66.67" y="211.02" width="89.71" height="2.67" style="fill:#2E4D94"></rect><rect x="66.67" y="216.35" width="79.7" height="2.67" style="fill:#2E4D94"></rect><rect x="76.67" y="226.04" width="79.7" height="2.67" style="fill:#2E4D94"></rect><rect x="66.67" y="231.37" width="89.71" height="2.67" style="fill:#2E4D94"></rect><rect x="66.67" y="236.71" width="89.71" height="2.67" style="fill:#2E4D94"></rect><rect x="66.67" y="242.04" width="89.71" height="2.67" style="fill:#2E4D94"></rect><rect x="66.67" y="247.37" width="79.7" height="2.67" style="fill:#2E4D94"></rect><rect x="76.67" y="258.06" width="79.7" height="2.67" style="fill:#2E4D94"></rect><rect x="66.67" y="263.39" width="89.71" height="2.67" style="fill:#2E4D94"></rect><rect x="66.67" y="268.73" width="89.71" height="2.67" style="fill:#2E4D94"></rect><rect x="66.67" y="274.06" width="89.71" height="2.67" style="fill:#2E4D94"></rect><rect x="66.67" y="279.39" width="79.7" height="2.67" style="fill:#2E4D94"></rect><rect x="136.71" y="294.77" width="19.67" height="2.67" style="fill:#2E4D94"></rect><g style="opacity:0.2;isolation:isolate"><rect x="66.67" y="149.68" width="19.67" height="2.67" style="fill:#fff"></rect><rect x="66.67" y="155.68" width="19.67" height="2.67" style="fill:#fff"></rect><rect x="136.71" y="149.68" width="19.67" height="2.67" style="fill:#fff"></rect><rect x="100.04" y="137.33" width="19.67" height="2.67" style="fill:#fff"></rect><rect x="66.67" y="132.67" width="89.71" height="2.67" style="fill:#fff"></rect><rect x="76.67" y="164" width="79.7" height="2.67" style="fill:#fff"></rect><rect x="66.67" y="169.33" width="89.71" height="2.67" style="fill:#fff"></rect><rect x="66.67" y="174.67" width="89.71" height="2.67" style="fill:#fff"></rect><rect x="66.67" y="180" width="89.71" height="2.67" style="fill:#fff"></rect><rect x="66.67" y="185.33" width="79.7" height="2.67" style="fill:#fff"></rect><rect x="76.67" y="195.02" width="79.7" height="2.67" style="fill:#fff"></rect><rect x="66.67" y="200.35" width="89.71" height="2.67" style="fill:#fff"></rect><rect x="66.67" y="205.69" width="89.71" height="2.67" style="fill:#fff"></rect><rect x="66.67" y="211.02" width="89.71" height="2.67" style="fill:#fff"></rect><rect x="66.67" y="216.35" width="79.7" height="2.67" style="fill:#fff"></rect><rect x="76.67" y="226.04" width="79.7" height="2.67" style="fill:#fff"></rect><rect x="66.67" y="231.37" width="89.71" height="2.67" style="fill:#fff"></rect><rect x="66.67" y="236.71" width="89.71" height="2.67" style="fill:#fff"></rect><rect x="66.67" y="242.04" width="89.71" height="2.67" style="fill:#fff"></rect><rect x="66.67" y="247.37" width="79.7" height="2.67" style="fill:#fff"></rect><rect x="76.67" y="258.06" width="79.7" height="2.67" style="fill:#fff"></rect><rect x="66.67" y="263.39" width="89.71" height="2.67" style="fill:#fff"></rect><rect x="66.67" y="268.73" width="89.71" height="2.67" style="fill:#fff"></rect><rect x="66.67" y="274.06" width="89.71" height="2.67" style="fill:#fff"></rect><rect x="66.67" y="279.39" width="79.7" height="2.67" style="fill:#fff"></rect><rect x="136.71" y="294.77" width="19.67" height="2.67" style="fill:#fff"></rect></g></g><g id="freepik--data-2--inject-8"><rect x="108.66" y="265.3" width="60.34" height="50.13" rx="2.37" style="opacity:0.1;isolation:isolate"></rect><rect x="116.1" y="274.79" width="60.34" height="50.13" rx="2.37" style="fill:#2E4D94"></rect><rect x="116.1" y="274.79" width="60.34" height="50.13" rx="2.37" style="fill:#fff;opacity:0.30000000000000004;isolation:isolate"></rect><rect x="122" y="304" width="12" height="6" style="fill:#2E4D94"></rect><rect x="135" y="304" width="34" height="6" style="fill:#2E4D94"></rect><rect x="122" y="296" width="12" height="7" style="fill:#2E4D94"></rect><rect x="122" y="289" width="12" height="6" style="fill:#2E4D94"></rect><rect x="135" y="296" width="34" height="7" style="fill:#2E4D94"></rect><rect x="135" y="311" width="34" height="7" style="fill:#2E4D94"></rect><rect x="135" y="289" width="34" height="6" style="fill:#2E4D94"></rect><rect x="122" y="311" width="12" height="7" style="fill:#2E4D94"></rect><rect x="122" y="281" width="12" height="7" style="fill:#2E4D94"></rect><rect x="135" y="281" width="34" height="7" style="fill:#2E4D94"></rect><rect x="125.93" y="178.62" width="60.34" height="50.13" rx="2.37" style="opacity:0.1;isolation:isolate"></rect><rect x="137.1" y="176.25" width="60.34" height="50.13" rx="2.37" style="fill:#2E4D94"></rect><rect x="137.1" y="176.25" width="60.34" height="50.13" rx="2.37" style="fill:#fff;opacity:0.30000000000000004;isolation:isolate"></rect><rect x="176" y="183" width="15" height="7" style="fill:#2E4D94"></rect><rect x="160" y="183" width="15" height="7" style="fill:#2E4D94"></rect><rect x="160" y="190" width="15" height="30" style="fill:#2E4D94"></rect><rect x="176" y="190" width="15" height="30" style="fill:#2E4D94"></rect><rect x="144" y="183" width="15" height="7" style="fill:#2E4D94"></rect><rect x="144" y="190" width="15" height="30" style="fill:#2E4D94"></rect><rect x="144.83" y="231.23" width="60.34" height="50.13" rx="2.37" style="opacity:0.1;isolation:isolate"></rect><rect x="165.1" y="228.02" width="60.34" height="50.13" rx="2.37" style="fill:#2E4D94"></rect><rect x="165.1" y="228.02" width="60.34" height="50.13" rx="2.37" style="fill:#fff;opacity:0.30000000000000004;isolation:isolate"></rect><rect x="196" y="235" width="23" height="17" style="fill:#2E4D94"></rect><rect x="172" y="235" width="23" height="17" style="fill:#2E4D94"></rect><rect x="172" y="253" width="23" height="19" style="fill:#2E4D94"></rect><rect x="196" y="253" width="23" height="19" style="fill:#2E4D94"></rect><path d="M225,230.39V264H204.27a4.15,4.15,0,0,1-4.27-4.46V228h23.07C224.38,228,225,229.08,225,230.39Z" style="opacity:0.2;isolation:isolate"></path><rect x="146.09" y="131.49" width="60.34" height="50.13" rx="2.37" style="opacity:0.1;isolation:isolate"></rect><rect x="156.1" y="122.48" width="60.34" height="50.13" rx="2.37" style="fill:#2E4D94"></rect><rect x="156.1" y="122.48" width="60.34" height="50.13" rx="2.37" style="fill:#fff;opacity:0.30000000000000004;isolation:isolate"></rect><rect x="180" y="129" width="19" height="5" style="fill:#2E4D94"></rect><rect x="180" y="135" width="9" height="31" style="fill:#2E4D94"></rect><rect x="200" y="129" width="10" height="5" style="fill:#2E4D94"></rect><rect x="200" y="135" width="10" height="31" style="fill:#2E4D94"></rect><rect x="190" y="135" width="9" height="31" style="fill:#2E4D94"></rect><rect x="163" y="135" width="16" height="31" style="fill:#2E4D94"></rect><rect x="163" y="129" width="16" height="5" style="fill:#2E4D94"></rect></g><g id="freepik--data-1--inject-8"><rect x="307.3" y="239.69" width="77.5" height="77.5" rx="4.71" style="fill:#2E4D94"></rect><rect x="317.42" y="249.82" width="57.58" height="57.25" style="fill:#fff;opacity:0.25"></rect><polygon points="317.42 307 332.08 294.95 336.87 298.81 352.05 285.99 359.51 293.33 375 280.33 375 307 317.42 307" style="fill:#fff;opacity:0.25"></polygon><polygon points="317.42 307 329.83 283.72 344.33 285.98 355.17 271.82 366.33 273.83 375 265.17 375 307 317.42 307" style="fill:#fff;opacity:0.25"></polygon><polygon points="317.42 307 346.05 303.46 355.33 298.82 365.33 299.82 375 295 375 307 317.42 307" style="fill:#fff;opacity:0.25"></polygon><path d="M377,240v8a5.22,5.22,0,0,1-5,5H316v23.48a4.77,4.77,0,0,1-5,4.52h-4V244.4c0-2.6,2.4-4.4,5-4.4Z" style="opacity:0.2;isolation:isolate"></path><rect x="212.91" y="173.88" width="77.5" height="77.5" rx="4.71" style="fill:#2E4D94"></rect><rect x="240.63" y="181.97" width="21.75" height="13.03" rx="0.87" style="fill:#fff;opacity:0.8"></rect><rect x="229.52" y="210" width="17.59" height="9.95" rx="0.87" style="fill:#fff;opacity:0.6000000000000001"></rect><rect x="256.21" y="210" width="17.59" height="9.95" rx="0.87" style="fill:#fff;opacity:0.6000000000000001"></rect><rect x="248.16" y="231.05" width="9.23" height="8.5" rx="0.87" style="fill:#fff;opacity:0.4"></rect><rect x="259.88" y="231.05" width="9.23" height="8.5" rx="0.87" style="fill:#fff;opacity:0.4"></rect><rect x="271.61" y="231.05" width="9.23" height="8.5" rx="0.87" style="fill:#fff;opacity:0.4"></rect><rect x="221.03" y="231.05" width="9.23" height="8.5" rx="0.87" style="fill:#fff;opacity:0.4"></rect><rect x="233.75" y="231.05" width="9.23" height="8.5" rx="0.87" style="fill:#fff;opacity:0.4"></rect><g style="opacity:0.30000000000000004"><polygon points="264 210 265 210 265 203 252 203 252 195 251 195 251 203 238 203 238 210 239 210 239 204 264 204 264 210" style="fill:#fff"></polygon><polygon points="238 226 225 226 225 231 226 231 226 227 238 227 238 231 239 231 239 220 238 220 238 226" style="fill:#fff"></polygon><polygon points="265 227 265 220 264 220 264 227 252 227 252 231 253 231 253 228 264 228 264 231 265 231 265 228 276 228 276 231 277 231 277 227 265 227" style="fill:#fff"></polygon></g><path d="M290,178.59V201H235.07a5.25,5.25,0,0,1-5.07-5V174h55.71A4.27,4.27,0,0,1,290,178.59Z" style="opacity:0.2;isolation:isolate"></path><rect x="319.18" y="140.19" width="77.5" height="77.5" rx="4.71" style="fill:#2E4D94"></rect><rect x="329.14" y="150.31" width="57.58" height="57.25" style="fill:#fff;opacity:0.25"></rect><rect x="335.02" y="185.5" width="5.8" height="14.87" style="fill:#fff;opacity:0.35000000000000003"></rect><rect x="335.02" y="185.5" width="5.8" height="22.06" style="fill:#fff;opacity:0.35000000000000003"></rect><rect x="345.02" y="175.08" width="5.8" height="21.89" style="fill:#fff;opacity:0.35000000000000003"></rect><rect x="345.02" y="175.08" width="5.8" height="32.48" style="fill:#fff;opacity:0.35000000000000003"></rect><rect x="355.03" y="181.49" width="5.8" height="17.57" style="fill:#fff;opacity:0.35000000000000003"></rect><rect x="355.03" y="181.49" width="5.8" height="26.07" style="fill:#fff;opacity:0.35000000000000003"></rect><rect x="365.04" y="172.49" width="5.8" height="23.64" style="fill:#fff;opacity:0.35000000000000003"></rect><rect x="365.04" y="172.49" width="5.8" height="35.07" style="fill:#fff;opacity:0.35000000000000003"></rect><rect x="375.04" y="158.74" width="5.8" height="32.9" style="fill:#fff;opacity:0.35000000000000003"></rect><rect x="375.04" y="158.74" width="5.8" height="48.82" style="fill:#fff;opacity:0.35000000000000003"></rect><path d="M340,140v42.4a4.72,4.72,0,0,1-4.83,4.6H319V144.89a5,5,0,0,1,4.88-4.89Z" style="opacity:0.2;isolation:isolate"></path><rect x="255.27" y="87.04" width="77.5" height="77.5" rx="4.71" style="fill:#2E4D94"></rect><circle cx="294.02" cy="125.79" r="25.41" transform="translate(122.76 395.86) rotate(-80.78)" style="fill:#fff;opacity:0.25"></circle><path d="M294,125.79l25,4.74a25.41,25.41,0,1,1-25-30.16Z" style="fill:#fff;opacity:0.25"></path><path d="M294,125.79,294,151.2a25.42,25.42,0,0,1,.07-50.83Z" style="fill:#fff;opacity:0.25"></path><path d="M294,125.79l-13.39-21.6a25,25,0,0,1,6.39-2.83,25.32,25.32,0,0,1,6.92-1Z" style="fill:#fff;opacity:0.25"></path></g></svg>