<?xml version="1.0" encoding="utf-8"?>
<!-- Generator: Adobe Illustrator 24.0.2, SVG Export Plug-In . SVG Version: 6.00 Build 0)  -->
<svg version="1.1" xmlns="http://www.w3.org/2000/svg" xmlns:xlink="http://www.w3.org/1999/xlink" x="0px" y="0px"
	 viewBox="0 0 846 658.5" style="enable-background:new 0 0 846 658.5;" xml:space="preserve">
<style type="text/css">
	.st0{fill:#F8E54B;}
	.st1{fill:#7D5EAA;}
	.st2{fill:#E0E0E0;}
	.st3{fill:#E58D5C;}
	.st4{fill:#FFFFFF;}
	.st5{opacity:0.3;}
	.st6{fill:#EBEBEB;}
	.st7{fill:#383838;}
	.st8{fill:#455A64;}
	.st9{fill:#263238;}
	.st10{fill:#FFBD00;}
	.st11{fill:#FAFAFA;}
	.st12{fill:#E2ABA6;}
	.st13{fill:#281F13;}
	.st14{fill:#56352E;}
</style>
<g id="Capa_2">
	<circle class="st0" cx="148.3" cy="424.9" r="98"/>
	<circle class="st1" cx="778.6" cy="150.1" r="55.9"/>
	<circle class="st2" cx="629.4" cy="22" r="19.7"/>
	<circle class="st3" cx="523" cy="525.8" r="7.8"/>
	<circle class="st2" cx="789.9" cy="533.6" r="39"/>
	<circle class="st2" cx="690" cy="306.1" r="27.2"/>
	<circle class="st3" cx="492.1" cy="448" r="137.3"/>
	<circle class="st2" cx="197" cy="27" r="8.7"/>
</g>
<g id="Capa_1">
	<g id="freepik--background-complete--inject-2_2_">
		<rect x="72.1" y="71.6" class="st4" width="152.3" height="102"/>
		<path class="st2" d="M224.4,173.6c0,0,0-0.6,0-1.9s0-3,0-5.4c0-4.7,0-11.6-0.1-20.5c0-17.7-0.1-43.2-0.1-74.2l0.2,0.2L72.2,71.9
			l0,0l0.3-0.3c0,36.3,0,70.9,0,102l-0.3-0.3l109.7,0.1l31.3,0.1h8.3h2.1L224.4,173.6l-0.6,0h-2.1h-8.3l-31.3,0.1l-109.9,0.1h-0.3
			v-0.3c0-31.1,0-65.7,0-102v-0.3h0.3l152.3,0.1h0.2v0.2c-0.1,31.1-0.1,56.6-0.1,74.4c0,8.8-0.1,15.8-0.1,20.5c0,2.3,0,4.1,0,5.3
			S224.4,173.6,224.4,173.6z"/>
		<path class="st2" d="M72.1,80.7c0-0.2,34.1-0.3,76.1-0.3s76.1,0.1,76.1,0.3S190.2,81,148.2,81S72.1,80.8,72.1,80.7z"/>
		<g class="st5">
			<path class="st2" d="M78.1,76.1c0,0.7-0.5,1.2-1.2,1.2c-0.7,0-1.2-0.5-1.2-1.2s0.5-1.2,1.2-1.2C77.6,74.9,78.1,75.4,78.1,76.1z"
				/>
		</g>
		<g class="st5">
			<path class="st2" d="M82.3,76.1c0,0.7-0.5,1.2-1.2,1.2s-1.2-0.5-1.2-1.2c0-0.7,0.5-1.2,1.2-1.2S82.3,75.4,82.3,76.1L82.3,76.1z"
				/>
		</g>
		<g class="st5">
			<path class="st2" d="M86.4,76.1c0,0.7-0.5,1.2-1.2,1.2c-0.7,0-1.2-0.5-1.2-1.2c0-0.7,0.5-1.2,1.2-1.2
				C85.9,74.9,86.4,75.4,86.4,76.1L86.4,76.1z"/>
		</g>
		<rect x="85.2" y="91.3" class="st2" width="40.6" height="40.6"/>
		<path class="st2" d="M203.5,102.8c0,0.2-15.9,0.3-35.4,0.3s-35.4-0.1-35.4-0.3s15.8-0.3,35.4-0.3S203.5,102.7,203.5,102.8z"/>
		<path class="st2" d="M203.5,110.4c0,0.2-15.9,0.3-35.4,0.3s-35.4-0.1-35.4-0.3s15.8-0.3,35.4-0.3S203.5,110.2,203.5,110.4z"/>
		<path class="st2" d="M203.5,117.9c0,0.2-15.9,0.3-35.4,0.3s-35.4-0.1-35.4-0.3s15.8-0.3,35.4-0.3S203.5,117.8,203.5,117.9z"/>
		<path class="st2" d="M174.6,125.5c-0.5,0.1-1.1,0.1-1.6,0.1l-4.5,0.1c-3.8,0-9,0.1-14.8,0.1s-11,0-14.8-0.1l-4.5-0.1
			c-0.6,0-1.1,0-1.7-0.1c0.5-0.1,1.1-0.1,1.7-0.1l4.5-0.1c3.8-0.1,9-0.1,14.8-0.1s11,0,14.8,0.1l4.5,0.1
			C173.5,125.3,174,125.4,174.6,125.5z"/>
		<rect x="87.7" y="145.6" class="st2" width="19.1" height="19.1"/>
		<rect x="122.3" y="145.6" class="st2" width="19.1" height="19.1"/>
		<rect x="157" y="145.6" class="st2" width="19.1" height="19.1"/>
		<rect x="191.6" y="145.6" class="st2" width="19.1" height="19.1"/>
		<rect x="246.9" y="22" class="st4" width="131.2" height="53.3"/>
		<path class="st2" d="M378.1,75.3c0,0,0-0.3,0-1s0-1.6,0-2.8c0-2.4,0-6,0-10.6c0-9.2,0-22.5-0.1-39l0.1,0.1l-131.2,0.1l0,0l0.2-0.2
			c0,18.7,0,36.7,0,53.3l-0.2-0.2l94.1,0.1l27.3,0.1h7.3l0,0h-7.3l-27.2,0.1l-94.2,0.1h-0.2v-0.2c0-16.6,0-34.6,0-53.3v-0.2h0.2
			l131.2,0.1h0.1V22c0,16.5-0.1,29.8-0.1,39.1c0,4.6,0,8.2,0,10.6c0,1.2,0,2.1,0,2.7S378.1,75.3,378.1,75.3z"/>
		<path class="st2" d="M247,29.2c0-0.1,29.3-0.2,65.5-0.2s65.5,0.1,65.5,0.2s-29.3,0.2-65.5,0.2S247,29.3,247,29.2z"/>
		<g class="st5">
			<path class="st6" d="M252.5,26c0,0.5-0.4,0.9-1,0.9c-0.5,0-0.9-0.4-0.9-1c0-0.5,0.4-0.9,0.9-0.9C252,25,252.5,25.5,252.5,26z"/>
		</g>
		<g class="st5">
			<path class="st6" d="M255.8,26c0,0.5-0.4,1-0.9,1c-0.5,0-0.9-0.4-0.9-1c0-0.5,0.4-1,0.9-1l0,0C255.3,25.1,255.7,25.5,255.8,26z"
				/>
		</g>
		<g class="st5">
			<circle class="st6" cx="258" cy="26" r="0.9"/>
		</g>
		<rect x="258" y="37.9" class="st2" width="31.7" height="31.7"/>
		<path class="st2" d="M369,46.4c0,0.1-16.3,0.2-36.4,0.2s-36.4-0.1-36.4-0.2s16.3-0.2,36.4-0.2S369,46.3,369,46.4z"/>
		<path class="st2" d="M369,52.8c0,0.1-16.3,0.2-36.4,0.2s-36.4-0.1-36.4-0.2s16.3-0.2,36.4-0.2S369,52.7,369,52.8z"/>
		<path class="st2" d="M343,59.3c-0.2,0-0.3,0-0.5,0h-1.4l-5,0.1l-16.6,0.1l-16.6,0l-5-0.1h-1.4c-0.2,0-0.3,0-0.5,0
			c0.2,0,0.3,0,0.5,0h1.4l5-0.1l16.6-0.1l16.6,0.1l5,0.1h1.4C342.7,59.3,342.8,59.3,343,59.3z"/>
		<path class="st7" d="M732,93.2c0.2-0.3,0.5-0.6,0.7-0.8c0.6-0.6,1.3-1.3,2.2-2.2c1.8-1.8,4.4-4.3,7.2-7l0.1-0.1v0.4
			c-2.9-2.7-5.5-5.1-7.3-6.9l-2.2-2.1c-0.3-0.2-0.5-0.5-0.8-0.8c0.3,0.2,0.6,0.4,0.9,0.7l2.3,2c1.9,1.7,4.5,4.1,7.4,6.8l0.2,0.2
			l-0.2,0.2l-0.1,0.1c-2.8,2.7-5.5,5.2-7.3,6.9l-2.3,2.1C732.6,92.7,732.3,93,732,93.2z"/>
		<path class="st7" d="M709.9,73.6c-0.2,0.3-0.5,0.6-0.7,0.8l-2.1,2.2c-1.8,1.8-4.4,4.3-7.2,7l-0.1,0.1v-0.4
			c2.9,2.7,5.5,5.1,7.3,6.9l2.2,2.1c0.3,0.2,0.5,0.5,0.8,0.8c-0.3-0.2-0.6-0.4-0.9-0.7l-2.3-2c-1.9-1.7-4.5-4.1-7.4-6.8l-0.2-0.2
			l0.2-0.2l0.1-0.1c2.8-2.7,5.5-5.2,7.3-6.9l2.2-2C709.3,74.1,709.6,73.8,709.9,73.6z"/>
		<path class="st7" d="M715.6,97.8c-0.1-0.1,2.2-6.6,5.2-14.6s5.5-14.5,5.7-14.4s-2.2,6.6-5.2,14.6S715.7,97.8,715.6,97.8z"/>
		<path class="st7" d="M757.2,111.7c0,0,0-0.4,0-1.1s0-1.8,0-3.1c0-2.8,0-6.8,0-11.9c0-10.3-0.1-24.9-0.1-42.6l0.2,0.2h-72l0,0
			l0.3-0.3c0,21.2,0,41.3,0,58.7l-0.2-0.2l52,0.1l14.7,0.1h3.9h1.4H757h-1h-3.9l-14.7,0.1l-52.2,0.1h-0.2v-0.2c0-17.4,0-37.5,0-58.7
			v-0.3h0.3h72h0.2V53c0,17.7-0.1,32.4-0.1,42.7c0,5.1,0,9.1,0,11.9c0,1.3,0,2.4,0,3.1S757.2,111.7,757.2,111.7z"/>
		<path class="st7" d="M757.8,61.8c0,0.1-16.3,0.3-36.3,0.3s-36.3-0.1-36.3-0.3s16.3-0.3,36.3-0.3S757.8,61.6,757.8,61.8z"/>
		<path class="st7" d="M691,57.5c0,0.6-0.4,1-1,1s-1-0.4-1-1s0.4-1,1-1S691,56.9,691,57.5z"/>
		<path class="st7" d="M694.6,57.5c0,0.6-0.4,1-1,1s-1-0.4-1-1s0.4-1,1-1S694.6,56.9,694.6,57.5z"/>
		<path class="st7" d="M698.1,57.5c0,0.7-0.6,1.3-1.3,1.3s-1.3-0.6-1.3-1.3s0.6-1.3,1.3-1.3S698.1,56.7,698.1,57.5z"/>
	</g>
	<g id="freepik--Device--inject-2_2_">
		<path class="st8" d="M157.1,96.1H668c3.7,0,6.7,3,6.7,6.7V429c0,8-6.5,14.6-14.6,14.6l0,0H164c-8,0-14.6-6.5-14.6-14.5
			c0,0,0,0,0,0V103.8C149.4,99.6,152.8,96.1,157.1,96.1C157.1,96.1,157.1,96.1,157.1,96.1z"/>
		<path class="st8" d="M127.4,417.8h569.2l0,0v16.7c0,7.6-6.1,13.7-13.7,13.7H141.1c-7.6,0-13.7-6.1-13.7-13.7l0,0V417.8
			L127.4,417.8z"/>
		<rect x="163.5" y="109.9" class="st2" width="495.7" height="293.4"/>
		<polygon class="st9" points="360.3,417.8 367.4,429.1 466.7,429.1 473.3,417.8 		"/>
		<rect x="178.2" y="126.9" class="st9" width="467.5" height="276.4"/>
		<path class="st2" d="M214.1,395.2c-0.2,0-0.4-58.9-0.4-131.5s0.2-131.5,0.4-131.5s0.4,58.9,0.4,131.5S214.3,395.2,214.1,395.2z"/>
		<path class="st2" d="M204.6,156.1c0,0.2-3.4,0.4-7.6,0.4s-7.6-0.2-7.6-0.4s3.4-0.4,7.6-0.4S204.6,155.8,204.6,156.1z"/>
		<path class="st2" d="M205.2,141.1c0,0.2-3.4,0.4-7.6,0.4s-7.6-0.2-7.6-0.4s3.4-0.4,7.6-0.4S205.2,140.9,205.2,141.1z"/>
		<path class="st2" d="M204.6,172.1c0,0.2-3.4,0.4-7.6,0.4s-7.6-0.2-7.6-0.4s3.4-0.4,7.6-0.4S204.6,171.9,204.6,172.1z"/>
		<path class="st2" d="M204.6,188.2c0,0.3-3.4,0.4-7.6,0.4s-7.6-0.2-7.6-0.4s3.4-0.4,7.6-0.4S204.6,188,204.6,188.2z"/>
		<path class="st2" d="M204.6,204.3c0,0.2-3.4,0.4-7.6,0.4s-7.6-0.2-7.6-0.4s3.4-0.4,7.6-0.4S204.6,204.1,204.6,204.3z"/>
		<path class="st2" d="M204.6,220.4c0,0.2-3.4,0.4-7.6,0.4s-7.6-0.2-7.6-0.4s3.4-0.4,7.6-0.4S204.6,220.2,204.6,220.4z"/>
		<path class="st2" d="M204.6,236.5c0,0.2-3.4,0.4-7.6,0.4s-7.6-0.2-7.6-0.4s3.4-0.4,7.6-0.4S204.6,236.2,204.6,236.5z"/>
		<path class="st2" d="M204.6,252.6c0,0.3-3.4,0.4-7.6,0.4s-7.6-0.2-7.6-0.4s3.4-0.4,7.6-0.4S204.6,252.3,204.6,252.6z"/>
		<path class="st2" d="M204.6,268.6c0,0.2-3.4,0.4-7.6,0.4s-7.6-0.2-7.6-0.4s3.4-0.4,7.6-0.4S204.6,268.4,204.6,268.6z"/>
		<path class="st2" d="M204.6,284.7c0,0.2-3.4,0.4-7.6,0.4s-7.6-0.2-7.6-0.4s3.4-0.4,7.6-0.4S204.6,284.5,204.6,284.7z"/>
		<path class="st2" d="M204.6,300.8c0,0.2-3.4,0.4-7.6,0.4s-7.6-0.2-7.6-0.4s3.4-0.4,7.6-0.4S204.6,300.6,204.6,300.8z"/>
		<path class="st2" d="M204.6,316.9c0,0.3-3.4,0.4-7.6,0.4s-7.6-0.2-7.6-0.4s3.4-0.4,7.6-0.4S204.6,316.6,204.6,316.9z"/>
		<path class="st2" d="M204.6,333c0,0.2-3.4,0.4-7.6,0.4s-7.6-0.2-7.6-0.4s3.4-0.4,7.6-0.4S204.6,332.7,204.6,333z"/>
		<path class="st2" d="M204.6,349.1c0,0.2-3.4,0.4-7.6,0.4s-7.6-0.2-7.6-0.4s3.4-0.4,7.6-0.4S204.6,348.8,204.6,349.1z"/>
		<path class="st2" d="M204.6,365.1c0,0.2-3.4,0.4-7.6,0.4s-7.6-0.2-7.6-0.4s3.4-0.4,7.6-0.4S204.6,364.9,204.6,365.1z"/>
		<path class="st2" d="M204.6,381.2c0,0.3-3.4,0.4-7.6,0.4s-7.6-0.2-7.6-0.4s3.4-0.4,7.6-0.4S204.6,381,204.6,381.2z"/>
		<path class="st10" d="M265.5,155.1c0,0.2-8.8,0.4-19.7,0.4s-19.7-0.2-19.7-0.4s8.8-0.4,19.7-0.4S265.5,154.9,265.5,155.1z"/>
		<path class="st10" d="M265.5,381.2c0,0.3-8.8,0.4-19.7,0.4s-19.7-0.2-19.7-0.4s8.8-0.4,19.7-0.4S265.5,381,265.5,381.2z"/>
		<path class="st10" d="M320.4,188.2c0,0.3-16.5,0.4-36.9,0.4s-36.9-0.2-36.9-0.4s16.5-0.4,36.9-0.4S320.4,188,320.4,188.2z"/>
		<path class="st2" d="M405.7,188.2c0,0.3-16.5,0.4-36.9,0.4s-36.9-0.2-36.9-0.4s16.5-0.4,36.9-0.4S405.7,188,405.7,188.2z"/>
		<path class="st2" d="M373.1,204.3c0,0.2-24.3,0.4-54.3,0.4s-54.3-0.2-54.3-0.4s24.3-0.4,54.3-0.4S373.1,204.1,373.1,204.3z"/>
		<path class="st2" d="M373.1,220.4c0,0.2-24.3,0.4-54.3,0.4s-54.3-0.2-54.3-0.4s24.3-0.4,54.3-0.4S373.1,220.2,373.1,220.4z"/>
		<path class="st2" d="M447.9,268.6c0,0.2-24.3,0.4-54.3,0.4s-54.4-0.2-54.4-0.4s24.3-0.4,54.4-0.4S447.9,268.4,447.9,268.6z"/>
		<path class="st2" d="M415.6,236.5c0,0.2-24.3,0.4-54.3,0.4s-54.4-0.2-54.4-0.4s24.3-0.4,54.4-0.4S415.6,236.2,415.6,236.5z"/>
		<path class="st2" d="M548.4,236.5c0,0.2-24.3,0.4-54.3,0.4s-54.4-0.2-54.4-0.4s24.3-0.4,54.4-0.4S548.4,236.2,548.4,236.5z"/>
		<path class="st11" d="M502.2,204.3c0,0.2-24.3,0.4-54.3,0.4s-54.3-0.2-54.3-0.4s24.3-0.4,54.3-0.4S502.2,204.1,502.2,204.3z"/>
		<path class="st11" d="M577.3,268.6c0,0.2-24.3,0.4-54.3,0.4c-30,0-54.3-0.2-54.3-0.4s24.3-0.4,54.3-0.4
			C553,268.2,577.3,268.4,577.3,268.6z"/>
		<path class="st8" d="M562.3,220.4c0,0.2-37.8,0.4-84.4,0.4s-84.4-0.2-84.4-0.4s37.8-0.4,84.4-0.4S562.3,220.2,562.3,220.4z"/>
		<path class="st11" d="M265.5,172.1c0,0.2-8.8,0.4-19.7,0.4s-19.7-0.2-19.7-0.4s8.8-0.4,19.7-0.4S265.5,171.9,265.5,172.1z"/>
		<path class="st11" d="M265.5,365.1c0,0.2-8.8,0.4-19.7,0.4s-19.7-0.2-19.7-0.4s8.8-0.4,19.7-0.4S265.5,364.9,265.5,365.1z"/>
		<path class="st11" d="M285,236.5c0,0.2-8.8,0.4-19.7,0.4s-19.7-0.2-19.7-0.4s8.8-0.4,19.7-0.4C276.2,236,285,236.2,285,236.5z"/>
		<path class="st10" d="M600.9,236.5c0,0.2-8.8,0.4-19.7,0.4s-19.7-0.2-19.7-0.4s8.8-0.4,19.7-0.4S600.9,236.2,600.9,236.5z"/>
		<path class="st10" d="M320.4,300.7c0,0.2-16.5,0.4-36.9,0.4s-36.9-0.2-36.9-0.4s16.5-0.4,36.9-0.4S320.4,300.5,320.4,300.7z"/>
		<path class="st2" d="M405.7,300.7c0,0.2-16.5,0.4-36.9,0.4s-36.9-0.2-36.9-0.4s16.5-0.4,36.9-0.4S405.7,300.5,405.7,300.7z"/>
		<path class="st2" d="M373.1,316.8c0,0.2-24.3,0.4-54.3,0.4s-54.3-0.2-54.3-0.4s24.3-0.4,54.3-0.4S373.1,316.6,373.1,316.8z"/>
		<path class="st2" d="M373.1,332.9c0,0.2-24.3,0.4-54.3,0.4s-54.3-0.2-54.3-0.4s24.3-0.4,54.3-0.4S373.1,332.6,373.1,332.9z"/>
		<path class="st2" d="M415.6,349c0,0.3-24.3,0.4-54.3,0.4s-54.4-0.2-54.4-0.4s24.3-0.4,54.4-0.4S415.6,348.7,415.6,349z"/>
		<path class="st2" d="M548.4,349c0,0.3-24.3,0.4-54.3,0.4s-54.4-0.2-54.4-0.4s24.3-0.4,54.4-0.4S548.4,348.7,548.4,349z"/>
		<path class="st11" d="M502.2,316.8c0,0.2-24.3,0.4-54.3,0.4s-54.3-0.2-54.3-0.4s24.3-0.4,54.3-0.4S502.2,316.6,502.2,316.8z"/>
		<path class="st8" d="M562.3,332.9c0,0.2-37.8,0.4-84.4,0.4s-84.4-0.2-84.4-0.4s37.8-0.4,84.4-0.4S562.3,332.6,562.3,332.9z"/>
		<path class="st11" d="M285,349c0,0.3-8.8,0.4-19.7,0.4s-19.7-0.2-19.7-0.4s8.8-0.4,19.7-0.4C276.2,348.6,285,348.7,285,349z"/>
		<path class="st10" d="M600.9,349c0,0.3-8.8,0.4-19.7,0.4s-19.7-0.2-19.7-0.4s8.8-0.4,19.7-0.4S600.9,348.7,600.9,349z"/>
		<path class="st9" d="M611.4,428c0,0.1-100.6,0.3-224.8,0.3s-224.8-0.1-224.8-0.3s100.6-0.3,224.8-0.3S611.4,427.8,611.4,428z"/>
	</g>
	<g id="freepik--speech-bubbles--inject-2_2_">
		<polygon class="st11" points="664,68.1 396,68.1 396,234.1 621.7,234.1 635.6,266.2 648,234.1 664,234.1 		"/>
		<path class="st9" d="M664,68.1c0,1.6,0.1,64,0.2,166v0.2H648l0.2-0.1c-3.9,10.1-8,20.9-12.4,32.1l-0.2,0.5l-0.2-0.5
			c-4.4-10.1-9.1-20.9-14-32.1l0.2,0.1h-204h-21.8v-0.3c0-59.1,0-115.3,0-166v-0.2h0.2L664,68.1l-268,0.2l0.2-0.2
			c0,50.7,0,106.8,0,166l-0.3-0.3h21.6h204h0.2l0.1,0.1l14,32.1h-0.4l12.4-32.1l0-0.1H664l-0.2,0.2C664,132.1,664,69.7,664,68.1z"/>
		<path class="st9" d="M663.9,84.3c0,0.2-59.9,0.4-133.7,0.4s-133.7-0.2-133.7-0.4S456.3,84,530.2,84S663.9,84.1,663.9,84.3z"/>
		<path class="st9" d="M410.3,77c0,1.2-1,2.2-2.2,2.2c-1.2,0-2.2-1-2.2-2.2c0-1.2,1-2.2,2.2-2.2c0,0,0,0,0,0
			C409.3,74.8,410.3,75.8,410.3,77z"/>
		<path class="st9" d="M418.2,77c0,1.2-1,2.2-2.2,2.2c-1.2,0-2.2-1-2.2-2.2c0-1.2,1-2.2,2.2-2.2c0,0,0,0,0,0
			C417.3,74.8,418.2,75.8,418.2,77z"/>
		<path class="st9" d="M426.2,77c0,1.2-1,2.2-2.2,2.2c-1.2,0-2.2-1-2.2-2.2s1-2.2,2.2-2.2S426.2,75.8,426.2,77L426.2,77z"/>
		<path class="st9" d="M425.3,114l-6.4,2.5l6.4,2.4v1.5l-8-3.2v-1.5l8-3.2V114z"/>
		<path class="st9" d="M431.9,107.7h1.6l-5.9,16.9H426L431.9,107.7z"/>
		<path class="st9" d="M442,115.7v1.5l-8,3.2v-1.5l6.4-2.4L434,114v-1.5L442,115.7z"/>
		<path class="st9" d="M444.1,121.6c0-0.7,0.5-1.2,1.2-1.2c0,0,0,0,0,0c0.7,0,1.2,0.5,1.2,1.2c0,0,0,0,0,0.1c0,0.7-0.5,1.2-1.2,1.2
			c0,0,0,0,0,0C444.6,122.9,444.1,122.3,444.1,121.6C444.1,121.6,444.1,121.6,444.1,121.6z"/>
		<path class="st9" d="M448.1,121.6c0-0.7,0.5-1.2,1.2-1.2c0,0,0,0,0.1,0c0.7,0,1.2,0.5,1.2,1.2c0,0,0,0,0,0c0,0.7-0.5,1.2-1.2,1.2
			c0,0,0,0,0,0C448.7,122.9,448.1,122.3,448.1,121.6C448.1,121.6,448.1,121.6,448.1,121.6z"/>
		<path class="st9" d="M452.2,121.6c0-0.7,0.5-1.2,1.2-1.2c0,0,0,0,0.1,0c0.7,0,1.2,0.5,1.2,1.2c0,0,0,0,0,0c0,0.7-0.5,1.2-1.2,1.2
			c0,0,0,0,0,0C452.8,122.9,452.2,122.3,452.2,121.6C452.2,121.6,452.2,121.6,452.2,121.6z"/>
		<path class="st8" d="M594.5,137.7c0,0.2-39.6,0.4-88.5,0.4s-88.5-0.2-88.5-0.4s39.6-0.4,88.5-0.4S594.5,137.5,594.5,137.7z"/>
		<path class="st9" d="M623.4,138.2c0,0.2-3.8,0.4-8.5,0.4s-8.5-0.2-8.5-0.4s3.8-0.4,8.5-0.4S623.4,138,623.4,138.2z"/>
		<path class="st9" d="M648.3,138.2c0,0.2-4.2,0.4-9.3,0.4s-9.3-0.2-9.3-0.4s4.2-0.4,9.3-0.4S648.3,138,648.3,138.2z"/>
		<path class="st8" d="M530.2,152.6c0,0.2-25.2,0.4-56.2,0.4s-56.2-0.2-56.2-0.4s25.2-0.4,56.2-0.4S530.2,152.4,530.2,152.6z"/>
		<path class="st8" d="M529.4,208.3c0,0.2-25.2,0.4-56.2,0.4s-56.2-0.2-56.2-0.4s25.2-0.4,56.2-0.4S529.4,208.1,529.4,208.3z"/>
		<path class="st9" d="M571.1,152.6c0,0.2-6.8,0.4-15.3,0.4s-15.3-0.2-15.3-0.4s6.9-0.4,15.3-0.4S571.1,152.4,571.1,152.6z"/>
		<path class="st9" d="M570.8,208.3c0,0.2-6.8,0.4-15.3,0.4s-15.3-0.2-15.3-0.4s6.8-0.4,15.3-0.4S570.8,208.1,570.8,208.3z"/>
		<path class="st10" d="M425.1,160.2c0,0.2-1.7,0.4-3.8,0.4s-3.8-0.2-3.8-0.4s1.7-0.4,3.8-0.4S425.1,160,425.1,160.2z"/>
		<path class="st9" d="M451.3,160.4c0,0.2-3.7,0.4-8.2,0.4s-8.2-0.2-8.2-0.4s3.7-0.4,8.2-0.4S451.3,160.2,451.3,160.4z"/>
		<path class="st9" d="M468,160.4c0,0.2-3.2,0.4-7.1,0.4s-7.1-0.2-7.1-0.4s3.2-0.4,7.1-0.4S468,160.2,468,160.4z"/>
		<path class="st9" d="M489.2,160.4c0,0.2-3.2,0.4-7.2,0.4s-7.2-0.2-7.2-0.4s3.2-0.4,7.2-0.4S489.2,160.2,489.2,160.4z"/>
		<path class="st9" d="M507.8,160.4c0,0.2-2.9,0.4-6.5,0.4s-6.5-0.2-6.5-0.4s2.9-0.4,6.5-0.4S507.8,160.2,507.8,160.4z"/>
		<path class="st9" d="M569.3,160.4c0,0.2-12.9,0.4-28.8,0.4c-15.9,0-28.8-0.2-28.8-0.4s12.9-0.4,28.8-0.4
			C556.4,160,569.3,160.2,569.3,160.4z"/>
		<path class="st10" d="M424.1,169.9c0,0.2-1.5,0.4-3.3,0.4s-3.3-0.2-3.3-0.4s1.5-0.4,3.3-0.4S424.1,169.7,424.1,169.9z"/>
		<path class="st10" d="M424.4,179.8c0,0.2-1.5,0.4-3.4,0.4s-3.4-0.2-3.4-0.4s1.5-0.4,3.4-0.4S424.4,179.6,424.4,179.8z"/>
		<path class="st10" d="M424.4,191.1c0,0.2-1.5,0.4-3.4,0.4s-3.4-0.2-3.4-0.4s1.5-0.4,3.4-0.4S424.4,190.9,424.4,191.1z"/>
		<path class="st9" d="M486.3,190.5c0,0.2-11.4,0.4-25.4,0.4s-25.4-0.2-25.4-0.4s11.4-0.4,25.4-0.4S486.3,190.3,486.3,190.5z"/>
		<path class="st9" d="M481.9,179.8c0,0.2-10.8,0.4-24.2,0.4s-24.2-0.2-24.2-0.4s10.8-0.4,24.2-0.4S481.9,179.6,481.9,179.8z"/>
		<path class="st9" d="M598.8,169.4c0,0.2-36.9,0.4-82.4,0.4s-82.4-0.2-82.4-0.4s36.9-0.4,82.4-0.4S598.8,169.1,598.8,169.4z"/>
		<polygon class="st11" points="680.5,136 680.5,277 658.6,295.3 680.5,295.3 682.7,295.3 773.3,295.3 773.3,136 		"/>
		<path class="st9" d="M680.5,136c0,0,0.5,0,1.6,0h4.8h18.5l67.9-0.1h0.2v0.2c0,42.6,0,98.2,0.1,159.3v0.3h-16.3h-98.6h-0.7l0.5-0.4
			l21.9-18.3l-0.1,0.2c0-42.2,0.1-77.4,0.1-102.2c0-12.4,0-22.1,0.1-28.7c0-3.3,0-5.8,0-7.6c0-0.8,0-1.5,0-1.9s0-0.6,0-0.6
			s0,0.2,0,0.7s0,1.1,0,2c0,1.7,0,4.3,0,7.6c0,6.6,0,16.4,0.1,28.8c0,24.7,0.1,60,0.1,102.1v0.1l-0.1,0.1l-21.9,18.3l-0.2-0.4h98.6
			h16.1l-0.3,0.3c0-61.2,0-116.8,0.1-159.3l0.2,0.2l-67.8-0.1L687,136h-4.8H680.5z"/>
		<path class="st9" d="M688.9,143c0,1-0.8,1.9-1.9,1.9c-1,0-1.9-0.8-1.9-1.9c0-1,0.8-1.9,1.9-1.9S688.9,142,688.9,143
			C688.9,143,688.9,143,688.9,143z"/>
		<path class="st9" d="M695.7,143c0,1-0.8,1.9-1.9,1.9c-1,0-1.9-0.8-1.9-1.9c0-1,0.8-1.9,1.9-1.9S695.7,142,695.7,143
			C695.7,143,695.7,143,695.7,143z"/>
		<path class="st9" d="M702.5,143c0,1-0.8,1.9-1.9,1.9c-1,0-1.9-0.8-1.9-1.9c0-1,0.8-1.9,1.9-1.9S702.5,142,702.5,143
			C702.5,143,702.5,143,702.5,143z"/>
		<path class="st10" d="M747.8,186.5c0,0.2-11.8,0.3-26.3,0.3s-26.3-0.1-26.3-0.3s11.8-0.3,26.3-0.3S747.8,186.3,747.8,186.5z"/>
		<path class="st10" d="M758.7,199.2c0,0.2-14.3,0.3-32,0.3s-32-0.1-32-0.3s14.3-0.3,32-0.3S758.7,199.1,758.7,199.2z"/>
		<path class="st10" d="M761.3,246.8c0,0.2-15.3,0.3-34.1,0.3s-34.1-0.1-34.1-0.3s15.3-0.3,34.1-0.3S761.3,246.7,761.3,246.8z"/>
		<path class="st10" d="M700.2,205.7c-2.1,0.4-4.3,0.4-6.5,0C695.8,205.3,698,205.3,700.2,205.7z"/>
		<path class="st10" d="M722.5,205.9c0,0.2-3.2,0.3-7,0.3s-7-0.1-7-0.3C713.2,205.5,718,205.5,722.5,205.9L722.5,205.9z"/>
		<path class="st10" d="M736.9,205.9c0,0.2-2.7,0.3-6,0.3s-6-0.1-6-0.3C728.8,205.4,732.9,205.4,736.9,205.9L736.9,205.9z"/>
		<path class="st10" d="M699.3,214c-1.8,0.4-3.8,0.4-5.6,0C695.5,213.6,697.4,213.6,699.3,214z"/>
		<path class="st10" d="M699.5,222.5c-1.9,0.4-3.9,0.4-5.8,0C695.6,222.1,697.6,222.1,699.5,222.5z"/>
		<path class="st10" d="M699.5,232.1c-1.9,0.4-3.9,0.4-5.8,0C695.6,231.7,697.6,231.7,699.5,232.1z"/>
		<path class="st10" d="M752.5,231.7c0,0.2-9.7,0.3-21.7,0.3s-21.7-0.1-21.7-0.3s9.7-0.3,21.7-0.3S752.5,231.5,752.5,231.7z"/>
		<path class="st10" d="M748.7,222.5c0,0.2-9.3,0.3-20.7,0.3s-20.7-0.1-20.7-0.3s9.3-0.3,20.7-0.3S748.7,222.3,748.7,222.5z"/>
		<path class="st10" d="M703.7,259.5c-1.9,0.4-3.9,0.4-5.8,0C699.8,259.1,701.8,259.1,703.7,259.5z"/>
		<path class="st10" d="M703.7,269.2c-1.9,0.4-3.9,0.4-5.8,0C699.8,268.8,701.8,268.8,703.7,269.2z"/>
		<path class="st10" d="M756.8,268.7c0,0.2-9.7,0.3-21.7,0.3s-21.7-0.1-21.7-0.3s9.7-0.3,21.7-0.3S756.8,268.5,756.8,268.7z"/>
		<path class="st10" d="M753,259.5c0,0.2-9.3,0.3-20.7,0.3s-20.7-0.1-20.7-0.3s9.3-0.3,20.7-0.3S753,259.4,753,259.5z"/>
		<path class="st10" d="M764.1,213.6c0,0.2-12.6,0.3-28.2,0.3s-28.2-0.1-28.2-0.3s12.6-0.3,28.2-0.3S764.1,213.4,764.1,213.6z"/>
		<path class="st9" d="M772.4,150.4c0,0.2-20.4,0.3-45.5,0.3s-45.5-0.1-45.5-0.3s20.4-0.3,45.5-0.3S772.4,150.2,772.4,150.4z"/>
		<path class="st10" d="M714.4,178.8c-6.4,0.4-12.8,0.4-19.2,0c0-0.2,4.3-0.3,9.6-0.3S714.4,178.6,714.4,178.8z"/>
		<path class="st10" d="M703.5,161.4c0,0.2-2,0.3-4.5,0.3s-4.5-0.1-4.5-0.3C697.5,161,700.5,161,703.5,161.4L703.5,161.4z"/>
	</g>
</g>
<g id="Capa_3">
	<g id="freepik--character-3--inject-20">
		<path class="st12" d="M753.1,497.2c-0.3,0.7-9.2,26.1-9.2,26.1l37.7,12.3l9-30.3L753.1,497.2z"/>
		<path class="st8" d="M788.5,515.9l0.4-3.1c0,0,45.3-7.9,47.3-19.1l-82.4-18.3l-5.6,32.1C762,503.6,775.7,506.2,788.5,515.9z"/>
		<path class="st2" d="M753.8,475.3l-1.3,7.7l80.5,15.1c0,0,3-2.2,3.3-4.5L753.8,475.3z"/>
		<path class="st4" d="M790.3,501.1c-0.1,0-0.4,0.6-0.6,1.8c-0.2,1.5-0.1,3.1,0.3,4.5c0.4,1.4,1.1,2.7,2.1,3.8
			c0.8,0.8,1.3,1,1.4,0.9c0.1-0.1-1.8-1.9-2.6-5.1C790.4,505.1,790.3,503.1,790.3,501.1z"/>
		<path class="st4" d="M785.7,501.2c-0.2-0.1-1,2.9,0,6.3c1,3.4,3.1,5.2,3.2,5c0.1-0.2-1.5-2.2-2.3-5.3S786,501.3,785.7,501.2z"/>
		<path class="st4" d="M797.2,500.3c-0.2-0.2-1.5,2.1-1.4,5.1c0.1,3.1,1.4,5.1,1.5,4.9c0.2-0.2-0.6-2.2-0.6-5
			C796.7,502.6,797.5,500.4,797.2,500.3z"/>
		<path class="st4" d="M793.8,511.3c0-0.1-1.1,0.8-2,2.9c-0.5,1.2-0.9,2.5-1.2,3.8c-0.2,0.7-0.3,1.5-0.5,2.3
			c-0.1,0.4-0.2,0.9-0.2,1.3c0,0.6,0.2,1.1,0.6,1.5c0.5,0.3,1.1,0.3,1.5-0.1c0.3-0.3,0.6-0.7,0.8-1.1c0.3-0.7,0.6-1.5,0.8-2.2
			c0.3-1.3,0.5-2.6,0.5-4c0.1-1.2-0.2-2.4-0.8-3.5c-0.1,0,0.2,1.4,0.1,3.5c0,1.2-0.2,2.5-0.6,3.7c-0.2,0.7-0.5,1.4-0.8,2
			c-0.3,0.6-0.8,1.1-1,0.9s-0.3-1,0-1.8c0.3-0.8,0.3-1.5,0.4-2.2c0.2-1.2,0.6-2.5,1-3.7C793.1,512.5,794,511.4,793.8,511.3z"/>
		<path class="st4" d="M794.4,511.7c0,0-0.1-0.2-0.4-0.4l-0.2-0.2v0.4c0,1.4,0.3,2.7,0.7,4c0.3,1,0.8,1.9,1.3,2.8
			c0.3,0.5,0.6,1,1,1.4c0.2,0.3,0.4,0.5,0.7,0.7c0.4,0.2,0.8,0.2,1.2,0c0.5-0.3,0.8-0.9,0.7-1.5c-0.1-0.4-0.2-0.8-0.3-1.2
			c-0.2-0.7-0.5-1.3-0.9-1.9c-0.6-1-1.3-1.9-2.1-2.7c-1.4-1.3-2.5-1.7-2.6-1.5c0,0.2,0.9,0.8,2.1,2.1c0.7,0.8,1.3,1.7,1.8,2.7
			c0.3,0.6,0.6,1.2,0.8,1.8c0.3,0.7,0.3,1.4,0.1,1.4c-0.5,0.3-1.3-1-1.8-1.8c-0.5-0.8-1-1.7-1.3-2.6c-0.5-1.2-0.8-2.4-1.1-3.7
			l-0.2,0.2C794.2,511.7,794.3,511.8,794.4,511.7z"/>
		<path class="st8" d="M758.5,627.1c0.8-2.1,26.9-101.3,26.9-101.3l-31.9-4.1l-13.7,87.1L758.5,627.1z"/>
		<path class="st12" d="M714.3,494.5c0,0.8,1.7,27.6,1.7,27.6l39.5-3.3l-3.5-31.4L714.3,494.5z"/>
		<path class="st8" d="M754.2,498l-0.8-3c0,0,38.6-24.8,36.1-36l-83.1,15.1l7.3,31.8C725,497.1,738.6,494,754.2,498z"/>
		<path class="st2" d="M706.5,474.1l1.8,7.7l80.1-17.4c0,0,1.9-3.2,1.3-5.4L706.5,474.1z"/>
		<path class="st4" d="M750.1,483.7c-0.1,0-0.2,0.7,0.1,1.9c0.4,1.5,1.1,2.9,2,4.1c0.9,1.2,2.1,2.1,3.4,2.7c1,0.4,1.6,0.4,1.7,0.3
			c0-0.1-2.4-1.1-4.4-3.7C751.8,487.4,750.9,485.6,750.1,483.7z"/>
		<path class="st4" d="M745.9,485.6c-0.2,0,0.2,3,2.5,5.8c2.2,2.8,4.9,3.6,4.9,3.3s-2.2-1.5-4.2-4
			C747.1,488.2,746.2,485.5,745.9,485.6z"/>
		<path class="st4" d="M756.2,480.3c-0.2,0-0.5,2.5,0.7,5.3c1.2,2.8,3.2,4.2,3.3,3.9c0.1-0.2-1.4-1.8-2.5-4.3
			C756.6,482.6,756.4,480.3,756.2,480.3z"/>
		<path class="st4" d="M757.3,491.8c-0.6,1.1-0.8,2.3-0.7,3.5c0,1.3,0.1,2.6,0.3,3.9c0.1,0.7,0.3,1.5,0.4,2.3
			c0.1,0.4,0.2,0.9,0.3,1.3c0.2,0.5,0.6,1,1.1,1.1c0.6,0.1,1.2-0.2,1.4-0.7c0.2-0.4,0.3-0.9,0.3-1.4c0-0.8,0-1.6-0.1-2.4
			c-0.2-1.3-0.6-2.6-1.1-3.8c-0.4-1.1-1.1-2.1-2.1-2.9c-0.1,0.1,0.7,1.2,1.5,3.2c0.4,1.2,0.7,2.4,0.9,3.6c0.1,0.7,0.1,1.4,0,2.2
			c0,0.7-0.3,1.4-0.6,1.2c-0.3-0.2-0.6-0.8-0.8-1.6c-0.2-0.8-0.3-1.5-0.5-2.2c-0.3-1.2-0.4-2.5-0.5-3.8
			C757.1,493.1,757.5,491.8,757.3,491.8z"/>
		<path class="st4" d="M758,491.9c0,0-0.2-0.1-0.5-0.3l-0.3-0.1l0.1,0.3c0.6,1.2,1.3,2.4,2.2,3.4c0.7,0.8,1.4,1.5,2.3,2.1
			c0.5,0.3,1,0.7,1.5,0.9c0.3,0.2,0.6,0.3,0.9,0.4c0.4,0.1,0.8-0.1,1.1-0.4c0.3-0.5,0.3-1.2,0-1.7c-0.2-0.4-0.5-0.7-0.8-1
			c-0.5-0.5-1-1-1.5-1.5c-0.9-0.7-1.9-1.3-3-1.7c-1.8-0.6-3-0.6-3-0.4s1.1,0.3,2.8,1.1c1,0.5,1.9,1.1,2.7,1.8c0.5,0.4,1,0.9,1.5,1.4
			c0.5,0.5,0.8,1.1,0.6,1.2c-0.3,0.5-1.5-0.5-2.4-1c-0.8-0.6-1.5-1.2-2.2-1.9c-0.9-0.9-1.7-2-2.5-3l-0.1,0.2
			C757.8,492,758,492,758,491.9z"/>
		<path class="st8" d="M579.2,562c0,0,28.5-8.4,48-8.6c19.5-0.2,48.1,18.3,48.1,18.3l38,8.8l0.7-68.4l44.7-1.7c0,0,5.1,82.1,3.1,102
			c-3.2,32-22.2,32.2-48.6,32.4c-26.5,0.2-133.2,0.8-133.2,0.8L579.2,562z"/>
		<path class="st9" d="M718.4,595.1c-0.3,0-1.1-3.2-2.7-7c-1.6-3.8-3.2-6.7-3-6.9s2.3,2.6,3.9,6.5
			C718.2,591.6,718.7,595.1,718.4,595.1z"/>
		<path class="st9" d="M762.2,604.7c-0.2,0-1.2-21.1-2.2-47.1c-1-26-1.5-47.1-1.4-47.1c0.2,0,1.2,21.1,2.2,47.1
			C761.9,583.5,762.5,604.7,762.2,604.7z"/>
		<path class="st12" d="M411,538.4c0.6-4.9,7.5-22.6,11.4-29.3c3.9-6.8,28.7-6.7,32.2-0.1c3.5,6.5,1.1,9.3,1.1,9.3l-2.4,0.9
			c0,0,0.4,7.1-4.3,5.5c0,0-4.5,6.2-7.3,5l-7.6,8.3l0.2,39c0,0-24.9-23.9-25-24.5C409.1,552,411,538.4,411,538.4z"/>
		<path class="st12" d="M481.2,519.3c-8.5,3.9-15.8,10.2-20.9,18c-8.2,12.3-26.1,39.8-26.1,39.8l-5.2-29.6l-17.3-12.2l-0.9,3
			c-2.3,10.5-4.9,25.5-6.5,38.1c-1.6,12.5-2.7,25.2-3.4,32.6c-0.5,6,14.7,16.6,25.2,18.1c10.5,1.5,26.3-15,26.3-15l33.2-40.7
			L481.2,519.3z"/>
		<path class="st6" d="M436.1,572.7l28.4,26.6l5.3-10l3-66c0,0-8.4,6.5-12.6,12.7C456.1,542.2,436.1,572.7,436.1,572.7z"/>
		<path class="st12" d="M435.1,599.8c-0.2,0-0.1-5-0.4-11.2s-0.8-11.2-0.5-11.2c0.4,1,0.6,2.1,0.6,3.2c0.3,2,0.6,4.8,0.7,8
			c0.1,3.1,0.1,5.9,0,8C435.5,597.6,435.4,598.7,435.1,599.8z"/>
		<path class="st13" d="M563.3,420c-2.2-7.8-10.6-13.5-18.9-13c0.6-6.5-2.4-12.8-8-16.3c-5.7-3.5-12.9-3.8-18.8-0.7
			c-2.4-12.9-13.9-23.7-27.4-25.8c-13.5-2.1-28,4.6-34.6,16.1c-8.9-0.6-17.5,3.5-22.6,10.8c-4.8,7.3-5.1,16.6-0.8,24.2
			c1.5,2.7,3.6,5,4.7,7.9c1.8,4.6,3.5,7.9,3,12.8s-0.6,23.7,3.2,27l84.2,16.9l10.4-17.7c6.2,2.7,13.5,0.9,17.7-4.3
			c3.8-5.4,3.2-12.8-1.5-17.4C561.4,436.6,565.3,428.2,563.3,420z"/>
		<path class="st12" d="M527.2,409.2l-34-13.2c-17.4-5.1-39.7,9.8-44,27.9c-4.7,20.1-9.4,37.6-9.7,53.1c-0.5,31.4,28,38.1,28,38.1
			l-2.8,23.7l57.3-15.9l12.9-62.3l9.3-19.9C546.9,427.5,539.8,414.2,527.2,409.2z"/>
		<path class="st9" d="M451.7,453.1c-0.4,2.1,0.9,4.1,3,4.6c2,0.5,4-0.7,4.5-2.7c0,0,0-0.1,0-0.1c0.4-2.1-0.9-4.1-3-4.6
			c-2-0.5-4,0.7-4.5,2.7C451.7,453,451.7,453,451.7,453.1z"/>
		<path class="st9" d="M451.4,441.7c0.4,0.5,3.2-1.1,6.9-0.5c3.7,0.6,6,2.9,6.5,2.5c0.5-0.4-0.1-1.1-1.1-2.2
			c-1.4-1.4-3.2-2.3-5.2-2.6c-1.9-0.3-3.9,0.1-5.5,1C451.7,440.8,451.2,441.5,451.4,441.7z"/>
		<path class="st9" d="M484.8,459.2c-0.4,2.1,0.9,4.1,3,4.6c2,0.5,4-0.7,4.5-2.7c0,0,0-0.1,0-0.1c0.4-2.1-0.9-4.1-3-4.6
			c-2-0.5-4,0.7-4.5,2.7C484.8,459.1,484.8,459.2,484.8,459.2z"/>
		<path class="st9" d="M489.1,447.4c0.4,0.5,3.2-1.1,6.9-0.5s6,2.9,6.5,2.5c0.2-0.2-0.1-1.1-1.1-2.2c-1.4-1.3-3.2-2.2-5.1-2.5
			c-1.9-0.3-3.8,0.1-5.5,1C489.4,446.4,488.9,447.2,489.1,447.4z"/>
		<path class="st9" d="M472.2,474.2c-2.1-1-4.2-1.7-6.5-2.2c-1-0.3-2-0.6-2.1-1.2c-0.1-0.6,0.4-1.5,1.1-2.3l4.1-5.7
			c1.5-2.1,9.3-14,9.5-15.2c-0.4-0.2-5.4,6.2-11.1,14.4l-4,5.8c-0.8,0.8-1.2,2-1.1,3.2c0.3,0.7,0.8,1.2,1.5,1.5
			c0.6,0.2,1.1,0.4,1.8,0.5C467.7,473.5,469.9,474,472.2,474.2z"/>
		<path class="st14" d="M467.2,515.2c14,2.7,28.4,1.4,41.6-3.8c0,0-13.2,20.6-42.4,12.5L467.2,515.2z"/>
		<path class="st9" d="M489.8,436.8c0.3,1.4,3.9,1,8.1,2.1s7.5,2.9,8.2,1.8c0.3-0.6-0.2-1.9-1.5-3.3c-1.6-1.7-3.6-2.9-5.9-3.5
			c-2.2-0.5-4.5-0.4-6.6,0.5C490.6,435.1,489.7,436.1,489.8,436.8z"/>
		<path class="st9" d="M452.4,428.5c0.5,1.3,3.7,0.9,7.2,1.7c3.5,0.8,6.3,2.4,7.3,1.4c0.4-0.5,0.3-1.7-0.8-3.1
			c-1.4-1.7-3.3-2.9-5.4-3.3c-2.1-0.5-4.3-0.2-6.3,0.8C453,426.8,452.3,427.8,452.4,428.5z"/>
		<path class="st12" d="M533.6,462c0,0,20.4-3.5,16.5,15c-3.9,18.5-21.1,10.7-21.1,10.2C529,486.6,533.6,462,533.6,462z"/>
		<path class="st12" d="M536,481.3c0.1,0,0.3,0.3,0.7,0.7c0.7,0.5,1.5,0.7,2.3,0.6c2.1-0.3,4.3-3,5.1-6.4c0.4-1.6,0.4-3.2,0.1-4.8
			c-0.1-1.2-0.8-2.4-1.8-3c-0.7-0.4-1.6-0.2-2,0.5c-0.3,0.5-0.3,0.9-0.4,0.9s-0.3-0.4,0-1.1c0.2-0.4,0.5-0.8,1-1
			c0.6-0.3,1.2-0.3,1.8-0.1c1.5,0.6,2.5,2,2.7,3.6c0.4,1.8,0.4,3.6,0,5.4c-0.9,3.7-3.5,6.8-6.2,7c-1,0.1-2.1-0.3-2.8-1.1
			C535.9,481.8,535.9,481.4,536,481.3z"/>
		<path class="st9" d="M473,483.5c0,0.2,0.7,0.7,2.2,1c4.1,0.7,8.2-1.6,9.8-5.5c0.5-1.5,0.5-2.4,0.3-2.4c-0.2,0-0.5,0.8-1.2,2
			c-1.8,3.2-5.2,5.1-8.8,4.9C473.9,483.6,473,483.4,473,483.5z"/>
		<path class="st13" d="M450,400.8c-1.7,8.8,4,17.4,12.9,19.1c6.4,1.2,12.9-1.5,16.6-6.9c4.5,11,17.1,16.3,28.1,11.8
			c2.5-1,4.8-2.5,6.8-4.4c-1.6,5.6-1.9,11.9,0.9,16.9c2.8,5.1,9.5,8.2,14.7,5.6c-5.2,5.1-7.6,12.5-6.5,19.7c0.6,3.6,2.9,7.6,6.6,7.5
			s5.5-3.7,6.9-6.8c5.7-12.6,11.6-26.5,7.9-39.8c-3.3-11.5-13.4-20.1-24.5-24.6c-11.1-4.5-23.3-5.4-35.3-6.3"/>
		<path class="st12" d="M403.2,611.9c0,0-23.9-9.6-29.2-12c-5.3-2.4-15.8,3.4-16.2,6.3c-0.2,1.7,0.5,3.5,1.9,4.5c0,0-1.5,6,1.4,8.3
			c0,0-2.2,7,1.6,9.4c-1.3,3.3-0.4,7,2.2,9.4c4.4,4.5,26.7,3.8,31.8,3.4c5.5-0.3,11-0.3,16.4,0.1c0,0.2,4.7-28.2,4.7-28.2
			L403.2,611.9z"/>
		<path class="st6" d="M460.6,592.2c26,30.8,51.7,46.9,83.4,52.2c17.9,3,68.8,3.7,68.8,3.7c10.6-35.3,10.6-65-2.4-92.9l-51.9-1.8
			c0,0-24.5-33.3-35.5-35.3c0,0-58.8,16.4-60.1,22.9C458.9,562.3,460.6,592.2,460.6,592.2z"/>
		<path class="st12" d="M515,537.9c-14.1-17.6-42.7-10-46.1,12.3c0,0.3-0.1,0.5-0.1,0.8c-3.5,26.5-5.2,59.1-5.2,59.1l-59.7,2.2
			l-2.7,28.7c0,0,78,14.6,93,5.1c15-9.5,13.9-33.2,17.9-54.5c3.6-18.8,6.7-31.5,7.1-43.7C519.3,544.5,517.5,541.1,515,537.9z"/>
		<path class="st9" d="M566.8,600.3c-0.4-2-0.7-4.1-0.8-6.1c-0.4-3.8-1.1-9.1-2-14.8c-0.9-5.7-1.9-10.9-2.7-14.7c-0.5-2-0.9-4-1.1-6
			c0.8,1.9,1.4,3.9,1.8,5.9c0.9,3.7,2.1,8.9,3,14.7c1,5.8,1.4,11,1.7,14.9C567,596.2,567,598.3,566.8,600.3z"/>
		<path class="st6" d="M516.2,537.7c-14.1-17.6-44.2-10.2-47.5,12.2l-0.7,4.3c-3.5,26.5-4.6,38.1-4.6,38.1l51.8,8.4
			c3.6-18.8,5.7-33.9,6.2-46C521.4,551.3,518.8,540.9,516.2,537.7z"/>
		<path class="st9" d="M498.8,528.1h-1.7c-1.6-0.1-3.2,0-4.8,0.2c-1.2,0.1-2.3,0.3-3.4,0.5c-4.6,1-8.9,3.2-12.3,6.5
			c-1.4,1.4-2.6,2.9-3.7,4.5c-1.1,1.8-2,3.7-2.7,5.7c-0.4,1.1-0.7,2.1-0.9,3.2c-0.2,1.1-0.4,2.3-0.6,3.5c-0.5,2.3-0.6,4.8-1,7.3
			c-1.2,10-2.5,21-3.9,32.7l-0.3-0.4l7.4,1.2l44.4,7.2l-0.4,0.3c2.6-13.7,4.4-25.1,5.4-33.2c0.5-4,0.7-7.2,0.9-9.4
			c0.1-1,0.1-1.9,0.2-2.5c0-0.3,0-0.6,0.1-0.8c0,0.3,0,0.6,0,0.9c0,0.6,0,1.4,0,2.5c-0.1,2.2-0.3,5.4-0.7,9.4
			c-0.8,8.1-2.5,19.6-5.1,33.3v0.3h-0.3l-44.4-7.1l-7.4-1.2h-0.4v-0.4c1.5-11.7,2.8-22.7,4-32.7c0.3-2.5,0.5-4.9,1-7.3
			c0.2-1.2,0.4-2.3,0.6-3.5c0.2-1.1,0.5-2.2,0.9-3.3c0.7-2,1.7-4,2.9-5.8c1.1-1.7,2.4-3.2,3.8-4.6c2.4-2.4,5.4-4.2,8.7-5.3
			c1.3-0.5,2.7-0.9,4-1.1c1.1-0.2,2.3-0.4,3.5-0.5c1.6-0.1,3.2-0.1,4.8,0h1.3L498.8,528.1z"/>
		<path class="st9" d="M451.8,552.2c0.1,0,0.2,2.4,0.6,6.3c1,10.1,3.4,20,7.3,29.4c1.5,3.6,2.6,5.8,2.4,5.8c-0.4-0.5-0.6-1-0.9-1.5
			c-0.5-1-1.3-2.4-2.1-4.2c-4.2-9.3-6.7-19.4-7.4-29.6c-0.1-2-0.2-3.5-0.1-4.6C451.7,553.3,451.7,552.8,451.8,552.2z"/>
		<path class="st12" d="M374.6,600.9c0.2,0,0.4,0.1,0.6,0.2l1.6,0.6l6,2.2l20.6,7.8h-0.2l14.8-0.5l32.2-0.9l9.8-0.2h2.7
			c0.3,0,0.6,0,0.9,0c-0.3,0.1-0.6,0.1-0.9,0.1l-2.6,0.2l-9.7,0.4l-32.2,1.1l-14.8,0.4h-0.1h-0.1l-20.6-8.1l-5.9-2.4l-1.5-0.7
			C375,601.1,374.8,601,374.6,600.9z"/>
		<path class="st12" d="M478.1,629.6c-1.8-3.7-3.8-7.3-6.1-10.7c-2.5-3.2-5.3-6.2-8.3-9.1c1.1,0.5,2.1,1.3,3,2.1
			c2.3,1.9,4.3,4.1,6,6.5c1.7,2.4,3.2,5,4.4,7.7C477.6,627.2,477.9,628.4,478.1,629.6z"/>
		<path class="st8" d="M559.6,412.7c0,0,0.2,0.1,0.5,0.5c0.4,0.5,0.8,1,1.2,1.5c3.3,4.9,4,11.1,1.8,16.6c-1.6,4-4.5,7.3-8.3,9.3
			l-0.4,0.2l0.1-0.6c2.7,3.4,4.5,7.6,4.1,11.6c-0.2,1.8-0.8,3.6-1.9,5.2c-0.9,1.3-1.9,2.5-3.1,3.5c-1.7,1.6-3.8,2.7-6.1,3
			c-0.8,0.1-1.7,0-2.5-0.3c0.8,0.1,1.6,0.1,2.4,0c2.2-0.4,4.2-1.5,5.8-3c2.5-2.1,4.2-5.1,4.6-8.3c0.4-3.7-1.4-7.7-4-11l-0.3-0.4
			l0.4-0.2l0.4-0.2c3.6-2,6.4-5.1,8-8.9c1.3-3.1,1.6-6.5,1-9.8c-0.4-2.2-1.2-4.4-2.4-6.3C560.1,413.4,559.6,412.7,559.6,412.7z"/>
	</g>
</g>
</svg>
