<?xml version="1.0" encoding="utf-8"?>
<!-- Generator: Adobe Illustrator 24.0.2, SVG Export Plug-In . SVG Version: 6.00 Build 0)  -->
<svg version="1.1" xmlns="http://www.w3.org/2000/svg" xmlns:xlink="http://www.w3.org/1999/xlink" x="0px" y="0px"
	 viewBox="0 0 498 516" style="enable-background:new 0 0 498 516;" xml:space="preserve">
<style type="text/css">
	.st0{display:none;}
	.st1{display:inline;fill:#BCBEBF;}
	.st2{display:inline;fill:#FFFFFF;stroke:#263238;stroke-miterlimit:10;}
	.st3{display:inline;fill:#224576;stroke:#263238;stroke-miterlimit:10;}
	.st4{display:inline;fill:#7AACF3;stroke:#263238;stroke-miterlimit:10;}
	.st5{display:inline;fill:none;stroke:#263238;stroke-miterlimit:10;}
	.st6{display:inline;fill:#FFFFFF;stroke:#263238;stroke-linecap:round;stroke-linejoin:round;}
	.st7{display:inline;fill:none;stroke:#263238;stroke-linecap:round;stroke-linejoin:round;}
	.st8{display:inline;fill:none;stroke:#263238;stroke-linecap:round;stroke-linejoin:round;stroke-dasharray:2.99,2.99;}
	.st9{display:inline;fill:#BFBFBF;stroke:#263238;stroke-linecap:round;stroke-linejoin:round;}
	.st10{display:inline;fill:#263238;stroke:#263238;stroke-linecap:round;stroke-linejoin:round;}
	.st11{display:inline;fill:#BFBFBF;}
	.st12{display:inline;fill:#263238;}
	.st13{display:inline;fill:#7E57C2;stroke:#263238;stroke-linecap:round;stroke-linejoin:round;}
	.st14{display:inline;fill:#513370;stroke:#263238;stroke-linecap:round;stroke-linejoin:round;}
	.st15{display:inline;fill:#513370;}
	.st16{fill:#263238;}
	.st17{fill:#F0F0F0;}
	.st18{fill:#FAFAFA;}
	.st19{fill:#E6E6E6;}
	.st20{fill:#E0E0E0;}
	.st21{fill:#BA68C8;}
	.st22{fill:#37474F;}
	.st23{fill:#455A64;}
	.st24{opacity:0.1;enable-background:new    ;}
	.st25{opacity:0.2;enable-background:new    ;}
	.st26{fill:#FFFFFF;}
	.st27{opacity:0.8;}
	.st28{opacity:0.6;}
	.st29{opacity:0.4;}
	.st30{opacity:0.3;enable-background:new    ;}
	.st31{opacity:0.3;fill:#BA68C8;enable-background:new    ;}
	.st32{fill:#D69D9D;}
	.st33{fill:#F5F5F5;}
	.st34{fill:#E8B8B8;}
	.st35{fill:#EBEBEB;}
	.st36{opacity:0.5;}
	.st37{opacity:0.7;}
	.st38{fill:#B16668;}
	.st39{fill:#F28F8F;}
</style>
<g id="Capa_1" class="st0">
	<path class="st1" d="M240.5,516c132.3,0,239.6-7.8,239.6-17.3c0-9.6-107.3-17.3-239.6-17.3S0.9,489.1,0.9,498.7
		C0.9,508.2,108.2,516,240.5,516z"/>
	<path class="st2" d="M217.3,74.3c0,0-6.8-8.8-10.2-8.8c-3.3,0-6.5,6.9-8.8,6.6c-2.3-0.4-4.9-8.4-10.9-6.5
		c-6,1.9-7.5,11.2-11.5,10.8C172,76,152.7,42,152.7,42l-13.9,8.1c0,0,20.8,33.2,19,36.7c-1.8,3.6-10.5-0.1-15.3,4
		c-4.8,4.1,0.7,10.5-0.2,12.7s-6.9,1-8.6,3.9c-1.7,2.9,0.5,13.4,0.5,13.4L173.2,91L217.3,74.3z"/>
	<path class="st3" d="M126,33.7l-3.7,16.5l4.3,8.2l10.8-5.7C137.5,52.7,132,46,126,33.7z"/>
	<path class="st3" d="M144.8,23.8l15.6,6.3l4.3,8.2L154,44.1C154,44.1,151.6,35.7,144.8,23.8z"/>
	<path class="st2" d="M122.7,4.9c0,0-8.9,25.7,14.8,47.8l17.5-9.2C155,43.5,150.7,13.9,122.7,4.9z"/>
	<path class="st3" d="M131.6,46.2c1.8,2.3,3.8,4.5,5.9,6.5l17.4-9.2c-0.5-2.9-1.2-5.7-2.2-8.4L131.6,46.2z"/>
	<path class="st3" d="M139.9,26.3c1.1-3.6-1-7.4-4.7-8.5c-3.6-1.1-7.4,1-8.5,4.7c-1.1,3.6,1,7.4,4.7,8.5
		C135.1,32,138.9,29.9,139.9,26.3z"/>
	<path class="st2" d="M137.2,22.3c-0.4-0.8-1-1.4-1.8-1.8c-0.7-0.4-1.6-0.6-2.4-0.5c-0.8,0.1-1.6,0.4-2.3,0.9
		c-0.7,0.5-1.1,1.3-1.4,2.1c-0.3,0.8-0.3,1.7,0,2.5c0.2,0.8,0.7,1.5,1.4,2.1c0.7,0.5,1.5,0.9,2.3,1c0.8,0.1,1.7-0.1,2.5-0.5
		c0.5-0.3,0.9-0.6,1.3-1.1c0.4-0.4,0.6-0.9,0.8-1.5c0.2-0.5,0.2-1.1,0.2-1.7C137.6,23.3,137.5,22.8,137.2,22.3z"/>
	<path class="st2" d="M463.6,212.2l-9.1,6.3l0.1,11.1l-8.8-6.7l-10.5,3.5l3.7-10.5l-6.6-9l11.1,0.2l6.5-9l3.2,10.6L463.6,212.2z"/>
	<path class="st2" d="M37.3,256.7l-2.2,7.6l5,6.1l-7.9,0.3l-4.3,6.7l-2.7-7.4l-7.7-2l6.3-4.9l-0.5-7.9l6.6,4.4L37.3,256.7z"/>
	<path class="st2" d="M165.5,355.1l-2.2,7.6l5,6.1l-7.9,0.3l-4.3,6.7l-2.7-7.4l-7.7-2l6.2-4.9l-0.5-7.9l6.6,4.4L165.5,355.1z"/>
	<path class="st2" d="M350,355.1l-2.2,7.6l5,6.1l-7.9,0.3l-4.3,6.7l-2.7-7.4l-7.7-2l6.2-4.9l-0.5-7.9l6.6,4.4L350,355.1z"/>
	<path class="st2" d="M76,118.6l-1.5,5.3l3.5,4.3l-5.6,0.2l-3,4.7l-1.9-5.2l-5.4-1.4l4.4-3.4l-0.3-5.5l4.6,3.1L76,118.6z"/>
	<path class="st2" d="M178.1,9.5l-4.8,2.8l-0.4,5.5l-4.1-3.7l-5.4,1.3l2.2-5.1l-2.9-4.7l5.5,0.6l3.6-4.2l1.2,5.4L178.1,9.5z"/>
	<path class="st2" d="M473.7,229.4l-1.5,5.3l3.5,4.3l-5.6,0.2l-3,4.7l-1.9-5.2l-5.4-1.4l4.4-3.4l-0.3-5.5l4.6,3.1L473.7,229.4z"/>
	<path class="st2" d="M297.6,33l-2.2,7.6l5,6.1l-7.9,0.3l-4.3,6.7l-2.7-7.4l-7.7-2l6.2-4.9l-0.5-7.9l6.6,4.4L297.6,33z"/>
	<path class="st4" d="M250.5,361.1c82.2,0,148.8-66.6,148.8-148.8c0-82.2-66.6-148.8-148.8-148.8c-82.2,0-148.8,66.6-148.8,148.8
		C101.8,294.5,168.4,361.1,250.5,361.1z"/>
	<path class="st5" d="M220.7,349.9c8,1.7,16.1,2.8,24.2,3.1"/>
	<path class="st5" d="M202.4,344.7c4,1.5,8.1,2.8,12.3,3.9"/>
	<path class="st5" d="M115.1,173.8c-9.5,33.3-6.3,69,8.9,100.2s41.3,55.6,73.4,68.7"/>
	<path class="st5" d="M134,133.3c-5.1,7.5-9.4,15.5-13,23.8"/>
	<path class="st2" d="M230.4,146.2l15.2,3.1l5.2,5.4l6.7,1l2.1,6.4l-1.6,4.3l-4.6,2.1l-11.3-1.8l-0.3-1.4l5.3-3.7l-3.7-6.8
		l-10.1-1.4l-5.4-4.6L230.4,146.2z"/>
	<path class="st2" d="M352.6,286.2l-12-2l-14.5-1.8l-10.7,2.4l-10.5,0.2l-10.5,4.9l-6.1,1.7l-3.8,0.8l-6.3,5.7l-6.3,4.3l-10.6-3.8
		l0.3-10.2l-6.4-1.1l-6.9,1.5l-1.7-2.8l-0.7-6.4l-3.2-2.9l-4.7,1.8l-0.6,3.8l-5.8,1.6l-6.5-5l-3.9-7.8l3-10.8l10.1-1.5l3.3,1.8
		l4.1-0.9l4.5-4.2l4.8,0.4l8.6,9.3l2.3-0.9l-2.4-7.8l-3-3.7l-0.8-6.7l11.5-8.3l-1.1-13.1l4.5-5.7l2.7-8.9l3.3-1.5l6.8-6.9l-0.3-2.8
		l-5.4,1.6l-1.6-2.5l-3.8,0.8l-5.6,2.7l1.8-5.1l11.4-6.1l2.1-3.7l6.5,6.5l3.8,2.4l4.5-2.5l-3.1-4l-8.4-3.6l-10.3-7.5l-9.9-3.9
		l-8.6,0.5l-5.1-3.2l-5.8-0.2l-0.4,1.5l1.5,10.1l2.1,3.2l-0.7,11.7l-8.1-4v-5.1l-8-1.8l-3.9-3.1l-0.2-9l8.4-9.4l-1.1-8.4l-3.7,1.2
		l-3.1-2.6l-2.2-4.9l-2.5,0.2l-0.1,5.8l-3.7,1.5l-4.4-11.7l-3.1-1.1l-5.3-1l-4.9,4l8.3,5l2.7,5.6l-14.5-6.5l-10.7-7.4l-2.7-9.2
		l-9.6-0.8l-5.9,6c-1.4,1.4-3,2.7-4.6,3.9c-1.6,1.1-8,3.2-8,3.2l-0.1,6.2l-7.8,2.1l1.5,3.6l13.2-0.8l8.2,5.8l2.7,12.1l-1.4,11.5
		l3.2,11.2l-5.9,19l3.5,25.6l6.3,13.8l6.9,10.1l5.3-0.5l-2.9-5.1l-3.7-3.5l-3.4-7.2l2.9-1.4l7.6,11.3l5.9,10.3l2,8.9l8.3,6.5
		l13.6,6.1l19,0.8l6.7,3.9l5.4,4.6l7,2.4l8,0.4l7.5-2c0,0,0.4,3.5,0.8,5.3c0.4,1.7-3.1,8.7-3.1,8.7l-2.2,7.7l4.5,7l8.3,1.4l13,8.7
		l5.3,1l1.1,5.2l1.1,2.2c25.9-10.3,48.3-27.6,64.8-50l-0.4-2.5l5.6-19l-5.2-2.1L352.6,286.2z"/>
	<path class="st2" d="M358.2,142.1l-5.2-5.7l-6.5-6.5l-3.7-10.1l6.4-0.3l-0.4-3.5l-4.6,0.6l3.4-2.6l3.6-3.4l-0.8-3.5l-5.4-4.6
		l-2.5-7.2c-25.5-20.1-56.8-31.2-89.2-31.9c-32.4-0.6-64.2,9.4-90.4,28.4l9.2,3.9l-3.5,7.3l-6.2,2.8l1.4,9.5l-2.5,1.6l-2.6,4.6
		l1.7,6.1l6-0.6l-1.1,6.4l5.9-1.3l7.2-15l-0.2-5.7l9.5-2.8l1.5-4.7l9.8-3.3l-0.3-6.1l7.2-2c0,0,4.6-3.9,5.6-4.1
		c2.1,0,4.2,0.1,6.2,0.4l6.1,3l7.3-1.5l5.4-5.2l8.1-1.1c1.3,0.5,2.7,0.7,4.1,0.5c1.7-0.4,6.4-3.9,6.4-3.9l11.4,4l4.8,2.2l1.1,5.2
		l5.3-0.5l1-3.5l4.9,1.1l0.3,2.8l-9.7,5l7.5,6.3l13.9,4.1l6.7,5.7l7.7-1l1-3.8l2.6-1.3l-10.5-4.9l-5.7,0.5l4.2-2.4l-5.4-4.9l5.8-1.7
		l8.5,2.5l3.6,7.9l4.8,3.6l5.3,9.3l8.8,3.8l2.5,11.4l9.1,3.4l0.5,3.8v4.7l3.5,5.7l1.4,2.9l6.1-0.3l1.5-6.5L358.2,142.1z"/>
	<path class="st2" d="M355,106.4l0.4,2l-0.5,5.9l2.1,4.6l4.1,0.5l1.5,6.5l-4.5-0.8l3.1,18.8l-2.4,8.5l4.9,9l5.4,3.1l4.1,18.6
		l7.7,13.5l7.3,10l8.4,0.3l1.2-7.5l0.9-1.1c-0.6-6.2-1.6-12.3-2.9-18.3C389.7,152.1,375.5,126.5,355,106.4z"/>
	<path class="st2" d="M274.9,121.9l-25-4.9l-9.9,2.6l-1,7.1l-5.1-3.6l-7.2,3.4l1.8,11.5l7.2,3.1l3-7.5l6.3,4l12.8,6.9l4.3,9.5
		l11.5,9.4l13.9-5.6l-1.5-5.1l-4.4-5.2l-3.8-13.6l2.1-6.6L274.9,121.9z"/>
	<path class="st2" d="M295.2,125.3l-5.5-0.2l-3.6,4.8l4.6,9.4l4.5-1V125.3z"/>
	<path class="st2" d="M328.7,124.8l-13.1-3.6l-3.3-3.6l-2.5,1.7l3.9,6.4l4.1,8.5l5.6,0.9l0.7-1.6l-4.3-4.5l9.7,1.5L328.7,124.8z"/>
	<path class="st2" d="M255.7,271.5l-1.1,1.7l11,0.8l5.2,3.9l6.7-0.8l1.6-4.3l-8.2,0.4L255.7,271.5z"/>
	<path class="st2" d="M287.8,271.3l-6.8,3.7l1.7,2.5l9-2l1.1-3.1l-3,1L287.8,271.3z"/>
	<path class="st6" d="M428.7,66.4l-64.3-17.1l15.4,19.8L428.7,66.4z"/>
	<path class="st6" d="M379.9,69.2l-0.5,13.3l49.4-16.1L379.9,69.2z"/>
	<path class="st6" d="M385.7,75.9l-6.3,6.7l49.4-16.1L385.7,75.9z"/>
	<path class="st6" d="M428.7,66.4l-43.1,9.4l11.2,19.6L428.7,66.4z"/>
	<path class="st7" d="M369.3,79.5l-1.7,0.2"/>
	<path class="st8" d="M364.3,80.2c-36.7,5.2-265.7,39.9-313.6,96.3c-42.5,50.1,28.1,64.1,44.7,66.7"/>
	<path class="st7" d="M97,243.3c1.1,0.2,1.7,0.2,1.7,0.2"/>
	<path class="st9" d="M381,304L364.9,282c0,0-5.1-2.1-5.6-3.5c-0.9-2.5-1.9-5-3-7.4c-0.2-0.3-0.3-0.7-0.3-1c0-0.2,0-0.4,0.1-0.6
		c0.1-0.2,0.3-0.3,0.5-0.4c0.2-0.1,0.4-0.1,0.7,0c0.2,0.1,0.4,0.2,0.5,0.4c0.4,0.5,0.8,1.1,1.1,1.7c0.2,0.5,0.5,0.9,1,1.2
		c0,0,1.6,1.5,1.1,0.4c-0.5-1.2-2.1-8.1-2.5-9.5s0-2.1,1.1-2.1s2.8,6,2.8,6c-0.3-1.4-0.6-2.8-0.9-4.2l-0.7-3.1
		c-0.3-0.8-0.5-1.7-0.4-2.5c0.2-0.8,1-1.7,1.8-0.8c1.1,1.4,3.5,9,3.5,9v-6c0,0,1.4-1.6,2.3,0c0.9,1.6,1.3,7.2,1.3,7.2l0.5-1.8
		c0.2-0.5,0.1-1.5,0.5-1.9c0.7-0.8,1.1,0.8,1.3,1.4c0.7,1.9-0.2,14.5-0.2,14.5l-0.2,2.3l23.1,18l-10.9,7.2L381,304z"/>
	<path class="st9" d="M424.3,291.4c0,0-8.3-13.7-22.6-12.5c-14.3,1.2-18.4,15.1-18.7,18.2c-0.3,3-3.6,4.6-4.7,4.7
		c-3,0.3-2.4,4.7-1.2,6.2l1.2,1.5c0,0,1.4,10.6,3.3,11.6c3.9,2.1,11.6,2.1,11.6,2.1l0.9,4.5l15.7-1.3c0,0-1.8-1.5,0-4.2
		s9.8-4.7,13.7-11C427.3,305,425.2,295.5,424.3,291.4z"/>
	<path class="st10" d="M424.3,291.4c0,0-8.3-13.7-22.6-12.5c-1,0.1-1.9,0.2-2.9,0.4c2.5,0.4,6.3,1.6,7.1,5.5
		c1.2,5.9-5.9,10.1-5.6,13.7c0.3,3.6,3.3,8.3,4.2,8.3c0.9,0,7.1,3,5.9,6.8c-1.2,3.9-4.5,4.5-1.8,7.4c0.4,0.4,0.8,0.7,1.4,1
		c2.1-2.6,9.7-4.7,13.5-10.8C427.2,305.2,425.2,295.5,424.3,291.4z"/>
	<path class="st10" d="M418.1,287.8c0,0,2.4-12.5,5.3-16.3c3-3.9,5,2.4,5,2.4s9.5-8.3,15.7-5.9c6.2,2.4-0.9,6.8-0.9,6.8
		s10.4-1.5,13.1,6.2c2.7,7.7-3.9,9.5-3.9,9.5s8,8,4.5,10.4c-3.6,2.4-11,1.8-11,1.8s6.2,2.1,3,5c-3.3,3-11.3-3-11.3-3
		s0.9,6.5-3.6,6.5s-7.4-7.7-7.4-7.7s-3,4.7-5.4,1.5C419,301.8,417.5,289.3,418.1,287.8z"/>
	<path class="st10" d="M416.6,293.5c-0.1-2.4,0.5-4.7,1.7-6.8c1.1-2.1,2.8-3.8,4.9-5.1c7.1-4.5,7.7-0.3,7.7-0.3s6.5-5.9,12.2-1.5
		c5.6,4.5,0,10.1,0,10.1s17-1.1,15.1,3.9c-1.8,5-9.2,5.9-9.2,5.9s9.2,8.9,5,11.6c-4.2,2.6-12.2,0-12.2,0s3.3,4.2-3,5.9
		c-6.2,1.8-9.5-4.7-9.5-4.7s2.1,2.7-5.6,2.1c-7.7-0.6-8-10.1-8-10.1S408.3,303.6,416.6,293.5z"/>
	<path class="st11" d="M402.7,308.3c0,0,5.3-5.9,7.7-0.9c2.4,5-3,12.8-7.7,9.2"/>
	<path class="st7" d="M402.7,308.3c0,0,5.3-5.9,7.7-0.9c2.4,5-3,12.8-7.7,9.2"/>
	<path class="st12" d="M389.3,299.3c-0.2,1.3-1,2.2-1.7,2.1c-0.7-0.1-1.1-1.3-0.9-2.6c0.2-1.3,1-2.2,1.8-2.1
		C389.1,296.9,389.5,298.1,389.3,299.3z"/>
	<path class="st7" d="M387.5,292.6c0,0,3.9-2.4,4.7,3.9"/>
	<path class="st7" d="M381,310.4c0,0,2.4,1.5,6.5-1.2"/>
	<path class="st9" d="M409.5,424.1c0,0,12.1,15.9,14.5,15.9c2.5,0,37.2-14.2,37.2-14.2c2.5,1.3,4.7,3.1,6.4,5.3
		c2.1,3.2,0.4,8.2,4.6,8.2c4.3,0,2.8-10.6,1.4-14.5c-1.4-3.9-4.3-14.2-6.7-15.2c-2.4-1.1-11,6.4-11,6.4l-16,5.3
		c-2.1,0.7-14.9,2.8-14.9,2.8H409.5z"/>
	<path class="st6" d="M466.9,409.6c-1.7-0.7-6.3,2.6-8.9,4.7c2.6,2.1,6.8,5.2,6.8,5.2c-1,0.9-2.1,1.7-3.2,2.5
		c-2.1,1.4-0.4,3.9-0.4,3.9c2.5,1.3,4.7,3.1,6.4,5.3c2.1,3.2,0.4,8.2,4.6,8.2c4.3,0,2.8-10.6,1.4-14.5
		C472.2,420.9,469.4,410.6,466.9,409.6z"/>
	<path class="st13" d="M473.4,438.9c2.8-1.9,1.5-10.7,0.2-14.2c-1.4-3.9-4.3-14.2-6.7-15.2c-0.7-0.3-1.8,0.1-3.1,0.7
		c2.7,3.8,5,7.8,6.9,12c2.4,6,3.9,11.8,2.9,15.9C473.5,438.5,473.4,438.7,473.4,438.9z"/>
	<path class="st9" d="M382.6,421.3c0,0-1.1,12.4,1.1,15.9c2.2,3.5,10.3,38.3,10.3,39.3c-0.2,1.5-0.4,3.1-0.7,4.6
		c0,0-2.8,7.8-8.2,10.6c-5.3,2.8-8.5,6.4-5.7,7.8c2.8,1.4,15.9-2.5,19.5-3.9c3.6-1.4,11.3-3.9,11.7-7.1c0.3-3.2-5.3-12.4-5.3-14.2
		s2.1-17,1.8-25.2c-0.4-8.1-5.3-17.4-5.3-17.4l0.4-8.9L382.6,421.3z"/>
	<path class="st6" d="M410.6,488.6c0.2-2.1-2.1-6.8-3.8-10.2l-10.1,4.2c0-0.8-0.2-1.5-0.6-2.2c-0.4-0.7-0.9-1.3-1.5-1.7
		c-0.3-0.2-0.6-0.3-0.9-0.3c-0.2,1.3-0.5,2.8-0.5,2.8s-2.8,7.8-8.2,10.6c-5.3,2.8-8.5,6.4-5.7,7.8c2.8,1.4,15.9-2.5,19.5-3.9
		C402.4,494.3,410.2,491.8,410.6,488.6z"/>
	<path class="st13" d="M410.6,488.6c0-0.9-0.1-1.7-0.4-2.5c-5.7,3.7-11.8,6.7-18.3,9c-7,2.5-11.2,3.1-13.5,3.1
		c0,0.3,0.1,0.6,0.3,0.8c0.2,0.2,0.4,0.4,0.7,0.5c2.8,1.4,15.9-2.5,19.5-3.9C402.4,494.2,410.2,491.8,410.6,488.6z"/>
	<path class="st6" d="M384,376.8l-12,48.3c0,0,8.5,5.3,33,3.5c24.4-1.8,37.6-10.6,37.6-10.6s-2.1-6-3.2-7.1c-1.3-1.5-2.4-3-3.5-4.6
		L425.4,373L384,376.8z"/>
	<path class="st7" d="M390.7,381.9l-3.9,16.7"/>
	<path class="st7" d="M403.8,382.3v11"/>
	<path class="st7" d="M419.4,381.2l5.7,19.1"/>
	<path class="st9" d="M414,328.9c0,0-5.5-3.6-11.3-3.6c-5.8,0-13.8-0.3-13.8-0.3s-20.6-9.3-25.7-12.8c-5.1-3.5-19.3-20.3-19.3-20.3
		c0.6-2,1.1-4.1,1.4-6.3c0-1.6-0.2-3-0.2-5c0-2,0.5-4.1-1.4-3.9c-2,0.2-1.3,3.8-1.1,4.3c0.1,0.5-1.1,3.8-1.1,3.8s-1.1-5.9-1.6-8.4
		c-0.5-2.5-0.9-5.9-1.6-5.9s-1.8,0.9-1.6,1.8c0.2,0.9,0.3,9.3,0.3,9.3l-1.2-1.5l-2.5-7.6c-0.9-2.7-2.5-1.3-2.5,0.4
		c0,1.6,2.5,10.1,2.5,10.1l-0.9,0.9c0,0-3.2-5.9-3.8-6.8c-0.5-0.9-1.4-0.5-0.7,2.1c0.8,2.6,1.8,5.2,2.9,7.7l-4.3-3.2
		c-0.7-0.5-1.4,1.3,0,2.3c1.9,1.7,3.7,3.7,5.2,5.7c1.9,2,3.8,3.8,5.9,5.6c0,0,13.2,20,16.8,23.8c3.6,3.8,9.5,9.5,9.5,9.5
		s8.4,5.7,12.3,8.2l11.8,7.4l0.7,3.1l-4.6,27.5c0,0-0.2,3.6,15.6,3.9c15.7,0.4,24.5-3.4,25.6-6.1c1.1-2.7-5.4-29.2-6.8-36.7
		C416.9,330.5,414,328.9,414,328.9z"/>
	<path class="st14" d="M414,328.9c0,0-5.5-3.6-11.3-3.6c-2.1,0-4.6,0-6.8-0.1c3.8,1.6,9.6,5.6,8.7,14.7
		c-1.2,11.8-7.6,19.2-16.3,11.7l-4.3,25.2c0,0-0.2,3.6,15.6,3.9c15.7,0.4,24.5-3.4,25.6-6.1c1.1-2.7-5.4-29.2-6.8-36.7
		C416.9,330.5,414,328.9,414,328.9z"/>
	<path class="st6" d="M33.3,447.8l-7.4,6c0,0-7.3,2.7-10.4,4.9c-3,2.2-0.5,6.5,0.8,8.2c1.4,1.6,5.2,3.5,7.6,7.1s6,8.7,10.4,10.1
		c4.4,1.3,6,0.5,6-2.4c0-3-4.6-9.3-5.2-12c-0.5-2.7-1.1-8.4-1.1-8.4l5.2-6.5L33.3,447.8z"/>
	<path class="st10" d="M34.1,461.1l-3,0.3l-1.9,0.8l-4.6-8c-3.2,1.2-6.2,2.6-9.1,4.4c-3,2.2-0.5,6.5,0.8,8.2
		c1.4,1.6,5.2,3.5,7.6,7.1s6,8.7,10.4,10.1c4.4,1.3,6,0.5,6-2.5s-4.6-9.3-5.2-12C34.6,466.8,34.1,461.1,34.1,461.1z"/>
	<path class="st10" d="M56.7,395.5L55.6,426l-24.5,22.9l9.3,12.8L75,436.1l7.6-17.4l-21.2-22.3C61.4,396.3,56.7,393.8,56.7,395.5z"
		/>
	<path class="st6" d="M79.9,466l-3.3,16.1c0,0-4.4,10.9-3,13.1c1.4,2.2,15.3,3.8,19.3,4.4c4.1,0.5,11.4,0.5,13.9-1.1
		c2.4-1.7,1.4-3.5-0.3-4.4c-1.6-0.8-11.7-7.9-13.1-8.7c-1.4-0.8-3.5-4.1-3.5-4.1l3.5-10.9L79.9,466z"/>
	<path class="st10" d="M106.8,498.5c2.5-1.6,1.4-3.5-0.3-4.4c-1.6-0.8-11.7-7.9-13.1-8.7c-1.4-0.8-3.5-4.1-3.5-4.1s-3.3,1.4-3.3,2.5
		v1.9l-10.3-2.9c-0.9,2.4-3.9,10.5-2.7,12.4c1.4,2.2,15.3,3.8,19.3,4.4C97,500.1,104.4,500.1,106.8,498.5z"/>
	<path class="st10" d="M56.7,397.1L85,428.7l-9.2,38.4l19.9,5.5c0,0,12.3-43.9,13.1-46.6c0.8-2.7-13.6-28.6-13.6-28.6
		c-3.7-3.1-8.3-5.1-13.1-5.7C73.5,390.3,56.7,397.1,56.7,397.1z"/>
	<path class="st6" d="M119,281.8l8.3-5.8c0,0,1.1-9.2,1.3-10.1c0.2-0.8,4.4-6.2,5.3-6.5c1.4-0.5,2.8-1.2,4.1-1.9
		c0.5-0.5,1.9-0.4,1.8,0.5c-0.3,1-0.6,2-1,2.9c0,0,3.1-3.9,3.2-1.1c0.1,2.7-2.9,5.4-3.4,7.1c-0.4,1.7-1.4,6.8-1.4,6.8
		s4.6-4.7,5.3-5.8c0.6-1,2.1,0.1,1.5,1.7c-0.5,1.5-2.4,4.2-3.2,6.7c-0.8,2.5-5,4.9-6.4,5.3c-1.4,0.4-3.1,0.9-3.1,0.9L121.1,294
		l-5.5-10.5L119,281.8z"/>
	<path class="st7" d="M138.8,261c0,0-2.3,3.2-2.3,3.8c-0.4,1.5-0.9,2.9-1.5,4.3"/>
	<path class="st7" d="M137,258.3c0,0-2.9,4.6-3.7,5.9c-0.6,1.4-0.9,2.9-1,4.5"/>
	<path class="st7" d="M132.1,261.3c-0.7,1.3-1.3,2.6-1.8,4c0,0.4-0.3,2.6-0.3,2.6"/>
	<path class="st6" d="M119.9,282.4c1.1,1.8,1.8,3.8,1.8,5.9c0.2,3.7,2.2,7.6,2.8,7.8c0.5,0.2,4.1,0,3.5,2.8c-0.4,1.8-1.2,3.5-2.2,5
		c0,0-0.7,11.3-1.7,13.1c-0.9,1.8-13.3,0.7-13.3,0.7s-5,9.6-5,10.2c0,0.6-16.1-7.6-16.1-7.6l0.5-6.1c-2.7-1.9-5.2-4.2-7.4-6.7
		c-2.1-2.3-3.7-5-4.8-8c-0.1-4.6,0.8-9.1,2.6-13.3c3-6.7,13.9-11.1,24.8-11.8C116.4,273.6,119.9,282.4,119.9,282.4z"/>
	<path class="st10" d="M106,295c0.2-1.7-1.1-6.1-1.1-6.1l-3.7-9.1c0,0-11.8,5.1-21.6,9.4c-1.1,3.4-1.6,6.9-1.5,10.4
		c1.1,2.9,2.7,5.6,4.8,8c2.2,2.5,4.7,4.8,7.4,6.7c1.6-0.5,3.3-0.9,5-1.1c0,0-7.4-5.7-4.3-8.9s7.4,0,7.8,0.6c0.4,0.6,3.1,0.7,3.1-0.4
		c-0.2-1.6-0.6-3.1-1.1-4.6C100.9,299.8,105.8,296.6,106,295z"/>
	<path class="st10" d="M105.7,290.7l10.4-4.5l-0.9-7.2l3.7,5.6l5.4-3.4c0,0-1.8-7.8-13.5-11.3c-11.6-3.5-21.1-2.6-30.7,7.2
		c-9.6,9.8-1.7,29.2-1.7,29.2l12.8-6.8v-6.8l3,4.3L105.7,290.7z"/>
	<path class="st12" d="M119.5,293.6c0.3,1.2,0.2,2.2-0.2,2.4c-0.4,0.1-1.1-0.7-1.4-1.9c-0.3-1.2-0.2-2.2,0.2-2.4
		C118.6,291.6,119.2,292.4,119.5,293.6z"/>
	<path class="st7" d="M120.5,293c0,0-1.7-2-3.7-1.1"/>
	<path class="st7" d="M115.1,290.5c0.3-0.8,0.9-1.5,1.6-2c0.7-0.5,1.6-0.8,2.4-0.8"/>
	<path class="st7" d="M124,306.8c-1,0.4-2.2,0.5-3.2,0.2c-1.1-0.3-2-0.9-2.7-1.8"/>
	<path class="st14" d="M110,330.7l-22.9-14.4c0,0-34,62.8-36.3,70.3s0.6,11.2,9.1,12.7c8.5,1.6,18.3-1.3,22.6-2.9S96,400,96,400
		s1.6,2,2.3,0.3c0.7-1.6,1-7.2,1-9.8c0-2.6,12.1-49.3,12.1-54.3S110,330.7,110,330.7z"/>
	<path class="st7" d="M104.4,345.1c0,0-19.3,6-23.5,6.3"/>
	<path class="st7" d="M81.4,362.3c-1.4,0.8-2.7,1.6-3.8,2.2"/>
	<path class="st7" d="M104.4,348.1c0,0-10.6,6.7-19.1,11.9"/>
	<path class="st7" d="M89.5,392.1c1.3,0.6,2.6,1.3,3.8,2.1"/>
	<path class="st7" d="M73.2,389c0,0,5.3-1.1,12.7,1.6"/>
	<path class="st14" d="M84.9,320.3l4.2-6.9c0,0,3.9,0.3,9.8,4.2c5.9,3.9,11.2,13.1,11.2,13.1L84.9,320.3z"/>
	<path class="st6" d="M128.6,339.2l33.7-18v-10.5l4.2-8.2c0,0,1-2,2.6-1l-0.8,1.3l1.7-2c0,0,1.4-1.2,2.2-2.1c0.9-0.9,1.7,0,1.9,0.5
		c0.3,0.5,0.2,0.2,0.2,0.2c0.3-0.2,0.6-0.3,0.9-0.3c0.3,0,0.6,0,0.9,0.1c1.4,0.6-1.4,5.5-1.4,5.5s3.6-2.7,3.6-1s-4.2,6.2-4.2,6.2
		s4.5-2.6,4.5-1.1c0,1.5-6,6.9-6,6.9c-0.6,2.8-1.6,5.5-2.9,8.1c-0.9,1.7-2.4,3.2-4.1,4.1c0,0-27.5,23.1-32.2,25.4
		c-2.7,1.4-5.9,1.7-8.9,0.8l2.9-14.5L128.6,339.2z"/>
	<path class="st7" d="M174.3,299.5c0,0-3.8,5.3-4.4,5.9c-0.8,1.5-1.6,3-2.2,4.6"/>
	<path class="st7" d="M170,300.9c-1.4,2-2.7,4-3.9,6.2c-0.3,0.9-0.5,2-0.5,2"/>
	<path class="st7" d="M174.7,304.7c0,0-2.6,3.4-2.9,4.1c-0.4,0.7-1.5,2.4-1.5,2.4"/>
	<path class="st7" d="M174.1,310l-1.7,2"/>
	<path class="st15" d="M97.3,327.1l33,9.5l-7.8,28.1c0,0-25.8-21.2-27.1-23.2"/>
	<path class="st7" d="M97.3,327.1l33,9.5l-7.8,28.1c0,0-25.8-21.2-27.1-23.2"/>
	<path class="st10" d="M110.8,317.7l-5.3-1.2l2.2,6.3L110.8,317.7z"/>
	<path class="st2" d="M119.9,64.9c0-1.9-0.5-3.9-1.3-5.6c-0.9-1.7-2.1-3.2-3.7-4.4c-1.6-1.2-3.4-1.9-5.3-2.3
		c-1.9-0.3-3.9-0.2-5.7,0.4c-1.3-3.5-3.6-6.6-6.6-8.8c-3.1-2.2-6.7-3.3-10.5-3.4c-3.8,0-7.4,1.2-10.5,3.3c-3.1,2.2-5.4,5.2-6.7,8.8
		c-1.1-0.3-2.2-0.5-3.4-0.5c-3,0-6,1.2-8.2,3.3c-2.2,2.1-3.7,4.9-4,7.9c-0.3,3,0.5,6.1,2.3,8.5c1.8,2.5,4.4,4.2,7.4,4.9l46.8,0
		c2.7-0.7,5.1-2.2,6.9-4.4C119,70.4,120,67.7,119.9,64.9z"/>
	<path class="st2" d="M131.1,71.1c0-1-0.2-1.9-0.7-2.8c-0.4-0.9-1.1-1.6-1.8-2.2c-0.8-0.6-1.7-1-2.6-1.1c-0.9-0.2-1.9-0.1-2.8,0.2
		c-0.6-1.8-1.7-3.3-3.3-4.4c-1.5-1.1-3.3-1.7-5.2-1.7s-3.7,0.6-5.2,1.7c-1.5,1.1-2.7,2.6-3.3,4.4c-0.8-0.2-1.6-0.3-2.4-0.2
		c-0.8,0.1-1.6,0.4-2.3,0.8c-0.7,0.4-1.3,1-1.8,1.6c-0.5,0.7-0.8,1.4-1,2.2c-0.2,0.8-0.2,1.6-0.1,2.4c0.1,0.8,0.4,1.6,0.9,2.3
		c0.4,0.7,1,1.3,1.7,1.8s1.4,0.8,2.2,1h23c1.4-0.3,2.5-1.1,3.4-2.2C130.6,73.8,131.1,72.5,131.1,71.1z"/>
	<path class="st2" d="M460.1,135.9c0-1.9-0.5-3.9-1.3-5.6c-0.9-1.7-2.1-3.2-3.7-4.4c-1.6-1.2-3.4-1.9-5.3-2.3
		c-1.9-0.3-3.9-0.2-5.7,0.4c-1.3-3.5-3.6-6.6-6.6-8.8c-3.1-2.2-6.7-3.3-10.5-3.3c-3.8,0-7.4,1.1-10.5,3.3s-5.4,5.2-6.7,8.7
		c-1.1-0.3-2.2-0.5-3.4-0.5c-3,0-6,1.2-8.2,3.3c-2.2,2.1-3.7,4.9-4,7.9c-0.3,3,0.5,6.1,2.3,8.5c1.8,2.5,4.4,4.2,7.4,4.9l46.8-0.1
		c2.7-0.7,5.1-2.2,6.8-4.4C459.2,141.4,460.1,138.7,460.1,135.9z"/>
	<path class="st2" d="M471.3,142.1c0-1.6-0.6-3.2-1.8-4.3c-1.1-1.1-2.7-1.8-4.3-1.8c-0.6,0-1.2,0.1-1.8,0.2
		c-0.6-1.8-1.7-3.3-3.3-4.4c-1.5-1.1-3.3-1.7-5.2-1.7c-1.9,0-3.7,0.6-5.2,1.7c-1.5,1.1-2.7,2.6-3.3,4.4c-0.5-0.1-1.1-0.2-1.6-0.2
		c-1.5,0-3,0.6-4.1,1.6c-1.1,1-1.8,2.4-2,3.9c-0.2,1.5,0.2,3,1.1,4.2s2.2,2.1,3.7,2.4h23c1.3-0.3,2.5-1.1,3.4-2.2
		C470.8,144.8,471.3,143.5,471.3,142.1z"/>
	<path class="st2" d="M102.8,245.6c0-1.9-0.4-3.9-1.3-5.6c-0.9-1.7-2.1-3.2-3.7-4.4c-1.6-1.2-3.4-1.9-5.3-2.3
		c-1.9-0.3-3.9-0.2-5.7,0.4c-1.3-3.5-3.6-6.6-6.6-8.8c-3.1-2.2-6.7-3.3-10.5-3.4c-3.8,0-7.4,1.2-10.5,3.3c-3.1,2.2-5.4,5.2-6.7,8.8
		c-1.1-0.3-2.2-0.5-3.4-0.5c-3,0-6,1.2-8.2,3.3s-3.7,4.9-4,7.9c-0.3,3,0.5,6.1,2.3,8.5c1.8,2.5,4.4,4.2,7.4,4.9l46.8-0.1
		c2.7-0.6,5.1-2.2,6.9-4.4C101.9,251.1,102.8,248.4,102.8,245.6z"/>
	<path class="st2" d="M113.9,251.8c0-1.6-0.6-3.2-1.8-4.3c-1.1-1.1-2.7-1.8-4.3-1.8c-0.6,0-1.2,0.1-1.8,0.3
		c-0.6-1.8-1.7-3.3-3.3-4.4c-1.5-1.1-3.3-1.7-5.2-1.7c-1.9,0-3.7,0.6-5.2,1.7c-1.5,1.1-2.7,2.6-3.3,4.4c-0.8-0.2-1.6-0.3-2.4-0.2
		c-0.8,0.1-1.6,0.4-2.3,0.8s-1.3,1-1.8,1.6c-0.5,0.7-0.8,1.4-1,2.2c-0.2,0.8-0.2,1.6-0.1,2.4c0.1,0.8,0.4,1.6,0.9,2.3
		c0.4,0.7,1,1.3,1.7,1.8c0.7,0.5,1.4,0.8,2.2,1h23c1.3-0.3,2.5-1.1,3.4-2.2C113.5,254.5,114,253.2,113.9,251.8z"/>
</g>
<g id="Capa_2">
	<g id="freepik--Space--inject-37">
		<path id="freepik--Background--inject-37" class="st16" d="M289.8,73.5C147,34.4,53.1,57.7,17.7,108.7
			c-28.4,40.9-13.9,76.4,22.7,144.4s4.6,107.4-6.5,165.1c-12.1,63.3,85.3,77.4,174.7,58.6s254.1-100.8,247.8-241.5
			C452.3,144.9,367,94.6,289.8,73.5z"/>
	</g>
	<g id="freepik--Stars--inject-37">
		<g id="freepik--stars--inject-37">
			<path class="st17" d="M129.3,93.4c0,0.9-0.7,1.6-1.6,1.6c-0.9,0-1.6-0.7-1.6-1.6c0-0.9,0.7-1.6,1.6-1.6c0,0,0,0,0,0
				C128.7,91.9,129.3,92.6,129.3,93.4z"/>
			<path class="st18" d="M135.7,94.2c0,0.5-0.4,0.9-0.9,0.9c-0.5,0-0.9-0.4-0.9-0.9c0-0.5,0.4-0.9,0.9-0.9c0,0,0,0,0,0
				C135.3,93.3,135.7,93.7,135.7,94.2z"/>
			<path class="st17" d="M380.4,296.8c0.6-0.6,1.6-0.7,2.2-0.2c0.6,0.6,0.7,1.6,0.1,2.2c-0.6,0.6-1.6,0.7-2.2,0.1
				C379.9,298.4,379.9,297.4,380.4,296.8z"/>
			<path class="st18" d="M376.1,292c0.3-0.4,0.9-0.4,1.3-0.1c0.4,0.3,0.4,0.9,0.1,1.3c0,0,0,0,0,0c-0.3,0.4-0.9,0.4-1.3,0.1
				C375.8,292.9,375.8,292.4,376.1,292C376.1,292,376.1,292,376.1,292z"/>
			<path class="st18" d="M80.7,437.5c0.5,0.5,0.5,1.3,0,1.8c-0.5,0.5-1.3,0.5-1.8,0s-0.5-1.3,0-1.8c0,0,0,0,0,0
				C79.4,437,80.2,437,80.7,437.5z"/>
			<path class="st18" d="M92.5,443.1c0.8,0.8,0.8,2.1,0,2.9c-0.8,0.8-2.1,0.8-2.9,0c-0.8-0.8-0.8-2.1,0-2.9
				C90.3,442.3,91.6,442.3,92.5,443.1C92.5,443.1,92.5,443.1,92.5,443.1z"/>
			<path class="st18" d="M316,385.8c0,1.1-0.9,2.1-2.1,2.1s-2.1-0.9-2.1-2.1s0.9-2.1,2.1-2.1c0,0,0,0,0,0
				C315.1,383.7,316,384.7,316,385.8z"/>
			<path class="st18" d="M309.8,391.5c0,0.7-0.6,1.2-1.2,1.2c-0.7,0-1.2-0.6-1.2-1.2c0-0.7,0.6-1.2,1.2-1.2c0,0,0,0,0,0
				C309.3,390.2,309.8,390.8,309.8,391.5z"/>
			<path class="st18" d="M306.3,383.7c0,0.6-0.4,1-1,1s-1-0.4-1-1s0.4-1,1-1S306.3,383.2,306.3,383.7z"/>
			<path class="st18" d="M364.3,168.7c0,0.7-0.6,1.3-1.3,1.3s-1.3-0.6-1.3-1.3c0-0.7,0.6-1.3,1.3-1.3c0,0,0,0,0,0
				C363.7,167.4,364.3,168,364.3,168.7C364.3,168.7,364.3,168.7,364.3,168.7z"/>
			<path class="st18" d="M370.2,152l2.9,2.8l4-0.8c0.3,0,0.5,0.1,0.5,0.4c0,0.1,0,0.2,0,0.3l-1.8,3.6l1.9,3.5c0.1,0.2,0,0.5-0.2,0.6
				c-0.1,0.1-0.2,0.1-0.3,0.1l-4-0.6l-2.8,2.9c-0.2,0.2-0.5,0.2-0.6,0c-0.1-0.1-0.1-0.2-0.1-0.3l-0.7-4l-3.6-1.7
				c-0.2-0.1-0.3-0.4-0.2-0.6c0-0.1,0.1-0.2,0.2-0.2l3.6-1.9l0.5-4c0-0.2,0.3-0.4,0.5-0.4C370.1,151.9,370.2,152,370.2,152z"/>
			<path class="st18" d="M260,299.4l0.4,3.1l2.8,1.4c0.2,0.1,0.3,0.3,0.2,0.5c0,0.1-0.1,0.1-0.2,0.2l-2.8,1.4L260,309
				c0,0.2-0.2,0.3-0.4,0.3c-0.1,0-0.1,0-0.2-0.1l-2.2-2.2l-3.1,0.5c-0.2,0-0.4-0.1-0.4-0.3c0-0.1,0-0.2,0-0.2l1.5-2.8l-1.5-2.8
				c-0.1-0.2,0-0.4,0.2-0.5c0.1,0,0.1,0,0.2,0l3.1,0.5l2.2-2.2c0.1-0.1,0.4-0.1,0.5,0C259.9,299.3,260,299.3,260,299.4z"/>
		</g>
	</g>
	<g id="freepik--Screen--inject-18">
		<g id="freepik--window--inject-18_2_">
			<path class="st19" d="M308.9,16.4l-6-3.5L75.3,144.3v198.4c0,2,0.7,3.5,1.8,4.1l0,0l6,3.5l0,0c1.1,0.7,2.7,0.6,4.6-0.4l214.9-124
				c3.8-2.5,6.1-6.6,6.4-11.1V16.4z"/>
			<path class="st18" d="M84.8,350c0.9,0,1.7-0.3,2.5-0.8l214.9-124c3.6-2.3,5.8-6.2,6.1-10.4V17.7L82,148.2v197.9
				C82,348.5,83.1,350,84.8,350z"/>
			<path class="st20" d="M307.4,18.9v195.8c-0.2,4-2.3,7.6-5.6,9.8L87,348.5c-0.6,0.4-1.4,0.6-2.1,0.7c-1.8,0-2.1-2.2-2.1-3.1V148.7
				L307.4,18.9 M308.9,16.4L81.3,147.8v198.4c0,2.9,1.4,4.6,3.5,4.6c1,0,2-0.4,2.9-0.9l214.9-124c3.8-2.5,6.1-6.6,6.4-11.1V16.4
				L308.9,16.4z"/>
			<polygon class="st21" points="81.3,147.8 81.3,178.7 308.9,47.3 308.9,16.4 			"/>
			<path class="st16" d="M301.1,3.1c-1.2-0.7-2.7-0.6-4.6,0.4L81.7,127.5c-3.8,2.5-6.1,6.6-6.4,11.1v5.7l6,3.5L308.9,16.4v-5.7
				c0-2-0.7-3.4-1.8-4.1S302.2,3.7,301.1,3.1z"/>
			<path class="st22" d="M81.3,142.1c0.2-4.5,2.6-8.6,6.4-11.1L302.5,7c3.5-2,6.4-0.4,6.4,3.6v5.7L81.3,147.8V142.1z"/>
			<path class="st23" d="M307.1,6.6c-1.2-0.7-2.8-0.6-4.6,0.4L87.7,131c-1.9,1.2-3.5,2.8-4.6,4.8l-6-3.5c1.1-2,2.7-3.6,4.6-4.8
				l214.9-124c1.8-1,3.4-1.1,4.6-0.4C302.3,3.8,306,5.9,307.1,6.6C307.1,6.5,307.1,6.6,307.1,6.6z"/>
			<path class="st18" d="M286.6,20.6c-1.3,0.9-2.1,2.3-2.2,3.9c0,1.4,1,2,2.2,1.3c1.3-0.9,2.1-2.3,2.2-3.9
				C288.9,20.4,287.9,19.8,286.6,20.6z"/>
			<path class="st18" d="M294.4,16.1c-1.3,0.9-2.1,2.3-2.2,3.9c0,1.4,1,2,2.2,1.3c1.3-0.9,2.1-2.3,2.2-3.9
				C296.7,15.9,295.7,15.4,294.4,16.1z"/>
			<path class="st18" d="M302.2,11.6c-1.3,0.9-2.1,2.3-2.2,3.9c0,1.4,1,2,2.2,1.3c1.3-0.9,2.1-2.3,2.2-3.9
				C304.5,11.5,303.5,10.9,302.2,11.6z"/>
			<polygon class="st21" points="81.3,147.8 75.3,144.3 75.3,175.2 81.3,178.7 			"/>
			<polygon class="st24" points="81.3,147.8 75.3,144.3 75.3,175.2 81.3,178.7 			"/>
			<polygon class="st25" points="81.3,147.8 75.3,144.3 75.3,175.2 81.3,178.7 			"/>
			<path class="st18" d="M103.2,150.7c0,5.4-3.3,11.7-7.4,14.1c-4.1,2.4-7.4-0.1-7.4-5.6c0-5.4,3.3-11.7,7.4-14.1
				C99.9,142.8,103.2,145.3,103.2,150.7z"/>
			<path class="st21" d="M95.8,161.5c-0.8,0-1.5-0.7-1.5-1.5c0,0,0,0,0,0v-10.1c-0.1-0.8,0.6-1.5,1.4-1.6c0.8-0.1,1.5,0.6,1.6,1.4
				c0,0.1,0,0.2,0,0.2V160C97.3,160.9,96.7,161.5,95.8,161.5C95.8,161.5,95.8,161.5,95.8,161.5z"/>
			<path class="st21" d="M92,158.7c-0.8,0-1.5-0.7-1.5-1.5c0-0.5,0.3-1,0.7-1.3l7.6-4.4c0.7-0.5,1.6-0.3,2.1,0.4
				c0.5,0.7,0.3,1.6-0.4,2.1c-0.1,0-0.1,0.1-0.2,0.1l-7.6,4.4C92.5,158.6,92.3,158.7,92,158.7z"/>
			<path class="st18" d="M118,149.5c-0.2,0.1-0.3,0.1-0.4,0.1l-0.2-0.2l-4.3-6.1v8.5c0,0.2,0,0.3-0.1,0.5c-0.1,0.1-0.2,0.3-0.3,0.3
				l-1.2,0.7c-0.1,0.1-0.2,0.1-0.3,0c-0.1-0.1-0.1-0.2-0.1-0.3v-13.4c0-0.2,0-0.3,0.1-0.5c0.1-0.1,0.2-0.3,0.3-0.3l1.1-0.6
				c0.2-0.1,0.3-0.1,0.4,0c0.1,0.1,0.1,0.1,0.2,0.2l4.4,6.1v-8.6c0-0.2,0-0.3,0.1-0.5c0.1-0.1,0.2-0.3,0.3-0.3l1.3-0.7
				c0.1-0.1,0.2-0.1,0.3,0c0.1,0.1,0.1,0.2,0.1,0.3v13.4c0,0.2,0,0.3-0.1,0.5c-0.1,0.1-0.2,0.3-0.3,0.3L118,149.5z"/>
			<path class="st18" d="M121.4,142.2c0-0.8,0.1-1.6,0.3-2.3c0.2-0.8,0.4-1.5,0.8-2.2c0.3-0.7,0.7-1.3,1.2-1.9c0.4-0.5,1-1,1.6-1.3
				c0.5-0.3,1-0.5,1.6-0.5c0.4,0,0.9,0.2,1.2,0.4c0.4,0.3,0.6,0.8,0.8,1.2c0.2,0.6,0.3,1.2,0.3,1.8v0.9c0,0.2,0,0.3-0.1,0.5
				c-0.1,0.1-0.2,0.3-0.3,0.3l-5.2,3c0,0.3,0,0.5,0.1,0.8c0.1,0.2,0.2,0.3,0.4,0.4c0.2,0.1,0.4,0.1,0.6,0c0.2,0,0.5-0.1,0.7-0.3
				c0.3-0.2,0.6-0.4,0.8-0.6c0.2-0.2,0.4-0.4,0.5-0.6c0.1-0.1,0.2-0.3,0.3-0.4c0.1-0.1,0.2-0.2,0.3-0.2l1.2-0.7
				c0.1-0.1,0.2-0.1,0.3,0c0.1,0.1,0.1,0.2,0.1,0.3c0,0.3-0.1,0.6-0.2,0.9c-0.2,0.4-0.4,0.9-0.7,1.3c-0.3,0.5-0.7,1-1.1,1.4
				c-0.4,0.5-1,0.9-1.5,1.2c-0.5,0.3-1,0.5-1.6,0.5c-0.4,0-0.9-0.2-1.2-0.5c-0.4-0.4-0.6-0.8-0.8-1.3
				C121.5,143.6,121.4,142.9,121.4,142.2z M125.2,136.9c-0.3,0.2-0.6,0.4-0.8,0.6c-0.2,0.2-0.4,0.5-0.5,0.8
				c-0.1,0.3-0.3,0.5-0.3,0.8c-0.1,0.2-0.1,0.5-0.1,0.7l3.5-2c0-0.2-0.1-0.4-0.1-0.6c0-0.2-0.1-0.3-0.3-0.5
				c-0.1-0.1-0.3-0.2-0.5-0.2C125.7,136.6,125.4,136.7,125.2,136.9z"/>
			<path class="st18" d="M138.3,133.4l1.4-6.7c0-0.1,0.1-0.3,0.1-0.4c0.1-0.1,0.2-0.3,0.3-0.3l1.2-0.7c0.1-0.1,0.2-0.1,0.3,0
				c0.1,0.1,0.1,0.2,0.1,0.3c0,0.1,0,0.1,0,0.2l-2.3,10.9c0,0.1-0.1,0.3-0.1,0.4c-0.1,0.1-0.2,0.3-0.3,0.3l-1.2,0.7
				c-0.1,0.1-0.2,0.1-0.3,0c-0.1-0.1-0.1-0.2-0.1-0.3l-1.5-4.7l-1.5,6.4c0,0.1-0.1,0.3-0.1,0.4c-0.1,0.1-0.2,0.3-0.3,0.3l-1.2,0.7
				c-0.1,0.1-0.2,0.1-0.3,0c-0.1-0.1-0.1-0.2-0.1-0.3l-2.3-8.2c0,0,0-0.1,0-0.1c0-0.2,0-0.3,0.1-0.5c0.1-0.1,0.2-0.3,0.3-0.3
				l1.2-0.7c0.1-0.1,0.2-0.1,0.3,0c0.1,0.1,0.1,0.2,0.1,0.3l1.4,5.1l1.5-6.8c0-0.1,0.1-0.3,0.1-0.4c0.1-0.1,0.2-0.2,0.3-0.3l1.2-0.7
				c0.1-0.1,0.2-0.1,0.3,0c0.1,0.1,0.1,0.2,0.1,0.2L138.3,133.4z"/>
			<path class="st18" d="M146.1,127.9c0-0.8,0.1-1.6,0.3-2.3c0.2-0.8,0.4-1.5,0.8-2.2c0.3-0.7,0.7-1.3,1.2-1.9c0.4-0.5,1-1,1.6-1.3
				c0.5-0.3,1-0.5,1.6-0.5c0.4,0,0.9,0.2,1.2,0.4c0.4,0.3,0.6,0.8,0.8,1.2c0.2,0.6,0.3,1.2,0.3,1.8v0.9c0,0.2,0,0.3-0.1,0.5
				c-0.1,0.1-0.2,0.3-0.3,0.3l-5.2,3c0,0.3,0,0.5,0.2,0.7c0.1,0.2,0.2,0.3,0.4,0.4c0.2,0.1,0.4,0.1,0.6,0c0.2-0.1,0.5-0.1,0.7-0.3
				c0.5-0.3,1-0.7,1.3-1.2c0.1-0.1,0.2-0.3,0.3-0.4c0.1-0.1,0.2-0.2,0.3-0.2l1.2-0.7c0.1-0.1,0.2-0.1,0.3,0c0.1,0.1,0.1,0.2,0.1,0.3
				c0,0.3-0.1,0.6-0.2,0.9c-0.2,0.4-0.4,0.9-0.7,1.3c-0.3,0.5-0.7,1-1.1,1.4c-0.4,0.5-1,0.9-1.5,1.2c-0.5,0.3-1,0.5-1.6,0.5
				c-0.4,0-0.9-0.2-1.2-0.5c-0.4-0.4-0.6-0.8-0.8-1.3C146.2,129.3,146.1,128.6,146.1,127.9z M149.9,122.6c-0.3,0.2-0.5,0.4-0.8,0.6
				c-0.2,0.2-0.4,0.5-0.5,0.8c-0.1,0.3-0.3,0.5-0.3,0.8c-0.1,0.2-0.1,0.5-0.2,0.7l3.5-2c0-0.2-0.1-0.4-0.1-0.6
				c0-0.2-0.1-0.3-0.3-0.5c-0.1-0.1-0.3-0.2-0.5-0.2C150.5,122.3,150.2,122.4,149.9,122.6z"/>
			<path class="st18" d="M163,123c0,0.2,0,0.3-0.1,0.5c-0.1,0.1-0.2,0.3-0.3,0.3l-1.2,0.7c-0.1,0.1-0.2,0.1-0.3,0
				c-0.1-0.1-0.1-0.2-0.1-0.3v-5.3c0.1-0.6-0.1-1.2-0.4-1.7c-0.3-0.3-0.7-0.3-1.3,0c-0.6,0.4-1,0.9-1.3,1.5
				c-0.3,0.7-0.5,1.5-0.5,2.3v5.3c0,0.2,0,0.3-0.1,0.5c-0.1,0.1-0.2,0.3-0.3,0.3l-1.2,0.7c-0.1,0.1-0.2,0.1-0.3,0
				c-0.1-0.1-0.1-0.2-0.1-0.3v-9.6c0-0.2,0-0.3,0.1-0.5c0.1-0.1,0.2-0.3,0.3-0.3l1.2-0.7c0.1-0.1,0.2-0.1,0.3,0
				c0.1,0.1,0.1,0.2,0.1,0.3v0.5c0.3-0.5,0.6-1,0.9-1.4c0.4-0.4,0.8-0.8,1.3-1.1c0.5-0.3,1-0.5,1.6-0.5c0.4,0,0.8,0.2,1,0.5
				c0.3,0.4,0.5,0.8,0.5,1.2c0.1,0.6,0.2,1.2,0.2,1.8L163,123z"/>
			<path class="st18" d="M167.8,116.9c0,0.3,0,0.7,0.3,0.9c0.2,0.2,0.5,0.1,1-0.2l0.9-0.5c0.1-0.1,0.2-0.1,0.3,0
				c0.1,0.1,0.1,0.2,0.1,0.3v1.4c0,0.2,0,0.3-0.1,0.5c-0.1,0.1-0.2,0.3-0.3,0.3l-1.1,0.7c-1,0.6-1.7,0.7-2.2,0.4
				c-0.5-0.3-0.8-1.1-0.8-2.4v-4.5l-1,0.6c-0.1,0.1-0.2,0.1-0.3,0c-0.1-0.1-0.1-0.2-0.1-0.3v-1.4c0-0.2,0-0.3,0.1-0.5
				c0.1-0.1,0.2-0.2,0.3-0.3l1-0.6v-3.4c0-0.2,0-0.3,0.1-0.5c0.1-0.1,0.2-0.3,0.3-0.3l1.2-0.7c0.1-0.1,0.2-0.1,0.3,0
				c0.1,0.1,0.1,0.2,0.1,0.3v3.4l2-1.2c0.1-0.1,0.2-0.1,0.3,0c0.1,0.1,0.1,0.2,0.1,0.3v1.4c0,0.2,0,0.3-0.1,0.5
				c-0.1,0.1-0.2,0.3-0.3,0.3l-2,1.1L167.8,116.9z"/>
			<path class="st18" d="M175.6,108c-0.6,0.3-1,0.8-1.3,1.3c-0.3,0.6-0.4,1.3-0.4,2v5.4c0,0.2,0,0.3-0.1,0.5
				c-0.1,0.1-0.2,0.3-0.3,0.3l-1.2,0.7c-0.1,0.1-0.2,0.1-0.3,0c-0.1-0.1-0.1-0.2-0.1-0.3v-9.7c0-0.2,0-0.3,0.1-0.5
				c0.1-0.1,0.2-0.3,0.3-0.3l1.2-0.7c0.1-0.1,0.2-0.1,0.3,0c0.1,0.1,0.1,0.2,0.1,0.3v0.5c0.2-0.4,0.5-0.9,0.9-1.3
				c0.3-0.4,0.8-0.7,1.2-1l0.7-0.4c0.1-0.1,0.2-0.1,0.3,0c0.1,0.1,0.1,0.2,0.1,0.3v1.4c0,0.2,0,0.3-0.1,0.5
				c-0.1,0.1-0.2,0.3-0.3,0.3L175.6,108z"/>
			<path class="st18" d="M180.8,112.7l-3.1-7.7c0,0,0-0.1,0-0.1c0-0.2,0-0.3,0.1-0.5c0.1-0.1,0.2-0.3,0.3-0.3l1.2-0.7
				c0.1-0.1,0.2-0.1,0.3,0c0.1,0.1,0.1,0.1,0.2,0.2l2.1,5.2l2.1-7.6c0-0.2,0.1-0.3,0.2-0.4c0.1-0.1,0.2-0.3,0.3-0.4l1.2-0.7
				c0.1-0.1,0.2-0.1,0.3,0c0.1,0.1,0.1,0.2,0.1,0.3c0,0.1,0,0.1,0,0.2l-4.4,16c0,0.2-0.1,0.3-0.2,0.4c-0.1,0.1-0.2,0.3-0.3,0.3
				l-1.2,0.7c-0.1,0.1-0.2,0.1-0.3,0c-0.1-0.1-0.1-0.2-0.1-0.3c0-0.1,0-0.1,0-0.2L180.8,112.7z"/>
			<path class="st20" d="M89.2,196.1c-0.2,0-0.4,0-0.5-0.1c-0.4-0.3-0.7-0.8-0.6-1.3v-10.2c0-1.1,0.5-2,1.4-2.6l39.4-22.7
				c0.4-0.2,0.8-0.3,1.2-0.1c0.4,0.3,0.7,0.8,0.6,1.3v10.2c0,1.1-0.5,2-1.4,2.6l-39.4,22.7C89.6,196,89.4,196.1,89.2,196.1z
				 M129.5,159.7c-0.1,0-0.2,0-0.2,0.1l-39.4,22.7c-0.6,0.4-0.9,1.1-0.9,1.8v10.2c0,0.3,0.1,0.5,0.2,0.6s0.2,0,0.3-0.1l39.3-22.6
				c0.6-0.4,0.9-1.1,0.9-1.8v-10.3C129.7,160.1,129.6,159.9,129.5,159.7L129.5,159.7z"/>
			<path class="st23" d="M94.8,183.7c0,0,0.1,0,0.1,0c0,0,0,0.1,0,0.1v0.5c0,0.1,0,0.1,0,0.2c0,0.1-0.1,0.1-0.1,0.1l-1,0.6v4
				c0,0.1,0,0.1,0,0.2c0,0-0.1,0.1-0.1,0.1l-0.4,0.3c0,0-0.1,0-0.1,0c-0.1,0-0.1,0-0.2-0.1c0,0,0,0,0,0v-4l-1,0.6c0,0-0.1,0-0.1,0
				c0,0,0-0.1,0-0.1v-0.5c0-0.1,0-0.1,0-0.2c0-0.1,0.1-0.1,0.1-0.1L94.8,183.7z"/>
			<path class="st23" d="M95.9,183c0,0,0.1,0,0.1,0c0,0,0,0.1,0,0.1v0.6c0,0.1,0,0.1,0,0.2c0,0-0.1,0.1-0.1,0.1l-0.5,0.3
				c0,0-0.1,0-0.1,0c0,0,0-0.1,0-0.1v-0.6c0-0.1,0-0.1,0-0.2c0,0,0.1-0.1,0.1-0.1L95.9,183z M96,188c0,0.1,0,0.1,0,0.2
				c0,0-0.1,0.1-0.1,0.1l-0.4,0.2c0,0-0.1,0-0.1,0c0,0,0-0.1,0-0.1v-3.4c0-0.1,0-0.1,0-0.2c0,0,0.1-0.1,0.1-0.1l0.4-0.2
				c0,0,0.1,0,0.1,0c0,0,0,0.1,0,0.1V188z"/>
			<path class="st23" d="M97.8,185.8c0,0.1,0,0.2,0.1,0.3c0.1,0.1,0.2,0,0.3-0.1l0.3-0.2c0,0,0.1,0,0.1,0c0,0,0,0.1,0,0.1v0.5
				c0,0.1,0,0.1,0,0.2c0,0-0.1,0.1-0.1,0.1l-0.4,0.2c-0.3,0.2-0.6,0.2-0.8,0.1s-0.3-0.4-0.3-0.9v-1.5l-0.4,0.2c0,0-0.1,0-0.1,0
				c0,0,0-0.1,0-0.1v-0.5c0-0.1,0-0.1,0-0.2c0,0,0.1-0.1,0.1-0.1l0.4-0.2v-1.2c0-0.1,0-0.1,0-0.2c0,0,0.1-0.1,0.1-0.1l0.4-0.2
				c0,0,0.1,0,0.1,0c0,0,0,0.1,0,0.1v1.2l0.7-0.4c0,0,0.1,0,0.1,0c0,0,0,0.1,0,0.1v0.5c0,0.1,0,0.1,0,0.2c0,0-0.1,0.1-0.1,0.1
				l-0.7,0.4L97.8,185.8z"/>
			<path class="st23" d="M99.9,185.7c0,0.1,0,0.1,0,0.2c0,0-0.1,0.1-0.1,0.1l-0.4,0.2c0,0-0.1,0-0.1,0c0,0,0-0.1,0-0.1v-4.8
				c0-0.1,0-0.1,0-0.2c0,0,0.1-0.1,0.1-0.1l0.4-0.2c0,0,0.1,0,0.1,0c0,0,0,0.1,0,0.1V185.7z"/>
			<path class="st23" d="M100.6,183.6c0-0.3,0-0.6,0.1-0.8c0.1-0.3,0.1-0.5,0.3-0.8c0.1-0.2,0.3-0.5,0.4-0.7
				c0.2-0.2,0.4-0.4,0.6-0.5c0.2-0.1,0.4-0.2,0.6-0.2c0.2,0,0.3,0.1,0.4,0.2c0.1,0.1,0.2,0.3,0.3,0.4c0.1,0.2,0.1,0.4,0.1,0.7v0.3
				c0,0.1,0,0.1,0,0.2c0,0.1-0.1,0.1-0.1,0.1l-1.8,1.1c0,0.1,0,0.2,0.1,0.3c0,0.1,0.1,0.1,0.1,0.1c0.1,0,0.1,0,0.2,0
				c0.1,0,0.2,0,0.2-0.1c0.1-0.1,0.2-0.1,0.3-0.2c0.1-0.1,0.1-0.1,0.2-0.2c0,0,0.1-0.1,0.1-0.1c0,0,0.1-0.1,0.1-0.1l0.4-0.3
				c0,0,0.1,0,0.1,0c0,0,0,0.1,0,0.1c0,0.1,0,0.2-0.1,0.3c-0.1,0.2-0.1,0.3-0.2,0.5c-0.1,0.2-0.2,0.3-0.4,0.5
				c-0.2,0.2-0.3,0.3-0.5,0.4c-0.2,0.1-0.4,0.2-0.6,0.2c-0.2,0-0.3-0.1-0.4-0.2c-0.1-0.1-0.2-0.3-0.3-0.5
				C100.6,184.1,100.6,183.9,100.6,183.6z M101.9,181.7c-0.1,0.1-0.2,0.1-0.3,0.2c-0.1,0.1-0.1,0.2-0.2,0.3
				c-0.1,0.1-0.1,0.2-0.1,0.3c0,0.1,0,0.2-0.1,0.3l1.2-0.7c0-0.1,0-0.1,0-0.2c0-0.1-0.1-0.1-0.1-0.2c-0.1,0-0.1-0.1-0.2-0.1
				C102.1,181.6,102,181.7,101.9,181.7L101.9,181.7z"/>
			<path class="st20" d="M89.2,214.8c-0.2,0-0.4,0-0.5-0.1c-0.4-0.3-0.7-0.8-0.6-1.3v-10.2c0-1.1,0.5-2,1.4-2.6l39.4-22.7
				c0.4-0.2,0.8-0.3,1.2-0.1c0.4,0.3,0.7,0.8,0.6,1.3v10.2c0,1.1-0.5,2-1.4,2.6l-39.4,22.7C89.6,214.7,89.4,214.8,89.2,214.8z
				 M129.5,178.5c-0.1,0-0.2,0-0.2,0.1l-39.4,22.7c-0.6,0.4-0.9,1.1-0.9,1.8v10.2c0,0.3,0.1,0.5,0.2,0.6c0.1,0.1,0.2,0,0.3-0.1
				l39.4-22.7c0.6-0.4,0.9-1.1,0.9-1.8V179C129.7,178.8,129.7,178.6,129.5,178.5L129.5,178.5z"/>
			<path class="st23" d="M94.6,206.1c0-0.1,0-0.1,0.1-0.2c0,0,0.1-0.1,0.1-0.1l0.4-0.3c0,0,0.1,0,0.1,0c0,0,0,0.1,0,0.1
				c0,0.2,0,0.5-0.1,0.7c-0.1,0.2-0.2,0.5-0.3,0.7c-0.1,0.3-0.3,0.5-0.5,0.7c-0.2,0.2-0.5,0.4-0.7,0.6c-0.2,0.1-0.4,0.2-0.7,0.2
				c-0.2,0-0.4,0-0.5-0.1c-0.2-0.1-0.3-0.3-0.3-0.5c-0.1-0.2-0.1-0.5-0.1-0.7c0-0.2,0-0.4,0-0.6s0-0.4,0-0.6c0-0.3,0.1-0.6,0.1-0.9
				c0.1-0.3,0.2-0.6,0.3-0.8c0.1-0.3,0.3-0.5,0.5-0.7c0.2-0.2,0.4-0.4,0.7-0.5c0.2-0.1,0.5-0.2,0.7-0.3c0.4-0.1,0.7,0.1,0.8,0.5
				c0.1,0.2,0.1,0.4,0.1,0.5c0,0.1,0,0.1,0,0.2c0,0-0.1,0.1-0.1,0.1l-0.4,0.3c0,0-0.1,0-0.1,0c0,0-0.1-0.1-0.1-0.1
				c0-0.1,0-0.2-0.1-0.2c0-0.1-0.1-0.1-0.2-0.2c-0.1,0-0.2,0-0.3,0c-0.1,0-0.3,0.1-0.4,0.1c-0.1,0.1-0.3,0.2-0.4,0.3
				c-0.1,0.1-0.2,0.2-0.3,0.4c-0.1,0.1-0.1,0.3-0.2,0.4c0,0.2-0.1,0.3-0.1,0.5c0,0.2,0,0.4,0,0.6s0,0.4,0,0.6c0,0.1,0,0.3,0.1,0.4
				c0,0.1,0.1,0.2,0.2,0.3c0.1,0.1,0.2,0.1,0.3,0.1c0.1,0,0.3-0.1,0.4-0.1c0.1-0.1,0.3-0.2,0.4-0.3c0.1-0.1,0.2-0.2,0.3-0.3
				c0.1-0.1,0.1-0.2,0.2-0.3C94.5,206.4,94.6,206.3,94.6,206.1z"/>
			<path class="st23" d="M95.9,204.1c0-0.1,0.1-0.3,0.1-0.4c0.1-0.2,0.1-0.3,0.2-0.5c0.1-0.2,0.2-0.3,0.4-0.5
				c0.1-0.1,0.3-0.3,0.5-0.4c0.2-0.1,0.3-0.2,0.5-0.2c0.1,0,0.3,0,0.4,0.1c0.1,0.1,0.2,0.2,0.2,0.3c0.1,0.2,0.1,0.4,0.1,0.6v2.2
				c0,0.1,0,0.1,0,0.2c0,0-0.1,0.1-0.1,0.1l-0.4,0.2c0,0-0.1,0-0.1,0c0,0,0-0.1,0-0.1v-0.2c-0.1,0.2-0.2,0.4-0.3,0.6
				c-0.2,0.2-0.3,0.3-0.6,0.5c-0.1,0.1-0.3,0.1-0.4,0.2c-0.1,0-0.2,0-0.3-0.1c-0.1-0.1-0.2-0.2-0.2-0.3c-0.1-0.1-0.1-0.3-0.1-0.4
				c0-0.3,0.1-0.6,0.3-0.9c0.2-0.3,0.4-0.6,0.7-0.8l0.9-0.7c0-0.2,0-0.3-0.1-0.3c-0.1,0-0.3,0-0.4,0.1c-0.1,0-0.2,0.1-0.2,0.2
				c-0.1,0.1-0.1,0.1-0.2,0.2c0,0-0.1,0.1-0.1,0.1c0,0-0.1,0.1-0.1,0.1l-0.5,0.3c0,0-0.1,0-0.1,0S95.9,204.1,95.9,204.1z
				 M96.8,205.6c0.1-0.1,0.2-0.2,0.3-0.3c0.1-0.1,0.2-0.2,0.2-0.3c0.1-0.1,0.1-0.2,0.2-0.4c0-0.1,0-0.2,0-0.3v-0.1l-0.7,0.6
				c-0.1,0.1-0.2,0.2-0.3,0.3c-0.1,0.1-0.1,0.2-0.1,0.3c0,0.1,0,0.2,0.1,0.2C96.6,205.7,96.7,205.7,96.8,205.6L96.8,205.6z"/>
			<path class="st23" d="M100,203.2c0,0.1,0,0.2,0.1,0.3c0.1,0.1,0.2,0,0.3-0.1l0.3-0.2c0,0,0.1,0,0.1,0c0,0,0,0.1,0,0.1v0.5
				c0,0.1,0,0.1,0,0.2c0,0-0.1,0.1-0.1,0.1l-0.4,0.2c-0.3,0.2-0.6,0.2-0.8,0.1c-0.2-0.1-0.3-0.4-0.3-0.9v-1.6l-0.4,0.2
				c0,0-0.1,0-0.1,0c0,0,0-0.1,0-0.1v-0.5c0-0.1,0-0.1,0-0.2c0-0.1,0.1-0.1,0.1-0.1l0.4-0.2V200c0-0.1,0-0.1,0-0.2
				c0-0.1,0.1-0.1,0.1-0.1l0.4-0.2c0,0,0.1,0,0.1,0c0,0,0,0.1,0,0.1v1.2l0.7-0.4c0,0,0.1,0,0.1,0c0,0,0,0.1,0,0.1v0.5
				c0,0.1,0,0.1,0,0.2c0,0-0.1,0.1-0.1,0.1l-0.7,0.4L100,203.2z"/>
			<path class="st23" d="M101.3,201.9c0-0.6,0.1-1.1,0.4-1.6c0.1-0.2,0.3-0.5,0.4-0.7c0.2-0.2,0.3-0.4,0.6-0.5
				c0.2-0.1,0.4-0.2,0.6-0.2c0.2,0,0.3,0.1,0.4,0.2c0.1,0.1,0.2,0.3,0.3,0.4c0.1,0.2,0.1,0.4,0.1,0.7v0.3c0,0.1-0.1,0.2-0.1,0.3
				l-1.8,1.1c0,0.1,0,0.2,0.1,0.3c0,0.1,0.1,0.1,0.1,0.1c0.1,0,0.1,0,0.2,0c0.1,0,0.2-0.1,0.2-0.1c0.1-0.1,0.2-0.1,0.3-0.2
				c0.1-0.1,0.1-0.1,0.2-0.2c0,0,0.1-0.1,0.1-0.1c0,0,0.1-0.1,0.1-0.1l0.4-0.3c0,0,0.1,0,0.1,0c0,0,0,0.1,0,0.1c0,0.1,0,0.2-0.1,0.3
				c-0.1,0.2-0.1,0.3-0.2,0.5c-0.1,0.2-0.2,0.3-0.4,0.5c-0.2,0.2-0.3,0.3-0.5,0.4c-0.2,0.1-0.4,0.2-0.6,0.2c-0.2,0-0.3-0.1-0.4-0.2
				c-0.1-0.1-0.2-0.3-0.3-0.5C101.4,202.4,101.3,202.2,101.3,201.9z M102.7,200c-0.1,0.1-0.2,0.1-0.3,0.2c-0.1,0.1-0.1,0.2-0.2,0.3
				c-0.1,0.2-0.1,0.4-0.2,0.5l1.2-0.7c0-0.1,0-0.1,0-0.2c0-0.1-0.1-0.1-0.1-0.2c0,0-0.1-0.1-0.2-0.1
				C102.9,199.9,102.8,200,102.7,200z"/>
			<path class="st23" d="M105.9,201.9c0.1,0,0.2-0.1,0.2-0.2c0.1-0.1,0.2-0.2,0.2-0.3c0.1-0.1,0.1-0.2,0.2-0.4
				c0-0.1,0.1-0.3,0.1-0.4v-0.3c0,0.1-0.1,0.1-0.1,0.2c-0.1,0.1-0.1,0.2-0.2,0.2c-0.1,0.1-0.2,0.2-0.2,0.2c-0.1,0.1-0.2,0.2-0.3,0.2
				c-0.1,0.1-0.3,0.1-0.5,0.1c-0.1,0-0.3-0.1-0.4-0.2c-0.1-0.1-0.2-0.3-0.2-0.4c-0.1-0.2-0.1-0.4-0.1-0.6v-0.5c0-0.2,0-0.5,0.1-0.7
				c0.1-0.2,0.1-0.5,0.2-0.7c0.1-0.2,0.2-0.4,0.4-0.6c0.1-0.2,0.3-0.3,0.5-0.4c0.1-0.1,0.2-0.1,0.3-0.1h0.2c0.1,0,0.1,0,0.2,0
				c0,0,0.1,0,0.1,0.1v-0.2c0-0.1,0-0.1,0-0.2c0,0,0.1-0.1,0.1-0.1l0.4-0.2c0,0,0.1,0,0.1,0c0,0,0,0.1,0,0.1v3.5
				c0,0.5-0.1,1.1-0.4,1.6c-0.2,0.4-0.6,0.8-1,1c-0.2,0.1-0.3,0.2-0.5,0.2c-0.1,0-0.3,0-0.4,0c-0.1,0-0.2-0.1-0.3-0.2
				c-0.1-0.1-0.1-0.2-0.1-0.4c0-0.1,0-0.1,0-0.2c0-0.1,0.1-0.1,0.1-0.1l0.4-0.2c0,0,0.1,0,0.1,0l0.1,0.1c0,0.1,0.1,0.1,0.2,0.1
				C105.6,202.1,105.8,202.1,105.9,201.9z M105.2,199.4c0,0.1,0,0.3,0,0.4c0,0.3,0.1,0.5,0.2,0.6c0.2,0.1,0.3,0,0.5-0.1
				c0.2-0.1,0.3-0.3,0.5-0.5c0.1-0.2,0.2-0.5,0.2-0.7c0-0.1,0-0.2,0-0.3c0-0.1,0-0.2,0-0.3c0-0.2-0.1-0.4-0.2-0.5
				c-0.1-0.1-0.3-0.1-0.5,0c-0.2,0.1-0.4,0.3-0.5,0.5C105.3,198.9,105.3,199.2,105.2,199.4L105.2,199.4z"/>
			<path class="st23" d="M109.3,195.3c0.2-0.1,0.4-0.2,0.6-0.2c0.1,0,0.3,0,0.4,0.1c0.1,0.1,0.2,0.2,0.3,0.3
				c0.1,0.2,0.1,0.4,0.1,0.6v0.7c0,0.2-0.1,0.5-0.1,0.7c-0.1,0.2-0.2,0.5-0.3,0.7c-0.1,0.2-0.3,0.4-0.4,0.6
				c-0.2,0.2-0.3,0.3-0.6,0.4c-0.2,0.1-0.4,0.2-0.5,0.2c-0.1,0-0.3,0-0.4-0.1c-0.1-0.1-0.2-0.2-0.3-0.3c-0.1-0.2-0.1-0.4-0.1-0.6
				c0-0.1,0-0.1,0-0.2v-0.4c0-0.1,0-0.1,0-0.2c0-0.2,0.1-0.5,0.1-0.7c0.1-0.2,0.2-0.5,0.3-0.7c0.1-0.2,0.3-0.4,0.4-0.6
				C108.9,195.6,109.1,195.4,109.3,195.3z M110,196.6c0-0.1,0-0.2-0.1-0.3c0-0.1-0.1-0.1-0.2-0.2c-0.1,0-0.1,0-0.2,0
				c-0.1,0-0.2,0.1-0.2,0.1c-0.1,0-0.2,0.1-0.2,0.2c-0.1,0.1-0.1,0.2-0.2,0.2c-0.1,0.1-0.1,0.2-0.2,0.3c0,0.1-0.1,0.3-0.1,0.4
				c0,0,0,0.1,0,0.2v0.4c0,0.1,0,0.1,0,0.1c0,0.1,0,0.2,0.1,0.3c0,0.1,0.1,0.1,0.2,0.2c0.1,0,0.1,0,0.2,0c0.1,0,0.2-0.1,0.2-0.1
				c0.1,0,0.2-0.1,0.2-0.2c0.1-0.1,0.1-0.2,0.2-0.2c0.1-0.1,0.1-0.2,0.2-0.3c0-0.1,0.1-0.3,0.1-0.4V196.6z"/>
			<path class="st23" d="M112.7,194.3c-0.2,0.1-0.4,0.3-0.5,0.5c-0.1,0.2-0.2,0.5-0.1,0.7v1.9c0,0.1,0,0.1,0,0.2
				c0,0-0.1,0.1-0.1,0.1l-0.4,0.2c0,0-0.1,0-0.1,0c0,0,0-0.1,0-0.1v-3.4c0-0.1,0-0.1,0-0.2c0,0,0.1-0.1,0.1-0.1l0.4-0.2
				c0,0,0.1,0,0.1,0c0,0,0,0.1,0,0.1v0.2c0.1-0.2,0.2-0.3,0.3-0.5c0.1-0.1,0.3-0.2,0.4-0.3l0.2-0.1c0,0,0.1,0,0.1,0c0,0,0,0.1,0,0.1
				v0.5c0,0.1,0,0.1,0,0.2c0,0-0.1,0.1-0.1,0.1L112.7,194.3z"/>
			<path class="st23" d="M114.5,196l-1.1-2.7v0c0-0.1,0-0.1,0-0.2c0,0,0.1-0.1,0.1-0.1l0.4-0.2c0,0,0.1,0,0.1,0c0,0,0.1,0,0.1,0.1
				l0.7,1.8l0.7-2.7c0-0.1,0-0.1,0.1-0.2c0-0.1,0.1-0.1,0.1-0.1l0.4-0.2c0,0,0.1,0,0.1,0c0,0,0,0.1,0,0.1c0,0,0,0,0,0.1l-1.5,5.7
				c0,0.1,0,0.1-0.1,0.2c0,0.1-0.1,0.1-0.1,0.1l-0.4,0.2c0,0-0.1,0-0.1,0c0,0,0-0.1,0-0.1c0,0,0,0,0-0.1L114.5,196z"/>
			<path class="st23" d="M275.5,98.1c0.1,0,0.1,0,0.1,0c0,0,0.1,0.1,0.1,0.1l1.4,3.9l0,0c0,0.1,0,0.1,0,0.2c0,0.1-0.1,0.1-0.1,0.1
				l-0.4,0.2c-0.1,0-0.1,0-0.2,0c0,0,0-0.1-0.1-0.1l-0.2-0.7l-1.8,1l-0.2,0.9c0,0.1,0,0.1-0.1,0.2c0,0.1-0.1,0.1-0.2,0.2l-0.4,0.2
				c0,0-0.1,0-0.1,0c0,0,0-0.1,0-0.1c0,0,0,0,0-0.1l1.4-5.5c0-0.1,0-0.2,0.1-0.2c0-0.1,0.1-0.1,0.1-0.1L275.5,98.1z M275.8,101.2
				l-0.6-1.8l-0.6,2.5L275.8,101.2z"/>
			<path class="st23" d="M278.6,97.6c0.1-0.1,0.2-0.1,0.3-0.1c0.1,0,0.2,0,0.2,0c0.1,0,0.1,0,0.2,0l0.1,0.1V96c0-0.1,0-0.1,0-0.2
				c0,0,0.1-0.1,0.1-0.1l0.4-0.2c0,0,0.1,0,0.1,0c0,0,0,0.1,0,0.1v4.8c0,0.1,0,0.1,0,0.2c0,0.1-0.1,0.1-0.1,0.1l-0.4,0.2
				c0,0-0.1,0-0.1,0c0,0,0-0.1,0-0.1v-0.2c0,0.1-0.1,0.1-0.1,0.2c-0.1,0.1-0.1,0.2-0.2,0.2c-0.1,0.1-0.2,0.2-0.2,0.2
				c-0.1,0.1-0.2,0.2-0.3,0.2c-0.2,0.1-0.3,0.1-0.5,0.1c-0.1,0-0.3-0.1-0.4-0.2c-0.1-0.1-0.2-0.3-0.2-0.4c-0.1-0.2-0.1-0.4-0.1-0.6
				c0-0.1,0-0.2,0-0.3c0-0.1,0-0.2,0-0.3c0-0.2,0-0.5,0.1-0.7c0.1-0.2,0.1-0.5,0.2-0.7c0.1-0.2,0.2-0.4,0.4-0.6
				C278.3,97.8,278.4,97.7,278.6,97.6z M278.1,99.7c0,0.1,0,0.3,0,0.4c0,0.3,0.1,0.5,0.2,0.6c0.1,0.1,0.3,0.1,0.5-0.1
				c0.2-0.1,0.3-0.3,0.5-0.5c0.1-0.2,0.2-0.5,0.2-0.7c0-0.1,0-0.2,0-0.3c0-0.1,0-0.2,0-0.3c0-0.2-0.1-0.4-0.2-0.5
				c-0.1-0.1-0.3-0.1-0.5,0c-0.2,0.1-0.4,0.3-0.5,0.5C278.2,99.1,278.1,99.4,278.1,99.7L278.1,99.7z"/>
			<path class="st23" d="M282,95.6c0.1-0.1,0.2-0.1,0.3-0.1c0.1,0,0.2,0,0.2,0c0.1,0,0.1,0,0.2,0c0,0,0.1,0,0.1,0.1V94
				c0-0.1,0-0.1,0-0.2c0-0.1,0.1-0.1,0.1-0.1l0.4-0.2c0,0,0.1,0,0.1,0c0,0,0,0.1,0,0.1v4.8c0,0.1,0,0.1,0,0.2c0,0-0.1,0.1-0.1,0.1
				l-0.4,0.2c0,0-0.1,0-0.1,0c0,0,0-0.1,0-0.1v-0.2c0,0.1-0.1,0.1-0.1,0.2s-0.1,0.2-0.2,0.2c-0.1,0.1-0.2,0.2-0.2,0.3
				c-0.1,0.1-0.2,0.2-0.3,0.2c-0.1,0.1-0.3,0.1-0.5,0.1c-0.1,0-0.3-0.1-0.4-0.2c-0.1-0.1-0.2-0.3-0.2-0.4c-0.1-0.2-0.1-0.4-0.1-0.6
				c0-0.1,0-0.2,0-0.3c0-0.1,0-0.2,0-0.3c0-0.2,0-0.5,0.1-0.7c0.1-0.2,0.1-0.5,0.2-0.7c0.1-0.2,0.2-0.4,0.4-0.6
				C281.7,95.8,281.8,95.7,282,95.6z M281.5,97.7c0,0.1,0,0.3,0,0.4c0,0.3,0.1,0.5,0.2,0.6c0.1,0.1,0.3,0.1,0.5-0.1
				c0.2-0.1,0.4-0.3,0.5-0.5c0.1-0.2,0.2-0.5,0.2-0.7c0-0.1,0-0.2,0-0.3s0-0.2,0-0.3c0-0.2-0.1-0.4-0.2-0.5c-0.1-0.1-0.3-0.1-0.5,0
				c-0.2,0.1-0.3,0.3-0.5,0.5C281.6,97.1,281.5,97.4,281.5,97.7z"/>
			<path class="st20" d="M89.2,233.5c-0.2,0-0.4,0-0.5-0.1c-0.4-0.3-0.7-0.8-0.6-1.3v-10.2c0-1.1,0.5-2,1.4-2.6l39.4-22.7
				c0.4-0.2,0.8-0.3,1.2-0.1c0.4,0.3,0.7,0.8,0.6,1.3V208c0,1.1-0.5,2-1.4,2.6l-39.4,22.7C89.6,233.4,89.4,233.5,89.2,233.5z
				 M129.5,197.2c-0.1,0-0.2,0-0.2,0.1L89.8,220c-0.6,0.4-0.9,1.1-0.9,1.8V232c0,0.3,0.1,0.5,0.2,0.6s0.2,0,0.3-0.1l39.3-22.7
				c0.6-0.4,0.9-1.1,0.9-1.8v-10.2C129.7,197.6,129.6,197.4,129.5,197.2L129.5,197.2z"/>
			<path class="st21" d="M137.8,168c-0.2,0-0.4,0-0.5-0.1c-0.4-0.3-0.7-0.8-0.6-1.3v-10.2c0-1.1,0.5-2,1.4-2.6l158.1-91.3
				c0.4-0.2,0.8-0.3,1.2-0.1c0.4,0.3,0.7,0.8,0.6,1.3v10.2c0,1.1-0.5,2-1.4,2.6l-158.1,91.3C138.3,167.9,138.1,168,137.8,168z
				 M296.9,63.1c-0.1,0-0.2,0-0.2,0.1l-158.1,91.3c-0.6,0.4-0.9,1.1-0.9,1.8v10.2c0,0.3,0.1,0.5,0.2,0.6c0.1,0,0.2,0,0.3-0.1
				l158.1-91.3c0.6-0.4,0.9-1.1,0.9-1.8V63.6C297.1,63.3,297,63.1,296.9,63.1C296.9,63.1,296.9,63.1,296.9,63.1L296.9,63.1z"/>
			<path class="st20" d="M137.8,186.7c-0.2,0-0.4,0-0.5-0.1c-0.4-0.3-0.7-0.8-0.6-1.3V175c0-1.1,0.5-2,1.4-2.6l83.3-48.1
				c0.4-0.2,0.8-0.3,1.2-0.1c0.4,0.3,0.7,0.8,0.6,1.3v10.2c0,1.1-0.5,2-1.4,2.6l-83.3,48.1C138.3,186.6,138.1,186.7,137.8,186.7z
				 M222.1,125c-0.1,0-0.2,0-0.2,0.1l-83.3,48.1c-0.6,0.4-0.9,1.1-0.9,1.8v10.2c0,0.3,0.1,0.5,0.2,0.6s0.2,0,0.3-0.1l83.3-48.1
				c0.6-0.4,0.9-1.1,0.9-1.8v-10.2C222.3,125.3,222.2,125.1,222.1,125L222.1,125z"/>
			<path class="st20" d="M229.2,133.9c-0.2,0-0.4,0-0.5-0.1c-0.4-0.3-0.7-0.8-0.6-1.3v-10.2c0-1.1,0.5-2,1.4-2.6l33.9-19.6
				c0.4-0.2,0.8-0.3,1.2-0.1c0.4,0.3,0.7,0.8,0.6,1.3v10.2c0,1.1-0.5,2-1.4,2.6l-33.9,19.6C229.7,133.8,229.5,133.9,229.2,133.9z
				 M264.1,100.8c-0.1,0-0.2,0-0.2,0.1l-33.9,19.6c-0.6,0.4-0.9,1.1-0.9,1.8v10.2c0,0.3,0.1,0.5,0.2,0.6c0.1,0,0.3,0,0.3-0.1
				l33.9-19.6c0.6-0.4,0.9-1.1,0.9-1.8v-10.2C264.3,101,264.2,100.8,264.1,100.8C264.1,100.8,264.1,100.7,264.1,100.8z"/>
			<path class="st21" d="M271.2,109.7c-0.2,0-0.4,0-0.5-0.1c-0.4-0.3-0.7-0.8-0.6-1.3V98c0-1.1,0.5-2,1.4-2.6l13.8-8
				c0.4-0.2,0.8-0.3,1.2-0.1c0.4,0.3,0.7,0.8,0.6,1.3v10.2c0,1.1-0.5,2-1.4,2.6l-13.8,8C271.7,109.6,271.5,109.7,271.2,109.7z
				 M285.9,88.1c-0.1,0-0.2,0-0.2,0.1l-13.8,8c-0.6,0.4-0.9,1.1-0.9,1.8v10.2c0,0.3,0.1,0.5,0.2,0.6s0.2,0,0.3-0.1l13.8-7.9
				c0.6-0.4,0.9-1.1,0.9-1.8V88.7C286.2,88.4,286.1,88.2,285.9,88.1L285.9,88.1z"/>
			<path class="st23" d="M92.1,224.7c0-0.3,0-0.6,0.1-0.9c0.1-0.3,0.2-0.6,0.3-0.8c0.1-0.3,0.3-0.5,0.5-0.7c0.2-0.2,0.5-0.4,0.7-0.6
				c0.2-0.2,0.5-0.3,0.8-0.3c0.2,0,0.3,0,0.5,0.1c0.1,0.1,0.2,0.2,0.3,0.3c0,0.1,0.1,0.2,0.1,0.4c0,0.1,0,0.1,0,0.2
				c0,0-0.1,0.1-0.1,0.1l-0.4,0.3c0,0-0.1,0-0.1,0l0-0.1c0,0,0-0.1-0.1-0.1c0-0.1-0.1-0.1-0.1-0.1c-0.1,0-0.2,0-0.3,0
				c-0.1,0-0.3,0.1-0.4,0.2c-0.3,0.2-0.5,0.4-0.7,0.7c-0.2,0.3-0.2,0.6-0.3,0.9c0,0.2,0,0.4,0,0.6s0,0.4,0,0.6
				c0,0.4,0.1,0.6,0.3,0.7c0.2,0.1,0.5,0,0.7-0.1c0.1-0.1,0.3-0.2,0.4-0.3c0.1-0.1,0.2-0.2,0.3-0.4c0.1-0.1,0.1-0.3,0.2-0.5
				c0-0.2,0.1-0.4,0.1-0.6v0l-0.7,0.4c0,0-0.1,0-0.1,0c0,0,0-0.1,0-0.1v-0.5c0-0.1,0-0.1,0-0.2c0-0.1,0.1-0.1,0.1-0.1l1.3-0.7
				c0,0,0.1,0,0.1,0c0,0,0,0.1,0,0.1v0.8c0,0.3,0,0.6-0.1,0.9c-0.1,0.3-0.2,0.6-0.3,0.8c-0.1,0.3-0.3,0.5-0.5,0.7
				c-0.2,0.2-0.5,0.4-0.7,0.6c-0.2,0.1-0.5,0.2-0.7,0.3c-0.2,0-0.4,0-0.5-0.1c-0.1-0.1-0.3-0.3-0.3-0.5c-0.1-0.2-0.1-0.5-0.1-0.7
				c0-0.1,0-0.2,0-0.3V225C92.1,224.9,92.1,224.8,92.1,224.7z"/>
			<path class="st23" d="M95.9,223.8c0-0.6,0.1-1.1,0.4-1.6c0.1-0.2,0.3-0.5,0.4-0.7c0.2-0.2,0.4-0.4,0.6-0.5
				c0.2-0.1,0.4-0.2,0.6-0.2c0.2,0,0.3,0.1,0.4,0.2c0.1,0.1,0.2,0.3,0.3,0.4c0.1,0.2,0.1,0.4,0.1,0.7v0.3c0,0.1,0,0.1,0,0.2
				c0,0-0.1,0.1-0.1,0.1l-1.8,1.1c0,0.1,0,0.2,0.1,0.3c0,0.1,0.1,0.1,0.1,0.1c0.1,0,0.1,0,0.2,0c0.1,0,0.2-0.1,0.2-0.1
				c0.1-0.1,0.2-0.1,0.3-0.2c0.1-0.1,0.1-0.1,0.2-0.2l0.1-0.1l0.1-0.1l0.4-0.3c0,0,0.1,0,0.1,0c0,0,0,0.1,0,0.1c0,0.1,0,0.2-0.1,0.3
				c-0.1,0.2-0.1,0.3-0.2,0.5c-0.1,0.2-0.2,0.3-0.4,0.5c-0.2,0.2-0.3,0.3-0.5,0.4c-0.2,0.1-0.4,0.2-0.6,0.2c-0.2,0-0.3-0.1-0.4-0.2
				c-0.1-0.1-0.2-0.3-0.3-0.5C96,224.3,95.9,224,95.9,223.8z M97.3,221.9c-0.1,0.1-0.2,0.1-0.3,0.2c-0.1,0.1-0.1,0.2-0.2,0.3
				c-0.1,0.1-0.1,0.2-0.1,0.3c0,0.1,0,0.2-0.1,0.3l1.2-0.7c0-0.1,0-0.1,0-0.2c0-0.1-0.1-0.1-0.1-0.2c-0.1,0-0.1-0.1-0.2-0.1
				C97.5,221.8,97.4,221.8,97.3,221.9L97.3,221.9z"/>
			<path class="st23" d="M101.9,222c0,0.1,0,0.1,0,0.2c0,0.1-0.1,0.1-0.1,0.1l-0.4,0.2c0,0-0.1,0-0.1,0c0,0,0-0.1,0-0.1v-1.9
				c0-0.2,0-0.4-0.2-0.6c-0.1-0.1-0.3-0.1-0.5,0c-0.2,0.1-0.4,0.3-0.5,0.5c-0.1,0.3-0.2,0.5-0.2,0.8v1.9c0,0.1,0,0.1,0,0.2
				c0,0.1-0.1,0.1-0.1,0.1l-0.4,0.2c0,0-0.1,0-0.1,0c0,0,0-0.1,0-0.1v-3.4c0-0.1,0-0.1,0-0.2c0,0,0-0.1,0-0.1l0.4-0.2
				c0,0,0.1,0,0.1,0c0,0,0,0.1,0,0.1v0.2c0.1-0.2,0.2-0.4,0.3-0.5c0.1-0.2,0.3-0.3,0.5-0.4c0.2-0.1,0.4-0.2,0.6-0.2
				c0.1,0,0.3,0.1,0.4,0.2c0.1,0.1,0.2,0.3,0.2,0.4c0,0.2,0.1,0.4,0.1,0.6V222z"/>
			<path class="st23" d="M104,218.1c-0.2,0.1-0.4,0.3-0.5,0.5c-0.1,0.2-0.2,0.5-0.1,0.7v1.9c0,0.1,0,0.1,0,0.2c0,0-0.1,0.1-0.1,0.1
				l-0.4,0.2c0,0-0.1,0-0.1,0c0,0,0-0.1,0-0.1v-3.4c0-0.1,0-0.1,0-0.2c0-0.1,0.1-0.1,0.1-0.1l0.4-0.2c0,0,0.1,0,0.1,0
				c0,0,0,0.1,0,0.1v0.2c0.1-0.2,0.2-0.3,0.3-0.4c0.1-0.1,0.3-0.3,0.4-0.3l0.2-0.1c0,0,0.1,0,0.1,0c0,0,0,0.1,0,0.1v0.5
				c0,0.1,0,0.1,0,0.2c0,0.1-0.1,0.1-0.1,0.1L104,218.1z"/>
			<path class="st23" d="M104.8,218.7c0-0.3,0-0.6,0.1-0.8c0.1-0.3,0.1-0.5,0.3-0.8c0.1-0.2,0.3-0.5,0.4-0.7
				c0.2-0.2,0.4-0.4,0.6-0.5c0.2-0.1,0.4-0.2,0.6-0.2c0.2,0,0.3,0.1,0.4,0.2c0.1,0.1,0.2,0.3,0.3,0.4c0.1,0.2,0.1,0.4,0.1,0.7v0.3
				c0,0.1,0,0.1,0,0.2c0,0.1-0.1,0.1-0.1,0.1l-1.8,1.1c0,0.1,0,0.2,0.1,0.3c0,0.1,0.1,0.1,0.1,0.1c0.1,0,0.1,0,0.2,0
				c0.1,0,0.2,0,0.2-0.1c0.1-0.1,0.2-0.1,0.3-0.2c0.1-0.1,0.1-0.1,0.2-0.2c0,0,0.1-0.1,0.1-0.1c0,0,0.1-0.1,0.1-0.1l0.4-0.3
				c0,0,0.1,0,0.1,0c0,0,0,0.1,0,0.1c0,0.1,0,0.2-0.1,0.3c-0.1,0.2-0.1,0.3-0.2,0.5c-0.1,0.2-0.3,0.3-0.4,0.5
				c-0.2,0.2-0.3,0.3-0.5,0.4c-0.2,0.1-0.4,0.2-0.6,0.2c-0.2,0-0.3-0.1-0.4-0.2c-0.1-0.1-0.2-0.3-0.3-0.5
				C104.8,219.2,104.8,218.9,104.8,218.7z M106.1,216.8c-0.1,0.1-0.2,0.1-0.3,0.2c-0.1,0.1-0.1,0.2-0.2,0.3
				c-0.1,0.1-0.1,0.2-0.1,0.3c0,0.1,0,0.2-0.1,0.3l1.2-0.7c0-0.1,0-0.1,0-0.2c0-0.1,0-0.1-0.1-0.2c-0.1,0-0.1-0.1-0.2-0.1
				C106.4,216.7,106.2,216.7,106.1,216.8z"/>
			<path class="st21" d="M220.2,136.3l-4.9,2.8c-0.4,0.2-0.6,0-0.6-0.5v-6.5c0-0.5,0.2-0.9,0.6-1.2l4.9-2.8c0.4-0.2,0.6,0,0.6,0.5
				v6.5C220.9,135.6,220.6,136,220.2,136.3z"/>
			<path class="st20" d="M137.8,224.2c-0.2,0-0.4,0-0.5-0.1c-0.4-0.3-0.7-0.8-0.6-1.3v-10.1c0-1.1,0.5-2,1.4-2.6l158.7-91.6
				c0.4-0.2,0.8-0.3,1.2-0.1c0.4,0.3,0.7,0.8,0.6,1.3v10.2c0,1.1-0.5,2-1.4,2.6l0,0L138.5,224C138.3,224.1,138.1,224.2,137.8,224.2z
				 M297.5,118.9c-0.1,0-0.2,0-0.2,0.1l-158.7,91.6c-0.6,0.4-0.9,1.1-0.9,1.8v10.2c0,0.3,0.1,0.5,0.2,0.6c0.1,0.1,0.2,0,0.3-0.1
				l158.7-91.6l0,0c0.6-0.4,0.9-1.1,0.9-1.8v-10.2C297.7,119.2,297.6,119,297.5,118.9L297.5,118.9z"/>
			<path class="st18" d="M217.8,135.6c-0.1,0-0.2,0-0.3-0.1l-1.5-1.2c-0.2-0.2-0.3-0.5-0.2-0.7c0.2-0.2,0.5-0.3,0.7-0.2
				c0,0,0,0,0.1,0.1l1,0.8l1.2-2.4c0.1-0.3,0.4-0.4,0.7-0.2c0,0,0,0,0,0c0.3,0.1,0.4,0.5,0.2,0.7l-1.5,2.9c-0.1,0.1-0.2,0.2-0.4,0.3
				L217.8,135.6z"/>
			<path class="st20" d="M137.8,205.4c-0.2,0-0.4,0-0.5-0.1c-0.4-0.3-0.7-0.8-0.6-1.3v-10.2c0-1.1,0.5-2,1.4-2.6l61.8-35.7
				c0.4-0.2,0.8-0.3,1.2-0.1c0.4,0.3,0.7,0.8,0.6,1.3v10.2c0,1.1-0.5,2-1.4,2.6l-61.8,35.7C138.3,205.4,138.1,205.4,137.8,205.4z
				 M200.5,156.2c-0.1,0-0.2,0-0.2,0.1l-61.8,35.7c-0.6,0.4-0.9,1.1-0.9,1.8v10.2c0,0.3,0.1,0.5,0.2,0.6c0.1,0.1,0.2,0,0.3-0.1
				l61.7-35.7c0.6-0.4,0.9-1.1,0.9-1.8v-10.2C200.7,156.4,200.7,156.2,200.5,156.2L200.5,156.2z"/>
			<path class="st20" d="M89.2,252.3c-0.2,0-0.4-0.1-0.5-0.1c-0.4-0.3-0.7-0.8-0.6-1.3v-10.2c0-1.1,0.5-2,1.4-2.6l39.4-22.7
				c0.4-0.2,0.8-0.3,1.2-0.1c0.4,0.3,0.7,0.8,0.6,1.3v10.2c0,1.1-0.5,2-1.4,2.6l-39.4,22.7C89.6,252.2,89.4,252.3,89.2,252.3z
				 M129.5,215.9c-0.1,0-0.2,0-0.2,0.1l-39.4,22.7c-0.6,0.4-0.9,1.1-0.9,1.8v10.2c0,0.3,0.1,0.5,0.2,0.6s0.2,0,0.3-0.1l39.4-22.7
				c0.6-0.4,0.9-1.1,0.9-1.8v-10.2C129.7,216.3,129.7,216.1,129.5,215.9L129.5,215.9z"/>
			<path class="st23" d="M94.8,239.9c0,0,0.1,0,0.1,0c0,0,0,0.1,0,0.1v0.5c0,0.1,0,0.1,0,0.2c0,0-0.1,0.1-0.1,0.1l-1,0.6v4
				c0,0.1,0,0.1,0,0.2c0,0.1-0.1,0.1-0.1,0.1l-0.4,0.3c0,0-0.1,0-0.1,0c0,0,0-0.1,0-0.1v-4l-1,0.6c0,0-0.1,0-0.1,0c0,0,0-0.1,0-0.1
				v-0.5c0-0.1,0-0.1,0-0.2c0,0,0.1-0.1,0.1-0.1L94.8,239.9z"/>
			<path class="st23" d="M98,243c0,0.1,0,0.1,0,0.2c0,0.1-0.1,0.1-0.1,0.1l-0.4,0.2c0,0-0.1,0-0.1,0c0,0,0-0.1,0-0.1v-1.9
				c0-0.2,0-0.4-0.2-0.6c-0.1-0.1-0.3-0.1-0.5,0c-0.2,0.1-0.4,0.3-0.5,0.5c-0.1,0.3-0.2,0.5-0.2,0.8v1.9c0,0.1,0,0.1,0,0.2
				c0,0-0.1,0.1-0.1,0.1l-0.4,0.2c0,0-0.1,0-0.1,0c0,0,0-0.1,0-0.1v-4.8c0-0.1,0-0.1,0-0.2c0-0.1,0.1-0.1,0.1-0.1l0.4-0.2
				c0,0,0.1,0,0.1,0c0,0,0,0.1,0,0.1v1.6c0.1-0.2,0.2-0.4,0.3-0.5c0.1-0.2,0.3-0.3,0.5-0.4c0.2-0.1,0.4-0.2,0.6-0.2
				c0.1,0,0.3,0.1,0.4,0.2c0.1,0.1,0.2,0.3,0.2,0.4c0,0.2,0.1,0.4,0.1,0.6L98,243z"/>
			<path class="st23" d="M100.1,239.1c-0.2,0.1-0.4,0.3-0.5,0.5c-0.1,0.2-0.2,0.5-0.1,0.7v1.9c0,0.1,0,0.1,0,0.2
				c0,0.1-0.1,0.1-0.1,0.1l-0.4,0.2c0,0-0.1,0-0.1,0c0,0,0-0.1,0-0.1v-3.4c0-0.1,0-0.1,0-0.2c0,0,0.1-0.1,0.1-0.1l0.4-0.2
				c0,0,0.1,0,0.1,0c0,0,0,0.1,0,0.1v0.2c0.1-0.2,0.2-0.3,0.3-0.4c0.1-0.1,0.3-0.3,0.4-0.3l0.3-0.1c0,0,0.1,0,0.1,0c0,0,0,0.1,0,0.1
				v0.5c0,0.1,0,0.1,0,0.2c0,0.1-0.1,0.1-0.1,0.1L100.1,239.1z"/>
			<path class="st23" d="M100.9,239.6c0-0.6,0.1-1.1,0.4-1.6c0.1-0.2,0.3-0.5,0.4-0.7c0.2-0.2,0.3-0.4,0.6-0.5
				c0.2-0.1,0.4-0.2,0.6-0.2c0.2,0,0.3,0.1,0.4,0.2c0.1,0.1,0.2,0.3,0.3,0.4c0.1,0.2,0.1,0.4,0.1,0.7v0.3c0,0.1,0,0.1,0,0.2
				c0,0-0.1,0.1-0.1,0.1l-1.8,1.1c0,0.1,0,0.2,0,0.3c0,0.1,0.1,0.1,0.1,0.1c0.1,0,0.1,0,0.2,0c0.1,0,0.2,0,0.2-0.1
				c0.1-0.1,0.2-0.1,0.3-0.2c0.1-0.1,0.1-0.1,0.2-0.2c0,0,0.1-0.1,0.1-0.1c0,0,0.1-0.1,0.1-0.1l0.4-0.3c0,0,0.1,0,0.1,0
				c0,0,0,0.1,0,0.1c0,0.1,0,0.2-0.1,0.3c-0.1,0.2-0.1,0.3-0.2,0.5c-0.1,0.2-0.2,0.3-0.4,0.5c-0.2,0.2-0.3,0.3-0.5,0.4
				c-0.2,0.1-0.4,0.2-0.6,0.2c-0.2,0-0.3,0-0.4-0.2c-0.1-0.1-0.2-0.3-0.3-0.5C100.9,240.1,100.9,239.9,100.9,239.6z M102.2,237.8
				c-0.1,0.1-0.2,0.1-0.3,0.2c-0.1,0.1-0.1,0.2-0.2,0.3c0,0.1-0.1,0.2-0.1,0.3c0,0.1,0,0.2,0,0.3l1.2-0.7c0-0.1,0-0.1,0-0.2
				c0-0.1,0-0.1-0.1-0.2c0,0-0.1-0.1-0.2-0.1C102.5,237.6,102.3,237.7,102.2,237.8z"/>
			<path class="st23" d="M104.2,236.8c0-0.1,0.1-0.3,0.1-0.4c0.1-0.2,0.1-0.3,0.2-0.5c0.1-0.2,0.2-0.3,0.4-0.5
				c0.1-0.1,0.3-0.3,0.5-0.4c0.2-0.1,0.3-0.2,0.5-0.2c0.1,0,0.3,0,0.4,0.1c0.1,0.1,0.2,0.2,0.2,0.3c0.1,0.2,0.1,0.4,0.1,0.6v2.2
				c0,0.1,0,0.1,0,0.2c0,0-0.1,0.1-0.1,0.1l-0.4,0.2c0,0-0.1,0-0.1,0c0,0,0-0.1,0-0.1v-0.2c-0.1,0.2-0.2,0.4-0.3,0.6
				c-0.2,0.2-0.3,0.4-0.6,0.5c-0.1,0.1-0.3,0.1-0.4,0.2c-0.1,0-0.2,0-0.3-0.1c-0.1-0.1-0.2-0.1-0.2-0.2c-0.1-0.1-0.1-0.3-0.1-0.4
				c0-0.3,0.1-0.6,0.3-0.9c0.2-0.3,0.4-0.6,0.7-0.8l0.9-0.7c0-0.2,0-0.3-0.1-0.3c-0.1,0-0.3,0-0.4,0.1c-0.1,0-0.2,0.1-0.2,0.2
				c-0.1,0.1-0.1,0.1-0.2,0.2l-0.1,0.1c0,0-0.1,0.1-0.1,0.1l-0.5,0.3c0,0-0.1,0-0.1,0C104.2,236.9,104.2,236.8,104.2,236.8
				C104.2,236.8,104.2,236.8,104.2,236.8z M105.1,238.3c0.1-0.1,0.2-0.2,0.3-0.3c0.1-0.1,0.2-0.2,0.2-0.3c0.1-0.1,0.1-0.2,0.2-0.4
				c0-0.1,0-0.2,0-0.3V237l-0.7,0.6c-0.1,0.1-0.2,0.2-0.3,0.3c-0.1,0.1-0.1,0.2-0.1,0.3c0,0.1,0,0.2,0.1,0.2
				C104.9,238.4,105,238.4,105.1,238.3L105.1,238.3z"/>
			<path class="st23" d="M108.5,233.3c0.1-0.1,0.2-0.1,0.3-0.1h0.2l0.2,0l0.1,0.1v-1.6c0-0.1,0-0.1,0-0.2c0,0,0.1-0.1,0.1-0.1
				l0.4-0.2c0,0,0.1,0,0.1,0c0,0,0,0.1,0,0.1v4.8c0,0.1,0,0.1,0,0.2c0,0.1-0.1,0.1-0.1,0.1l-0.4,0.2c0,0-0.1,0-0.1,0
				c0,0,0-0.1,0-0.1v-0.2c0,0.1-0.1,0.1-0.1,0.2l-0.2,0.2l-0.2,0.2c-0.1,0.1-0.2,0.2-0.3,0.2c-0.1,0.1-0.3,0.1-0.5,0.1
				c-0.1,0-0.3-0.1-0.4-0.2c-0.1-0.1-0.2-0.2-0.2-0.4c-0.1-0.2-0.1-0.4-0.1-0.6c0-0.1,0-0.2,0-0.3c0-0.1,0-0.2,0-0.3
				c0-0.2,0-0.5,0.1-0.7c0.1-0.2,0.1-0.5,0.2-0.7c0.1-0.2,0.2-0.4,0.4-0.6C108.1,233.5,108.3,233.4,108.5,233.3z M107.9,235.3
				c0,0.1,0,0.3,0,0.4c0,0.3,0.1,0.5,0.2,0.6c0.2,0.1,0.3,0,0.5-0.1c0.2-0.1,0.3-0.3,0.5-0.5c0.1-0.2,0.2-0.5,0.2-0.7
				c0-0.1,0-0.2,0-0.3c0-0.1,0-0.2,0-0.3c0-0.2-0.1-0.4-0.2-0.5c-0.1-0.1-0.3-0.1-0.5,0c-0.2,0.1-0.4,0.3-0.5,0.5
				C108,234.7,107.9,235,107.9,235.3z"/>
			<path class="st23" d="M112.3,233.8c0-0.1,0-0.1,0-0.1c0,0-0.1,0-0.1,0c-0.1,0-0.2,0-0.3,0.1l-0.4,0.1c-0.1,0-0.3,0.1-0.4,0
				c-0.1,0-0.2,0-0.3-0.1c-0.1-0.1-0.1-0.2-0.1-0.3c0-0.1,0-0.3,0-0.4c0-0.2,0-0.3,0.1-0.5c0.1-0.2,0.1-0.4,0.2-0.5
				c0.1-0.2,0.2-0.3,0.4-0.5c0.1-0.1,0.3-0.3,0.5-0.4c0.2-0.1,0.3-0.2,0.5-0.2c0.1,0,0.2,0,0.4,0c0.1,0,0.2,0.1,0.2,0.2
				c0.1,0.1,0.1,0.2,0.1,0.3c0,0.1,0,0.1,0,0.2c0,0-0.1,0.1-0.1,0.1l-0.4,0.2c0,0-0.1,0-0.1,0h-0.1c0,0-0.1,0-0.1,0
				c-0.1,0-0.2,0-0.2,0.1c-0.1,0.1-0.2,0.1-0.3,0.2c-0.1,0.1-0.1,0.2-0.1,0.3c0,0,0,0.1,0,0.1c0,0,0.1,0,0.1,0l0.2,0l0.4-0.1
				c0.3-0.1,0.6-0.1,0.7,0c0.2,0.2,0.2,0.4,0.2,0.6c0,0.2,0,0.3-0.1,0.5c-0.1,0.2-0.1,0.4-0.2,0.5c-0.1,0.2-0.2,0.3-0.4,0.5
				c-0.1,0.2-0.3,0.3-0.5,0.4c-0.2,0.1-0.3,0.2-0.5,0.2c-0.1,0-0.3,0-0.4,0c-0.1,0-0.2-0.1-0.2-0.2c-0.1-0.1-0.1-0.2-0.1-0.3
				c0-0.1,0-0.1,0-0.2c0,0,0.1-0.1,0.1-0.1l0.4-0.2c0.1,0,0.1,0,0.1,0l0.1,0.1c0,0,0.1,0,0.1,0c0.1,0,0.2-0.1,0.3-0.1
				c0.1,0,0.1-0.1,0.2-0.1c0.1,0,0.1-0.1,0.2-0.1c0-0.1,0.1-0.1,0.1-0.2C112.3,233.9,112.3,233.9,112.3,233.8z"/>
			<path class="st21" d="M198.7,167.5l-4.9,2.8c-0.4,0.2-0.6,0-0.6-0.5v-6.5c0-0.5,0.2-0.9,0.6-1.2l4.9-2.8c0.4-0.2,0.6,0,0.6,0.5
				v6.5C199.3,166.8,199.1,167.2,198.7,167.5z"/>
			<path class="st18" d="M196.2,166.7c-0.1,0-0.2,0-0.3-0.1l-1.5-1.2c-0.2-0.2-0.3-0.5-0.1-0.7c0.2-0.2,0.5-0.3,0.7-0.1l1,0.8
				l1.2-2.4c0.1-0.3,0.4-0.4,0.7-0.2c0,0,0,0,0,0c0.3,0.1,0.4,0.5,0.2,0.7l-1.5,2.9c-0.1,0.1-0.2,0.2-0.3,0.3L196.2,166.7z"/>
			
				<ellipse transform="matrix(0.3903 -0.9207 0.9207 0.3903 -109.488 262.0369)" class="st20" cx="143.1" cy="213.7" rx="2.4" ry="1.3"/>
			<path class="st20" d="M150.1,210.1c0,1.2-0.6,2.3-1.6,3c-0.8,0.5-1.6,0-1.6-1.2c0-1.2,0.6-2.3,1.6-3
				C149.4,208.4,150.1,208.9,150.1,210.1z"/>
			<path class="st20" d="M155.4,207.1c0,1.2-0.6,2.3-1.6,3c-0.9,0.5-1.6,0-1.6-1.2c0-1.2,0.6-2.3,1.6-3
				C154.7,205.4,155.4,205.9,155.4,207.1z"/>
			<path class="st20" d="M89.7,314.5c-0.2,0-0.4,0-0.5-0.1c-0.4-0.3-0.7-0.8-0.6-1.3v-51c0-1.1,0.5-2,1.4-2.6l206.2-119.1
				c0.4-0.2,0.8-0.3,1.2-0.1c0.4,0.3,0.7,0.8,0.6,1.3v51c0,1.1-0.5,2-1.4,2.6L90.4,314.3C90.2,314.4,90,314.5,89.7,314.5z
				 M296.9,141c-0.1,0-0.2,0-0.2,0.1L90.4,260.2c-0.6,0.4-0.9,1.1-0.9,1.8v51c0,0.3,0.1,0.5,0.2,0.5s0.3,0,0.3-0.1l206.2-119
				c0.6-0.4,0.9-1.1,0.9-1.8v-51C297.1,141.3,297,141.1,296.9,141C296.9,141.1,296.9,141.1,296.9,141z"/>
			<path class="st20" d="M97.2,267.8l-4.9,2.8c-0.4,0.2-0.6,0-0.6-0.5v-6.5c0-0.5,0.2-1,0.6-1.2l4.9-2.8c0.4-0.2,0.6,0,0.6,0.5v6.5
				C97.9,267,97.6,267.5,97.2,267.8z"/>
			<path class="st20" d="M105.8,262.8l-4.9,2.8c-0.4,0.2-0.6,0-0.6-0.5v-6.5c0-0.5,0.2-0.9,0.6-1.2l4.9-2.8c0.4-0.2,0.6,0,0.6,0.5
				v6.5C106.4,262.1,106.1,262.5,105.8,262.8z"/>
			<path class="st20" d="M114.4,257.9l-4.9,2.8c-0.4,0.2-0.6,0-0.6-0.5v-6.5c0-0.5,0.2-0.9,0.6-1.2l4.9-2.8c0.4-0.2,0.6,0,0.6,0.5
				v6.5C115,257.1,114.8,257.6,114.4,257.9z"/>
			<path class="st20" d="M122.9,252.9l-4.9,2.8c-0.4,0.2-0.6,0-0.6-0.5v-6.5c0-0.5,0.2-0.9,0.6-1.2l4.9-2.8c0.4-0.2,0.6,0,0.6,0.5
				v6.5C123.5,252.2,123.3,252.7,122.9,252.9z"/>
			<path class="st20" d="M131.5,248l-4.9,2.8c-0.4,0.2-0.6,0-0.6-0.5v-6.5c0-0.5,0.2-0.9,0.6-1.2l4.9-2.8c0.4-0.2,0.6,0,0.6,0.5v6.5
				C132.1,247.3,131.9,247.7,131.5,248z"/>
			<path class="st20" d="M140.1,243l-4.9,2.8c-0.4,0.2-0.6,0-0.6-0.5v-6.5c0-0.5,0.2-0.9,0.6-1.2l4.9-2.8c0.4-0.2,0.6,0,0.6,0.5v6.5
				C140.7,242.3,140.5,242.8,140.1,243z"/>
			<path class="st20" d="M148.6,238.1l-4.9,2.8c-0.4,0.2-0.6,0-0.6-0.5v-6.5c0-0.5,0.2-0.9,0.6-1.2l4.9-2.8c0.4-0.2,0.6,0,0.6,0.5
				v6.5C149.2,237.3,149,237.8,148.6,238.1z"/>
			<path class="st20" d="M157.2,233.1l-4.9,2.8c-0.4,0.2-0.6,0-0.6-0.5v-6.5c0-0.5,0.2-0.9,0.6-1.2l4.9-2.8c0.4-0.2,0.6,0,0.6,0.5
				v6.5C157.8,232.4,157.6,232.9,157.2,233.1z"/>
			<path class="st20" d="M165.8,228.2l-4.9,2.8c-0.4,0.2-0.6,0-0.6-0.5V224c0-0.5,0.2-0.9,0.6-1.2l4.9-2.8c0.4-0.2,0.6,0,0.6,0.5
				v6.5C166.4,227.5,166.2,227.9,165.8,228.2z"/>
			<path class="st20" d="M174.3,223.3l-4.9,2.8c-0.4,0.2-0.6,0-0.6-0.5v-6.5c0-0.5,0.2-1,0.6-1.2l4.9-2.8c0.4-0.2,0.6,0,0.6,0.5v6.5
				C175,222.5,174.7,223,174.3,223.3z"/>
			<path class="st20" d="M182.9,218.3l-4.9,2.8c-0.4,0.2-0.6,0-0.6-0.5v-6.5c0-0.5,0.2-0.9,0.6-1.2l4.9-2.8c0.4-0.2,0.6,0,0.6,0.5
				v6.5C183.5,217.6,183.3,218,182.9,218.3z"/>
			<path class="st20" d="M191.5,213.4l-4.9,2.8c-0.4,0.2-0.6,0-0.6-0.5v-6.5c0-0.5,0.2-0.9,0.6-1.2l4.9-2.8c0.4-0.2,0.6,0,0.6,0.5
				v6.5C192.1,212.6,191.9,213.1,191.5,213.4z"/>
			<path class="st20" d="M200,208.4l-4.9,2.8c-0.4,0.2-0.6,0-0.6-0.5v-6.5c0-0.5,0.2-0.9,0.6-1.2l4.9-2.8c0.4-0.2,0.6,0,0.6,0.5v6.5
				C200.7,207.7,200.4,208.1,200,208.4z"/>
			<path class="st20" d="M208.6,203.5l-4.9,2.8c-0.4,0.2-0.6,0-0.6-0.5v-6.5c0-0.5,0.2-0.9,0.6-1.2l4.9-2.8c0.4-0.2,0.6,0,0.6,0.5
				v6.5C209.2,202.7,209,203.2,208.6,203.5z"/>
			<path class="st20" d="M212,201.9c-0.1,0-0.3,0-0.4-0.1c-0.3-0.2-0.5-0.5-0.4-0.9v-6.5c0-0.6,0.3-1.3,0.9-1.6l27.3-15.8
				c0.3-0.2,0.6-0.2,0.9,0c0.3,0.2,0.5,0.5,0.5,0.9v6.5c0,0.7-0.4,1.3-0.9,1.6l-27.3,15.7C212.4,201.8,212.2,201.9,212,201.9z
				 M239.7,177.8l-27.2,15.7c-0.3,0.2-0.4,0.5-0.4,0.8v6.6l27.2-15.7c0.3-0.2,0.4-0.5,0.4-0.8L239.7,177.8
				C239.7,177.9,239.7,177.9,239.7,177.8L239.7,177.8z"/>
			<path class="st19" d="M94.8,279.5c-0.5,0-0.9-0.4-0.9-0.9c0-0.3,0.2-0.6,0.4-0.8l195.5-112.9c0.4-0.3,1-0.1,1.2,0.3c0,0,0,0,0,0
				c0.3,0.4,0.1,1-0.3,1.2c0,0,0,0,0,0L95.2,279.4C95.1,279.5,95,279.5,94.8,279.5z"/>
			<path class="st19" d="M94.8,285.7c-0.5,0-0.9-0.4-0.9-0.9c0-0.3,0.2-0.6,0.5-0.8l195.5-112.9c0.4-0.3,1-0.1,1.2,0.3
				c0.3,0.4,0.1,1-0.3,1.2L95.2,285.6C95.1,285.7,95,285.7,94.8,285.7z"/>
			<path class="st19" d="M94.8,291.9c-0.5,0-0.9-0.4-0.9-0.9c0-0.3,0.2-0.6,0.5-0.8l195.5-112.9c0.4-0.3,1-0.1,1.2,0.3
				c0.3,0.4,0.1,1-0.3,1.2l-195.6,113C95.1,291.9,95,292,94.8,291.9z"/>
			<path class="st19" d="M94.8,298.2c-0.5,0-0.9-0.4-0.9-0.9c0-0.3,0.2-0.6,0.5-0.8l67.8-39.1c0.4-0.2,1-0.1,1.2,0.4
				c0.2,0.4,0.1,0.9-0.3,1.2L95.2,298C95.1,298.1,95,298.2,94.8,298.2z"/>
			<path class="st19" d="M128.3,317.2l-37.6,21.7c-0.9,0.5-1.6,0-1.6-1.2v-12.5c0-1.2,0.6-2.4,1.6-3.1l37.6-21.7
				c0.9-0.5,1.6,0,1.6,1.2v12.5C129.9,315.3,129.3,316.5,128.3,317.2z"/>
			<path class="st26" d="M101.4,326c0-0.1,0.1-0.2,0.2-0.3l0.4-0.3c0,0,0.1,0,0.1,0c0,0,0,0.1,0,0.1c0,0.2-0.1,0.5-0.1,0.7
				c-0.1,0.2-0.2,0.5-0.3,0.7c-0.1,0.2-0.3,0.5-0.5,0.7c-0.2,0.2-0.5,0.4-0.7,0.6c-0.2,0.1-0.4,0.2-0.7,0.2c-0.2,0-0.4,0-0.5-0.1
				c-0.2-0.1-0.3-0.3-0.3-0.5c-0.1-0.2-0.1-0.5-0.1-0.7c0-0.2,0-0.4,0-0.6s0-0.4,0-0.6c0-0.3,0.1-0.6,0.1-0.9
				c0.1-0.3,0.2-0.6,0.3-0.8c0.1-0.3,0.3-0.5,0.5-0.7c0.2-0.2,0.4-0.4,0.7-0.5c0.2-0.1,0.5-0.2,0.7-0.3c0.2,0,0.4,0,0.5,0.1
				c0.1,0.1,0.2,0.2,0.3,0.4c0.1,0.2,0.1,0.4,0.1,0.5c0,0.1,0,0.1,0,0.2c0,0.1-0.1,0.1-0.1,0.1l-0.4,0.3c0,0-0.1,0-0.1,0
				c0,0-0.1-0.1-0.1-0.1c0-0.1,0-0.2-0.1-0.2c0-0.1-0.1-0.1-0.2-0.2c-0.1,0-0.2,0-0.3,0c-0.1,0-0.3,0.1-0.4,0.1
				c-0.1,0.1-0.3,0.2-0.4,0.3c-0.1,0.1-0.2,0.2-0.3,0.4c-0.1,0.1-0.1,0.3-0.2,0.4c0,0.2-0.1,0.3-0.1,0.5c0,0.2,0,0.4,0,0.6
				c0,0.2,0,0.4,0,0.6c0,0.1,0,0.3,0.1,0.4c0,0.1,0.1,0.2,0.2,0.3c0.1,0.1,0.2,0.1,0.3,0.1c0.1,0,0.3-0.1,0.4-0.1
				c0.1-0.1,0.3-0.2,0.4-0.3c0.1-0.1,0.2-0.2,0.3-0.3c0.1-0.1,0.1-0.2,0.2-0.3C101.4,326.2,101.4,326.1,101.4,326z"/>
			<path class="st26" d="M104.6,320.6c0.1,0,0.1,0,0.1,0c0,0,0.1,0.1,0.1,0.1l1.3,3.9c0,0,0,0,0,0c0,0.1,0,0.1,0,0.2
				c0,0-0.1,0.1-0.1,0.1l-0.4,0.2c-0.1,0-0.1,0-0.2,0c0,0-0.1-0.1-0.1-0.1l-0.2-0.7l-1.7,1l-0.2,1l-0.1,0.2c0,0.1-0.1,0.1-0.2,0.2
				l-0.4,0.2c0,0-0.1,0-0.1,0c0,0,0-0.1,0-0.1c0,0,0,0,0-0.1l1.3-5.5c0-0.1,0-0.2,0.1-0.2c0-0.1,0.1-0.1,0.1-0.1L104.6,320.6z
				 M104.9,323.7l-0.6-1.8l-0.6,2.5L104.9,323.7z"/>
			<path class="st26" d="M109.2,323.1c-0.1,0-0.1,0-0.1,0c0,0-0.1,0-0.1-0.1l-1.6-2.2v3c0,0.1,0,0.1,0,0.2c0,0-0.1,0.1-0.1,0.1
				l-0.5,0.3c0,0-0.1,0-0.1,0c0,0,0-0.1,0-0.1v-4.7c0-0.1,0-0.1,0-0.2c0,0,0.1-0.1,0.1-0.1l0.4-0.2c0.1,0,0.1,0,0.1,0l0.1,0.1
				l1.5,2.2v-3c0-0.1,0-0.1,0-0.2c0,0,0.1-0.1,0.1-0.1l0.4-0.3c0,0,0.1,0,0.1,0c0,0,0,0.1,0,0.1v4.8c0,0.1-0.1,0.2-0.1,0.3
				L109.2,323.1z"/>
			<path class="st26" d="M112.9,319.3c0-0.1,0-0.1,0.1-0.2c0,0,0.1-0.1,0.1-0.1l0.4-0.3c0,0,0.1,0,0.1,0c0,0,0,0.1,0,0.1
				c0,0.2,0,0.4-0.1,0.7c-0.1,0.2-0.2,0.5-0.3,0.7c-0.1,0.2-0.3,0.5-0.5,0.7c-0.2,0.2-0.5,0.4-0.7,0.6c-0.2,0.1-0.4,0.2-0.7,0.2
				c-0.2,0-0.4,0-0.5-0.1c-0.1-0.1-0.3-0.3-0.3-0.5c-0.1-0.2-0.1-0.5-0.1-0.7c0-0.2,0-0.4,0-0.6s0-0.4,0-0.6c0-0.6,0.2-1.2,0.4-1.7
				c0.1-0.3,0.3-0.5,0.5-0.7c0.2-0.2,0.4-0.4,0.7-0.5c0.2-0.1,0.5-0.2,0.7-0.3c0.2,0,0.4,0,0.5,0.1c0.1,0.1,0.2,0.2,0.3,0.4
				c0.1,0.2,0.1,0.4,0.1,0.5c0,0.1,0,0.1,0,0.2c0,0-0.1,0.1-0.1,0.1l-0.4,0.3c0,0-0.1,0-0.1,0c0,0,0,0-0.1-0.1c0-0.1,0-0.2-0.1-0.2
				c0-0.1-0.1-0.1-0.2-0.2c-0.1,0-0.2,0-0.3,0c-0.1,0-0.3,0.1-0.4,0.1c-0.1,0.1-0.3,0.2-0.4,0.3c-0.1,0.1-0.2,0.3-0.3,0.4
				c-0.1,0.1-0.1,0.3-0.2,0.5c0,0.2-0.1,0.3-0.1,0.5c0,0.2,0,0.4,0,0.6s0,0.4,0,0.6c0,0.1,0,0.3,0.1,0.4c0,0.1,0.1,0.2,0.2,0.3
				c0.1,0.1,0.2,0.1,0.3,0.1c0.1,0,0.3-0.1,0.4-0.1c0.1-0.1,0.3-0.2,0.4-0.3c0.1-0.1,0.2-0.2,0.3-0.3c0.1-0.1,0.1-0.2,0.2-0.3
				C112.9,319.5,112.9,319.4,112.9,319.3z"/>
			<path class="st26" d="M116.9,317.7c0,0,0.1,0,0.1,0c0,0,0,0.1,0,0.1v0.5c0,0.1,0,0.1,0,0.2c0,0-0.1,0.1-0.1,0.1l-2.4,1.4
				c0,0-0.1,0-0.1,0c0,0,0-0.1,0-0.1v-4.8c0-0.1,0-0.1,0-0.2c0,0,0.1-0.1,0.1-0.1l2.4-1.4c0,0,0.1,0,0.1,0s0,0.1,0,0.1v0.5
				c0,0.1,0,0.1,0,0.2c0,0.1-0.1,0.1-0.1,0.1l-1.8,1v1.2l1.7-1c0,0,0.1,0,0.1,0c0,0,0,0.1,0,0.1v0.5c0,0.1,0,0.1,0,0.2
				c0,0-0.1,0.1-0.1,0.1l-1.7,1v1.2L116.9,317.7z"/>
			<path class="st26" d="M120.3,315.7c0,0,0.1,0,0.1,0c0,0,0,0.1,0,0.1v0.5c0,0.1,0,0.1,0,0.2c0,0.1-0.1,0.1-0.1,0.1l-2.4,1.4
				c0,0-0.1,0-0.1,0c0,0,0-0.1,0-0.1v-4.8c0-0.1,0-0.1,0-0.2c0,0,0.1-0.1,0.1-0.1l0.4-0.3c0,0,0.1,0,0.1,0c0,0,0,0.1,0,0.1v4
				L120.3,315.7z"/>
			<path class="st21" d="M173.4,291.2l-37.6,21.7c-0.9,0.5-1.6,0-1.6-1.2v-12.5c0-1.2,0.6-2.4,1.6-3.1l37.6-21.7
				c0.9-0.5,1.6,0,1.6,1.2v12.5C175,289.3,174.4,290.5,173.4,291.2z"/>
			<path class="st26" d="M149.2,294.8c0.2-0.1,0.4-0.2,0.6-0.2c0.2,0,0.3,0,0.5,0.1c0.1,0.1,0.2,0.2,0.3,0.3
				c0.1,0.1,0.1,0.3,0.1,0.4c0,0.1,0,0.1,0,0.2c0,0-0.1,0.1-0.1,0.1l-0.4,0.2c-0.1,0-0.1,0.1-0.1,0c0,0-0.1,0-0.1-0.1
				c-0.1-0.1-0.1-0.2-0.2-0.2c-0.2,0-0.4,0-0.5,0.2c-0.1,0.1-0.2,0.1-0.3,0.2c-0.1,0.1-0.2,0.2-0.2,0.2c-0.1,0.1-0.1,0.2-0.2,0.3
				c0,0.1-0.1,0.2-0.1,0.3c0,0.1,0,0.2,0.1,0.2c0,0.1,0.1,0.1,0.2,0.1c0.1,0,0.2,0,0.3,0l0.5-0.1c0.2-0.1,0.4-0.1,0.6-0.1
				c0.1,0,0.3,0,0.4,0.1c0.1,0.1,0.2,0.2,0.2,0.3c0.1,0.2,0.1,0.3,0.1,0.5c0,0.2,0,0.5-0.1,0.7c-0.1,0.2-0.2,0.5-0.3,0.7
				c-0.3,0.5-0.7,0.9-1.2,1.2c-0.2,0.1-0.4,0.2-0.6,0.2c-0.2,0-0.3,0-0.5,0c-0.1,0-0.3-0.1-0.3-0.3c-0.1-0.2-0.1-0.3-0.2-0.5
				c0-0.1,0-0.1,0-0.2c0-0.1,0.1-0.1,0.1-0.1l0.4-0.2c0,0,0.1,0,0.1,0c0,0,0.1,0,0.1,0.1c0,0.1,0.1,0.1,0.1,0.1c0,0,0.1,0.1,0.2,0.1
				c0.1,0,0.2,0,0.2,0c0.1,0,0.2-0.1,0.4-0.2c0.1-0.1,0.2-0.1,0.3-0.2c0.1-0.1,0.2-0.2,0.3-0.3c0.1-0.1,0.1-0.2,0.2-0.3
				c0.1-0.1,0.1-0.2,0.1-0.3c0-0.1,0-0.2-0.1-0.2c-0.1,0-0.2-0.1-0.2,0c-0.1,0-0.3,0.1-0.4,0.1l-0.5,0.1c-0.2,0-0.3,0.1-0.5,0.1
				c-0.1,0-0.2,0-0.3-0.1c-0.1-0.1-0.2-0.2-0.2-0.3c-0.1-0.2-0.1-0.4-0.1-0.5c0-0.2,0-0.5,0.1-0.7c0.1-0.2,0.2-0.5,0.3-0.7
				c0.1-0.2,0.3-0.4,0.5-0.6C148.8,295.1,149,294.9,149.2,294.8z"/>
			<path class="st26" d="M153.2,292.5c0.1,0,0.1,0,0.1,0c0,0,0.1,0.1,0.1,0.1l1.3,3.9c0,0,0,0,0,0c0,0.1,0,0.1,0,0.2
				c0,0-0.1,0.1-0.1,0.1l-0.4,0.2c-0.1,0-0.1,0-0.2,0c0,0-0.1,0-0.1-0.1l-0.2-0.7l-1.8,1l-0.2,1c0,0.1,0,0.1-0.1,0.2
				c0,0.1-0.1,0.1-0.2,0.1l-0.4,0.2c0,0-0.1,0-0.1,0c0,0,0-0.1,0-0.1v-0.1l1.4-5.5c0-0.1,0-0.2,0.1-0.2c0-0.1,0.1-0.1,0.1-0.1
				L153.2,292.5z M153.6,295.6l-0.6-1.8l-0.6,2.5L153.6,295.6z"/>
			<path class="st26" d="M156.4,294.4l0.9-4c0-0.1,0-0.1,0.1-0.2c0-0.1,0.1-0.1,0.1-0.1l0.4-0.2c0,0,0.1,0,0.1,0c0,0,0,0.1,0,0.1
				l0,0c0,0,0,0,0,0.1l-1.2,5.4c0,0.1,0,0.2-0.1,0.2c0,0.1-0.1,0.1-0.1,0.1l-0.4,0.3c-0.1,0-0.1,0-0.1,0c0,0-0.1-0.1-0.1-0.1
				l-1.2-3.9l0,0l0,0c0-0.1,0-0.1,0-0.2c0,0,0.1-0.1,0.1-0.1l0.4-0.2c0.1,0,0.1,0,0.1,0c0,0,0,0,0.1,0.1L156.4,294.4z"/>
			<path class="st26" d="M161.3,292.1c0,0,0.1,0,0.1,0c0,0,0,0.1,0,0.1v0.6c0,0.1,0,0.1,0,0.2c0,0.1-0.1,0.1-0.1,0.1l-2.4,1.4
				c0,0-0.1,0-0.1,0c0,0,0-0.1,0-0.1v-4.8c0-0.1,0-0.1,0-0.2c0,0,0.1-0.1,0.1-0.1l2.4-1.4c0,0,0.1,0,0.1,0c0,0,0,0.1,0,0.1v0.5
				c0,0.1,0,0.1,0,0.2c0,0.1-0.1,0.1-0.1,0.1l-1.8,1v1.2l1.7-1c0,0,0.1,0,0.1,0c0,0,0.1,0.1,0,0.1v0.5c0,0.1,0,0.1,0,0.2
				c0,0.1-0.1,0.1-0.1,0.1l-1.7,1v1.2L161.3,292.1z"/>
		</g>
	</g>
	<g id="freepik--Character--inject-18">
		<g id="freepik--character--inject-18_1_">
			<g id="freepik--Sofa--inject-18">
				<path class="st23" d="M292.5,492.9c-1.1,0-2-0.9-2.1-2l-3.1-44.2c-0.2-2.3-1.4-4.5-2.4-5.1l-77-45.4l0,0
					c-0.2,0.3-0.2,0.7-0.3,1.1l-3.1,40.6c-0.1,1.2-1.1,2-2.3,2c-1.2-0.1-2-1.1-2-2.3l3.1-40.6c0.2-2.2,1.1-3.9,2.6-4.6
					c1.3-0.6,2.8-0.6,4.1,0.2l77,45.4c2.4,1.4,4.3,4.9,4.5,8.4l3.1,44.2c0.1,1.2-0.8,2.2-2,2.3c0,0,0,0,0,0L292.5,492.9z"/>
				<path class="st23" d="M408.6,425.9c-1.1,0-2-0.9-2.1-2l-3.1-44.2c-0.2-2.3-1.4-4.5-2.4-5.1l-77-45.4l0,0
					c-0.1,0.3-0.2,0.7-0.3,1.1l-3.1,40.6c-0.1,1.2-1.1,2-2.3,2c-1.2-0.1-2-1.1-2-2.3l0,0l3.1-40.6c0.2-2.2,1.1-3.9,2.5-4.6
					c1.3-0.6,2.8-0.6,4.1,0.2l77,45.4c2.4,1.4,4.3,4.9,4.5,8.4l3.1,44.2c0.1,1.2-0.8,2.2-1.9,2.3c0,0,0,0-0.1,0L408.6,425.9z"/>
				<path class="st23" d="M289.7,444.7L205,394.9c-2.3-1.3-3.7-3.3-3.7-5.5s1.3-4.1,3.7-5.5L308.7,324c4.6-2.4,10.1-2.4,14.6,0
					l84.7,49.8c2.3,1.4,3.7,3.4,3.7,5.5s-1.3,4.1-3.7,5.5l-103.7,59.9C299.7,447.1,294.3,447.1,289.7,444.7z M310.8,327.7l-103.6,60
					c-0.9,0.5-1.5,1.2-1.5,1.7s0.6,1.2,1.5,1.7l84.7,49.8c3.2,1.6,7.1,1.6,10.3,0l103.7-59.9c0.9-0.5,1.5-1.2,1.5-1.7
					s-0.6-1.2-1.5-1.7l-84.7-49.9l0,0C318,326.1,314.1,326.1,310.8,327.7L310.8,327.7z M322.2,325.9L322.2,325.9z"/>
				<path class="st22" d="M362.2,344.8c0.8,0,1.5-0.6,1.7-1.4l7-32.2c0.2-0.9-0.4-1.9-1.3-2.1s-1.9,0.4-2.1,1.3l0,0l-7,32.2
					c-0.2,0.9,0.4,1.8,1.3,2C361.9,344.7,362.1,344.8,362.2,344.8z"/>
				<path class="st22" d="M344.1,334.3c0.8,0,1.5-0.6,1.7-1.4l7-32.2c0.2-0.9-0.4-1.9-1.3-2.1s-1.9,0.4-2.1,1.3l0,0l-7,32.2
					c-0.2,0.9,0.4,1.9,1.3,2.1C343.8,334.3,344,334.3,344.1,334.3z"/>
				<path class="st22" d="M322.7,291.7c0-0.6,0.4-1.2,1-1.5l9.1-5.2c1.6-0.8,3.4-0.8,5,0l50.6,29.2c0.6,0.3,1,0.8,1,1.5v2.7
					c0,0.6-0.4,1.2-1,1.4l-9.1,5.2c-1.6,0.8-3.4,0.8-5,0l-50.6-29.2c-0.6-0.3-1-0.8-1-1.4V291.7z"/>
				<path class="st16" d="M323.8,290.2l9.1-5.2c1.6-0.8,3.4-0.8,5,0l39,22.5v18.1c-0.9,0-1.7-0.2-2.5-0.6l-50.6-29.2
					c-0.6-0.3-1-0.8-1-1.4v-2.7C322.8,291.1,323.2,290.5,323.8,290.2z"/>
				<path class="st23" d="M337.8,285l50.6,29.2c0.8,0.3,1.2,1.1,0.9,1.9c-0.2,0.4-0.5,0.8-0.9,0.9l-9.1,5.2c-1.6,0.8-3.4,0.8-5,0
					l-50.6-29.2c-0.8-0.3-1.2-1.1-0.9-1.9c0.2-0.4,0.5-0.8,0.9-0.9l9.1-5.2C334.4,284.2,336.3,284.2,337.8,285z"/>
				<path class="st21" d="M210.6,371.8l107.1-61.9c0.7-0.3,1.6-0.3,2.2,0.2l82.3,48.5c1.8,1.2,3,3.2,3.1,5.4V377
					c0.1,0.8-0.3,1.5-0.9,2L297.3,441c-0.7,0.3-1.6,0.2-2.2-0.2l-82.3-48.5c-1.8-1.2-3-3.2-3.1-5.4v-13.1
					C209.6,373,209.9,372.3,210.6,371.8z"/>
				<g class="st27">
					<path class="st26" d="M210.6,371.8l107.1-61.9c0.7-0.3,1.6-0.3,2.2,0.2l82.3,48.5c1.8,1.2,3,3.2,3.1,5.4V377
						c0.1,0.8-0.3,1.5-0.9,2L297.3,441c-0.7,0.3-1.6,0.2-2.2-0.2l-82.3-48.5c-1.8-1.2-3-3.2-3.1-5.4v-13.1
						C209.6,373,209.9,372.3,210.6,371.8z"/>
				</g>
				<path class="st21" d="M297.3,441l107.1-61.9c0.6-0.5,1-1.2,0.9-2V364c-0.1-1.2-0.4-2.3-1-3.3l-107.1,61.9c0.6,1,1,2.1,1,3.3V439
					C298.3,439.7,297.9,440.5,297.3,441z"/>
				<g class="st28">
					<path class="st26" d="M297.3,441l107.1-61.9c0.6-0.5,1-1.2,0.9-2V364c-0.1-1.2-0.4-2.3-1-3.3l-107.1,61.9c0.6,1,1,2.1,1,3.3
						V439C298.3,439.7,297.9,440.5,297.3,441z"/>
				</g>
				<g class="st29">
					<path class="st21" d="M298.2,439v-13.1c-0.1-2.2-1.3-4.2-3.1-5.4L212.8,372c-0.8-0.7-2-0.6-2.7,0.2c-0.4,0.4-0.6,1.1-0.4,1.6
						v13.1c0.1,2.2,1.3,4.2,3.1,5.4l82.3,48.5c0.6,0.5,1.5,0.6,2.2,0.2C297.9,440.5,298.3,439.7,298.2,439z"/>
				</g>
				<path class="st21" d="M202.8,288.3l95.4-55.1c0.7-0.3,1.4-0.1,2,0.3l11.3,6.5c1.9,1.2,3.2,3.1,3.7,5.4l12.6,72.9
					c0.2,1,0,1.7-0.5,2l-95.4,55.2c-0.7,0.3-1.4,0.2-2-0.3l-11.3-6.5c-1.9-1.2-3.2-3.1-3.7-5.4l-12.6-72.9
					C202.1,289.3,202.3,288.6,202.8,288.3z"/>
				<g class="st27">
					<path class="st26" d="M202.8,288.3l95.4-55.1c0.7-0.3,1.4-0.1,2,0.3l11.3,6.5c1.9,1.2,3.2,3.1,3.7,5.4l12.6,72.9
						c0.2,1,0,1.7-0.5,2l-95.4,55.2c-0.7,0.3-1.4,0.2-2-0.3l-11.3-6.5c-1.9-1.2-3.2-3.1-3.7-5.4l-12.6-72.9
						C202.1,289.3,202.3,288.6,202.8,288.3z"/>
				</g>
				<path class="st21" d="M232.5,373.4c0.2,1,0,1.7-0.5,2l95.4-55.1c0.5-0.3,0.7-1,0.5-2l-12.7-72.9c-0.2-1.1-0.7-2.2-1.4-3.1
					l-95.4,55.1c0.7,0.9,1.2,2,1.4,3.1L232.5,373.4z"/>
				<g class="st28">
					<path class="st26" d="M232.5,373.4c0.2,1,0,1.7-0.5,2l95.4-55.1c0.5-0.3,0.7-1,0.5-2l-12.7-72.9c-0.2-1.1-0.7-2.2-1.4-3.1
						l-95.4,55.1c0.7,0.9,1.2,2,1.4,3.1L232.5,373.4z"/>
				</g>
				<g class="st29">
					<path class="st21" d="M229.9,375.2l-11.3-6.5c-1.9-1.2-3.2-3.1-3.7-5.4l-12.6-72.9c-0.2-1,0-1.7,0.6-2c0.7-0.3,1.4-0.2,2,0.3
						l11.3,6.5c1.9,1.2,3.2,3.2,3.7,5.4l12.6,72.9c0.2,1,0,1.7-0.5,2C231.3,375.7,230.5,375.6,229.9,375.2z"/>
				</g>
				<g id="freepik--Cushion--inject-18">
					<path class="st21" d="M249.8,290.2c-4.4-0.4-8,4.6-15.2,8.1c-13.5,6.6-19.6,12.6-25.9,20s-8.7,6.1-10.6,10.7s3.4,6.5,5.9,13
						c4.3,11,9.6,18.3,15.1,22.9c9.8,8,8.3,13.7,12.7,13.6c4.7-0.1,4.4-4.1,11.9-7c17.6-6.8,24.9-12.9,33-25c3.2-4.7,7.2-4.3,8-8.9
						c0.4-2.3-2.9-3.5-5.9-10.6c-5-11.9-12.9-23-20.6-28.8C254.8,295.8,254.2,290.6,249.8,290.2z"/>
					<path class="st30" d="M249.8,290.2c-4.4-0.4-8,4.6-15.2,8.1c-13.5,6.6-19.6,12.6-25.9,20s-8.7,6.1-10.6,10.7s3.4,6.5,5.9,13
						c4.3,11,9.6,18.3,15.1,22.9c9.8,8,8.3,13.7,12.7,13.6c4.7-0.1,4.4-4.1,11.9-7c17.6-6.8,24.9-12.9,33-25c3.2-4.7,7.2-4.3,8-8.9
						c0.4-2.3-2.9-3.5-5.9-10.6c-5-11.9-12.9-23-20.6-28.8C254.8,295.8,254.2,290.6,249.8,290.2z"/>
					<path class="st25" d="M202.8,336.6c3.7,5.3,3.2,10.5,10.9,20.2c7.4,9.3,12.7,11.9,14.9,16.1c1.8,3.5,4.3,5.1,4.9,1
						s-2.6-15.7-10-25.6c-8.5-11.5-14-15.8-17.6-17.5C200.1,328.2,199.9,332.5,202.8,336.6z"/>
					<path class="st25" d="M244,367c-4.9,1.7-5.1,6-7.5,9.3c2-2.1,4.5-3.8,7.2-4.9c8-3.1,13.9-6.1,18.7-9.5
						C256.1,365.2,247.5,365.8,244,367z M274.4,344.7c-3,2.8-2.7,7.7-6.3,12.5c3.2-3.3,6.1-6.8,8.6-10.6c2.9-4.3,6.5-4.4,7.7-7.8
						C281.7,342.1,278,341.3,274.4,344.7z"/>
					<path class="st31" d="M243.7,300.7c-10.4,1.9-20.8,7.3-27.9,15.3c-1.4,1.7-2.1,3.8-1.9,6c0.2,2.8,1.8,5.2,4.2,6.6
						c2.4,1.4,6,1.4,8.6,1.1c5.4-0.7,8.5-2.1,15.5-2.2c2.6,0,5.1,0.7,7.3,1.9c3.4,1.9,6,4.1,9,5.7c4.1,2.2,11.5,1.2,14-1.3
						c2.7-2.7,3.3-6.8,0.9-12C268,310.2,257.9,299.1,243.7,300.7z"/>
				</g>
				<g id="freepik--cushion--inject-18">
					<path class="st21" d="M304.7,275.8c3.8-2.2,9.2,0.9,17.2,1.1c15.1,0.4,26.9,3.7,35.7,7.8s10.4,2,14.1,5.4s-0.4,7.4,0,14.3
						c0.6,11.7-1.2,20.6-4.3,27.1c-5.6,11.4-1.9,15.9-6,17.6c-4.3,1.9-5.7-1.9-13.7-1.5c-18.9,1-31.8-1.8-44.2-9.4
						c-4.8-3-8.4-0.9-10.9-4.8c-1.3-1.9,1.2-4.4,1-12.1c-0.4-12.8,2.2-26.2,6.9-34.7C302.5,282.9,300.9,278,304.7,275.8z"/>
					<path class="st30" d="M304.7,275.8c3.8-2.2,9.2,0.9,17.2,1.1c15.1,0.4,26.9,3.7,35.7,7.8s10.4,2,14.1,5.4s-0.4,7.4,0,14.3
						c0.6,11.7-1.2,20.6-4.3,27.1c-5.6,11.4-1.9,15.9-6,17.6c-4.3,1.9-5.7-1.9-13.7-1.5c-18.9,1-31.8-1.8-44.2-9.4
						c-4.8-3-8.4-0.9-10.9-4.8c-1.3-1.9,1.2-4.4,1-12.1c-0.4-12.8,2.2-26.2,6.9-34.7C302.5,282.9,300.9,278,304.7,275.8z"/>
					<path class="st25" d="M370.6,298.9c-1.2,6.3,1.4,10.9-1.5,22.9c-2.9,11.5-6.6,16.1-6.9,20.8c-0.2,3.9-1.8,6.4-4.1,3
						s-4.1-15.4-1.5-27.5c3-14,6.2-20.2,8.9-23.2C369.6,290.2,371.5,294,370.6,298.9z"/>
					<path class="st25" d="M326.8,346.6c5.8,1.2,12.3,1.4,20.9,1c2.9-0.2,5.9,0.3,8.6,1.4c-3.6-2-5.6-5.9-10.7-5.4
						C341.9,344,333.8,347,326.8,346.6z M293.3,334.3c2.5,2.6,5.8,1.2,10.2,3.9c3.9,2.5,8,4.5,12.2,6.1c-5.3-2.8-7-7.5-10.9-8.7
						C300.2,334,297.1,336.3,293.3,334.3z"/>
					<path class="st31" d="M314.6,282.8c10.3-2.5,24-2.4,33.8,1.9c1.9,0.9,5.3,3.4,6,5.5c1,2.6,0.6,5.5-1.1,7.7
						c-1.6,2.3-4.9,3.7-7.4,4.5c-5.2,1.6-10.4,1-17.2,3.4c-2.9,1.2-5.4,3.1-7.5,5.4c-2.3,3.1-3.8,6.2-5.8,8.9
						c-2.9,3.7-10,5.8-13.3,4.6c-3.6-1.4-5.9-4.8-5.8-10.5C296.5,301.5,301.1,287.3,314.6,282.8z"/>
				</g>
			</g>
			<g id="freepik--character--inject-18">
				<g id="freepik--Bottom--inject-18">
					<path class="st32" d="M327.8,383.5l8.8-17.4l17.7,10.4l-21.9,25.8c0,0-10.8-1-12.6-6.6S324.9,385.4,327.8,383.5z"/>
					<path class="st33" d="M327.8,383.5l-1.1,2c1.1,2.9,3.1,5.4,5.6,7.1c4.2,2.9,6.1,2.7,6.1,2.7l1-1.2c0,0,0.6,0.5-1,2.3
						c-2.1,2.1-3.8,4.5-5.1,7.2c-2,3.9-3.5,13-3.7,19.6s0.8,11.3-4.3,13.2s-10.3-2.8-13.2-7.2s-3.9-11-3.2-15.8s4.4-7.9,3.7-13.4
						c-0.5-4.1,0.2-8.1,2-10.1s5.6-2.5,8.1-3.9S326.8,383,327.8,383.5z"/>
					<path class="st20" d="M329.6,427.3c-3.3-6.4-14.7-8.2-20.3-5.4c0.5,2.6,1.4,5.1,2.9,7.4c2.9,4.4,8.1,9.1,13.2,7.2
						C329.3,434.9,329.6,431.7,329.6,427.3z"/>
					<path class="st20" d="M321.1,386.8c-2.3,0.9-5,1.6-6.5,3.2c-1.8,2-2.5,6-2,10.1c0,0.2,0,0.4,0,0.5l0,0
						C318,398.9,322.9,391,321.1,386.8z"/>
					<path class="st22" d="M304.2,323.2c0,0,46.8-7.8,64.6-7.7c18.2,0.1,19.9,13.8,15.4,22.2c-8.7,16-33.9,44.2-33.9,44.2
						s-14-1.9-17.1-10.7l5.6-12.8l-21.8,7l-11.1-7.5l-5.5-3.7L304.2,323.2z"/>
					<path class="st34" d="M335.1,371.4c0,0,9.5,3.8,13.9,5c2.5,0.7,5,1.3,7.5,1.7l-2.3,15.7l-23-2.5L335.1,371.4z"/>
					<path class="st33" d="M352.5,377.3c1.7,0.5,3,5.7,2.4,9.1c-0.5,2.6-2.6,6.9-4.2,7l-1.6-0.2c0,0,0.2,1.1,2.8,1.2
						s10.6,1.1,13.6,1.3s9.5,2.5,13.4,2.9s7.7,1.5,13.9-1.5s9.9-9.9,6.9-15.1s-9.5-5.9-14.7-5.8s-14.2,2.2-20.1,1.8
						c-3.9-0.2-7.8-0.8-11.6-1.7c-0.9-0.3-2-0.2-2.8,0.4L352.5,377.3z"/>
					<path class="st20" d="M399.5,382.1c-2.3-4.1-6.9-5.4-11.3-5.7c2.9,2,3.8,17.9-2.8,22.8c2.5-0.2,5-0.9,7.2-2
						C398.8,394.2,402.5,387.3,399.5,382.1z"/>
					<path class="st23" d="M339.9,371.8c-12-6.2-29.5-16.2-36.8-18l-0.6-0.1c3.3-8,5.5-15.1,1.8-30.5l-65.8,11.1
						c0,0,0.4,22.3,6.6,32.8s13.2,14.5,24.1,18.5c9.3,3.4,26.4,2.2,26.4,2.2c3.4,1.9,8,3.2,13.6,3.6c7.1,0.6,20.3,0.6,28.1,1.1
						C341.8,386.8,341.6,372.7,339.9,371.8z"/>
					<path class="st16" d="M342.3,344.8c-3.4,4.9-6.4,10-9.2,15.3l5.6-1.8c6.3-15,7.6-19.3,17.6-26.3
						C356.3,332,349.1,334.7,342.3,344.8z"/>
					<path class="st16" d="M291.7,384.1c0.1,1.4,0.6,2.7,1.4,3.8c1.5-0.1,2.4-0.1,2.4-0.1h0.1C294.1,386.7,292.8,385.5,291.7,384.1z
						"/>
					<path class="st16" d="M315.1,358.8c5,2.3,8.5,4.4,8.5,4.4l3.8-1.2c0,0-9.3-4.7-16.3-8.2c-1-0.5-4.4-2.2-5.2-2.7
						c1.2-4.4,1.3-9,0.3-13.5c0,4.5-0.9,8.9-2.5,13.1c-2.8-0.8-5.1-0.6-9.1,0.1c-7,1.2-27.3,4.6-27.3,4.6s19.4-2,29.5-2.1
						c1.9-0.1,3.8,0.1,5.6,0.5C308,355.1,312.4,357.6,315.1,358.8z"/>
				</g>
				<g id="freepik--Top--inject-18">
					<path id="freepik--Arm--inject-18" class="st34" d="M284.6,255.6c7.9,0,15.8,3.7,16.7,12.8c0.7,8-0.3,28.4-0.3,28.4l16.9,12.7
						l-9.4,11.7c0,0-16.6-8-22.3-11c-8.8-4.5-7.7-6.4-7.3-17.4S284.6,255.6,284.6,255.6z"/>
					<g id="freepik--Chest--inject-18">
						<path class="st18" d="M237.7,296.6c1.5-21.5,2.2-27.4,6.9-34.4c8.8-4.3,25.9-6.3,40-6.5c4.6,4.4,12.6,20,15.7,42.2
							c0.1,6.4,0,15.2,0,15.2s2.5,4.5,6.1,9.8c-1,10.6-13,21.3-31.9,26.4c-12,3.3-24.9,1.9-36-3.7
							C238.5,345.5,236.2,317.9,237.7,296.6z"/>
					</g>
					<g id="freepik--Laptop--inject-18">
						<path class="st35" d="M275,357v1.2c0,1.2,0.6,2.3,1.7,2.9l32,18.4c0.5,0.3,1.1,0.5,1.7,0.5c0.6,0,1.2-0.2,1.7-0.5l58.7-33.9
							c1-0.6,1.7-1.7,1.7-2.9v-0.8l-62,35.8L275,357z"/>
						<path class="st18" d="M372.3,341.9l-34.8-20.1c-0.6-0.4-1.4-0.4-2,0l-60.3,34.8c-0.2,0.1-0.3,0.4-0.2,0.6
							c0,0.1,0.1,0.1,0.2,0.2l35.1,20.3L372.3,341.9z"/>
						<polygon class="st20" points="310,374.7 291.2,363.9 346.1,332.2 364.9,343 						"/>
						<polygon class="st20" points="300.7,344.6 301.1,344.8 310.3,350.1 326.6,340.7 327,340.5 317.4,335 						"/>
						<polygon class="st19" points="301.1,344.8 310.3,350.1 326.6,340.7 317.4,335.4 						"/>
						<path class="st35" d="M310.3,377.7v2.2c0.6,0,1.2-0.2,1.7-0.5l58.7-33.9c1-0.6,1.7-1.7,1.7-2.9v-0.8L310.3,377.7z"/>
						<g class="st36">
							<path class="st20" d="M310.3,377.7v2.2c0.6,0,1.2-0.2,1.7-0.5l58.7-33.9c1-0.6,1.7-1.7,1.7-2.9v-0.8L310.3,377.7z"/>
						</g>
						<path class="st34" d="M317.8,309.5c3.1,2.7,6.6,4.8,10.5,6.1c7.2,2.5,8.7,2.5,14.4,6.8c2,1.6,3.8,3.3,5.5,5.1
							c1.7,2.9,4,5.4,5.8,8.1c1.5,1.6-0.3,2.1-1.8,1.9c-4-0.8-6.4-4.6-9.6-6.7c0.1,1.4,0,2.7-0.3,4.1c-0.2,1.1-0.3,2.4-1.4,3
							c-0.8,0.3-1.6,0.4-2.4,0.4c-0.1,0.4-0.3,0.7-0.7,0.9c-0.6,0.3-1.3,0.3-2,0.1c-0.3-0.1-0.7-0.2-1-0.4c-0.3,0.7-0.8,1.2-1.5,1.3
							c-1.6,0.1-3.2-0.2-4.6-0.9c-0.2-0.1-1.7-1.4-2.1-1.8c-0.6-0.5-1.2-0.9-1.4-1.4s1.1-1.7,2-1.6c1,0.1,2,0.4,2.9,0.8
							c-0.2-0.9-0.3-1.8-0.3-2.7c-0.5-1.4-6.5-1.4-11.3-3.4c-3.7-1.5-5.2-5-6.8-6c-1-0.7-2-1.3-3.1-1.9"/>
						<path class="st21" d="M311.2,378.2c1.1,0.4,2.4,0.3,3.4-0.3l58.4-33.7c1-0.6,1.7-1.6,1.9-2.8l6.4-38.1c0-0.2,0.1-0.4,0-0.6
							c0-1.1-0.4-2.1-1.2-2.8l-60.7,35c-0.8,0.4-1.3,1.2-1.4,2.1L311.2,378.2z"/>
						<g class="st37">
							<path class="st26" d="M311.2,378.2c1.1,0.4,2.4,0.3,3.4-0.3l58.4-33.7c1-0.6,1.7-1.6,1.9-2.8l6.4-38.1c0-0.2,0.1-0.4,0-0.6
								c0-1.1-0.4-2.1-1.2-2.8l-60.7,35c-0.8,0.4-1.3,1.2-1.4,2.1L311.2,378.2z"/>
						</g>
						<path class="st18" d="M310.3,377.7l0.4,0.2c0.2,0.1,0.4,0.2,0.5,0.3l6.9-41.3c0.2-0.9,0.7-1.6,1.4-2.1l60.7-35
							c-0.2-0.2-0.5-0.5-0.8-0.6l-60.8,35.1c-0.8,0.4-1.3,1.2-1.4,2.1L310.3,377.7z"/>
						<path class="st21" d="M344.1,343c0.4-2.6,3.1-6,5.9-7.6s4.8-0.9,4.3,1.7s-3.1,6-5.9,7.6S343.7,345.5,344.1,343z"/>
					</g>
					<g id="freepik--arm--inject-18">
						<path class="st34" d="M225.4,316.6c1.4-15.6,3-28.5,5.7-39.9c1.6-6.7,3.9-11.9,13.8-14.7c8.8,5.3,6.8,24.1,6,28.5l-4.4,26.9
							c0,0,7.6,5.2,15.6,10.1c6.8,4.2,11.3,6.7,19,6.9s10.7-0.2,14.8,1.2c2.2,0.7,7.1,2.5,8.8,3.2s4.9,3.4,7.7,5.2
							c2.7,1.8-0.4,3.2-2.4,2.8c-2.2-0.5-4.2-1.3-6.2-2.4c-1.7-0.6-3.5-1.2-5.3-1.5c0.7,1.9,1.2,3.9,1.5,5.9
							c0.1,1.1,0.4,2.4-0.4,3.3c-0.7,0.5-1.4,0.9-2.2,1.1c0,0.4-0.1,0.8-0.4,1.1c-0.5,0.4-1.2,0.7-1.9,0.7c-0.4,0-0.7,0-1.1-0.1
							c0,0.7-0.5,1.3-1.1,1.7c-1.5,0.6-3.1,0.8-4.6,0.5c-0.2-0.1-2-0.9-2.6-1.1c-0.7-0.2-1.3-0.5-1.8-0.9c-0.4-0.5,0.5-1.9,1.4-2.1
							c1-0.2,2-0.2,3,0c-0.5-0.8-0.8-1.6-1.1-2.5c-0.9-1.2-6.6,0.6-11.9,0.1c-4-0.4-7.1-3.8-8.9-4.5c-11.6-4.1-20.5-7-32.4-12.9
							C223.4,327.6,224.6,324.7,225.4,316.6z"/>
						<path class="st34" d="M299.6,343.1c-0.7-1.4-1.8-3.1-2.9-3.4c0.8,1,1.4,2,1.9,3.1C298.9,342.9,299.2,343,299.6,343.1z"/>
						<path class="st34" d="M297.5,353.1c0.1-1.1,0-2.2-0.2-3.2c-0.2-1.1-0.4-2.1-0.7-3.1c-0.3-1-0.6-2-1.1-3
							c-0.5-1-1.2-1.8-2.1-2.4c0.4,0.3,0.7,0.8,1,1.2c0.3,0.4,0.5,0.9,0.7,1.4c0.4,1,0.7,2,1,3c0.3,1,0.5,2,0.8,3.1
							C297.1,351,297.3,352.1,297.5,353.1z"/>
						<path class="st34" d="M294.1,354.8c0-1.1-0.1-2.1-0.3-3.1c-0.2-1-0.4-2.1-0.7-3.1c-0.3-1-0.7-2-1.1-3c-0.4-1-1-1.9-1.8-2.6
							c0.4,0.4,0.6,0.8,0.8,1.3c0.2,0.5,0.4,1,0.6,1.5c0.3,1,0.7,2,1,3C293.1,350.7,293.7,352.7,294.1,354.8z"/>
						<path class="st34" d="M285.4,352.8c0.4,0,0.9,0,1.3,0.1c0.4,0.1,0.7,0.3,1.3,0.4l-0.2-0.3c0,0.2,0,0.4,0.1,0.6
							c0.1,0.2,0.2,0.3,0.3,0.5c0.3,0.3,0.6,0.4,0.9,0.5c-0.2-0.2-0.4-0.5-0.6-0.8c-0.1-0.1-0.1-0.3-0.2-0.4c0-0.1,0-0.2,0-0.4v-0.2
							l-0.3-0.1c-0.4-0.1-0.8-0.2-1.3-0.2C286.4,352.5,285.9,352.6,285.4,352.8z"/>
					</g>
					<path class="st23" d="M288.2,202.1c-4.9-6.6-22-8.7-32.3-0.7c-4.6,3.5-9.9,10.2-7.3,22.4c-1.1,2-3.6,4.8-4.5,9.3
						c-1,5-0.4,10.3,2.8,14.1s11.8,6.9,22.2,7.6c19.4,1.3,24.8-2.5,28-12.7c2.3-7.2-1.9-15.6-1.9-15.6
						C297.5,213.8,292.5,205,288.2,202.1z"/>
					<path class="st34" d="M292.3,211.6c2,1.5,5.4,4.3,3.2,16.1c-0.3,1.6,0.2,3,0,6.8c-0.6,11-5.5,15.5-8.9,16.6
						c-2,0.7-4.5,0.7-8.8,0.1l-1,4.9c0,0,14.1,13.6,3.9,16.4c-13.2,3.6-24.6-13.5-24.6-13.5l2.6-21.1c-1.7,1.3-5.5,1.3-7.7-2.8
						s-1.6-9.6,1.9-11.1c3.8-1.5,5.8,0.4,7.3,3.5c1.2,2.8,4.5,2.2,4-4.1c3.8-1.3,5.4-5.3,4.9-11.3c2-1.4,5.1,1.8,14.9,2
						C288,214.1,289.4,213,292.3,211.6z"/>
					<path class="st21" d="M254.6,234.4c-0.2,1,0.5,1.9,1.5,2.1c1,0.2,1.9-0.5,2.1-1.5c0.2-1-0.5-1.9-1.5-2.1c0,0,0,0,0,0
						C255.7,232.8,254.7,233.5,254.6,234.4z"/>
					<path class="st32" d="M277.8,251.2c-10.5-2.5-16.3-6.9-17.3-11.2c0,0,0.5,5.6,3.4,8.1c4.1,3.5,13.2,6,13.2,6L277.8,251.2z"/>
					<path class="st38" d="M282.8,241.4l-5.4-1.7c-0.5,1.4,0.2,3,1.6,3.5c0,0,0.1,0,0.1,0C280.6,243.7,282.2,242.9,282.8,241.4z"/>
					<path class="st39" d="M280.3,243.3c-0.4,0.1-0.8,0-1.2-0.1c-1-0.3-1.7-1.2-1.9-2.2C278.7,241.1,279.9,242,280.3,243.3z"/>
					<path class="st16" d="M295.4,222.8l-4.6-1.6c0.4-1.2,1.7-2,2.9-1.6c0,0,0.1,0,0.1,0C295.1,220.1,295.8,221.5,295.4,222.8z"/>
					<path class="st16" d="M276.7,226.4c-1.5,0-2.3,1.1-3,0.9c0.2,0.4,0.6,0.7,1,0.8c0,0.1,0,0.2,0,0.3c0,1.1,0.8,2,1.9,2.1
						c1.1,0,2-0.8,2.1-1.9S277.9,226.4,276.7,226.4C276.7,226.4,276.7,226.4,276.7,226.4z"/>
					<path class="st16" d="M292,227.1L292,227.1c-0.1,0-0.3-0.1-0.4-0.1c-1.1-0.2-2.1,0.4-2.4,1.5c-0.2,1.1,0.4,2.1,1.5,2.4
						c0.3,0.1,0.5,0.1,0.8,0c1,0,1.9-0.8,2-1.8c0.4,0.1,0.9-0.1,1.2-0.5C294,228.8,293.5,227.5,292,227.1z"/>
					<path class="st16" d="M272.2,222.4l4.7-1.7c-0.4-1.3-1.7-2-3-1.6c0,0-0.1,0-0.1,0C272.5,219.7,271.8,221.1,272.2,222.4z"/>
					<path class="st16" d="M291.2,235.6c-1.6,0-3.1-0.6-4.1-1.8c-1.1-1.2-1.6-2.8-1.3-4.4c0.5-3.4,3.3-6,6.7-6.1
						c1.6,0,3.1,0.6,4.1,1.8c1.1,1.2,1.6,2.8,1.4,4.4l0,0C297.5,232.9,294.7,235.5,291.2,235.6z M292.4,224.1
						c-3,0.1-5.5,2.4-5.9,5.4c-0.2,1.4,0.2,2.8,1.1,3.8c0.9,1,2.2,1.6,3.5,1.5c3.1-0.1,5.6-2.4,5.9-5.4c0.2-1.4-0.3-2.7-1.2-3.8
						C295.1,224.6,293.8,224.1,292.4,224.1L292.4,224.1z"/>
					<path class="st32" d="M282.5,227.1l0.5,10.6l6.5-1.4C289.6,236.3,286.5,228.2,282.5,227.1z"/>
					<path class="st16" d="M275.7,235.1c-1.6,0-3.1-0.6-4.1-1.8c-1.1-1.2-1.6-2.8-1.3-4.4c0.5-3.4,3.3-5.9,6.7-6.1
						c1.6,0,3.1,0.6,4.1,1.8c1.1,1.2,1.6,2.8,1.4,4.4l0,0C282.1,232.4,279.2,235.1,275.7,235.1z M277,223.6c-3,0.1-5.5,2.4-5.9,5.4
						c-0.2,1.4,0.2,2.8,1.1,3.8c0.9,1,2.2,1.6,3.5,1.5c3.1-0.1,5.6-2.4,5.9-5.4l0,0c0.2-1.4-0.3-2.7-1.2-3.8
						C279.6,224.2,278.3,223.6,277,223.6z"/>
					<path class="st16" d="M282.3,229.8l-0.8-0.3c0.5-1.6,2.7-2.1,4-1.7c0.7,0.1,1.1,0.7,1,1.4c0,0,0,0.1,0,0.1l-0.8-0.2
						c0-0.1,0.1-0.4-0.5-0.6C284.4,228.3,282.7,228.7,282.3,229.8z"/>
					<path class="st16" d="M270.7,228.1l-0.1,0.8l-10.8-2.3c-0.2-0.3-0.4-0.6-0.5-0.9L270.7,228.1z"/>
					<path class="st23" d="M267.7,210.4c-0.7,4.3-1.2,10-1.2,10s5.8,2.6,8.2,2.3c1-3.2,1.6-6.5,1.8-9.8c0.9,3.3,1.2,6.6,1,10
						c2.1,1,8.6,2.1,11.9,1.3c0.5-3.6,0.7-7.2,0.7-10.9c0,0,2.5,5.4,2.3,10.2c2.2,0.1,4.4-0.3,6.4-1.2c0,0,1.9-11.1-6.8-18
						c-6.5-5.2-16.7-3.6-19.9-1.2C269.7,204.7,268.1,207.4,267.7,210.4z"/>
				</g>
			</g>
			<path class="st22" d="M241.7,414.3c0.2,0,0.3,0,0.5-0.1c0.9-0.3,1.4-1.2,1.2-2.1c0,0,0,0,0,0l-7-24c-0.3-0.9-1.2-1.4-2.2-1.2
				s-1.4,1.2-1.2,2.2l7,24C240.3,413.8,240.9,414.3,241.7,414.3z"/>
			<path class="st22" d="M223.6,403.8c0.2,0,0.3,0,0.5-0.1c0.9-0.3,1.4-1.2,1.2-2.1c0,0,0,0,0,0l-7-24c-0.3-0.9-1.2-1.4-2.2-1.2
				s-1.4,1.2-1.2,2.2l7,24C222.2,403.4,222.8,403.8,223.6,403.8z"/>
			<path class="st22" d="M195.4,365.1c0.1-0.6,0.4-1.2,1-1.4l9.1-5.2c1.6-0.8,3.4-0.8,5,0l50.6,29.2c0.6,0.3,0.9,0.8,1,1.4v2.7
				c-0.1,0.6-0.4,1.2-1,1.4l-9.1,5.2c-1.6,0.8-3.4,0.8-5,0l-50.6-29.2c-0.6-0.3-0.9-0.8-1-1.4V365.1z"/>
			<path class="st16" d="M196.5,363.7l9.1-5.2c1.6-0.8,3.4-0.8,5,0l39,22.5v18.1c-0.9,0-1.7-0.2-2.5-0.6l-50.6-29.2
				c-0.6-0.3-0.9-0.8-1-1.4v-2.7C195.5,364.5,195.9,364,196.5,363.7z"/>
			<path class="st23" d="M210.5,358.4l50.6,29.2c0.8,0.3,1.2,1.1,1,1.9c-0.2,0.5-0.5,0.8-1,1l-9.1,5.2c-1.6,0.8-3.4,0.8-5,0
				l-50.6-29.2c-0.8-0.3-1.2-1.1-1-1.9c0.2-0.5,0.5-0.8,1-1l9.1-5.2C207.1,357.6,209,357.6,210.5,358.4z"/>
		</g>
	</g>
</g>
</svg>
