<?xml version="1.0" encoding="utf-8"?>
<!-- Generator: Adobe Illustrator 24.0.2, SVG Export Plug-In . SVG Version: 6.00 Build 0)  -->
<svg version="1.1" xmlns="http://www.w3.org/2000/svg" xmlns:xlink="http://www.w3.org/1999/xlink" x="0px" y="0px"
	 viewBox="0 0 480 517" style="enable-background:new 0 0 480 517;" xml:space="preserve">
<style type="text/css">
	.st0{display:none;fill:#263238;}
	.st1{display:none;fill:#FFFFFF;}
	.st2{display:none;fill:#7E57C2;}
	.st3{display:none;fill:#A8A8A8;}
	.st4{display:none;fill:#3881DF;}
	.st5{display:none;fill:#BCBEBF;}
	.st6{display:none;fill:#FFFFFF;stroke:#263238;stroke-width:1.0325;stroke-linecap:round;stroke-linejoin:round;}
	.st7{display:none;fill:#7E57C2;stroke:#263238;stroke-width:1.0325;stroke-linecap:round;stroke-linejoin:round;}
	.st8{display:none;fill:#263238;stroke:#263238;stroke-width:1.0325;stroke-linecap:round;stroke-linejoin:round;}
	.st9{display:none;fill:#FFFFFF;stroke:#263238;stroke-width:0.7744;stroke-linecap:round;stroke-linejoin:round;}
	.st10{display:none;fill:none;stroke:#263238;stroke-width:0.7744;stroke-linecap:round;stroke-linejoin:round;}
	.st11{display:none;fill:none;stroke:#263238;stroke-width:1.0325;stroke-linecap:round;stroke-linejoin:round;}
	.st12{display:none;fill:none;stroke:#7F7F7F;stroke-width:0.7744;stroke-linecap:round;stroke-linejoin:round;}
	.st13{fill:#263238;}
	.st14{fill:#6744A4;}
	.st15{opacity:0.3;fill:#FFFFFF;enable-background:new    ;}
	.st16{fill:#E0E0E0;}
	.st17{fill:#0074FF;}
	.st18{fill:#61C979;enable-background:new    ;}
	.st19{fill:#37474F;}
	.st20{fill:#E2B3B3;}
	.st21{fill:#A55555;}
</style>
<g id="Capa_1">
	<path class="st0" d="M465.3,140.8h-64.4c-1.7,0-3.1,1.4-3.1,3.1v55.9c0,1.7,1.4,3.1,3.1,3.1h64.4c1.7,0,3.1-1.4,3.1-3.1v-55.9
		C468.4,142.2,467,140.8,465.3,140.8z"/>
	<path class="st0" d="M465.3,203.2h-64.4c-0.9,0-1.8-0.4-2.4-1c-0.6-0.6-1-1.5-1-2.4v-55.9c0-0.9,0.4-1.8,1-2.4c0.6-0.6,1.5-1,2.4-1
		h64.4c0.9,0,1.8,0.4,2.4,1c0.6,0.6,1,1.5,1,2.4v55.9c0,0.9-0.4,1.8-1,2.4C467.1,202.8,466.2,203.2,465.3,203.2z M400.9,141.1
		c-0.7,0-1.4,0.3-1.9,0.8s-0.8,1.2-0.8,1.9v55.9c0,0.7,0.3,1.4,0.8,1.9c0.5,0.5,1.2,0.8,1.9,0.8h64.4c0.7,0,1.4-0.3,1.9-0.8
		c0.5-0.5,0.8-1.2,0.8-1.9v-55.9c0-0.7-0.3-1.4-0.8-1.9c-0.5-0.5-1.2-0.8-1.9-0.8H400.9z"/>
	<path class="st1" d="M463.1,137.4h-64.4c-1.7,0-3.1,1.4-3.1,3.1v55.9c0,1.7,1.4,3.1,3.1,3.1h64.4c1.7,0,3.1-1.4,3.1-3.1v-55.9
		C466.1,138.8,464.8,137.4,463.1,137.4z"/>
	<path class="st0" d="M463.1,199.8h-64.4c-0.9,0-1.8-0.4-2.4-1c-0.6-0.6-1-1.5-1-2.4v-55.9c0-0.9,0.4-1.8,1-2.4s1.5-1,2.4-1h64.4
		c0.9,0,1.8,0.4,2.4,1c0.6,0.6,1,1.5,1,2.4v55.9c0,0.9-0.4,1.8-1,2.4C464.9,199.5,464,199.8,463.1,199.8z M398.7,137.8
		c-0.7,0-1.4,0.3-1.9,0.8s-0.8,1.2-0.8,1.9v55.9c0,0.7,0.3,1.4,0.8,1.9c0.5,0.5,1.2,0.8,1.9,0.8h64.4c0.7,0,1.4-0.3,1.9-0.8
		c0.5-0.5,0.8-1.2,0.8-1.9v-55.9c0-0.7-0.3-1.4-0.8-1.9c-0.5-0.5-1.2-0.8-1.9-0.8H398.7z"/>
	<path class="st2" d="M466.1,145.3v-4.8c0-0.8-0.3-1.6-0.9-2.2c-0.6-0.6-1.4-0.9-2.2-0.9h-64.4c-0.8,0-1.6,0.3-2.2,0.9
		c-0.6,0.6-0.9,1.4-0.9,2.2v4.8L466.1,145.3z"/>
	<path class="st0" d="M466.1,145.6h-70.6c-0.1,0-0.2,0-0.3-0.1c-0.1-0.1-0.1-0.2-0.1-0.3v-4.8c0-0.9,0.4-1.8,1-2.4
		c0.6-0.6,1.5-1,2.4-1h64.4c0.9,0,1.8,0.4,2.4,1c0.6,0.6,1,1.5,1,2.4v4.8c0,0.1,0,0.2-0.1,0.3C466.3,145.6,466.2,145.6,466.1,145.6z
		 M395.9,144.9h69.9v-4.4c0-0.7-0.3-1.4-0.8-1.9c-0.5-0.5-1.2-0.8-1.9-0.8h-64.4c-0.7,0-1.4,0.3-1.9,0.8s-0.8,1.2-0.8,1.9V144.9z"/>
	<path class="st1" d="M447.5,143.4c1,0,1.9-0.8,1.9-1.9c0-1-0.8-1.9-1.9-1.9s-1.9,0.8-1.9,1.9C445.6,142.6,446.5,143.4,447.5,143.4z
		"/>
	<path class="st0" d="M447.5,143.8c-0.4,0-0.9-0.1-1.2-0.4s-0.7-0.6-0.8-1c-0.2-0.4-0.2-0.9-0.1-1.3c0.1-0.4,0.3-0.8,0.6-1.2
		c0.3-0.3,0.7-0.5,1.2-0.6c0.4-0.1,0.9,0,1.3,0.1c0.4,0.2,0.8,0.5,1,0.8c0.2,0.4,0.4,0.8,0.4,1.3c0,0.6-0.2,1.2-0.7,1.6
		C448.7,143.6,448.1,143.8,447.5,143.8z M447.5,140c-0.3,0-0.6,0.1-0.9,0.3c-0.3,0.2-0.5,0.4-0.6,0.7c-0.1,0.3-0.1,0.6-0.1,0.9
		c0.1,0.3,0.2,0.6,0.4,0.8c0.2,0.2,0.5,0.4,0.8,0.4c0.3,0.1,0.6,0,0.9-0.1c0.3-0.1,0.5-0.3,0.7-0.6c0.2-0.3,0.3-0.6,0.3-0.9
		c0-0.4-0.2-0.8-0.5-1.1C448.3,140.2,447.9,140,447.5,140L447.5,140z"/>
	<path class="st1" d="M455.4,141.6c0-0.4-0.1-0.7-0.3-1c-0.2-0.3-0.5-0.6-0.8-0.7c-0.3-0.1-0.7-0.2-1.1-0.1c-0.4,0.1-0.7,0.3-1,0.5
		c-0.3,0.3-0.4,0.6-0.5,1c-0.1,0.4,0,0.7,0.1,1.1c0.1,0.3,0.4,0.6,0.7,0.8s0.7,0.3,1,0.3c0.2,0,0.5,0,0.7-0.1
		c0.2-0.1,0.4-0.2,0.6-0.4c0.2-0.2,0.3-0.4,0.4-0.6C455.4,142.1,455.4,141.8,455.4,141.6z"/>
	<path class="st0" d="M453.5,143.8c-0.4,0-0.9-0.1-1.3-0.4c-0.4-0.2-0.7-0.6-0.8-1c-0.2-0.4-0.2-0.9-0.1-1.3
		c0.1-0.4,0.3-0.8,0.6-1.2s0.7-0.5,1.2-0.6c0.4-0.1,0.9,0,1.3,0.1c0.4,0.2,0.8,0.5,1,0.8c0.2,0.4,0.4,0.8,0.4,1.3
		c0,0.6-0.2,1.2-0.7,1.6C454.7,143.6,454.1,143.8,453.5,143.8z M453.5,140c-0.3,0-0.6,0.1-0.9,0.3c-0.3,0.2-0.5,0.4-0.6,0.7
		c-0.1,0.3-0.1,0.6-0.1,0.9c0.1,0.3,0.2,0.6,0.4,0.8s0.5,0.4,0.8,0.4c0.3,0.1,0.6,0,0.9-0.1c0.3-0.1,0.5-0.3,0.7-0.6
		c0.2-0.3,0.3-0.6,0.3-0.9c0-0.4-0.2-0.8-0.5-1.1C454.3,140.2,453.9,140,453.5,140L453.5,140z"/>
	<path class="st1" d="M459.5,143.4c1,0,1.9-0.8,1.9-1.9c0-1-0.8-1.9-1.9-1.9s-1.9,0.8-1.9,1.9C457.6,142.6,458.5,143.4,459.5,143.4z
		"/>
	<path class="st0" d="M459.5,143.8c-0.4,0-0.9-0.1-1.2-0.4c-0.4-0.2-0.7-0.6-0.8-1c-0.2-0.4-0.2-0.9-0.1-1.3s0.3-0.8,0.6-1.2
		c0.3-0.3,0.7-0.5,1.2-0.6c0.4-0.1,0.9,0,1.3,0.1c0.4,0.2,0.8,0.5,1,0.8c0.2,0.4,0.4,0.8,0.4,1.3c0,0.6-0.2,1.2-0.7,1.6
		C460.7,143.6,460.1,143.8,459.5,143.8z M459.5,140c-0.3,0-0.6,0.1-0.9,0.3c-0.3,0.2-0.5,0.4-0.6,0.7c-0.1,0.3-0.1,0.6-0.1,0.9
		c0.1,0.3,0.2,0.6,0.4,0.8c0.2,0.2,0.5,0.4,0.8,0.4c0.3,0.1,0.6,0,0.9-0.1c0.3-0.1,0.5-0.3,0.7-0.6c0.2-0.3,0.3-0.6,0.3-0.9
		c0-0.4-0.2-0.8-0.5-1.1C460.3,140.2,459.9,140,459.5,140L459.5,140z"/>
	<path class="st0" d="M403.2,172.2v-21c0-0.5,0.2-1,0.6-1.4c0.4-0.4,0.9-0.6,1.4-0.6h52.2c0.5,0,1,0.2,1.4,0.6
		c0.4,0.4,0.6,0.9,0.6,1.4v12.3c0,0.5-0.2,1-0.6,1.4s-0.9,0.6-1.4,0.6h-49.9L403.2,172.2z M405.2,149.9c-0.3,0-0.7,0.1-0.9,0.4
		c-0.2,0.2-0.4,0.6-0.4,0.9v18.6l3.2-5h50.3c0.3,0,0.7-0.1,0.9-0.4s0.4-0.6,0.4-0.9v-12.3c0-0.3-0.1-0.7-0.4-0.9
		c-0.2-0.2-0.6-0.4-0.9-0.4H405.2z"/>
	<path class="st0" d="M459.4,197l-4.3-6.8h-49.9c-0.5,0-1-0.2-1.4-0.6c-0.4-0.4-0.6-0.9-0.6-1.4v-12.3c0-0.5,0.2-1,0.6-1.4
		c0.4-0.4,0.9-0.6,1.4-0.6h52.2c0.5,0,1,0.2,1.4,0.6c0.4,0.4,0.6,0.9,0.6,1.4V197z M405.2,174.7c-0.3,0-0.7,0.1-0.9,0.4
		c-0.2,0.2-0.4,0.6-0.4,0.9v12.3c0,0.3,0.1,0.7,0.4,0.9c0.2,0.2,0.6,0.4,0.9,0.4h50.3l3.2,5v-18.6c0-0.3-0.1-0.7-0.4-0.9
		c-0.2-0.2-0.6-0.4-0.9-0.4H405.2z"/>
	<path class="st2" d="M413.1,161.9c2.6,0,4.7-2.1,4.7-4.7c0-2.6-2.1-4.7-4.7-4.7s-4.7,2.1-4.7,4.7
		C408.4,159.8,410.5,161.9,413.1,161.9z"/>
	<path class="st0" d="M413.1,162.3c-1,0-2-0.3-2.8-0.9c-0.8-0.6-1.5-1.3-1.9-2.3c-0.4-0.9-0.5-1.9-0.3-2.9c0.2-1,0.7-1.9,1.4-2.6
		c0.7-0.7,1.6-1.2,2.6-1.4c1-0.2,2-0.1,2.9,0.3c0.9,0.4,1.7,1,2.3,1.9c0.6,0.8,0.9,1.8,0.9,2.8c0,1.3-0.5,2.6-1.5,3.6
		C415.7,161.8,414.4,162.3,413.1,162.3z M413.1,152.8c-0.9,0-1.7,0.3-2.4,0.7c-0.7,0.5-1.3,1.2-1.6,2c-0.3,0.8-0.4,1.7-0.3,2.5
		c0.2,0.8,0.6,1.6,1.2,2.2c0.6,0.6,1.4,1,2.2,1.2c0.8,0.2,1.7,0.1,2.5-0.2c0.8-0.3,1.5-0.9,2-1.6c0.5-0.7,0.7-1.6,0.7-2.4
		c0-1.2-0.5-2.3-1.3-3.1C415.4,153.3,414.2,152.8,413.1,152.8z"/>
	<path class="st1" d="M413.1,157.8c1.1,0,2-0.9,2-2c0-1.1-0.9-2-2-2c-1.1,0-2,0.9-2,2C411.1,156.9,412,157.8,413.1,157.8z"/>
	<path class="st0" d="M413.1,158.2c-0.5,0-0.9-0.1-1.3-0.4c-0.4-0.3-0.7-0.6-0.9-1c-0.2-0.4-0.2-0.9-0.1-1.3
		c0.1-0.4,0.3-0.9,0.6-1.2c0.3-0.3,0.7-0.5,1.2-0.6c0.4-0.1,0.9,0,1.3,0.1c0.4,0.2,0.8,0.5,1,0.8c0.3,0.4,0.4,0.8,0.4,1.3
		c0,0.3-0.1,0.6-0.2,0.9c-0.1,0.3-0.3,0.5-0.5,0.8c-0.2,0.2-0.5,0.4-0.8,0.5C413.7,158.1,413.4,158.2,413.1,158.2z M413.1,154.2
		c-0.3,0-0.6,0.1-0.9,0.3c-0.3,0.2-0.5,0.4-0.6,0.7c-0.1,0.3-0.2,0.6-0.1,0.9c0.1,0.3,0.2,0.6,0.4,0.8c0.2,0.2,0.5,0.4,0.8,0.4
		c0.3,0.1,0.6,0,0.9-0.1c0.3-0.1,0.5-0.3,0.7-0.6c0.2-0.3,0.3-0.6,0.3-0.9c0-0.4-0.2-0.8-0.5-1.1
		C413.9,154.4,413.5,154.2,413.1,154.2z"/>
	<path class="st1" d="M413.1,161.9c1,0,2-0.3,2.8-0.9c0-0.7-0.3-1.4-0.9-1.9c-0.5-0.5-1.2-0.8-1.9-0.8c-0.7,0-1.4,0.3-1.9,0.8
		c-0.5,0.5-0.8,1.2-0.9,1.9C411.1,161.6,412.1,161.9,413.1,161.9z"/>
	<path class="st0" d="M413.1,162.3c-1.1,0-2.1-0.3-3-1c0,0-0.1-0.1-0.1-0.1c0-0.1,0-0.1,0-0.2c0-0.8,0.4-1.6,1-2.1
		c0.6-0.6,1.4-0.9,2.2-0.9s1.6,0.3,2.2,0.9c0.6,0.6,0.9,1.3,1,2.1c0,0.1,0,0.1,0,0.2c0,0.1-0.1,0.1-0.1,0.1
		C415.2,161.9,414.1,162.3,413.1,162.3z M410.7,160.9c0.7,0.5,1.5,0.7,2.4,0.7s1.7-0.2,2.4-0.7c0-0.6-0.3-1.2-0.8-1.6
		c-0.4-0.4-1-0.6-1.6-0.6c-0.6,0-1.2,0.2-1.6,0.6C411,159.7,410.7,160.3,410.7,160.9z"/>
	<path class="st0" d="M437.2,152.9h-16v0.7h16V152.9z"/>
	<path class="st0" d="M454.6,157.5h-33.1v0.7h33.1V157.5z"/>
	<path class="st0" d="M454.6,160.4h-33.1v0.7h33.1V160.4z"/>
	<path class="st0" d="M413.1,187.2c2.6,0,4.7-2.1,4.7-4.7c0-2.6-2.1-4.7-4.7-4.7s-4.7,2.1-4.7,4.7
		C408.4,185.1,410.5,187.2,413.1,187.2z"/>
	<path class="st0" d="M413.1,187.6c-1,0-2-0.3-2.8-0.9c-0.8-0.6-1.5-1.3-1.9-2.3c-0.4-0.9-0.5-1.9-0.3-2.9c0.2-1,0.7-1.9,1.4-2.6
		c0.7-0.7,1.6-1.2,2.6-1.4c1-0.2,2-0.1,2.9,0.3c0.9,0.4,1.7,1,2.3,1.9c0.6,0.8,0.9,1.8,0.9,2.8c0,1.3-0.5,2.6-1.5,3.6
		C415.7,187,414.4,187.6,413.1,187.6z M413.1,178.1c-0.9,0-1.7,0.3-2.4,0.7c-0.7,0.5-1.3,1.2-1.6,2c-0.3,0.8-0.4,1.7-0.3,2.5
		c0.2,0.8,0.6,1.6,1.2,2.2c0.6,0.6,1.4,1,2.2,1.2c0.8,0.2,1.7,0.1,2.5-0.3c0.8-0.3,1.5-0.9,2-1.6c0.5-0.7,0.7-1.6,0.7-2.4
		c0-1.2-0.5-2.3-1.3-3.1C415.4,178.6,414.2,178.1,413.1,178.1z"/>
	<path class="st1" d="M413.1,183.1c1.1,0,2-0.9,2-2c0-1.1-0.9-2-2-2c-1.1,0-2,0.9-2,2C411.1,182.2,412,183.1,413.1,183.1z"/>
	<path class="st0" d="M413.1,183.5c-0.5,0-0.9-0.1-1.3-0.4c-0.4-0.3-0.7-0.6-0.9-1s-0.2-0.9-0.1-1.3c0.1-0.5,0.3-0.9,0.6-1.2
		c0.3-0.3,0.7-0.5,1.2-0.6c0.5-0.1,0.9,0,1.3,0.1c0.4,0.2,0.8,0.5,1,0.9c0.3,0.4,0.4,0.8,0.4,1.3c0,0.6-0.2,1.2-0.7,1.6
		C414.3,183.2,413.7,183.5,413.1,183.5z M413.1,179.5c-0.3,0-0.6,0.1-0.9,0.3s-0.5,0.4-0.6,0.7c-0.1,0.3-0.2,0.6-0.1,0.9
		c0.1,0.3,0.2,0.6,0.4,0.8s0.5,0.4,0.8,0.4c0.3,0.1,0.6,0,0.9-0.1c0.3-0.1,0.5-0.3,0.7-0.6c0.2-0.3,0.3-0.6,0.3-0.9
		c0-0.4-0.2-0.8-0.5-1.1C413.9,179.7,413.5,179.5,413.1,179.5z"/>
	<path class="st1" d="M413.1,187.2c1,0,2-0.3,2.8-0.9c0-0.7-0.3-1.4-0.9-1.9c-0.5-0.5-1.2-0.8-1.9-0.8c-0.7,0-1.4,0.3-1.9,0.8
		c-0.5,0.5-0.8,1.2-0.9,1.9C411.1,186.9,412.1,187.2,413.1,187.2z"/>
	<path class="st0" d="M413.1,187.6c-1.1,0-2.1-0.3-3-1c0,0-0.1-0.1-0.1-0.1s0-0.1,0-0.2c0-0.8,0.4-1.6,1-2.1
		c0.6-0.6,1.4-0.9,2.2-0.9s1.6,0.3,2.2,0.9c0.6,0.6,0.9,1.3,1,2.1c0,0.1,0,0.1,0,0.2c0,0.1-0.1,0.1-0.1,0.1
		C415.2,187.2,414.1,187.6,413.1,187.6z M410.7,186.2c0.7,0.5,1.5,0.7,2.4,0.7c0.9,0,1.7-0.2,2.4-0.7c0-0.6-0.3-1.2-0.8-1.6
		c-0.4-0.4-1-0.6-1.6-0.6c-0.6,0-1.2,0.2-1.6,0.6C411,185,410.7,185.6,410.7,186.2z"/>
	<path class="st0" d="M437.2,178.2h-16v0.7h16V178.2z"/>
	<path class="st0" d="M454.6,182.8h-33.1v0.7h33.1V182.8z"/>
	<path class="st0" d="M454.6,185.7h-33.1v0.7h33.1V185.7z"/>
	<path class="st0" d="M449.7,60.5c11.9,0.2,21.8,4.7,29.6,13.7c0.3,0.3,0.4,0.6,0.6,0.9c0.1,0.3,0.2,0.7,0.1,1.1
		c0,0.4-0.1,0.7-0.3,1.1c-0.2,0.3-0.4,0.6-0.7,0.9c-0.3,0.2-0.6,0.4-0.9,0.5c-0.3,0.1-0.7,0.1-1.1,0.1c-0.4,0-0.7-0.1-1-0.3
		c-0.3-0.2-0.6-0.4-0.8-0.7c-2.8-3.3-6.2-6-10-8c-5.9-3.1-12.5-4.4-19.1-3.7c-6.6,0.7-12.8,3.4-17.9,7.7c-1.4,1.3-2.7,2.6-4,4
		c-0.5,0.6-1.2,0.9-1.9,1c-0.7,0.1-1.5-0.2-2.1-0.6c-0.3-0.2-0.5-0.5-0.7-0.9c-0.2-0.3-0.3-0.7-0.3-1.1c0-0.4,0-0.7,0.2-1.1
		c0.1-0.3,0.3-0.7,0.6-0.9c6.3-7.4,15.1-12.2,24.7-13.4c0.8-0.1,1.6-0.2,2.3-0.2C447.9,60.5,448.8,60.5,449.7,60.5z"/>
	<path class="st0" d="M450.7,71.5c7.5,0.2,14.6,3.4,20.1,9.8c0.3,0.3,0.5,0.6,0.6,0.9c0.1,0.3,0.2,0.7,0.2,1.1
		c0,0.4-0.1,0.7-0.3,1.1c-0.2,0.3-0.4,0.6-0.7,0.9c-0.3,0.2-0.6,0.4-0.9,0.5c-0.3,0.1-0.7,0.2-1.1,0.1c-0.4,0-0.7-0.1-1-0.3
		s-0.6-0.4-0.8-0.7c-2.8-3.4-6.5-5.8-10.7-7c-8.7-2.4-16.3-0.2-22.6,6.3c-0.2,0.2-0.5,0.5-0.7,0.7c-0.2,0.3-0.5,0.5-0.8,0.7
		c-0.3,0.2-0.7,0.3-1.1,0.3c-0.4,0-0.7,0-1.1-0.1c-0.4-0.1-0.7-0.3-1-0.5s-0.5-0.5-0.7-0.9c-0.2-0.3-0.3-0.7-0.3-1.1
		c0-0.4,0-0.7,0.2-1.1s0.3-0.7,0.6-0.9c2.4-2.9,5.5-5.3,8.9-6.9C441.3,72.5,445.4,71.5,450.7,71.5z"/>
	<path class="st0" d="M463,90.3c0,0.6-0.2,1.1-0.5,1.6c-0.3,0.5-0.8,0.8-1.3,1c-0.5,0.2-1.1,0.2-1.6,0.1c-0.5-0.1-1-0.4-1.4-0.9
		c-1.1-1.3-2.6-2.4-4.2-3.1c-2.2-0.9-4.6-1.2-6.9-0.6c-2.3,0.6-4.4,1.8-5.9,3.7c-0.3,0.4-0.8,0.7-1.3,0.9c-0.5,0.2-1.1,0.1-1.6,0
		c-0.4-0.1-0.8-0.4-1.1-0.7c-0.3-0.3-0.6-0.7-0.7-1.2c-0.1-0.4-0.1-0.9,0-1.3c0.1-0.4,0.3-0.9,0.6-1.2c1.5-1.9,3.5-3.4,5.7-4.4
		c2.2-1,4.6-1.6,7-1.6c2.4,0,4.8,0.5,7,1.6c2.2,1,4.1,2.5,5.7,4.4c0.3,0.5,0.6,1.1,0.8,1.7L463,90.3z"/>
	<path class="st0" d="M449.7,104.7c-1.1,0-2.2-0.3-3.1-0.9c-0.9-0.6-1.6-1.5-2-2.5c-0.4-1-0.5-2.1-0.3-3.2c0.2-1.1,0.7-2.1,1.5-2.8
		c0.8-0.8,1.8-1.3,2.8-1.5c1.1-0.2,2.2-0.1,3.2,0.3c1,0.4,1.9,1.1,2.5,2c0.6,0.9,0.9,2,0.9,3.1c0,1.5-0.6,2.9-1.6,3.9
		C452.5,104.2,451.1,104.7,449.7,104.7z"/>
	<path class="st0" d="M372.8,378.1c-9.5,0-18.8-2.8-26.7-8.1c-7.9-5.3-14.1-12.8-17.7-21.6c-3.6-8.8-4.6-18.5-2.7-27.8
		c1.9-9.3,6.4-17.9,13.2-24.6c6.7-6.7,15.3-11.3,24.6-13.2c9.3-1.9,19-0.9,27.8,2.7c8.8,3.6,16.3,9.8,21.6,17.7
		c5.3,7.9,8.1,17.2,8.1,26.7c0,12.7-5.1,25-14.1,34C397.8,373,385.6,378,372.8,378.1z M372.8,283.3c-9.2,0-18.3,2.7-25.9,7.9
		c-7.7,5.1-13.7,12.4-17.2,20.9c-3.5,8.5-4.5,17.9-2.7,27c1.8,9.1,6.2,17.4,12.8,23.9s14.8,11,23.9,12.8c9.1,1.8,18.4,0.9,27-2.7
		c8.5-3.5,15.8-9.5,20.9-17.2c5.1-7.7,7.9-16.7,7.9-25.9c0-12.4-4.9-24.2-13.7-33C397.1,288.2,385.2,283.2,372.8,283.3L372.8,283.3z
		"/>
	<path class="st0" d="M372.8,378.1c-13.3,0-24.2-21.6-24.2-48.1s10.8-48.1,24.2-48.1c13.3,0,24.2,21.6,24.2,48.1
		C397,356.5,386.1,378.1,372.8,378.1z M372.8,283.3c-12.5,0-22.7,20.9-22.7,46.7c0,25.7,10.2,46.7,22.7,46.7
		c12.5,0,22.7-20.9,22.7-46.7C395.6,304.2,385.4,283.2,372.8,283.3L372.8,283.3z"/>
	<path class="st0" d="M372.8,310.1c-12.3,0-24.2-4.7-33.1-13.2c-0.1-0.1-0.2-0.3-0.2-0.5c0-0.2,0.1-0.4,0.2-0.5
		c0.1-0.1,0.1-0.1,0.2-0.2c0.1,0,0.2-0.1,0.3-0.1c0.1,0,0.2,0,0.3,0.1c0.1,0,0.2,0.1,0.2,0.2c8.7,8.3,20.4,12.9,32.4,12.8
		c12.1-0.1,23.6-4.8,32.3-13.2c0.1-0.1,0.3-0.2,0.5-0.2c0.2,0,0.3,0.1,0.5,0.2c0.1,0.1,0.2,0.3,0.2,0.5c0,0.2-0.1,0.4-0.2,0.5
		C397.4,305.3,385.4,310.1,372.8,310.1z"/>
	<path class="st0" d="M339.6,364.7c-0.1,0-0.2,0-0.3-0.1c-0.1,0-0.2-0.1-0.2-0.2c-0.1-0.1-0.1-0.1-0.2-0.2c0-0.1-0.1-0.2-0.1-0.3
		c0-0.1,0-0.2,0.1-0.3c0-0.1,0.1-0.2,0.2-0.2c8.9-8.8,20.9-13.7,33.4-13.8c12.5-0.1,24.5,4.7,33.6,13.3c0.1,0.1,0.2,0.3,0.2,0.5
		c0,0.2-0.1,0.4-0.2,0.5c-0.1,0.1-0.3,0.2-0.5,0.2c-0.2,0-0.4-0.1-0.5-0.2c-8.8-8.4-20.5-13-32.6-13c-12.1,0.1-23.8,4.9-32.4,13.4
		C340,364.7,339.8,364.7,339.6,364.7z"/>
	<path class="st0" d="M420.2,330.6h-94.8c-0.2,0-0.4-0.1-0.5-0.2c-0.1-0.1-0.2-0.3-0.2-0.5c0-0.2,0.1-0.4,0.2-0.5
		c0.1-0.1,0.3-0.2,0.5-0.2h94.8c0.2,0,0.4,0.1,0.5,0.2c0.1,0.1,0.2,0.3,0.2,0.5c0,0.2-0.1,0.4-0.2,0.5
		C420.6,330.6,420.4,330.6,420.2,330.6z"/>
	<path class="st0" d="M372.8,378.1c-0.2,0-0.4-0.1-0.5-0.2c-0.1-0.1-0.2-0.3-0.2-0.5v-94.8c0-0.2,0.1-0.4,0.2-0.5
		c0.1-0.1,0.3-0.2,0.5-0.2c0.2,0,0.4,0.1,0.5,0.2c0.1,0.1,0.2,0.3,0.2,0.5v94.8c0,0.2-0.1,0.4-0.2,0.5
		C373.2,378,373,378.1,372.8,378.1z"/>
	<path class="st0" d="M374.6,162.6c-1.1,0-2.2,0.4-3.1,1l-12.3-9.2c0.4-1.2,0.5-2.4,0-3.6c-0.4-1.2-1.3-2.1-2.3-2.7
		c-1.1-0.6-2.3-0.8-3.6-0.5c-1.2,0.3-2.3,0.9-3,1.9c-0.7,1-1.1,2.2-1,3.5c0.1,1.2,0.6,2.4,1.5,3.3c0.9,0.9,2,1.4,3.3,1.5
		c1.2,0.1,2.5-0.3,3.4-1l12.2,9.2c-0.5,1.2-0.5,2.5,0,3.6l-12.2,9.2c-0.9-0.7-2-1-3.1-1c-1,0-2,0.3-2.8,0.9
		c-0.8,0.6-1.5,1.4-1.9,2.3c-0.4,0.9-0.5,2-0.3,3c0.2,1,0.7,1.9,1.4,2.6c0.7,0.7,1.6,1.2,2.6,1.4c1,0.2,2,0.1,3-0.3
		c0.9-0.4,1.7-1,2.3-1.9c0.6-0.8,0.9-1.8,0.9-2.8c0-0.6-0.1-1.2-0.3-1.8l12.3-9.2c0.6,0.5,1.4,0.8,2.2,0.9c0.8,0.1,1.6,0.1,2.4-0.2
		c0.8-0.2,1.5-0.7,2.1-1.2c0.6-0.6,1-1.3,1.3-2c0.3-0.8,0.3-1.6,0.2-2.4c-0.1-0.8-0.4-1.6-0.9-2.2c-0.5-0.7-1.1-1.2-1.8-1.6
		C376.2,162.7,375.4,162.5,374.6,162.6L374.6,162.6z"/>
	<path class="st0" d="M311.3,56.3c-3.4,0-6.7,1.4-9.1,3.8c-2.4,2.4-3.8,5.7-3.8,9.1c0,7.1,12.9,21.7,12.9,21.7s12.9-14.5,12.9-21.7
		c0-1.7-0.3-3.4-1-4.9c-0.6-1.6-1.6-3-2.8-4.2c-1.2-1.2-2.6-2.1-4.2-2.8C314.7,56.6,313,56.3,311.3,56.3z M311.3,75
		c-1.2,0-2.3-0.3-3.3-1c-1-0.6-1.7-1.6-2.2-2.6c-0.4-1.1-0.6-2.2-0.3-3.4c0.2-1.1,0.8-2.2,1.6-3c0.8-0.8,1.9-1.4,3-1.6
		c1.1-0.2,2.3-0.1,3.4,0.3c1.1,0.4,2,1.2,2.6,2.2c0.6,1,1,2.1,1,3.3c0,1.6-0.6,3-1.7,4.1C314.4,74.4,312.9,75,311.3,75z"/>
	<path class="st0" d="M311.3,91.2c-0.1,0-0.1,0-0.1,0c0,0-0.1-0.1-0.1-0.1c-0.5-0.6-13-14.7-13-21.9c0.1-3.5,1.5-6.7,4-9.2
		c2.5-2.4,5.8-3.8,9.3-3.8c3.5,0,6.8,1.4,9.3,3.8c2.5,2.4,3.9,5.7,4,9.2c0,7.2-12.4,21.3-13,21.9c0,0-0.1,0.1-0.1,0.1
		C311.4,91.1,311.4,91.2,311.3,91.2z M311.3,56.6c-3.3,0-6.5,1.3-8.9,3.7c-2.3,2.3-3.7,5.5-3.7,8.8c0,6.4,10.7,19,12.5,21.1
		c1.8-2.1,12.5-14.8,12.5-21.1c0-3.3-1.3-6.5-3.7-8.9C317.8,57.9,314.6,56.6,311.3,56.6z M311.3,75.4c-1.2,0-2.4-0.4-3.5-1
		c-1-0.7-1.8-1.7-2.3-2.8c-0.5-1.1-0.6-2.4-0.4-3.6c0.2-1.2,0.8-2.3,1.7-3.2c0.9-0.9,2-1.5,3.2-1.7c1.2-0.2,2.5-0.1,3.6,0.4
		c1.1,0.5,2.1,1.3,2.8,2.3c0.7,1,1,2.2,1,3.5c0,1.6-0.7,3.2-1.8,4.4C314.6,74.7,313,75.4,311.3,75.4z M311.3,63.6
		c-1.1,0-2.2,0.3-3.1,0.9c-0.9,0.6-1.6,1.5-2,2.5c-0.4,1-0.5,2.1-0.3,3.2c0.2,1.1,0.7,2.1,1.5,2.8s1.8,1.3,2.8,1.5s2.2,0.1,3.2-0.3
		c1-0.4,1.9-1.1,2.5-2c0.6-0.9,0.9-2,0.9-3.1c0-1.5-0.6-2.9-1.6-3.9C314.2,64.2,312.8,63.6,311.3,63.6z"/>
	<path class="st0" d="M444.2,229.7c-1.1,0-2.1,0.2-3.1,0.6s-1.9,1-2.6,1.8c-0.8,0.8-1.4,1.7-1.8,2.6c-0.4,1-0.6,2-0.6,3.1
		c0,4.5,8.1,13.7,8.1,13.7s8.1-9.2,8.1-13.7c0-1.1-0.2-2.1-0.6-3.1c-0.4-1-1-1.9-1.8-2.6c-0.8-0.8-1.6-1.4-2.6-1.8
		S445.3,229.7,444.2,229.7z M444.2,241.5c-0.7,0-1.4-0.2-2.1-0.6c-0.6-0.4-1.1-1-1.4-1.7c-0.3-0.7-0.4-1.4-0.2-2.1
		c0.1-0.7,0.5-1.4,1-1.9s1.2-0.9,1.9-1c0.7-0.1,1.5-0.1,2.1,0.2c0.7,0.3,1.2,0.8,1.7,1.4c0.4,0.6,0.6,1.3,0.6,2.1
		c0,1-0.4,1.9-1.1,2.6C446.1,241.1,445.2,241.5,444.2,241.5z"/>
	<path class="st0" d="M444.2,251.8c-0.1,0-0.1,0-0.1,0c0,0-0.1-0.1-0.1-0.1c-0.3-0.4-8.2-9.3-8.2-13.9c0-2.3,0.9-4.4,2.5-6
		s3.7-2.5,6-2.5s4.4,0.9,6,2.5c1.6,1.6,2.5,3.7,2.5,6c0,4.6-7.9,13.5-8.2,13.9c0,0-0.1,0.1-0.1,0.1
		C444.3,251.8,444.3,251.8,444.2,251.8z M444.2,230c-2.1,0-4,0.8-5.5,2.3c-1.5,1.5-2.3,3.4-2.3,5.5c0,3.9,6.4,11.5,7.8,13.1
		c1.4-1.6,7.8-9.3,7.8-13.1c0-2.1-0.8-4-2.3-5.5C448.3,230.9,446.3,230.1,444.2,230L444.2,230z M444.2,241.9c-0.8,0-1.6-0.2-2.2-0.7
		c-0.7-0.4-1.2-1.1-1.5-1.8c-0.3-0.7-0.4-1.6-0.2-2.3c0.2-0.8,0.5-1.5,1.1-2.1c0.6-0.6,1.3-0.9,2.1-1.1c0.8-0.2,1.6-0.1,2.3,0.2
		c0.7,0.3,1.4,0.8,1.8,1.5c0.4,0.7,0.7,1.5,0.7,2.3c0,1.1-0.4,2.1-1.2,2.8C446.3,241.4,445.3,241.9,444.2,241.9z M444.2,234.5
		c-0.7,0-1.3,0.2-1.9,0.6c-0.5,0.4-1,0.9-1.2,1.5c-0.3,0.6-0.3,1.3-0.2,1.9c0.1,0.6,0.4,1.2,0.9,1.7c0.5,0.5,1.1,0.8,1.7,0.9
		s1.3,0.1,1.9-0.2c0.6-0.3,1.1-0.7,1.5-1.2c0.4-0.5,0.6-1.2,0.6-1.8c0-0.4-0.1-0.9-0.3-1.3c-0.2-0.4-0.4-0.8-0.7-1.1
		s-0.7-0.6-1.1-0.7C445.1,234.6,444.7,234.5,444.2,234.5z"/>
	<path class="st0" d="M397.8,129.1h-50c-1.7,0-3.3-0.8-4.4-2c-1.2-1.2-1.8-2.8-1.8-4.5V9.3c0-1.7,0.6-3.3,1.8-4.5
		c1.2-1.2,2.7-1.9,4.4-2h50c1.7,0,3.3,0.8,4.4,2c1.2,1.2,1.8,2.8,1.8,4.5v113.3c0,1.7-0.6,3.3-1.8,4.5
		C401.1,128.3,399.5,129,397.8,129.1z M347.8,3.6c-1.5,0-2.9,0.7-3.9,1.8c-1,1.1-1.6,2.5-1.6,4v113.3c0,1.5,0.5,2.9,1.6,4
		c1,1.1,2.4,1.7,3.9,1.8h50c1.5,0,2.9-0.7,3.9-1.8c1-1.1,1.6-2.5,1.6-4V9.3c0-1.5-0.5-2.9-1.6-4c-1-1.1-2.4-1.7-3.9-1.8H347.8z"/>
	<path class="st3" d="M403.6,11.8V9.3c0-1.6-0.6-3.1-1.6-4.3c-1.1-1.1-2.6-1.8-4.2-1.9h-50c-1.6,0-3.1,0.7-4.2,1.9
		c-1.1,1.1-1.7,2.7-1.6,4.3v2.5H403.6z"/>
	<path class="st0" d="M403.6,12.2H342c-0.1,0-0.2,0-0.3-0.1c-0.1-0.1-0.1-0.2-0.1-0.3V9.3c0-1.7,0.6-3.3,1.8-4.5
		c1.2-1.2,2.8-1.9,4.4-2h50c1.7,0,3.3,0.8,4.4,2c1.2,1.2,1.8,2.8,1.8,4.5v2.5c0,0,0,0.1,0,0.1c0,0,0,0.1-0.1,0.1
		c0,0-0.1,0.1-0.1,0.1C403.7,12.2,403.7,12.2,403.6,12.2z M342.3,11.5h60.9V9.4c0-1.5-0.5-2.9-1.6-4s-2.4-1.7-3.9-1.8h-50
		c-1.5,0-2.9,0.7-3.9,1.8c-1,1.1-1.6,2.5-1.6,4L342.3,11.5z"/>
	<path class="st0" d="M405.3,7.7v3.9h1.1v11h-1.1V25h1.1v11h-1.1v2.5h1.1v11h-1.1v74.8c0,1.8-0.6,3.6-1.9,5c-1.3,1.3-3,2.1-4.9,2.2
		h-51.4c-1.8,0-3.6-0.8-4.9-2.2c-1.3-1.3-2-3.1-1.9-5v-93h-0.8v-11h0.8V7.7c0-1.8,0.6-3.6,1.9-5c1.3-1.3,3-2.1,4.9-2.2h51.4
		c1.8,0,3.6,0.8,4.9,2.2C404.6,4,405.3,5.8,405.3,7.7z M387.5,3.2l-2,3.1c-0.3,0.5-0.7,0.8-1.1,1.1c-0.5,0.3-1,0.4-1.5,0.4h-20
		c-0.5,0-1.1-0.1-1.5-0.4c-0.5-0.3-0.9-0.6-1.2-1.1l-2-3.1h-9.3c-1.8,0-3.6,0.8-4.9,2.2c-1.3,1.3-2,3.1-1.9,5v111.2
		c0,1.8,0.6,3.6,1.9,5c1.3,1.3,3,2.1,4.9,2.2h48.1c1.8,0,3.6-0.8,4.9-2.2c1.3-1.3,2-3.1,1.9-5V10.3c0-1.8-0.6-3.6-1.9-5
		c-1.3-1.3-3-2.1-4.9-2.2H387.5z"/>
	<path class="st0" d="M398.5,131.8h-51.4c-1.9,0-3.8-0.9-5.1-2.3c-1.3-1.4-2.1-3.3-2-5.2V31.7h-0.8V19.9h0.8V7.7
		c0-1.9,0.7-3.8,2-5.2c1.3-1.4,3.2-2.2,5.1-2.3h51.4c1.9,0,3.8,0.9,5.1,2.3c1.3,1.4,2.1,3.3,2,5.2v3.5h1.1v11.6h-1.1v1.8h1.1v11.7
		h-1.1v1.8h1.1v11.7h-1.1v74.5c0,1-0.1,1.9-0.5,2.8c-0.3,0.9-0.9,1.7-1.5,2.4c-0.7,0.7-1.5,1.3-2.3,1.7
		C400.4,131.5,399.4,131.8,398.5,131.8z M339.9,30.9h0.8v93.4c0,1.8,0.6,3.5,1.8,4.7c1.2,1.3,2.9,2,4.6,2.1h51.4
		c1.8,0,3.4-0.8,4.6-2.1c1.2-1.3,1.9-3,1.8-4.7V49.1h1.1V38.8h-1.1v-3.2h1.1V25.3h-1.1v-3.2h1.1V11.9h-1.1V7.6
		c0-1.8-0.6-3.4-1.8-4.7c-1.2-1.3-2.9-2-4.6-2.1h-51.4c-1.8,0-3.4,0.8-4.6,2.1c-1.2,1.3-1.9,3-1.8,4.7v13h-0.8V30.9z M396.8,129.1
		h-48.1c-1.9,0-3.8-0.9-5.1-2.3c-1.3-1.4-2.1-3.3-2-5.2V10.3c0-1.9,0.7-3.8,2-5.2c1.3-1.4,3.2-2.2,5.1-2.3h9.5l2.1,3.3
		c0.3,0.4,0.6,0.7,1,1c0.4,0.2,0.9,0.4,1.4,0.4h20c0.5,0,0.9-0.1,1.4-0.4c0.4-0.2,0.8-0.6,1-1l2.1-3.3h9.5c1.9,0,3.8,0.9,5.1,2.3
		c1.3,1.4,2.1,3.3,2,5.2v111.2c0,1.9-0.7,3.8-2,5.2C400.6,128.2,398.8,129,396.8,129.1z M348.7,3.6c-1.8,0-3.4,0.8-4.6,2.1
		c-1.2,1.3-1.9,3-1.8,4.7v111.2c0,1.8,0.6,3.5,1.8,4.7c1.2,1.3,2.9,2,4.6,2.1h48.1c1.8,0,3.4-0.8,4.6-2.1c1.2-1.3,1.9-3,1.8-4.7
		V10.3c0-1.8-0.6-3.4-1.8-4.7c-1.2-1.3-2.9-2-4.6-2.1h-9.1l-1.9,3c-0.3,0.5-0.8,0.9-1.3,1.2c-0.5,0.3-1.1,0.4-1.7,0.4h-20
		c-0.6,0-1.2-0.2-1.7-0.4c-0.5-0.3-1-0.7-1.3-1.2l-1.9-3H348.7z"/>
	<path class="st3" d="M342,120.8v1.7c0,1.6,0.6,3.1,1.6,4.3c1.1,1.1,2.6,1.8,4.2,1.9h50c1.6,0,3.1-0.7,4.2-1.9
		c1.1-1.1,1.7-2.7,1.6-4.3v-1.8L342,120.8z"/>
	<path class="st0" d="M397.8,129.1h-50c-1.7,0-3.3-0.8-4.4-2c-1.2-1.2-1.8-2.8-1.8-4.5v-1.8c0-0.1,0-0.2,0.1-0.3
		c0.1-0.1,0.2-0.1,0.3-0.1h61.6c0.1,0,0.2,0,0.3,0.1c0.1,0.1,0.1,0.2,0.1,0.3v1.7c0,1.7-0.6,3.3-1.8,4.5
		C401.1,128.3,399.5,129,397.8,129.1z M342.3,121.2v1.4c0,1.5,0.5,2.9,1.6,4c1,1.1,2.4,1.7,3.9,1.8h50c1.5,0,2.9-0.7,3.9-1.8
		s1.6-2.5,1.6-4v-1.4H342.3z"/>
	<path class="st0" d="M325.7,153.6c-2.2-4.5-5.8-8.2-10.2-10.7c-4.4-2.4-9.4-3.5-14.4-3c-5,0.5-9.7,2.5-13.6,5.7
		c-3.8,3.2-6.6,7.6-7.9,12.4c-0.4,0-0.8-0.1-1.2-0.1c-3.9-0.1-7.6,1.3-10.5,3.9c-2.8,2.6-4.6,6.2-4.8,10.1c-0.3,3.9,1,7.7,3.4,10.6
		c2.5,3,6,4.9,9.8,5.3v0.1h46.3c9.8,0,17.7-7.8,17.7-17.3c0-4.1-1.5-8.1-4.2-11.2C333.5,156.3,329.7,154.2,325.7,153.6z"/>
	<path class="st0" d="M322.7,188.3h-46.3c-0.1,0-0.1,0-0.2,0c-0.1,0-0.1-0.1-0.1-0.1c-3.9-0.5-7.5-2.5-10-5.5
		c-2.5-3-3.7-6.9-3.4-10.9c0.3-3.9,2.1-7.6,5-10.2c2.9-2.6,6.7-4.1,10.7-4c0.3,0,0.6,0,0.9,0c1.5-5.3,4.6-9.9,9-13.2
		c4.4-3.3,9.7-5,15.1-5c4.6,0,9.2,1.3,13.2,3.7c4,2.4,7.2,5.9,9.3,10.1c4.1,0.7,7.9,2.8,10.6,6c2.7,3.2,4.2,7.2,4.2,11.4
		C340.7,180.4,332.6,188.3,322.7,188.3z M276.7,187.6h46c9.6,0,17.4-7.6,17.4-17c0-4.1-1.5-8-4.1-11c-2.6-3.1-6.3-5.1-10.3-5.7
		c-0.1,0-0.1,0-0.2-0.1c0,0-0.1-0.1-0.1-0.1c-2-4.1-5.2-7.5-9-9.9c-3.9-2.4-8.3-3.6-12.9-3.6c-5.3,0-10.6,1.7-14.8,4.9
		c-4.3,3.2-7.3,7.8-8.7,13c0,0.1-0.1,0.2-0.1,0.2c-0.1,0-0.2,0.1-0.2,0.1c-0.4,0-0.8-0.1-1.2-0.1c-3.8-0.1-7.4,1.3-10.2,3.9
		c-2.8,2.5-4.5,6.1-4.7,9.8c-0.3,3.8,1,7.5,3.4,10.4c2.4,2.9,5.8,4.7,9.6,5.2c0.1,0,0.1,0,0.1,0
		C276.6,187.6,276.7,187.6,276.7,187.6L276.7,187.6z"/>
	<path class="st1" d="M323.5,151c-2.2-4.5-5.8-8.2-10.2-10.6c-4.4-2.4-9.4-3.5-14.4-3c-5,0.5-9.7,2.5-13.6,5.7
		c-3.8,3.2-6.6,7.5-7.9,12.4c-0.4,0-0.8-0.1-1.2-0.1c-3.9-0.1-7.6,1.3-10.5,3.9c-2.9,2.6-4.6,6.2-4.9,10.1c-0.3,3.9,1,7.7,3.5,10.6
		c2.5,3,6,4.9,9.9,5.3v0.1h46.3c9.8,0,17.7-7.8,17.7-17.3c0-4.1-1.5-8.1-4.2-11.2C331.3,153.7,327.6,151.6,323.5,151z"/>
	<path class="st0" d="M320.5,185.8h-46.3c-0.1,0-0.1,0-0.2,0c-0.1,0-0.1-0.1-0.1-0.1c-3.9-0.5-7.5-2.5-10-5.5
		c-2.5-3-3.7-6.9-3.4-10.9c0.3-3.9,2.1-7.6,5-10.2c2.9-2.6,6.7-4.1,10.7-4c0.3,0,0.6,0,0.9,0c1.5-5.3,4.6-9.9,9-13.2
		c4.4-3.3,9.7-5,15.1-5c4.6,0,9.2,1.3,13.2,3.7c4,2.4,7.2,5.9,9.3,10c4.1,0.7,7.9,2.8,10.6,6c2.7,3.2,4.2,7.2,4.2,11.4
		C338.6,177.9,330.5,185.8,320.5,185.8z M274.5,185.1h46c9.6,0,17.4-7.6,17.4-17c0-4.1-1.5-8-4.1-11c-2.6-3.1-6.3-5.1-10.3-5.7
		c-0.1,0-0.1,0-0.2-0.1c0,0-0.1-0.1-0.1-0.1c-2-4.1-5.2-7.5-9-9.9c-3.9-2.4-8.3-3.7-12.9-3.6c-5.4,0-10.6,1.7-14.8,4.9
		s-7.3,7.8-8.7,13c0,0.1-0.1,0.2-0.1,0.2c-0.1,0-0.1,0.1-0.2,0.1c-0.4,0-0.8-0.1-1.2-0.1c-3.7,0-7.3,1.4-10.1,3.9
		c-2.7,2.5-4.4,6-4.6,9.7c-0.2,3.7,0.9,7.4,3.3,10.3c2.4,2.9,5.7,4.7,9.4,5.2c0,0,0.1,0,0.1,0C274.5,185,274.5,185,274.5,185.1
		L274.5,185.1z"/>
	<path class="st0" d="M316.3,178.2l-16.1-27.8l-16.1,27.8h4.8V196h22.6v-17.8H316.3z"/>
	<path class="st0" d="M311.6,196.3H289c-0.1,0-0.2,0-0.3-0.1c-0.1-0.1-0.1-0.2-0.1-0.3v-17.4h-4.4c-0.1,0-0.1,0-0.2,0
		c-0.1,0-0.1-0.1-0.1-0.1c0-0.1,0-0.1,0-0.2c0-0.1,0-0.1,0-0.2l16.1-27.8c0-0.1,0.1-0.1,0.1-0.1c0.1,0,0.1,0,0.2,0
		c0.1,0,0.1,0,0.2,0c0.1,0,0.1,0.1,0.1,0.1l16.1,27.8c0,0.1,0,0.1,0,0.2c0,0.1,0,0.1,0,0.2c0,0.1-0.1,0.1-0.1,0.1
		c-0.1,0-0.1,0-0.2,0h-4.4V196c0,0.1,0,0.2-0.1,0.2C311.8,196.3,311.7,196.3,311.6,196.3z M289.3,195.6h21.9v-17.4
		c0-0.1,0-0.2,0.1-0.3c0.1-0.1,0.2-0.1,0.3-0.1h4.1l-15.4-26.7l-15.4,26.7h4.1c0.1,0,0.2,0,0.3,0.1c0.1,0.1,0.1,0.2,0.1,0.3
		L289.3,195.6z"/>
	<path class="st4" d="M314.9,176.8l-16.1-27.8l-16.1,27.8h4.8v17.8h22.6v-17.8H314.9z"/>
	<path class="st0" d="M310.1,194.9h-22.6c-0.1,0-0.2,0-0.2-0.1c-0.1-0.1-0.1-0.2-0.1-0.2v-17.4h-4.4c-0.1,0-0.1,0-0.2,0
		c-0.1,0-0.1-0.1-0.1-0.1c0-0.1,0-0.1,0-0.2s0-0.1,0-0.2l16.1-27.8c0-0.1,0.1-0.1,0.1-0.1c0.1,0,0.1,0,0.2,0s0.1,0,0.2,0
		c0.1,0,0.1,0.1,0.1,0.1l16.1,27.8c0,0.1,0,0.1,0,0.2s0,0.1,0,0.2c0,0.1-0.1,0.1-0.1,0.1c-0.1,0-0.1,0-0.2,0h-4.4v17.4
		c0,0,0,0.1,0,0.1c0,0,0,0.1-0.1,0.1c0,0-0.1,0.1-0.1,0.1C310.2,194.8,310.2,194.9,310.1,194.9z M287.9,194.1h21.9v-17.4
		c0-0.1,0-0.2,0.1-0.3c0.1-0.1,0.2-0.1,0.3-0.1h4.1l-15.4-26.7l-15.4,26.7h4.1c0.1,0,0.2,0,0.3,0.1c0.1,0.1,0.1,0.2,0.1,0.3
		L287.9,194.1z"/>
	<path class="st0" d="M280.8,31.3h-79.3c-0.1,0-0.1,0-0.2-0.1c-0.1,0-0.1-0.1-0.1-0.2c0-0.1,0-0.1,0-0.2c0-0.1,0-0.1,0.1-0.2
		c0.5-0.5,1.7-1.8,1.8-2.5c0.3-1.1,3.6-1.4,5.1-1.5c0.8-0.2,1.5-0.7,2-1.2c0.6-0.5,1-1.2,1.3-2c0.8-2.2,4.5-2.6,7.2-2.8
		c0.7-0.1,1.4-0.1,2.1-0.3c0.7-0.2,1.4-0.5,2-1c0,0,0.1-0.1,0.1-0.1c0,0,0.1,0,0.1,0c0,0,0.1,0,0.1,0c0,0,0.1,0.1,0.1,0.1
		c0,0,0.1,0.1,0.1,0.1c0,0,0,0.1,0,0.1c0,0,0,0.1-0.1,0.1c0,0-0.1,0.1-0.1,0.1c-0.7,0.5-1.5,0.9-2.3,1.1c-0.7,0.1-1.4,0.2-2.2,0.3
		c-2.5,0.2-5.9,0.6-6.6,2.4c-0.3,0.9-0.9,1.6-1.5,2.3c-0.7,0.6-1.5,1.1-2.4,1.4h-0.1c-2.2,0.1-4.4,0.6-4.5,0.9
		c-0.3,0.8-0.8,1.6-1.5,2.2h78.3c0.4-0.8,1.9-4.1-1.7-7.4c-1.7-1.6-4.3-1.2-6.5-0.9c-2.5,0.4-4.8,0.7-5.3-1.8c0-0.1,0-0.2,0.1-0.3
		c0.1-0.1,0.1-0.1,0.2-0.2c0.1,0,0.2,0,0.3,0.1c0.1,0.1,0.1,0.1,0.2,0.2c0.4,1.7,1.9,1.6,4.5,1.2c2.4-0.3,5.1-0.7,7.1,1
		c4.5,4,1.8,8.4,1.8,8.5c0,0-0.1,0.1-0.1,0.1C280.9,31.3,280.8,31.3,280.8,31.3z"/>
	<path class="st0" d="M225.1,17.7c-0.1,0-0.1,0-0.2-0.1c0,0-0.1-0.1-0.1-0.1c0,0,0-0.1-0.1-0.1c0,0,0-0.1,0-0.1c0,0,0-0.1,0.1-0.1
		c0.7-1.1,1.3-2.2,1.8-3.4c0.3-0.7,0.7-1.4,1.3-2c0.6-0.6,1.3-1,2-1.2c2.4-0.8,5.7-0.2,9.3,1.8c2.2,1.3,3.7,1.7,4.8,1.3
		c1.3-0.4,1.9-2,2.7-4c1-2.3,2.9-4,5.2-4.9c1.3-0.5,2.8-0.8,4.2-0.8c1.4,0,2.9,0.4,4.2,1c3.9,1.6,5.8,6,6.7,9.3c0,0.1,0,0.2,0,0.3
		c0,0.1-0.1,0.1-0.2,0.2c-0.1,0-0.2,0-0.3,0c-0.1,0-0.1-0.1-0.2-0.2c-0.9-3.2-2.7-7.3-6.4-8.9c-1.2-0.6-2.6-0.9-3.9-0.9
		c-1.4,0-2.7,0.2-3.9,0.7c-2.1,0.9-3.8,2.5-4.7,4.6c-0.8,2.1-1.5,3.9-3.1,4.4c-1.3,0.5-3,0-5.4-1.3c-3.4-1.9-6.5-2.6-8.7-1.8
		c-0.7,0.2-1.3,0.6-1.8,1.1c-0.5,0.5-0.9,1.1-1.1,1.7c-0.5,1.2-1.1,2.4-1.8,3.5c0,0.1-0.1,0.1-0.1,0.1
		C225.2,17.7,225.2,17.8,225.1,17.7z"/>
	<path class="st0" d="M79.7,286.1H52.1c-0.1,0-0.2,0-0.2-0.1c-0.1-0.1-0.1-0.2-0.1-0.3c0-0.1,0-0.2,0.1-0.3c0.1-0.1,0.2-0.1,0.2-0.1
		h27.4c0.3-0.6,1-2.4-1.1-4.2c-1-0.9-2.5-0.7-3.8-0.5c-1.2,0.2-2.3,0.3-2.9-0.3c-0.5-0.5-0.6-1.2-0.4-2.4c-0.1-0.5-0.8-6-4.2-7.4
		c-0.9-0.4-1.9-0.6-2.9-0.5c-1,0.1-2,0.4-2.8,1c-0.1,0.1-0.2,0.1-0.3,0.1c-0.1,0-0.2-0.1-0.2-0.1c-0.1-0.1-0.1-0.2-0.1-0.3
		s0.1-0.2,0.1-0.2c0.9-0.7,2-1,3.1-1.2c1.1-0.1,2.3,0.1,3.3,0.6c4,1.7,4.6,7.8,4.6,8.1v0.1c-0.1,0.9-0.1,1.6,0.2,1.9
		c0.4,0.4,1.3,0.3,2.3,0.1c1.4-0.2,3.1-0.5,4.4,0.7c2.8,2.5,1.1,5.3,1.1,5.3c0,0.1-0.1,0.1-0.1,0.1
		C79.8,286.1,79.7,286.1,79.7,286.1z"/>
	<path class="st0" d="M47.8,286.1H31.7c-0.1,0-0.1,0-0.2-0.1c-0.1,0-0.1-0.1-0.1-0.2c0-0.1,0-0.1,0-0.2c0-0.1,0-0.1,0.1-0.2
		c0.4-0.4,0.8-0.9,1.1-1.4c0.2-0.7,1.8-0.9,3.2-1c0.4-0.1,0.8-0.4,1.2-0.7s0.6-0.7,0.8-1.1c0.5-1.4,2.8-1.7,4.4-1.8
		c0.5,0,0.9-0.1,1.2-0.2c1.3-0.3,2.5-1.7,3.4-3.9c0.2-0.5,0.5-0.9,0.8-1.3c0.4-0.4,0.8-0.6,1.3-0.8c1.5-0.5,3.5-0.1,5.8,1.1
		c1.3,0.7,2.2,1,2.8,0.8c0.6-0.2,1.1-1.2,1.5-2.3c0,0,0-0.1,0.1-0.1c0,0,0.1-0.1,0.1-0.1c0,0,0.1,0,0.1,0c0,0,0.1,0,0.1,0
		c0.1,0,0.2,0.1,0.2,0.2c0,0.1,0,0.2,0,0.3c-0.5,1.3-1,2.4-2,2.8c-0.8,0.3-1.9,0-3.4-0.8c-2-1.1-3.9-1.5-5.2-1.1
		c-0.4,0.1-0.7,0.3-1,0.6c-0.3,0.3-0.5,0.6-0.7,1c-1.3,3.1-2.8,4.1-3.9,4.3c-0.4,0.1-0.9,0.1-1.3,0.2c-1.5,0.1-3.5,0.3-3.8,1.4
		c-0.2,0.5-0.5,1-1,1.4c-0.4,0.4-0.9,0.7-1.5,0.9h-0.1c-0.9,0-1.8,0.2-2.6,0.5c-0.2,0.4-0.4,0.8-0.7,1.1h15.3c0.1,0,0.2,0,0.3,0.1
		c0.1,0.1,0.1,0.2,0.1,0.3c0,0,0,0.1,0,0.1c0,0,0,0.1-0.1,0.1c0,0-0.1,0.1-0.1,0.1C47.9,286.1,47.8,286.1,47.8,286.1z"/>
	<path class="st0" d="M306.4,331h-13c-0.1,0-0.2,0-0.3-0.1c-0.1-0.1-0.1-0.2-0.1-0.3s0-0.2,0.1-0.3c0.1-0.1,0.2-0.1,0.3-0.1h12.8
		c0.3-0.6,1-2.4-1.1-4.2c-1-0.9-2.5-0.7-3.8-0.5c-1.2,0.2-2.3,0.3-2.9-0.3c-0.5-0.5-0.6-1.2-0.4-2.4c-0.1-0.5-0.8-6-4.2-7.4
		c-0.7-0.3-1.5-0.5-2.3-0.5c-0.8,0-1.6,0.1-2.3,0.4c-1.3,0.5-2.3,1.5-2.8,2.7c-0.5,1.3-1,2.4-2,2.8c-0.8,0.3-1.9,0-3.4-0.8
		c-2-1.1-3.9-1.5-5.2-1.1c-0.4,0.1-0.7,0.3-1,0.6c-0.3,0.3-0.5,0.6-0.7,1c-1.3,3.1-2.8,4.1-3.9,4.3c-0.4,0.1-0.9,0.1-1.3,0.2
		c-1.5,0.1-3.5,0.3-3.9,1.4c-0.2,0.5-0.5,1-0.9,1.4c-0.4,0.4-0.9,0.7-1.5,0.9h-0.1c-0.9,0-1.8,0.2-2.6,0.5c-0.2,0.4-0.4,0.8-0.7,1.1
		H289c0.1,0,0.2,0,0.3,0.1c0.1,0.1,0.1,0.2,0.1,0.3c0,0.1,0,0.2-0.1,0.3c-0.1,0.1-0.2,0.1-0.3,0.1h-30.7c-0.1,0-0.1,0-0.2-0.1
		c-0.1,0-0.1-0.1-0.1-0.2c0-0.1,0-0.1,0-0.2c0-0.1,0-0.1,0.1-0.2c0.4-0.4,0.8-0.9,1.1-1.4c0.2-0.7,1.8-0.9,3.2-1
		c0.4-0.1,0.8-0.4,1.2-0.7c0.3-0.3,0.6-0.7,0.8-1.1c0.5-1.4,2.8-1.7,4.4-1.8c0.5,0,0.9-0.1,1.2-0.2c1.3-0.3,2.5-1.7,3.4-3.9
		c0.2-0.5,0.5-0.9,0.8-1.3c0.4-0.4,0.8-0.6,1.3-0.8c1.5-0.5,3.5-0.1,5.8,1.1c1.3,0.7,2.2,1,2.8,0.8c0.7-0.3,1.1-1.2,1.5-2.3
		c0.6-1.4,1.7-2.5,3.1-3.1c0.8-0.3,1.7-0.5,2.6-0.5c0.9,0,1.8,0.2,2.6,0.6c4,1.7,4.6,7.8,4.6,8.1c0,0,0,0.1,0,0.1
		c-0.1,0.9-0.1,1.6,0.2,1.9c0.4,0.4,1.3,0.3,2.3,0.1c1.4-0.2,3.1-0.5,4.4,0.7c2.8,2.5,1.1,5.3,1.1,5.3c0,0-0.1,0.1-0.1,0.1
		C306.5,331,306.4,331,306.4,331z"/>
	<path class="st0" d="M141.3,35.7h-22c-0.1,0-0.2,0-0.3-0.1c-0.1-0.1-0.1-0.2-0.1-0.3c0-0.1,0-0.2,0.1-0.3c0.1-0.1,0.2-0.1,0.3-0.1
		h21.8c0.4-0.8,2-4.2-1.8-7.6c-1.8-1.6-4.4-1.2-6.7-0.9c-2,0.3-3.7,0.5-4.7-0.5c-0.7-0.7-0.9-2-0.7-3.9c-0.1-0.7-1.2-10.3-7.2-12.8
		c-1.3-0.6-2.6-0.9-4-0.9s-2.8,0.2-4,0.8c-2.2,0.9-3.9,2.6-4.9,4.7c-0.8,2.1-1.6,3.9-3.2,4.5c-1.3,0.5-3.1,0-5.5-1.4
		c-3.5-2-6.7-2.6-8.9-1.8c-0.7,0.2-1.3,0.6-1.8,1.1c-0.5,0.5-0.9,1.1-1.2,1.8c-1.7,4.1-4,6.6-6.5,7.2c-0.6,0.1-1.3,0.2-2.2,0.3
		c-2.6,0.3-6,0.6-6.7,2.5c-0.3,0.9-0.9,1.7-1.6,2.3s-1.5,1.1-2.4,1.4h-0.1c-2.3,0.1-4.5,0.6-4.6,1c-0.3,0.9-0.9,1.6-1.5,2.3h51
		c0.1,0,0.2,0,0.2,0.1c0.1,0.1,0.1,0.2,0.1,0.2c0,0.1,0,0.2-0.1,0.3c-0.1,0.1-0.2,0.1-0.3,0.1H60.1c-0.1,0-0.1,0-0.2-0.1
		c-0.1,0-0.1-0.1-0.1-0.2c0-0.1,0-0.1,0-0.2c0-0.1,0-0.1,0.1-0.2c0.5-0.5,1.7-1.8,1.9-2.6c0.3-1.1,3.7-1.4,5.2-1.5
		c0.8-0.3,1.5-0.7,2.1-1.2c0.6-0.6,1.1-1.2,1.4-2c0.8-2.3,4.6-2.7,7.3-2.9c0.7-0.1,1.4-0.1,2.1-0.3c2.3-0.5,4.4-2.9,6-6.7
		c0.3-0.8,0.7-1.5,1.3-2c0.6-0.6,1.3-1,2.1-1.3c2.5-0.9,5.9-0.2,9.5,1.9c2.3,1.3,3.8,1.7,4.9,1.3c1.3-0.5,2-2.1,2.8-4.1
		c1-2.3,2.9-4.1,5.3-5.1c1.4-0.6,2.8-0.8,4.3-0.8c1.5,0,2.9,0.4,4.3,1c6.6,2.8,7.6,13,7.7,13.4v0.1c-0.3,1.7-0.1,2.8,0.4,3.3
		c0.8,0.8,2.3,0.5,4.1,0.3c2.4-0.4,5.2-0.8,7.2,1c4.6,4.1,1.8,8.6,1.8,8.6c0,0.1-0.1,0.1-0.1,0.1C141.4,35.7,141.3,35.7,141.3,35.7z
		"/>
	<path class="st5" d="M376.8,471.6H98.3C38.8,477.4,0,486.7,0,497.2c0,17.4,106.4,19.6,237.6,19.6s237.6-2.2,237.6-19.6
		C475.1,486.7,436.3,477.4,376.8,471.6z"/>
	<path class="st6" d="M147.3,367.3l2-19.3l-32,2.4v13.3c-1.4,8.8-2.2,17.7-2.5,26.7c-0.2,11.3,4.7,60.3,5.7,70
		c-5.2,4.2-20.1,17.1-19.6,24.1c0.6,8.4,41.8,2.7,43.2-2c1.2-4.1-3.6-18.7-5-22.6C140.8,448.1,149.3,389.9,147.3,367.3z"/>
	<path class="st7" d="M134,465.2c-1-6.1-13.5-4.7-13.5-4.7c-5.2,4.2-20.1,17.1-19.6,24.1c0.6,8.4,41.8,2.7,43.2-2
		c1.2-4.1-3.6-18.7-5-22.6C137.3,460.8,134.9,471.2,134,465.2z"/>
	<path class="st8" d="M144,482.6c0.3-2.2,0.2-4.4-0.4-6.5c0.9,4.3-23.5,9.1-34.5,8.2c-4.3-0.4-6.5-1.7-7.6-3.2
		c-0.5,1.1-0.7,2.2-0.7,3.4C101.4,493,142.6,487.3,144,482.6z"/>
	<path class="st9" d="M140.2,471.1c0.3,1.7-0.2,3.2-1,3.4c-0.8,0.1-1.7-1.2-1.9-2.9c-0.3-1.7,0.2-3.3,1-3.4
		C139.1,468,140,469.3,140.2,471.1z"/>
	<path class="st6" d="M109.1,484.4c6.3,0.3,12.7-0.2,18.9-1.5c-1.2-4.2-4.3-11.3-11.7-11.5c-2.9-0.1-5.8,0.2-8.6,1.1
		c-2.5,2.6-4.6,5.6-6.2,8.8C102.6,482.7,104.8,484,109.1,484.4z"/>
	<path class="st10" d="M121.6,362.6c0,0,1.3,4.9,11.9,7.6"/>
	<path class="st6" d="M173.5,367.3l-2-19.3l32,2.4v13.3c1.4,8.8,2.2,17.7,2.5,26.7c0.2,11.3-4.7,60.3-5.7,70
		c5.2,4.2,20.1,17.1,19.6,24.1c-0.6,8.4-41.8,2.7-43.2-2c-1.2-4.1,3.6-18.7,5-22.6C180,448.1,171.5,389.9,173.5,367.3z"/>
	<path class="st7" d="M186.8,465.2c1-6.1,13.5-4.7,13.5-4.7c5.2,4.2,20.1,17.1,19.6,24.1c-0.6,8.4-41.8,2.7-43.2-2
		c-1.2-4.1,3.6-18.7,5-22.6C183.5,460.8,185.8,471.2,186.8,465.2z"/>
	<path class="st8" d="M176.8,482.6c-0.3-2.2-0.2-4.4,0.4-6.5c-1,4.3,23.5,9.1,34.5,8.2c4.3-0.4,6.5-1.7,7.6-3.2
		c0.5,1.1,0.7,2.2,0.7,3.4C219.4,493,178.2,487.3,176.8,482.6z"/>
	<path class="st9" d="M180.5,471.1c-0.3,1.7,0.2,3.2,1,3.4c0.8,0.1,1.7-1.2,1.9-2.9c0.3-1.7-0.2-3.3-1-3.4
		C181.7,468,180.8,469.3,180.5,471.1z"/>
	<path class="st6" d="M211.7,484.4c-6.3,0.3-12.7-0.2-18.9-1.5c1.2-4.2,4.3-11.3,11.7-11.5c2.9-0.1,5.8,0.2,8.6,1.1
		c2.5,2.6,4.6,5.6,6.2,8.8C218.1,482.7,216,484,211.7,484.4z"/>
	<path class="st10" d="M200,362.6c0,0-1.3,4.9-11.9,7.6"/>
	<path class="st6" d="M108.2,152.4c-7.1-9.7-15.3-18.4-24.4-26.2c0,0-7.7-12.9-31.7-34.7c0,0-0.3-27.9-5.1-28.3
		c-4.3-0.4,0.2,10.5-3,12.9c-2.8,2-14.6-15.6-17.2-13c-2.6,2.7,6,11.2,5.1,13c-0.9,1.7-11.6-7.7-13.3-6.4c-1.7,1.3,0,5.6,0,5.6
		s-4.3-2-3.2,1.4c1.1,3.4,8.9,5.7,8.9,8c0,2.3-8.4-2.6-9.1,0c-0.7,2.6,9.6,5.7,9.6,5.7s7.7,7.4,12.9,9.1c0,0,21.2,33.2,28.9,41.4
		c7.8,8.3,38.3,36,38.3,36l5.7-20.3C110.7,156.6,108.9,153.4,108.2,152.4z"/>
	<path class="st11" d="M42.6,79.2c0,0-2.6,1.1-3.2,6.9"/>
	<path class="st11" d="M21,75.4c0,0,4.1,4.7,8.1,6"/>
	<path class="st6" d="M197.8,155.9c7.6-5.2,16-9,24.9-11.2c0.8-3.7,2.1-7.4,3.9-10.7c3.1-6.2,8.6-14.2,11.1-21c0,0-15-7.7-14.1-13.3
		c0.9-5.6,9.1,4,11.6,2.8c7.2-3.3,9.9-0.7,11.6,1.7c1.2,1.7,2.9,5.5,4.3,7c0.9,1,3.4,2.6,4,3.8c0.3,0.7,0.4,1.4,0.5,2.1
		c0.1,1.1,0,2.2-0.3,3.2c-2.2,6.1-11.1,29.7-20.1,40c-10.3,11.8-30,16.7-30,16.7L197.8,155.9z"/>
	<path class="st7" d="M115.1,286.1c-3.5-29.5-4.2-59.2-2.1-88.8l-10.4-10.7c-1.3-1.3-2.2-3-2.5-4.8c-0.3-1.8-0.1-3.7,0.6-5.4
		c2.9-7.2,4.7-14.8,5.5-22.5c0.1-0.7,0.3-1.3,0.6-1.9s0.8-1.1,1.3-1.5c0.5-0.4,1.2-0.7,1.8-0.8s1.3-0.1,2,0c4.4,1.1,10.5,3,13.2,6.3
		c0,0,8.1-2.1,11.9,3.9c0,0,14.1,6,32.6,0c0,0,4.7-6.9,11.1-3c5.4-1.9,11-3.4,16.6-4.7c1.5-0.4,3-0.1,4.3,0.7c1.3,0.8,2.2,2,2.6,3.5
		c1.6,6.5,4.1,12.8,7.5,18.6c0.4,0.7,0.7,1.4,0.8,2.2c0.1,0.8,0.1,1.5-0.1,2.3c-0.2,0.8-0.5,1.5-1,2.1c-0.5,0.6-1.1,1.1-1.7,1.5
		c-5.1,2.8-9.7,6.3-13.8,10.4c0,0,5.5,58.7,5.5,89.6L115.1,286.1z"/>
	<path class="st8" d="M125,282.2l11.5-0.3c0,0-8.6-72.9,0.4-121.8c-3.9-6-11.9-3.9-11.9-3.9C120.4,198.1,120.4,240.3,125,282.2z"/>
	<path class="st8" d="M169.5,160.1c7.6,39.5,11.4,79.7,11.1,119.9h12c0,0,0.9-53.9-12-122.9C174.3,153.2,169.5,160.1,169.5,160.1z"
		/>
	<path class="st8" d="M203.2,280c4,24.7,5.4,49.7,4.3,74.7c0,0-12.7,7.6-39.9,0c0,0-5.1-30.9-8.5-31.3c-3.5-0.4-5.1,31.3-5.1,31.3
		s-14.1,5-40.8,0c0,0-2.7-21.8-0.6-72.2L203.2,280z"/>
	<path class="st0" d="M137,293.9c0,1.1-0.3,2.2-0.9,3.1c-0.6,0.9-1.5,1.6-2.5,2.1c-1,0.4-2.1,0.5-3.2,0.3c-1.1-0.2-2.1-0.7-2.8-1.5
		c-0.8-0.8-1.3-1.8-1.5-2.8c-0.2-1.1-0.1-2.2,0.3-3.2s1.1-1.9,2-2.5c0.9-0.6,2-0.9,3.1-0.9c0.7,0,1.5,0.1,2.1,0.4
		c0.7,0.3,1.3,0.7,1.8,1.2c0.5,0.5,0.9,1.1,1.2,1.8C136.8,292.4,137,293.2,137,293.9z"/>
	<path class="st0" d="M192.3,293.9c0,1.1-0.3,2.2-0.9,3.1c-0.6,0.9-1.5,1.6-2.5,2c-1,0.4-2.1,0.5-3.2,0.3c-1.1-0.2-2.1-0.7-2.8-1.5
		c-0.8-0.8-1.3-1.8-1.5-2.8c-0.2-1.1-0.1-2.2,0.3-3.2c0.4-1,1.1-1.9,2-2.5c0.9-0.6,2-0.9,3.1-0.9c1.5,0,2.9,0.6,3.9,1.6
		S192.3,292.4,192.3,293.9z"/>
	<path class="st6" d="M139.3,161l-0.9-9.1c-7.9-5.5-13.8-13.5-16.5-22.7c-4.1-14.9-3.9-30.4,13.2-37.3c17-6.9,35.6-11.4,44.7,9.5
		c9.2,20.9,7.1,55.8-14.2,58.5c0.2,0.6,0.2,1.3,0.1,1.9c-0.1,0.6-0.4,1.2-0.7,1.8c-0.4,0.5-0.8,1-1.4,1.3c-0.5,0.3-1.2,0.5-1.8,0.6
		c-6.2,0.9-12.5,0.8-18.7-0.2c-1-0.2-1.9-0.7-2.6-1.4C139.9,162.9,139.4,162,139.3,161z"/>
	<path class="st11" d="M142.3,154.7c0,0,6.8,4.3,18.6,4.5"/>
	<path class="st11" d="M171,120.6c0,2.9,4.3,5.5,3.8,8.4c-0.3,1.7-2.9,4.2-3.8,5.6c-0.4,0.6,0,3,0,3"/>
	<path class="st0" d="M163.1,118.5c0.5,1.7,0.2,3.2-0.6,3.4s-1.7-1-2.2-2.7c-0.4-1.7-0.2-3.2,0.6-3.4
		C161.7,115.6,162.7,116.8,163.1,118.5z"/>
	<path class="st0" d="M179.3,115.6c0.4,1.7,0.2,3.2-0.6,3.5c-0.8,0.2-1.8-1-2.2-2.7c-0.4-1.7-0.2-3.2,0.6-3.4
		C177.9,112.6,178.9,113.9,179.3,115.6z"/>
	<path class="st11" d="M154.9,139.5c2,1.7,4.4,2.8,7,3.3c2.6,0.5,5.2,0.3,7.7-0.6"/>
	<path class="st11" d="M153.5,116.2c0,0,2.2-4.8,6.9-4.6"/>
	<path class="st11" d="M178.8,110.9c0,0-1.5-2.9-6.1-1.5"/>
	<path class="st8" d="M135.5,89.3c0,0-6-18,3.7-19.4C148.9,68.4,137.2,76,135.5,89.3z"/>
	<path class="st8" d="M124.6,127.6c0,0,15.2-11,12.8-23.5c0,0,2.7,9,26.3,2.3c23.5-6.7,24.8,1.5,24.8,1.5s-4.7-53-52.7-21.2
		c0,0-27.6,6.7-25.6,23.3C112.2,126.6,124.6,127.6,124.6,127.6z"/>
	<path class="st1" d="M131.6,125.2c0,0-13.7-6.4-12.3,6.3c1.4,12.9,13.9,8.7,13.9,8.7"/>
	<path class="st11" d="M131.6,125.2c0,0-13.7-6.4-12.3,6.3c1.4,12.9,13.9,8.7,13.9,8.7"/>
	<path class="st12" d="M118.4,115.8c0.3,1.6,0.8,3.3,1.3,4.9"/>
	<path class="st12" d="M131.6,93.5c0,0-13.5,3.2-13.7,17.1"/>
	<path class="st12" d="M180.1,94.2c0.8,1.3,1.5,2.5,2.1,3.9"/>
	<path class="st12" d="M138.3,91.7c0,0,24.7-17.7,39.4-0.7"/>
	<path class="st12" d="M128.4,105.2c-2,4.3-2.8,9-2.2,13.7"/>
	<path class="st12" d="M133.6,98.1c-0.9,0.8-1.8,1.8-2.6,2.8"/>
	<path class="st12" d="M167.5,100.2c11.3-1.5,3-8.5-5.2-9.1"/>
	<path class="st12" d="M141.1,96.2c0,0,8.4,4.6,21.9,4.3"/>
</g>
<g id="Capa_2">
	<g id="freepik--Space--inject-2">
		<path class="st13" d="M253.8,128.8c6.8-0.2,12.2-5.8,12-12.6c-0.2-6.8-5.8-12.2-12.6-12c-6.8,0.2-12.2,5.8-12,12.6c0,0,0,0,0,0
			C241.4,123.6,247,129,253.8,128.8C253.8,128.8,253.8,128.8,253.8,128.8z"/>
		<path class="st13" d="M284.3,136.1c4.5-0.1,8-3.8,7.9-8.3c-0.1-4.5-3.8-8-8.3-7.9c-4.5,0.1-8,3.8-7.9,8.3
			C276.1,132.7,279.8,136.2,284.3,136.1C284.3,136.1,284.3,136.1,284.3,136.1z"/>
		<path class="st13" d="M323.7,493.1c35.7-13.7,63.6-39.3,75.6-77.7c2.1-6.8,3.7-13.7,4.7-20.8c11.1-74.9-48.4-84.2-81.6-95.4
			s-67.4-33.5-76.6-116.1c-9.1-82.6-60.6-112.8-112.4-107c-109.7,12.4-151.6,144-112,268.5C63.4,476.4,223.9,531.5,323.7,493.1z"/>
		<circle class="st14" cx="110.1" cy="422.6" r="63.2"/>
		<circle class="st15" cx="110.1" cy="422.6" r="63.2"/>
		<path class="st14" d="M30.5,430.8c-1-8.7,6.2-17.6,18.8-25.1c-0.6,2.1-1,4.3-1.4,6.5c-6.2,4.7-9.4,9.8-8.9,14.8
			c0.5,4.5,4.1,8.3,9.9,11.3c13.3,6.9,38.6,9.8,66.8,6.5c23.9-2.8,44.7-9.4,57.4-17.3c8.9-5.5,13.9-11.7,13.1-17.7
			c-0.8-6.5-8-11.7-19.4-15.1c-0.4-0.8-0.8-1.7-1.3-2.5c-0.5-0.8-1-1.7-1.5-2.6c17.8,4.2,29.7,11.9,30.8,22
			c1.2,10-8.1,19.9-23.9,27.9c-14,7.2-33,12.7-54.4,15.2c-24.6,2.9-47.3,1-63.1-4.3C40,446.1,31.4,439.3,30.5,430.8z"/>
		<path class="st14" d="M140.5,384.9c0.8,1.4,2.5,1.9,3.9,1.1c1.4-0.8,1.9-2.5,1.1-3.9s-2.5-1.9-3.9-1.1
			C140.2,381.7,139.7,383.5,140.5,384.9z"/>
		<path class="st14" d="M120.1,382.8c0.8,1.4,2.5,1.9,3.9,1.1c1.4-0.8,1.9-2.5,1.1-3.9c-0.8-1.4-2.5-1.9-3.9-1.1
			C119.9,379.6,119.4,381.4,120.1,382.8z"/>
		<path class="st14" d="M80.2,467.8c0.8,1.4,2.5,1.9,3.9,1.1c1.4-0.8,1.9-2.5,1.1-3.9c-0.8-1.4-2.5-1.9-3.9-1.1
			C79.9,464.7,79.4,466.4,80.2,467.8C80.2,467.8,80.2,467.8,80.2,467.8z"/>
		<path class="st14" d="M136,396c1,1.9,3.4,2.6,5.3,1.5s2.6-3.4,1.5-5.3c-1-1.9-3.4-2.6-5.3-1.5C135.7,391.8,135,394.1,136,396
			C136,396,136,396,136,396z"/>
		<path class="st14" d="M91.9,473.2c1,1.9,3.4,2.6,5.3,1.5c1.9-1,2.6-3.4,1.5-5.3c-1-1.9-3.4-2.6-5.3-1.5
			C91.5,468.9,90.8,471.3,91.9,473.2C91.9,473.2,91.9,473.2,91.9,473.2z"/>
		<path class="st16" d="M142.3,78.6c-13.5-19.9-12.3-46.3,2.9-64.9c-28.6,9.1-44.4,39.6-35.3,68.2c9.1,28.6,39.6,44.4,68.2,35.3
			c10-3.2,18.9-9.2,25.6-17.4C180.8,107.1,155.8,98.5,142.3,78.6z"/>
		<path class="st16" d="M195.2,224l3.5,1.6c0.5,0.2,0.9,0.7,1,1.3l0.7,3.8c0.2,1,1.1,1.6,2,1.4c0.4-0.1,0.7-0.3,1-0.5l2.6-2.8
			c0.4-0.4,0.9-0.6,1.5-0.5l3.8,0.6c1,0.1,1.9-0.5,2-1.5c0.1-0.4,0-0.8-0.2-1.1l-1.9-3.3c-0.3-0.5-0.3-1.1,0-1.6l1.7-3.4
			c0.4-0.9,0.1-1.9-0.8-2.4c-0.3-0.2-0.7-0.2-1.1-0.1l-3.7,0.7c-0.6,0.1-1.2,0-1.6-0.5l-2.7-2.7c-0.7-0.7-1.8-0.7-2.5,0
			c-0.3,0.3-0.5,0.7-0.5,1.1l-0.5,3.8c-0.1,0.6-0.4,1.1-0.9,1.4L195,221c-0.8,0.5-1,1.6-0.5,2.4C194.7,223.7,194.9,223.9,195.2,224z
			"/>
		<path class="st16" d="M337,365.2l3.4,1.6c0.5,0.2,0.9,0.7,1,1.3l0.6,3.8c0.2,1,1.1,1.6,2.1,1.4c0.4-0.1,0.7-0.3,1-0.5l2.6-2.8
			c0.4-0.4,0.9-0.6,1.5-0.5l3.8,0.6c1,0.1,1.9-0.6,2-1.5c0-0.4,0-0.8-0.2-1.1l-1.9-3.3c-0.3-0.5-0.3-1.1,0-1.6l1.7-3.4
			c0.4-0.9,0.1-1.9-0.8-2.4c-0.3-0.2-0.7-0.2-1.1-0.1l-3.7,0.8c-0.6,0.1-1.2-0.1-1.6-0.5l-2.7-2.7c-0.7-0.7-1.8-0.7-2.5,0
			c-0.3,0.3-0.5,0.7-0.5,1.1l-0.2,3.7c-0.1,0.6-0.4,1.1-0.9,1.3l-3.4,1.8c-0.8,0.5-1.1,1.6-0.7,2.4C336.5,364.8,336.7,365,337,365.2
			z"/>
		<path class="st16" d="M194.9,170.2l1.7,0.8c0.3,0.1,0.5,0.4,0.5,0.7l0.3,1.9c0.1,0.5,0.5,0.8,1,0.7c0.2,0,0.4-0.1,0.5-0.3l1.4-1.4
			c0.2-0.2,0.5-0.3,0.8-0.3l1.9,0.3c0.5,0.1,0.9-0.3,1-0.8c0-0.2,0-0.4-0.1-0.6l-0.9-1.7c-0.1-0.3-0.2-0.6,0-0.8l0.8-1.7
			c0.2-0.4,0-1-0.4-1.2c-0.2-0.1-0.4-0.1-0.6-0.1l-1.9,0.4c-0.3,0.1-0.6,0-0.8-0.2l-1.4-1.4c-0.4-0.3-0.9-0.3-1.3,0
			c-0.1,0.1-0.2,0.3-0.2,0.5L197,167c0,0.3-0.2,0.5-0.5,0.7l-1.7,0.9c-0.4,0.2-0.6,0.8-0.3,1.2C194.6,170,194.7,170.1,194.9,170.2z"
			/>
		<path class="st16" d="M140.9,211.6l1.7,0.8c0.3,0.1,0.5,0.4,0.5,0.7l0.3,1.9c0.1,0.5,0.6,0.8,1,0.7c0.2,0,0.4-0.1,0.5-0.3l1.4-1.4
			c0.2-0.2,0.5-0.3,0.8-0.3l1.9,0.3c0.5,0.1,0.9-0.3,1-0.7c0-0.2,0-0.4-0.1-0.6L149,211c-0.1-0.3-0.2-0.6,0-0.8l0.8-1.7
			c0.2-0.4,0-1-0.4-1.2c-0.2-0.1-0.4-0.1-0.6-0.1l-1.9,0.4c-0.3,0.1-0.6,0-0.8-0.2l-1.4-1.4c-0.4-0.3-0.9-0.3-1.3,0
			c-0.1,0.1-0.2,0.3-0.2,0.5l-0.2,1.9c0,0.3-0.2,0.5-0.5,0.7l-1.7,0.9c-0.4,0.3-0.6,0.8-0.3,1.2
			C140.6,211.4,140.8,211.5,140.9,211.6z"/>
		<path class="st16" d="M52.2,305l1.7,0.8c0.3,0.1,0.5,0.4,0.5,0.7l0.3,1.9c0.1,0.5,0.6,0.8,1,0.7c0.2,0,0.4-0.1,0.5-0.3l1.4-1.4
			c0.2-0.2,0.5-0.3,0.8-0.3l1.9,0.3c0.5,0.1,0.9-0.3,1-0.8c0-0.2,0-0.4-0.1-0.6l-0.9-1.7c-0.1-0.3-0.1-0.6,0-0.8l0.9-1.7
			c0.2-0.4,0-1-0.4-1.2c-0.2-0.1-0.4-0.1-0.6-0.1l-1.9,0.4c-0.3,0-0.6,0-0.8-0.2l-1.4-1.4c-0.4-0.3-0.9-0.3-1.3,0
			c-0.1,0.1-0.2,0.3-0.2,0.5l-0.2,1.9c0,0.3-0.2,0.5-0.5,0.7l-1.7,0.9c-0.4,0.2-0.6,0.8-0.3,1.2C51.8,304.8,52,304.9,52.2,305z"/>
		<path class="st16" d="M113.2,349.5l1.7,0.8c0.3,0.1,0.4,0.4,0.5,0.7l0.3,1.9c0.1,0.5,0.5,0.8,1,0.7c0.2,0,0.4-0.1,0.5-0.3l1.4-1.4
			c0.2-0.2,0.5-0.3,0.8-0.3l1.9,0.3c0.5,0.1,0.9-0.3,1-0.8c0-0.2,0-0.4-0.1-0.6l-0.9-1.7c-0.1-0.3-0.1-0.6,0-0.8l0.9-1.7
			c0.2-0.4,0-1-0.4-1.2c-0.2-0.1-0.4-0.1-0.6-0.1l-1.9,0.4c-0.3,0.1-0.6,0-0.8-0.2l-1.4-1.4c-0.4-0.3-0.9-0.3-1.3,0
			c-0.1,0.1-0.2,0.3-0.2,0.5l-0.2,1.9c0,0.3-0.2,0.5-0.5,0.7l-1.7,0.9c-0.4,0.3-0.6,0.8-0.3,1.2
			C112.9,349.3,113.1,349.4,113.2,349.5z"/>
		<path class="st16" d="M41.2,192.9l1.7,0.8c0.3,0.1,0.5,0.4,0.5,0.7l0.3,1.9c0.1,0.5,0.6,0.8,1.1,0.7c0.2,0,0.3-0.1,0.5-0.3
			l1.4-1.4c0.2-0.2,0.5-0.3,0.8-0.3l1.9,0.3c0.5,0.1,0.9-0.3,1-0.8c0-0.2,0-0.4-0.1-0.6l-0.9-1.7c-0.1-0.3-0.1-0.6,0-0.8l0.9-1.7
			c0.2-0.4,0-1-0.4-1.2c-0.2-0.1-0.4-0.1-0.6-0.1l-1.9,0.4c-0.3,0.1-0.6,0-0.8-0.2l-1.4-1.4c-0.4-0.3-0.9-0.3-1.3,0
			c-0.1,0.1-0.2,0.3-0.2,0.5l-0.2,1.9c0,0.3-0.2,0.5-0.5,0.7l-1.7,0.9c-0.4,0.2-0.6,0.8-0.4,1.2C40.9,192.6,41,192.8,41.2,192.9z"/>
		<path class="st16" d="M298.5,328.2l1.7,0.8c0.3,0.1,0.4,0.4,0.5,0.7l0.3,1.9c0.1,0.5,0.6,0.8,1.1,0.7c0.2,0,0.3-0.1,0.5-0.3
			l1.4-1.4c0.2-0.2,0.5-0.3,0.8-0.3l1.9,0.3c0.5,0.1,0.9-0.3,1-0.8c0-0.2,0-0.4-0.1-0.6l-0.9-1.7c-0.1-0.3-0.1-0.6,0-0.8l0.9-1.7
			c0.2-0.4,0-1-0.4-1.2c-0.2-0.1-0.4-0.1-0.6-0.1l-1.9,0.4c-0.3,0.1-0.6,0-0.8-0.2l-1.4-1.4c-0.4-0.3-0.9-0.3-1.3,0
			c-0.1,0.1-0.2,0.3-0.2,0.5l-0.2,1.9c0,0.3-0.2,0.5-0.5,0.7l-1.7,0.9c-0.4,0.3-0.6,0.8-0.3,1.2C298.2,328,298.3,328.1,298.5,328.2z
			"/>
		<path class="st16" d="M280.4,456.6l1.7,0.8c0.3,0.1,0.5,0.4,0.5,0.7l0.3,1.9c0.1,0.5,0.6,0.8,1,0.7c0.2,0,0.4-0.1,0.5-0.3l1.4-1.4
			c0.2-0.2,0.5-0.3,0.8-0.3l1.9,0.3c0.5,0.1,0.9-0.2,1-0.7c0-0.2,0-0.4-0.1-0.6l-0.9-1.7c-0.2-0.3-0.2-0.6,0-0.8l0.8-1.7
			c0.2-0.4,0-1-0.4-1.2c-0.2-0.1-0.4-0.1-0.6-0.1l-1.9,0.4c-0.3,0.1-0.6,0-0.8-0.2l-1.4-1.4c-0.4-0.3-0.9-0.3-1.3,0
			c-0.1,0.1-0.2,0.3-0.2,0.5l-0.2,1.9c0,0.3-0.2,0.5-0.5,0.7l-1.7,0.9c-0.4,0.2-0.6,0.8-0.3,1.2
			C280.1,456.4,280.2,456.6,280.4,456.6z"/>
		<path class="st16" d="M213.6,476.6l1.7,0.8c0.3,0.1,0.5,0.4,0.5,0.7l0.3,1.9c0.1,0.5,0.6,0.8,1,0.7c0.2,0,0.4-0.1,0.5-0.3l1.4-1.4
			c0.2-0.2,0.5-0.3,0.8-0.3l1.9,0.3c0.5,0.1,0.9-0.2,1-0.7c0-0.2,0-0.4-0.1-0.6l-0.9-1.7c-0.1-0.3-0.2-0.6,0-0.8l0.8-1.7
			c0.2-0.4,0-1-0.4-1.2c-0.2-0.1-0.4-0.1-0.6-0.1l-1.9,0.4c-0.3,0.1-0.6,0-0.8-0.2l-1.4-1.4c-0.4-0.3-0.9-0.3-1.3,0
			c-0.1,0.1-0.2,0.3-0.2,0.5l-0.2,1.9c0,0.3-0.2,0.6-0.5,0.7l-1.7,0.9c-0.4,0.2-0.6,0.8-0.4,1.2
			C213.2,476.4,213.4,476.6,213.6,476.6z"/>
		<path class="st16" d="M282.7,411.4l1.7,0.8c0.3,0.1,0.5,0.4,0.5,0.7l0.3,1.9c0.1,0.5,0.5,0.8,1,0.7c0.2,0,0.4-0.1,0.5-0.3l1.4-1.4
			c0.2-0.2,0.5-0.3,0.8-0.3l1.9,0.3c0.5,0.1,1-0.3,1-0.8c0-0.2,0-0.4-0.1-0.5l-0.9-1.7c-0.1-0.3-0.2-0.6,0-0.8l0.9-1.7
			c0.2-0.5,0-1-0.5-1.2c-0.2-0.1-0.4-0.1-0.5-0.1l-1.9,0.4c-0.3,0.1-0.6,0-0.8-0.2l-1.4-1.4c-0.4-0.3-0.9-0.3-1.3,0
			c-0.1,0.1-0.2,0.3-0.2,0.5l-0.2,1.9c0,0.3-0.2,0.5-0.5,0.7l-1.7,0.9c-0.4,0.3-0.6,0.8-0.3,1.2
			C282.3,411.2,282.5,411.3,282.7,411.4z"/>
		<path class="st17" d="M323.7,493.1c16-6,30.7-14.9,43.3-26.4c12.9-11.8,22.8-26.3,29.2-42.5c1.2-2.8,2.2-5.8,3.1-8.7
			c-22.6-19.7-56.8-17.4-76.6,5.1C304.5,441.4,304.9,472.7,323.7,493.1L323.7,493.1z"/>
		<path class="st14" d="M323.7,493.1c16-6,30.7-14.9,43.3-26.4c-2.2-2.1-5.1-3.3-8.1-3.4c-7.5-0.3-15.9,3.2-23.1,4.9
			c-2.5,0.8-5.1,1-7.6,0.7c-2.6-0.4-4.7-2.4-5.1-5c-0.1-1.9,0.7-3.6,2.1-4.8c4-3.4,8.7-5.8,13.8-7.1c3.5-0.9,8.4-2.7,7-7.6
			c-0.5-1.5-1.8-2.7-3.3-3.2c-1.5-0.5-3.1-0.7-4.7-0.6c-4.1,0.1-9.8,1.4-15,1.5c-4.2,0.1-8.1-0.4-11-2.6
			C306,458.2,310.5,478.6,323.7,493.1L323.7,493.1z"/>
		<path class="st18" d="M323.7,493.1c16-6,30.7-14.9,43.3-26.4c-2.2-2.1-5.1-3.3-8.1-3.4c-7.5-0.3-15.9,3.2-23.1,4.9
			c-2.5,0.8-5.1,1-7.6,0.7c-2.6-0.4-4.7-2.4-5.1-5c-0.1-1.9,0.7-3.6,2.1-4.8c4-3.4,8.7-5.8,13.8-7.1c3.5-0.9,8.4-2.7,7-7.6
			c-0.5-1.5-1.8-2.7-3.3-3.2c-1.5-0.5-3.1-0.7-4.7-0.6c-4.1,0.1-9.8,1.4-15,1.5c-4.2,0.1-8.1-0.4-11-2.6
			C306,458.2,310.5,478.6,323.7,493.1L323.7,493.1z"/>
		<path class="st14" d="M396.2,424.2c1.2-2.8,2.2-5.8,3.1-8.7c-4.7-4.2-10.2-7.5-16.1-9.8c-3.2,1.1-6.2,2.5-8.7,3.6
			c-2.6,1-5,2.4-7.1,4.2c-2.1,1.8-3.4,4.5-3.5,7.3c0,1.5,0.6,3,1.7,4c1.2,0.8,2.6,1.2,4,1.1c7.4-0.1,14-5.3,21.5-5.4
			c1.2-0.1,2.3,0.2,3.4,0.8C395.5,421.9,396.1,423,396.2,424.2z"/>
		<path class="st18" d="M396.2,424.2c1.2-2.8,2.2-5.8,3.1-8.7c-4.7-4.2-10.2-7.5-16.1-9.8c-3.2,1.1-6.2,2.5-8.7,3.6
			c-2.6,1-5,2.4-7.1,4.2c-2.1,1.8-3.4,4.5-3.5,7.3c0,1.5,0.6,3,1.7,4c1.2,0.8,2.6,1.2,4,1.1c7.4-0.1,14-5.3,21.5-5.4
			c1.2-0.1,2.3,0.2,3.4,0.8C395.5,421.9,396.1,423,396.2,424.2z"/>
		<path class="st14" d="M371.7,446.6l5.6-2c2.8-1,4.2-4.1,3.2-6.9l0,0c-1-2.8-4.1-4.2-6.9-3.2l-5.7,2c-2.8,1-4.2,4.1-3.2,6.9l0,0
			C365.8,446.2,368.9,447.6,371.7,446.6C371.7,446.6,371.7,446.6,371.7,446.6z"/>
		<path class="st18" d="M371.7,446.6l5.6-2c2.8-1,4.2-4.1,3.2-6.9l0,0c-1-2.8-4.1-4.2-6.9-3.2l-5.7,2c-2.8,1-4.2,4.1-3.2,6.9l0,0
			C365.8,446.2,368.9,447.6,371.7,446.6C371.7,446.6,371.7,446.6,371.7,446.6z"/>
	</g>
	<g id="freepik--character-2--inject-2">
		<path class="st19" d="M353,198.2l0.7,0c1.3-4.2,5.8-6.5,10-5.1c4.2,1.3,6.5,5.8,5.1,10c-1,3.3-4.1,5.5-7.5,5.5l-0.7,0
			c-1.3,4.2-5.8,6.5-10,5.2c-4.2-1.3-6.5-5.8-5.2-10C346.5,200.5,349.5,198.3,353,198.2L353,198.2z"/>
		<path class="st20" d="M414.3,182.5c0,0,4.9-8.6,7-1.9c0,0,3.4-1.2,3.4,2.8c0,0,4.6-1,3.1,4.4c-1.1,3.6-2.7,6.9-4.9,10l-10.6-12
			L414.3,182.5z"/>
		<path class="st20" d="M359,206.3l30.4,19.8l19-26.2c0,0-4.6-17.3,1.3-19.4s12.8,5.1,9.2,5.8c-2.2,0.4-4.5,0.2-6.6-0.5l11.9,10.1
			c-1.6,2.7-3.4,5.2-5.6,7.5c0,0-12.5,37.5-24.5,41.7c-3.6,1.2-32.3-15.7-32.3-15.7l-8.3-21.8L359,206.3z"/>
		<path class="st20" d="M274.6,239.4l-7.1,0.5c0,0-8.7-15.9-15.8-21.8c-7.1-5.9-17.4-14.4-18.9-19.5c-1.4-5.1-2.1-11.5-9.8-10.6
			s-11-1.9-13.3-2.5c-2.3-0.5-12.1-1.8-17.6,5.3c-1.5-0.1-2.8,1-2.9,2.5c0,0,0.1,1,4.1,2.1c4,1,19,4.9,23.3,7.7
			c5.2,2.9,9.4,7.3,12.2,12.5c4.5,7.6,17.8,30.5,21.2,36.1c3.3,5.7,6,9.2,15.4,7.2C274.6,256.9,274.6,239.4,274.6,239.4z"/>
		<path class="st20" d="M259.1,268.2l-12.2,5.9c0,0-14.5-11-23.4-13.5c-8.9-2.5-21.8-6-25.2-10c-3.4-4-6.6-9.7-13.3-5.6
			c-6.7,4-10.8,2.7-13.1,3.2c-2.3,0.5-11.8,3.3-13.9,12c-1.4,0.5-2.1,2.1-1.6,3.5c0,0,0.5,0.9,4.6,0.2s19.4-3.3,24.3-2.5
			c5.9,0.6,11.6,2.8,16.3,6.5c7.2,5.1,28.7,20.5,34.1,24.3c5.4,3.8,6.1,5.1,30.7-1.5C275.6,288.2,259.1,268.2,259.1,268.2z"/>
		<path class="st14" d="M326.1,217.7l-5.1,3.1c0,0,0.5,14-9.2,16.2c-9.7,2.2-29.4-7.7-29.4-7.7s-10.9,3.7-12.2,14.8
			c-0.6,5.2-0.8,8.1-5.8,11.3c-5,3.2-9.3,11.2-2.5,21.5c2.3,3.4,4.3,5,4.2,11.6c0,6.7,5.9,12.5,5.9,12.5s24.9-1.8,43.4-19.6
			c0,0,31.4-7.7,41-25.8c0,0,18.3-4.4,8.5-28.5c-3.9-9.6-10.8-23-10.8-23L326.1,217.7z"/>
		<path class="st19" d="M306.9,199.2c0-2.4,1.2-4.7,3.3-6.1c1.8-1.2,2.8-3.4,2.5-5.6c-0.2-1.2-0.2-2.4-0.2-3.6
			c0-1.7,0.2-3.5,0.6-5.1c1.7-7.5,7.4-13.2,16.6-16.1c1.3-0.4,2.5-0.7,3.9-1c2.7-0.6,5.4-0.9,8.2-0.9c12.6,0,19.8,6.8,22.3,14l0,0
			c0.7,1.9,1.1,3.8,1.2,5.8c0.3,2.6-0.3,5.2-1.7,7.4l-25.8,18.4c1.8,1.7-12,11.8-13.2,8.1c-3.9,2.1-8.7,0.6-10.8-3.3
			c-0.8-1.6-1.1-3.5-0.8-5.2C309.4,205.6,306.9,202.7,306.9,199.2z"/>
		<path class="st19" d="M322.9,212.5c0.8,3.7,4.5,6.1,8.3,5.2c3.7-0.8,6.1-4.5,5.2-8.3c-0.8-3.7-4.5-6-8.2-5.2
			C324.4,205,322,208.7,322.9,212.5C322.9,212.5,322.9,212.5,322.9,212.5z"/>
		<path class="st20" d="M326.1,217.7c2.8,5.8,6.3,11.3,10.4,16.3c6.4,7.6,14.9,2.1,20.6-4.5c2.9-3.4,0.4-9.8-2.8-15.3
			c-0.7-1.2-1.4-2.3-2-3.4c-2.5-3.8-4.8-6.6-4.8-6.6l-6.2,4.1l-1.5,0.9L326.1,217.7z"/>
		<path class="st19" d="M317.9,170.9c0,0-2.9-5.9-4-5.6c-1.1,0.3,0.1,5.8,0.1,5.8s-5.3,0.6-4.4,2s7.2,1.7,7.2,1.7L317.9,170.9z"/>
		<polygon class="st20" points="337.9,222.1 355.5,230.7 347.7,193.3 332.6,196.4 		"/>
		<path class="st21" d="M335.9,204.8c1.2,1.5,2.5,2.9,3.9,4.2c2.9,2.7,6.6,4.4,10.5,4.9c1.2,0.1,2.2-0.7,2.3-1.9
			c0.1-0.5-0.1-1-0.3-1.4l0,0c-3.8-0.1-7.5-1-11-2.6C339.3,207.2,337.5,206.1,335.9,204.8z"/>
		<path class="st13" d="M357.2,240.2c0.2,0,0.3-0.2,0.3-0.4c0.1-4.6-0.8-9.2-2.7-13.5c-3.1-6.6-7.7-17.9-7.7-18
			c-0.1-0.2-0.3-0.3-0.6-0.3c-0.2,0.1-0.3,0.3-0.3,0.6c0,0.1,4.6,11.4,7.7,18c1.6,3.6,2.5,7.4,2.7,11.3c-2.2-3.6-5.8-6.3-10-9.4
			c-3.8-2.7-7.4-5.7-10.7-9c-2.9-2.8-4.2-5.5-3.9-7.7c0.2-1.4,1-2.7,2.2-3.4c0.2-0.1,0.3-0.4,0.1-0.6c0,0,0,0,0,0
			c-0.1-0.2-0.4-0.2-0.6-0.1c-1.4,0.9-2.4,2.4-2.6,4.1c-0.2,2.4,1.2,5.3,4.2,8.4c3.3,3.3,6.9,6.4,10.8,9.1
			c4.6,3.5,8.7,6.5,10.5,10.7c0.1,0.2,0.3,0.3,0.5,0.3L357.2,240.2z"/>
		<path class="st13" d="M357.4,239.8c0,0-2.1-2.4-3.4-0.2c-1.3,2.2,2.8,5,5.3,5.6c1.9,0.5,2.8-6.8,0.8-7.8
			C357.6,236.2,357.4,239.8,357.4,239.8z"/>
		<path class="st20" d="M338.7,166.2c10.3-2.3,20.5,4,23,14.2c4.5,14.7,5.5,26.6-2,29.3c-7.5,2.7-26.6,0.8-32.9-18.1
			C320.6,172.7,333.2,167.4,338.7,166.2z"/>
		<polygon class="st21" points="352.8,188.9 354.6,197.7 359.5,195 		"/>
		<path class="st13" d="M344.9,192.8c0.3,1.1,1.3,1.7,2.4,1.4c1.1-0.3,1.7-1.3,1.4-2.4c-0.3-1-1.3-1.7-2.3-1.4
			C345.3,190.7,344.6,191.7,344.9,192.8C344.9,192.8,344.9,192.8,344.9,192.8z"/>
		<path class="st13" d="M357.1,188.7c0.3,1.1,1.3,1.7,2.4,1.4c1.1-0.3,1.7-1.3,1.4-2.4c-0.3-1-1.3-1.7-2.3-1.4
			C357.6,186.5,356.9,187.6,357.1,188.7C357.1,188.7,357.1,188.7,357.1,188.7z"/>
		<path class="st13" d="M360.5,183.8l-4.3-1.4c0,0,1.1-1.8,2.7-1.2C359.9,181.6,360.6,182.7,360.5,183.8z"/>
		<path class="st21" d="M357.8,200.8c-1.7,0.5-3.5,0.4-5.1-0.3c0,0,0.2,2.6,2.4,2.7C356.5,203.1,357.6,202.1,357.8,200.8z"/>
		<path class="st19" d="M354.3,168.3c0,0,2.1,21.1-25.9,27.6c0,0-12.8-18.8,2.7-29C346.5,156.8,354.3,168.3,354.3,168.3z"/>
		<path class="st20" d="M334.3,195.8c0,0-2-5.7-6-4.9c-4.5,0.9-4.2,5.2-3.7,6.8c1.4,4.9,6.5,7.7,11.4,6.4L334.3,195.8z"/>
		<path class="st20" d="M321.1,220.8c0,0-10.4,5.6-9.9,24.2c0.5,18.6,1.3,33.7,5.4,38.5c4.1,4.8,28.5,24.1,28.5,24.1
			s9.1,19.9,22.1,18.3c1.3-0.2,4.5-0.6-4.5-9.3c-1.4-1.2-2.5-2.8-3.1-4.6c0,0,6.6,2.7,8.4,1.4c1.8-1.3-2.4-2.8-3.5-3.7
			c-1.1-0.9-7.1-6.4-9.8-6.9l-24.8-28.2l-0.7-32.4C328.9,234.2,326.1,226.8,321.1,220.8L321.1,220.8z"/>
		<path class="st20" d="M409.7,180.5c5.9-2,12.8,5.1,9.2,5.8c-1.9,0.4-3.9,0.3-5.8-0.2l-0.9-0.3l-5.5,1.5
			C406.8,184,407.6,181.3,409.7,180.5z"/>
	</g>
</g>
</svg>
