<?xml version="1.0" encoding="utf-8"?>
<!-- Generator: Adobe Illustrator 24.0.2, SVG Export Plug-In . SVG Version: 6.00 Build 0)  -->
<svg version="1.1" id="Capa_1" xmlns="http://www.w3.org/2000/svg" xmlns:xlink="http://www.w3.org/1999/xlink" x="0px" y="0px"
	 viewBox="0 0 500 500" style="enable-background:new 0 0 500 500;" xml:space="preserve">
<style type="text/css">
	.st0{fill:#455A64;}
	.st1{fill:#EBEBEB;}
	.st2{fill:#C7C7C7;}
	.st3{fill:#DBDBDB;}
	.st4{fill:#FFFFFF;}
</style>
<g id="freepik--Galaxy--inject-40">
	<path class="st0" d="M254.4,678.1c154.1,42.9,212.4-44.4,284.9-137.3S709,475.9,747.4,357.7c28.3-87-60.1-118.1-59-199.3
		c0.6-43.3,79.3-167.3-36.7-283.2c-99.8-99.8-243.5-5.6-355.9,12.5S35.6-192.7-78.6-87.5s-58.5,287.1-115.6,349.1
		s-154.3,114.7-120.5,240.7c23,85.8,132.7,166.2,243.5,133.5C-71.1,635.8,100.2,635.3,254.4,678.1z"/>
	<path class="st0" d="M525.6,143.8c10.7,18,5.1,47.9-15.1,56.7c3.7-9,6.7-18.2,8.9-27.7C521.7,163.1,523,153.8,525.6,143.8
		L525.6,143.8z"/>
	<path class="st0" d="M456.5,388.1c15.5-10,31.2-18.7,46.1-29c10.9-7.6,21.4-15.5,29.6-26c2.8-3.6,5.2-7.4,7.3-11.5
		C538.6,357.9,488.4,384.4,456.5,388.1L456.5,388.1z"/>
	<path class="st0" d="M29.4,250.1c1.7-7,2.9-14.1,3.5-21.2c1.3-11.9,2-23.7,3.6-35.6c2.6-19.1,6.2-39.7,18.3-55.3
		c-4.4,18.9-5.3,37.5-7.8,56.7c-1.6,11.9-3.5,24.1-7.3,35.7C37.6,237.6,34.1,244.3,29.4,250.1L29.4,250.1z"/>
	<path class="st1" d="M45.9,97.7v-7c0-2-1.6-3.6-3.6-3.6c0,0,0,0,0,0l0,0c-2,0-3.6,1.6-3.6,3.6c0,0,0,0,0,0l0,7.1
		c0,2,1.6,3.6,3.6,3.6c0,0,0,0,0,0l0,0C44.3,101.4,45.9,99.8,45.9,97.7C45.9,97.8,45.9,97.7,45.9,97.7z"/>
	<path class="st1" d="M128.7,84.5l-2.2-6.7c-0.6-1.9-2.7-2.9-4.6-2.3l0,0c-1.9,0.6-2.9,2.7-2.3,4.6l2.2,6.7c0.6,1.9,2.7,2.9,4.6,2.3
		l0,0C128.3,88.5,129.4,86.5,128.7,84.5z"/>
	<path class="st1" d="M53.2,70.6l2.3-3c1.2-1.6,0.9-3.9-0.7-5.1l0,0c-1.6-1.2-3.9-0.9-5.1,0.7c0,0,0,0,0,0l-2.3,3
		c-1.2,1.6-0.9,3.9,0.7,5.1l0,0C49.7,72.5,52,72.2,53.2,70.6z"/>
	<path class="st1" d="M67.1,126.4l-3-2.3c-1.6-1.2-3.9-0.9-5.1,0.7l0,0c-1.2,1.6-0.9,3.9,0.7,5.1l3,2.3c1.6,1.2,3.9,0.9,5.1-0.7l0,0
		C69.1,129.9,68.7,127.6,67.1,126.4z"/>
	<path class="st1" d="M115.3,61.2l3.2,3.2c1.3,1.3,1.3,3.3,0,4.6l-0.6,0.6c-1.3,1.3-3.3,1.3-4.6,0l-3.2-3.2c-1.3-1.3-1.3-3.3,0-4.6
		l0.6-0.6C111.9,59.9,114,59.9,115.3,61.2z"/>
	<path class="st1" d="M105.7,132.6l3.3-1.9c1.8-1,2.4-3.2,1.4-4.9c0,0,0,0,0-0.1l0,0c-1-1.8-3.2-2.4-5-1.4c0,0,0,0,0,0l-3.3,1.9
		c-1.8,1-2.4,3.2-1.4,4.9c0,0,0,0,0,0.1l0,0C101.7,133,103.9,133.6,105.7,132.6C105.7,132.6,105.7,132.6,105.7,132.6z"/>
	<circle class="st1" cx="84.2" cy="93.3" r="42"/>
	<path class="st2" d="M77.4,64.8c1.5,1.3,2.6,3.1,3,5.1c0.4,2,0.3,4.1-0.4,6.1c-0.7,2-2.1,3.7-4,4.7c-1.8,0.9-3.9,1.2-5.9,0.8
		c1.8-0.3,3.6-1,5.1-2c0.7-0.5,1.3-1.1,1.8-1.8c0.5-0.7,0.9-1.5,1.2-2.3c0.1-0.4,0.3-0.8,0.4-1.3c0.1-0.4,0.2-0.9,0.2-1.3
		C79,71.9,79,71,79,70.1C78.8,68.3,78.3,66.5,77.4,64.8z"/>
	<path class="st2" d="M68.4,77.2c-1.1-0.9-1.9-2.1-2.2-3.5c-0.3-1.4-0.3-2.9,0.2-4.3c0.5-1.4,1.5-2.6,2.9-3.3
		c1.3-0.6,2.8-0.7,4.1-0.3c-1.2,0.3-2.4,0.8-3.4,1.6c-0.9,0.7-1.5,1.6-1.9,2.7C67.3,72.4,67.4,74.9,68.4,77.2z"/>
	<path class="st2" d="M78.8,107.7c1.3,0.5,2.3,1.5,2.9,2.8c0.6,1.3,0.9,2.7,0.7,4.1c-0.2,1.5-0.9,2.8-2.1,3.7
		c-1.1,0.8-2.5,1.2-3.9,1.1c1.1-0.6,2.1-1.3,2.9-2.2c0.7-0.8,1.2-1.8,1.3-2.9c0.2-1.1,0.1-2.3-0.2-3.4
		C80,109.8,79.5,108.7,78.8,107.7z"/>
	<path class="st2" d="M76,117.2c-0.9-0.3-1.7-0.9-2.2-1.8c-0.5-0.9-0.7-1.9-0.5-2.9c0.1-1.1,0.7-2,1.6-2.7c0.8-0.6,1.8-0.8,2.8-0.6
		c-0.7,0.5-1.3,1-1.8,1.7c-0.4,0.5-0.7,1.2-0.7,1.8C74.8,114.3,75.2,115.9,76,117.2z"/>
	<path class="st2" d="M61.5,111.7c1,0,2,0.3,2.8,1.1c0.8,0.8,1.3,1.8,1.3,3c0,1.1-0.5,2.2-1.4,2.9c-0.8,0.6-1.8,1-2.8,1
		c0.6-0.6,1.2-1.3,1.7-2c0.4-0.6,0.6-1.2,0.6-1.9c0-0.7-0.2-1.4-0.5-2C62.7,113,62.2,112.3,61.5,111.7z"/>
	<path class="st2" d="M60.7,118.3c-0.7,0.1-1.5-0.1-2-0.6c-0.6-0.5-1-1.3-1-2.1c0-0.9,0.4-1.7,1.1-2.1c0.6-0.4,1.3-0.6,2-0.5
		c-0.4,0.5-0.7,1-1,1.5c-0.2,0.3-0.3,0.7-0.3,1.1c0,0.4,0.1,0.9,0.3,1.3C60,117.4,60.3,117.9,60.7,118.3z"/>
	<path class="st2" d="M93.4,62.2c0.8,0.6,1.3,1.6,1.4,2.6c0.1,1.1-0.2,2.2-1,3.1c-0.8,0.9-1.9,1.3-3,1.2c-1-0.1-2-0.4-2.7-1.1
		c0.9,0,1.7-0.1,2.6-0.3c0.7-0.1,1.3-0.5,1.7-1c0.5-0.5,0.8-1.2,1-1.9C93.5,63.9,93.5,63.1,93.4,62.2z"/>
	<path class="st2" d="M88.5,66.6c-0.6-0.4-1.1-1-1.2-1.8c-0.1-0.8,0.2-1.6,0.7-2.3c0.6-0.6,1.4-1,2.3-0.9c0.7,0.1,1.4,0.4,1.9,1
		c-0.6,0.1-1.2,0.2-1.7,0.4c-0.4,0.1-0.7,0.3-1,0.6c-0.3,0.3-0.5,0.7-0.6,1.1C88.6,65.4,88.5,66,88.5,66.6z"/>
	<path class="st3" d="M96.9,99.1c4.8-1.8,7.2-7.2,5.4-12s-7.2-7.2-12-5.4c-4.8,1.8-7.2,7.2-5.4,12c0,0,0,0,0,0
		C86.8,98.5,92.2,100.9,96.9,99.1z"/>
	<path class="st2" d="M91,86.8c2-0.5,4.5,0.1,6.7,1.7c-3.1-4-8.3-5.6-11.5-3.6c-3.2,2-3.3,6.9-0.1,10.9c1.7,2.1,4,3.7,6.4,4.2
		c-3.9-2.4-6.1-7-4.8-10.3C88.2,88.2,89.4,87.2,91,86.8L91,86.8z"/>
	<path class="st2" d="M103.8,82.4c1.8,1.7,3,3.9,3.5,6.4c0.5,2.5,0.3,5-0.5,7.4c-0.8,2.5-2.5,4.5-4.8,5.8c-2.2,1.2-4.7,1.5-7.2,1.1
		c2.3-0.3,4.5-1,6.4-2.3c0.4-0.3,0.9-0.7,1.3-1c0.4-0.4,0.7-0.8,1.1-1.2c0.6-0.9,1.2-1.8,1.5-2.9c0.2-0.5,0.3-1.1,0.5-1.6
		c0.2-0.6,0.2-1.1,0.3-1.6c0.2-1.1,0.2-2.2,0.1-3.3C105.6,86.6,104.9,84.4,103.8,82.4z"/>
	<path class="st3" d="M113.5,77.7c1.6-1,2.1-3.1,1.1-4.8c-1-1.6-3.1-2.1-4.8-1.1c-1.6,1-2.1,3.1-1.2,4.7
		C109.7,78.2,111.8,78.7,113.5,77.7C113.5,77.7,113.5,77.7,113.5,77.7z"/>
	<path class="st2" d="M111.2,72.5c0.9-0.5,1.9-0.6,2.8-0.2c-1.4-1.3-3.6-1.2-4.9,0.1c-1.3,1.4-1.2,3.6,0.1,4.9
		c0.7,0.7,1.7,1,2.7,0.9c-1.7-0.5-2.7-2.2-2.2-3.9C110.1,73.6,110.6,72.9,111.2,72.5L111.2,72.5z"/>
	<path class="st2" d="M114.8,71.1c0.8,0.5,1.4,1.2,1.8,2c0.4,0.9,0.5,1.9,0.4,2.8c-0.3,2-2,3.5-4,3.3c0.8-0.3,1.5-0.8,2.1-1.4
		c0.5-0.6,0.9-1.3,1-2.1C116.3,74.1,115.9,72.4,114.8,71.1z"/>
	<path class="st3" d="M112.5,110.5c2-1.8,2.2-4.9,0.4-7c-1.8-2-4.9-2.2-7-0.4c-2,1.8-2.2,4.9-0.4,7c0,0,0,0,0,0
		C107.4,112.1,110.5,112.3,112.5,110.5z"/>
	<path class="st2" d="M108.1,103.7c1.1-1,2.5-1.3,3.9-1c-2.3-1.5-5.3-0.9-6.8,1.4c-1.5,2.3-0.9,5.3,1.4,6.8c1.2,0.8,2.7,1,4.1,0.6
		c-2.5-0.3-4.3-2.5-4-5C106.8,105.5,107.3,104.5,108.1,103.7L108.1,103.7z"/>
	<path class="st2" d="M112.8,100.9c1.2,0.5,2.2,1.4,2.9,2.5c0.7,1.1,1.1,2.4,1.2,3.7c0.1,1.4-0.4,2.7-1.3,3.8c-0.9,1-2,1.7-3.3,1.9
		c1.1-0.5,2.1-1.3,2.8-2.3c0.7-1,1-2.1,0.9-3.3c0-1.2-0.3-2.3-0.8-3.4C114.6,102.7,113.8,101.7,112.8,100.9z"/>
	<path class="st3" d="M63.3,92.3c0.8,4-2.1,8-6.6,8.9c-4.5,0.9-8.8-1.5-9.6-5.5c-0.8-4,2.1-8,6.6-8.9C58.2,85.9,62.5,88.4,63.3,92.3
		z"/>
	<path class="st2" d="M50.5,96.8c0.5,2.2,2,3.9,4.1,4.6c-3.6,0.1-6.7-2.3-7.6-5.7c-0.8-4,2.1-8,6.6-8.9c3-0.7,6.1,0.3,8.2,2.6
		c-1.7-0.8-3.6-1.1-5.4-0.7C52.6,89.3,49.9,92.9,50.5,96.8z"/>
	<path class="st2" d="M61.3,86.4c2.1,0.4,3.9,1.7,5,3.5c0.6,0.9,1,2,1.2,3.1c0.1,1.1,0.1,2.2-0.1,3.3c-0.3,1.1-0.8,2.1-1.5,2.9
		c-0.7,0.8-1.4,1.6-2.3,2.2c-1.7,1.2-3.6,1.9-5.6,2.2c1.7-0.9,3.3-2,4.7-3.3c1.4-1.2,2.4-2.7,2.9-4.4c0.2-0.9,0.3-1.7,0.2-2.6
		c-0.1-0.9-0.3-1.8-0.6-2.6C64.2,88.9,62.9,87.5,61.3,86.4z"/>
	<polygon class="st4" points="179.3,250.8 177.5,254.1 180,257.2 176.5,255.4 173.6,257.8 175.2,254.4 173,251.4 176.3,253.1 	"/>
	<polygon class="st4" points="226.7,307.8 225.7,309.6 227,311.3 225.1,310.3 223.5,311.6 224.4,309.7 223.1,308.1 225,309 	"/>
	<polygon class="st4" points="211.5,296.6 210.5,298.4 211.8,300.1 209.9,299.1 208.3,300.5 209.2,298.6 207.9,296.9 209.8,297.8 	
		"/>
	<polygon class="st4" points="168.3,245.2 167.3,247 168.7,248.8 166.7,247.7 165.1,249.1 166,247.2 164.7,245.5 166.6,246.5 	"/>
	<path class="st4" d="M233.5,307.1c-0.2,0.3-0.2,0.6,0.1,0.8c0.3,0.2,0.6,0.2,0.8-0.1c0.2-0.3,0.2-0.6-0.1-0.8
		C234.1,306.8,233.7,306.8,233.5,307.1z"/>
	<path class="st4" d="M173.1,234.8c-0.2,0.3-0.1,0.7,0.2,0.8c0.2,0.1,0.5,0.1,0.7-0.1c0.2-0.3,0.1-0.7-0.2-0.8
		C173.6,234.6,173.3,234.6,173.1,234.8z"/>
	<path class="st4" d="M193.6,293.6c-0.2,0.3-0.2,0.6,0.1,0.8c0.3,0.2,0.6,0.2,0.8-0.1c0.2-0.3,0.2-0.6-0.1-0.8
		C194.2,293.3,193.8,293.3,193.6,293.6L193.6,293.6z"/>
	<path class="st4" d="M230.4,305.9c-0.2,0.2-0.2,0.4,0,0.6c0.2,0.2,0.4,0.2,0.6,0c0.2-0.2,0.2-0.4,0-0.6
		C230.8,305.7,230.6,305.7,230.4,305.9z"/>
	<path class="st4" d="M213.4,304.7c-0.4,0.5-0.3,1.2,0.1,1.6c0.5,0.4,1.2,0.3,1.6-0.1c0.4-0.5,0.3-1.2-0.1-1.6
		C214.5,304.2,213.8,304.2,213.4,304.7z"/>
	<polygon class="st4" points="456.5,195.6 462.6,191.4 469.1,195.7 464.9,189.1 469,183.1 462.7,186.9 456.5,183 460.4,189.3 	"/>
	<polygon class="st4" points="357.4,54.9 363.4,50.7 369.9,55 365.7,48.5 369.8,42.4 363.5,46.3 357.3,42.4 361.2,48.6 	"/>
	<polygon class="st4" points="22.9,437.6 28.9,433.5 35.4,437.7 31.2,431.2 35.3,425.2 29,429 22.8,425.1 26.7,431.3 	"/>
	<polygon class="st4" points="285.5,155.2 291.5,151.1 298,155.3 293.8,148.8 297.9,142.8 291.6,146.6 285.4,142.7 289.3,148.9 	"/>
	<polygon class="st4" points="392.3,55.6 395.6,53.3 399.3,55.7 396.9,52 399.2,48.7 395.7,50.8 392.2,48.6 394.4,52.1 	"/>
	<polygon class="st4" points="61.2,421 64.6,418.7 68.2,421.1 65.8,417.4 68.1,414 64.6,416.2 61.1,414 63.3,417.5 	"/>
	<polygon class="st4" points="273.6,206.6 277,204.2 280.6,206.6 278.3,203 280.6,199.6 277.1,201.7 273.6,199.5 275.8,203 	"/>
	<polygon class="st4" points="501.8,279.7 505.2,277.4 508.8,279.7 506.4,276.1 508.7,272.7 505.2,274.9 501.7,272.7 503.9,276.2 	
		"/>
	<path class="st4" d="M316.3,278.9c0.5-0.4,1.2-0.3,1.6,0.2c0.3,0.4,0.3,1,0,1.5c-0.5,0.4-1.2,0.3-1.6-0.2
		C315.9,279.9,315.9,279.3,316.3,278.9z"/>
	<path class="st4" d="M505.2,225.8c0.5-0.4,1.2-0.3,1.6,0.2c0.3,0.4,0.3,1,0,1.5c-0.5,0.4-1.2,0.3-1.6-0.2
		C504.9,226.8,504.9,226.2,505.2,225.8z"/>
	<path class="st4" d="M448.6,190.2c0.5-0.4,1.2-0.3,1.6,0.2c0.3,0.4,0.3,1,0,1.5c-0.5,0.4-1.2,0.3-1.6-0.2
		C448.3,191.2,448.3,190.6,448.6,190.2z"/>
	<path class="st4" d="M81,228.3c0.3-0.3,0.8-0.3,1.2,0c0.3,0.3,0.3,0.8,0,1.2c-0.3,0.3-0.8,0.3-1.2,0
		C80.6,229.2,80.6,228.6,81,228.3z"/>
	<path class="st4" d="M468.7,217.7c0.3-0.3,0.8-0.3,1.2,0s0.3,0.8,0,1.2c-0.3,0.3-0.8,0.3-1.2,0S468.4,218.1,468.7,217.7z"/>
	<path class="st4" d="M350.3,216.9c0.3-0.3,0.8-0.3,1.2,0c0.3,0.3,0.3,0.8,0,1.2c-0.3,0.3-0.8,0.3-1.2,0S350,217.2,350.3,216.9z"/>
	<path class="st4" d="M276.5,344.9c0.4-0.3,0.9-0.2,1.2,0.2c0.2,0.3,0.2,0.7,0,1c-0.4,0.3-0.9,0.2-1.2-0.2
		C276.3,345.6,276.3,345.2,276.5,344.9z"/>
	<path class="st4" d="M303.8,308.3c0.3-0.3,0.8-0.3,1.2,0s0.3,0.8,0,1.2c-0.3,0.3-0.8,0.3-1.2,0S303.5,308.6,303.8,308.3
		L303.8,308.3z"/>
	<path class="st4" d="M266.9,154.8c0.9-0.9,2.3-0.9,3.2,0s0.9,2.3,0,3.2s-2.3,0.9-3.2,0S266.1,155.7,266.9,154.8L266.9,154.8z"/>
	<polygon class="st4" points="71.4,201.9 77.4,197.7 83.9,202 79.7,195.5 83.8,189.4 77.5,193.3 71.3,189.3 75.2,195.6 	"/>
	<polygon class="st4" points="107.2,125.6 110.5,123.3 114.2,125.6 111.8,122 114.1,118.6 110.6,120.8 107.1,118.6 109.3,122.1 	"/>
	<path class="st4" d="M113.7,411.2c0.5-0.4,1.2-0.3,1.6,0.2c0.3,0.4,0.3,1,0,1.5c-0.5,0.4-1.2,0.3-1.6-0.2
		C113.3,412.2,113.3,411.6,113.7,411.2z"/>
	<path class="st4" d="M429.2,48.6c0.5-0.4,1.2-0.3,1.6,0.2c0.3,0.4,0.3,1,0,1.5c-0.5,0.4-1.2,0.3-1.6-0.2
		C428.9,49.6,428.9,49,429.2,48.6z"/>
	<path class="st4" d="M274.1,87.1c0.3-0.3,0.8-0.3,1.2,0c0.3,0.3,0.3,0.8,0,1.2c-0.3,0.3-0.8,0.3-1.2,0
		C273.8,88,273.8,87.5,274.1,87.1z"/>
	<path class="st4" d="M132.3,253.4c0.3-0.3,0.8-0.3,1.2,0s0.3,0.8,0,1.2s-0.8,0.3-1.2,0S132,253.7,132.3,253.4L132.3,253.4z"/>
	<path class="st4" d="M177.8,193.7c0.4-0.3,0.9-0.2,1.2,0.2c0.2,0.3,0.2,0.7,0,1c-0.4,0.3-0.9,0.2-1.2-0.2
		C177.6,194.4,177.6,194,177.8,193.7z"/>
	<path class="st4" d="M237.5,331.2c0.9-0.9,2.3-0.9,3.2,0s0.9,2.3,0,3.2l0,0c-0.9,0.9-2.3,0.9-3.2,0S236.6,332.1,237.5,331.2z"/>
	<path class="st4" d="M405.7,96.6c0.9-0.9,2.3-0.9,3.2,0s0.9,2.3,0,3.2s-2.3,0.9-3.2,0S404.8,97.5,405.7,96.6z"/>
	<polygon class="st4" points="157.3,314.7 162.1,311.3 166.8,314.2 163.9,309.4 167.4,304.6 162.4,307.8 157.8,305.2 160.5,309.7 	
		"/>
	<path class="st4" d="M377.6,266c0.5-0.5,1.2-0.5,1.7,0c0.5,0.5,0.5,1.2,0,1.7c-0.5,0.5-1.2,0.5-1.7,0
		C377.1,267.2,377.1,266.5,377.6,266z"/>
	<path class="st4" d="M448.5,85.8c0.5-0.4,1.2-0.3,1.6,0.2c0.3,0.4,0.3,1,0,1.5c-0.5,0.4-1.2,0.3-1.6-0.2
		C448.2,86.8,448.2,86.2,448.5,85.8z"/>
	<path class="st4" d="M258.4,76c0.5-0.4,1.2-0.3,1.6,0.2c0.3,0.4,0.3,1,0,1.5c-0.5,0.4-1.2,0.3-1.6-0.2C258,77,258,76.4,258.4,76z"
		/>
	<path class="st4" d="M508.5,286.4c0.4-0.3,0.9-0.2,1.2,0.2c0.2,0.3,0.2,0.7,0,1c-0.4,0.3-0.9,0.2-1.2-0.2
		C508.2,287.1,508.2,286.7,508.5,286.4z"/>
	<polygon class="st4" points="459.3,289.7 462.6,287.4 466.3,289.7 463.9,286.1 466.2,282.7 462.7,284.9 459.2,282.7 461.4,286.2 	
		"/>
	<path class="st4" d="M226.6,339.2c0.5-0.5,1.2-0.5,1.7,0c0.5,0.5,0.5,1.2,0,1.7c-0.5,0.5-1.2,0.5-1.7,0
		C226.2,340.4,226.2,339.6,226.6,339.2z"/>
	<path class="st4" d="M46.8,352.5c0.3-0.3,0.8-0.3,1.2,0s0.3,0.8,0,1.2s-0.8,0.3-1.2,0C46.5,353.4,46.5,352.8,46.8,352.5L46.8,352.5
		z"/>
	<path class="st4" d="M177.4,280.4c-0.2,0.2-0.2,0.4,0,0.6c0.2,0.2,0.4,0.2,0.6,0c0.2-0.2,0.2-0.4,0-0.6
		C177.8,280.3,177.5,280.3,177.4,280.4z"/>
	<path class="st4" d="M177.8,273.8c-0.4,0.5-0.3,1.2,0.1,1.6c0.5,0.4,1.2,0.3,1.6-0.1c0.4-0.5,0.3-1.2-0.1-1.6
		C179,273.2,178.3,273.3,177.8,273.8L177.8,273.8z"/>
	<path class="st4" d="M21.4,236.5c-0.2,0.2-0.2,0.4,0,0.6c0.2,0.2,0.4,0.2,0.6,0c0.2-0.2,0.2-0.4,0-0.6
		C21.8,236.3,21.6,236.3,21.4,236.5z"/>
	<path class="st4" d="M21.9,229.8c-0.4,0.5-0.3,1.2,0.1,1.6c0.5,0.4,1.2,0.3,1.6-0.1s0.3-1.2-0.1-1.6
		C23,229.3,22.3,229.3,21.9,229.8L21.9,229.8z"/>
</g>
</svg>
