<?xml version="1.0" encoding="utf-8"?>
<!-- Generator: Adobe Illustrator 24.0.2, SVG Export Plug-In . SVG Version: 6.00 Build 0)  -->
<svg version="1.1" id="Capa_1" xmlns="http://www.w3.org/2000/svg" xmlns:xlink="http://www.w3.org/1999/xlink" x="0px" y="0px"
	 viewBox="0 0 844.9 171" style="enable-background:new 0 0 844.9 171;" xml:space="preserve">
<style type="text/css">
	.st0{fill:#F8E54B;}
	.st1{fill:#F4F4F4;}
</style>
<title>logo</title>
<path class="st0" d="M153,71.5h-40.8c-4.4,0-8-3.6-8-8V24.6c0-9.7-7.9-17.5-17.6-17.5c0,0,0,0,0,0l0,0C77,7,69.1,14.9,69.1,24.6
	v38.9c0,4.4-3.6,8-8,8H20.4c-9.9,0-18.2,8.1-18,17.9c0.2,9.6,8,17.2,17.6,17.2h41.3c4.4,0,8,3.6,8,8v38.9c0,9.7,7.9,17.5,17.5,17.6
	l0,0c9.7,0,17.6-7.9,17.6-17.6v-38.9c0-4.4,3.6-8,8-8h41.3c9.6,0,17.4-7.7,17.5-17.2C171.1,79.6,162.8,71.5,153,71.5z"/>
<path class="st0" d="M196.2,5.5c-6.1-6.1-16.1-6.1-22.2,0l0,0c-6.1,6.1-6.1,16.1,0,22.2l49.8,49.8c4.6,4.7,4.6,12.2,0,16.8
	L174,144.2c-6.1,6.1-6.1,16.1,0,22.2l0,0c6.1,6.1,16.1,6.1,22.2,0l72.7-72.7c4.3-4.3,4.3-11.2,0-15.5c0,0,0,0,0,0L196.2,5.5z"/>
<path class="st1" d="M341.5,163.3c-8.7-5.1-15.8-12.7-20.3-21.8c-9.6-18.7-7.6-42.6-7.2-63c0.2-12.2,0.2-24.5,3.2-36.4
	C323.5,16.6,345.8,1,372,1c9.1-0.1,18.2,2,26.3,6.1c8,4.1,14.9,10.1,20.1,17.4c2.3,3.2,4.3,6.7,6,10.3c2.6,5.9,0,12.7-5.9,15.3
	c-1.5,0.7-3.1,1-4.7,1h-0.3c-4.5,0-8.7-2.6-10.6-6.7c-0.5-1.1-1-2.2-1.4-2.8c-1.7-2.9-3.9-5.6-6.3-8c-5.1-4.9-11.5-8.2-18.5-9.4
	c-12-1.9-24,3.1-31.1,13c-7.4,10.7-7.3,24.7-7.8,37.7c-0.5,11.5-1.6,22.8-0.5,34.2c1.2,11.9,5.5,25,15.2,32.7
	c16.5,13,42,4.5,50.5-13.6c1.8-4,5.8-6.6,10.2-6.6h1.1c6.1,0,11.1,5,11.1,11.1c0,1.6-0.3,3.1-1,4.5c-1.7,3.7-3.7,7.2-6.1,10.4
	c-5.2,7.3-12.1,13.3-20.2,17.4c-8.1,4.1-17.1,6.2-26.2,6.1C360.4,171,350.3,168.4,341.5,163.3z"/>
<path class="st1" d="M482.8,162.9c-26.2-15.9-28.9-46.3-28.9-74c0-14.2,0-28.7,3.5-42.5c7.4-28.9,33.5-49,63.8-44.9
	c19.3,2.6,36.8,15.1,44.5,33.1c6.5,15.2,5.4,31.3,5.7,47.4c0.7,28.6,1.7,58.5-23.6,77.5c-16,11.7-36.9,14.7-55.6,7.9
	C489,166.2,485.8,164.7,482.8,162.9z M531.2,143.5c13.5-9.7,16.5-28.1,17.6-43.7c1.7-25.4,1.6-70.5-31.4-75.1
	c-25.5-3.5-36,18.8-38.2,40.1c-2.8,27-7,81,31.7,83.9C518,149.5,525.2,147.6,531.2,143.5z"/>
<path class="st1" d="M767.1,7.1h9.7V171h-9.7c-7.3,0-13.3-5.9-13.3-13.3v0V20.3C753.8,13,759.8,7.1,767.1,7.1L767.1,7.1z M765,7.1
	h66.6c6,0,10.9,4.9,10.9,10.9c0,0,0,0,0,0l0,0c0,6-4.9,10.9-11,10.9c0,0,0,0,0,0h-66.6L765,7.1z M765,78.7h66.6
	c6,0,10.9,4.9,10.9,10.9l0,0c0,6-4.9,10.9-10.9,10.9c0,0,0,0,0,0h-66.6L765,78.7z M765,149.1h66.6c6,0,10.9,4.9,10.9,10.9
	c0,0,0,0,0,0l0,0c0,6-4.9,10.9-10.9,10.9h-66.7L765,149.1z"/>
<path class="st1" d="M719.4,78.1c-0.9-13.6-1.1-27.5-6.7-40.1c-5.2-9.4-12.8-17.4-22-23l0,0c-19.5-11.5-43-9.7-64.6-8.5
	c-8.3,0.3-22.6,0.5-22.6,11.5c0,7.1,2.8,8.8,9.2,9.2c16,0.5,38.5-1.7,54.8,1.8c6.9,1.8,13.3,5.5,18.3,10.5
	c9.6,9.8,9.8,23.4,9.9,36.1c0.2,12.3,0.9,24.7-0.3,37c-3.1,40.8-34.1,36.5-67.9,37.6V51.7c-0.5-15.2-22.5-15.2-23,0v105.9
	c0,8.3,7.5,13.3,15.6,13.3c6.6,0,32.2,0.1,33.7,0.1c5.8,0.2,11.6-0.2,17.3-1.2h0.1c20.1-4.2,36.8-18.1,44.6-37.1
	C721.6,115.5,720.5,96,719.4,78.1z"/>
</svg>
