<?xml version="1.0" encoding="utf-8"?>
<!-- Generator: Adobe Illustrator 24.0.2, SVG Export Plug-In . SVG Version: 6.00 Build 0)  -->
<svg version="1.1" xmlns="http://www.w3.org/2000/svg" xmlns:xlink="http://www.w3.org/1999/xlink" x="0px" y="0px"
	 viewBox="0 0 960 736" style="enable-background:new 0 0 960 736;" xml:space="preserve">
<style type="text/css">
	.st0{fill:#37474F;}
	.st1{opacity:0.1;fill:#8EAEC0;enable-background:new    ;}
	.st2{opacity:5.000000e-02;fill:#8EAEC0;enable-background:new    ;}
	.st3{opacity:7.000000e-02;fill:#8EAEC0;enable-background:new    ;}
	.st4{opacity:0.5;}
	.st5{fill:#8EAEC0;}
	.st6{opacity:0.4;}
	.st7{opacity:0.2;}
	.st8{opacity:0.1;}
	.st9{opacity:0.2;fill:#FFFFFF;enable-background:new    ;}
	.st10{fill:#FFFFFF;}
	.st11{opacity:0.5;fill:#8EAEC0;enable-background:new    ;}
	.st12{opacity:0.1;enable-background:new    ;}
	.st13{opacity:0.4;fill:#FFFFFF;enable-background:new    ;}
	.st14{opacity:0.65;fill:#FFFFFF;enable-background:new    ;}
	.st15{opacity:0.3;fill:#8EAEC0;enable-background:new    ;}
	.st16{opacity:0.2;fill:#8EAEC0;enable-background:new    ;}
	.st17{opacity:0.3;}
	.st18{fill:#E0E0E0;}
	.st19{opacity:0.2;enable-background:new    ;}
	.st20{opacity:0.15;enable-background:new    ;}
	.st21{opacity:0.1;fill:#FFFFFF;enable-background:new    ;}
	.st22{fill:#E8E8E8;}
	.st23{fill:#7E57C2;}
	.st24{opacity:0.4;enable-background:new    ;}
	.st25{opacity:0.3;enable-background:new    ;}
	.st26{fill:#FFA8A7;}
	.st27{opacity:0.3;fill:#FFFFFF;enable-background:new    ;}
	.st28{fill:#455A64;}
	.st29{opacity:0.5;fill:#FFFFFF;enable-background:new    ;}
	.st30{opacity:0.8;}
	.st31{opacity:0.7;}
	.st32{opacity:0.7;fill:#FFFFFF;enable-background:new    ;}
	.st33{fill:#F5F5F5;}
	.st34{fill:#E6E6E6;}
	.st35{fill:#263238;}
	.st36{fill:#FAFAFA;}
	.st37{opacity:0.35;}
	.st38{opacity:0.6;fill:#8EAEC0;enable-background:new    ;}
	.st39{fill:#FFBDA7;}
	.st40{fill:#F28F8F;}
	.st41{fill:#F0F0F0;}
	.st42{fill:#B16668;}
</style>
<g id="Capa_2">
	<g id="freepik--Background--inject-11">
		<g id="freepik--background--inject-11_1_">
			<path id="freepik--background--inject-11" class="st0" d="M999.2,751.7c147.4-196.4,112.8-623.6-87.7-856.1
				C697-353.1,335-371.5,70.3-137.4C-209.5,110.1-264.6,623.2-31.9,813c12.2,9.9,24.8,19.4,37.9,28.3c12.6,8.9,26.1,17.6,40.6,26
				C235,976.1,520.7,994.5,742.2,922.6c36-10.9,70.9-24.9,104.5-41.8c27.4-14.1,53.3-31.1,77.3-50.6
				C955.6,805.7,980.7,779.3,999.2,751.7z"/>
			<g id="freepik--Light--inject-11">
				<circle class="st1" cx="455" cy="419.4" r="190"/>
				<circle class="st1" cx="455" cy="419.4" r="253.5"/>
				<circle class="st1" cx="455" cy="419.4" r="326.3"/>
				<circle class="st1" cx="455" cy="419.4" r="399.3"/>
				<circle class="st1" cx="455" cy="419.4" r="486.3"/>
				<path class="st2" d="M1089.8,416.4c0-4,0-8-0.1-12.1c0-0.6,0-1.1,0-1.7c-9-342.9-289.6-618.1-634.7-618.1
					c-267,0-495.5,164.9-589.3,398.3c-34.1,102-48.4,209-41.6,307.9c11.4,102,47.5,199.8,105.2,284.7c11.8,13.5,24.8,26.1,38.7,37.5
					c12.2,9.9,24.9,19.4,37.9,28.3c12.6,8.9,26.1,17.6,40.6,26C235,976.1,520.7,994.5,742.2,922.6c36-10.9,70.9-24.9,104.5-41.8
					c27.4-14.1,53.3-31.1,77.3-50.6c19.6-15,37.6-31.9,53.8-50.4c72.7-105.2,111.8-230.1,112.1-358
					C1089.8,419.9,1089.8,418.2,1089.8,416.4z"/>
				<path class="st3" d="M1023.8,419.4c0-314.1-254.7-568.8-568.8-568.8s-568.8,254.7-568.8,568.8c0,220.7,127.6,421.5,327.4,515.2
					c150.6,40.1,324.8,41.1,476.6,2.9C893.4,845.2,1023.8,642.6,1023.8,419.4z"/>
			</g>
		</g>
	</g>
</g>
<g id="Capa_3">
	<g id="freepik--Planets--inject-11">
		<g id="freepik--Planet--inject-11">
			<g id="freepik--Rings--inject-11">
				<g class="st4">
					<path class="st5" d="M431.9,68.6c-8.8,0-15.9-7.1-16-15.9c0-7,4.5-13.2,11.2-15.2l0,0c8.4-2.6,17.4,2.1,20,10.5
						s-2.1,17.4-10.5,20l0,0C435.1,68.4,433.5,68.6,431.9,68.6z M431.9,37.1c-1.6,0-3.1,0.2-4.6,0.7l0,0
						c-8.2,2.6-12.8,11.3-10.2,19.5s11.3,12.8,19.5,10.2c8.2-2.6,12.8-11.3,10.2-19.5C444.7,41.5,438.7,37.1,431.9,37.1z"/>
				</g>
				<g class="st6">
					<path class="st5" d="M431.9,69.8c-9.4,0-17.1-7.6-17.1-17.1s7.6-17.1,17.1-17.1c9.4,0,17.1,7.6,17.1,17.1
						c0,7.5-4.8,14.1-12,16.3C435.3,69.5,433.6,69.8,431.9,69.8z M431.9,36c-9.2,0-16.7,7.5-16.8,16.7c0,1.7,0.3,3.4,0.8,5
						c2.8,8.8,12.1,13.7,20.9,11c4.2-1.3,7.8-4.3,9.8-8.2c4.3-8.2,1.1-18.3-7-22.6C437.2,36.6,434.6,35.9,431.9,36L431.9,36z"/>
				</g>
				<g class="st7">
					<path class="st5" d="M431.9,71.2c-10.2,0-18.5-8.3-18.5-18.5c0-10.2,8.3-18.5,18.5-18.5c10.2,0,18.5,8.3,18.5,18.5
						c0,8.1-5.3,15.3-13,17.7C435.6,70.9,433.7,71.2,431.9,71.2z M431.9,34.5c-1.8,0-3.7,0.3-5.4,0.8c-9.6,3-14.9,13.2-11.9,22.7
						c3,9.6,13.2,14.9,22.7,11.9c9.6-3,14.9-13.1,11.9-22.7C446.9,39.7,439.8,34.5,431.9,34.5L431.9,34.5z"/>
				</g>
				<g class="st8">
					<path class="st5" d="M431.9,72.9c-11.2,0-20.3-9.1-20.3-20.3c0-8.9,5.8-16.7,14.2-19.4l0,0c10.7-3.4,22.1,2.5,25.5,13.1
						c3.4,10.7-2.5,22.1-13.1,25.5c-0.1,0-0.2,0.1-0.3,0.1C436,72.6,433.9,72.9,431.9,72.9z M431.9,32.7c-2,0-4.1,0.3-6,0.9l0,0
						c-10.4,3.3-16.2,14.4-12.9,24.8s14.4,16.2,24.8,12.9S454,57,450.7,46.5C448.1,38.3,440.5,32.7,431.9,32.7z"/>
				</g>
			</g>
			<g id="freepik--planet--inject-11">
				<circle class="st5" cx="431.9" cy="52.7" r="14.6"/>
				<circle class="st9" cx="431.9" cy="52.7" r="14.6"/>
				<path class="st5" d="M433,44.1l-1.6,0.8c-0.5,0.2-1.4,0.7-0.6,1.3c0.2,0.1,0.4,0.2,0.6,0.2c1.1,0.1,2.2-0.3,3.1-1.1
					c0.3-0.3,0.7-0.9,0.5-1.3c0-0.1-0.1-0.1-0.1-0.2C434.4,43.4,433.4,43.9,433,44.1z M444.9,52.8c-0.3,0.8-0.7,1.6-1.2,2.3
					c-0.9,1.1-2.5,1.3-3.9,1.7s-2.9,1.4-2.9,2.8c0.3-0.6,0.9-1,1.5-1.2c0.6-0.1,1.4,0.4,1.3,1.1c-0.1,0.2-0.2,0.4-0.3,0.6
					c-2.1,2.8-5.9,3-8.8,4.7c-0.8,0.5-1.5,1.2-1.9,2.1c7.9,1.7,15.7-3.3,17.4-11.2c0.3-1.4,0.4-2.9,0.3-4.3
					C445.8,51.6,445.2,52.1,444.9,52.8z M433.2,41.9c1.1-0.9,2.1-2,2.8-3.2c-0.6-0.2-1.3-0.3-1.9-0.4c-1.4,1.2-3,2.1-4.7,2.8
					c-3.4,1.4-7,2.3-10,4.1c-0.9,1.5-1.6,3.2-1.9,5c0.6-0.9,1.3-1.6,2.1-2.3C423.5,44.7,429.3,44.9,433.2,41.9z M440.4,53.4
					c1.1-1.2,2.1-2.5,2.9-3.9c0.6-1.1,1-2.3,1.1-3.5c0-0.3,0-0.6,0-0.9c-0.3-0.5-0.6-1-1-1.5c-0.6,2.6-1.7,5.3-4.1,6.3
					c-0.7,0.2-1.5,0.5-2.1,0.8c-0.3,0.2-0.4,0.5-0.3,0.9c0.1,0.2,0.2,0.4,0.4,0.5c0.7,1.4-2.9,2.5-3.7,2.6c-1.6,0.3-3.3,0.4-4.7,1.2
					c-0.2,0.1-0.5,0.3-0.5,0.6c0,0.6,1.3,0.8,1,1.3c-0.1,0.1-0.2,0.2-0.4,0.3c-2.3,0.9-5.2,0.5-6.8,2.4c-0.5,0.6-0.1,1.1,0.1,1.7
					s-0.1,0.7-0.6,0.8c0.6,0.6,1.2,1.1,1.9,1.6c0.3,0,0.6-0.1,0.9-0.2c3.2-0.8,6.3-2.2,8.9-4.3C435.8,58.2,438.2,55.9,440.4,53.4
					L440.4,53.4z M432.4,52.6c3.5-1.5,6.5-4,8.6-7.2c0.5-0.9,1-1.9,1.3-2.8c-0.8-0.8-1.6-1.4-2.5-2c-0.9,2.9-2.7,5.5-5.1,7.4
					c-3.5,2.6-8.1,3.5-11.9,5.8c-1.8,1.1-3.4,2.4-4.7,3.9c0.5,1.4,1.1,2.7,2,3.9c0.1-0.2,0.2-0.4,0.3-0.6c0.9-1.6,2.1-3,3.6-4.1
					C426.5,54.8,429.6,53.8,432.4,52.6L432.4,52.6z"/>
				<path class="st9" d="M426.1,60.6c-0.9,0.2-1.7,0.5-1.3,1.1c0.3,0.4,0.9,0.4,1.3,0.3c0.5-0.1,1-0.2,1.5-0.5
					c0.2-0.1,0.4-0.3,0.5-0.6C428.1,60.1,426.5,60.5,426.1,60.6z"/>
				<path class="st9" d="M433.2,56.2c-0.4-0.2-1.7-0.2-1.4,0.5c0.1,0.3,0.4,0.3,0.7,0.3c0.3,0,0.5-0.1,0.7-0.2
					c0.1-0.1,0.3-0.2,0.3-0.4S433.3,56.3,433.2,56.2z"/>
				<g class="st4">
					<path class="st10" d="M437.2,64.1c-0.4-1.2-4.1,0.5-3.6,1.3c0.2,0.2,0.4,0.3,0.6,0.3c0.5,0.1,1.1,0,1.6-0.2
						c0.4-0.1,0.7-0.3,1-0.5C437.1,64.9,437.3,64.5,437.2,64.1z"/>
				</g>
				<path class="st9" d="M434.6,47.4c-1.6,1.1-3.4,2-5.4,2.6c-1.9,0.6-3.7,1.3-5.5,2.1c-2.3,1-4.3,2.5-6,4.4c0,0.2,0.1,0.4,0.2,0.6
					s0.2,0.5,0.3,0.7c0.5-0.7,1-1.4,1.7-2c2.6-2.5,6.1-3.9,9.4-5.1c2-0.6,3.9-1.6,5.5-3l0.1-0.1c0,0,0.1-0.1,0.1-0.1
					c0-0.1,0-0.2-0.1-0.2C434.8,47.3,434.7,47.3,434.6,47.4z M435.6,38.5c-0.1,0.2-0.2,0.4-0.3,0.6c-0.9,1.3-2.1,2.3-3.4,3.1
					c-1.5,0.8-3,1.4-4.5,1.9c-0.9,0.3-1.8,0.6-2.6,1s-1.6,0.7-2.4,1.1c0,0,0,0.2,0,0.1c1-0.3,2-0.6,3-0.8s2-0.5,3-0.8
					c1.7-0.5,3.3-1.2,4.8-2.1c1.3-0.8,2.4-1.9,3.3-3.2c0.1-0.2,0.2-0.4,0.3-0.6C436.3,38.7,436,38.6,435.6,38.5L435.6,38.5z
					 M426.4,42.4c0.7-0.2,1.4-0.5,2.1-0.8c0.3-0.1,0.7-0.3,1-0.5c0.4-0.2,0.8-0.4,1.1-0.6v-0.1c-0.3,0.1-0.6,0.2-0.9,0.3
					s-0.9,0.2-1.3,0.3l-2.4,0.7c-1.6,0.4-3.1,0.9-4.6,1.4l-1,0.4c-0.4,0.5-0.7,0.9-1,1.4c0.8-0.4,1.7-0.8,2.5-1.1
					C423.4,43.3,424.9,42.9,426.4,42.4L426.4,42.4z"/>
				<path class="st11" d="M429.7,38.2c5.5-0.6,13.1,7.3,12.3,15.7c-0.9,9-11.2,13.8-17.3,11.5l0,0c7,4,16,1.5,19.9-5.5
					c4-7,1.5-16-5.5-19.9C436.2,38.3,432.9,37.7,429.7,38.2L429.7,38.2z"/>
				<path class="st12" d="M436.2,66.6c7.7-2.4,12-10.6,9.6-18.3c-1.5-4.8-5.4-8.6-10.3-9.8c0.6,0.2,8,2.2,9.3,12.5
					c1.3,10.8-8.6,15.7-10.8,16.2C434.8,67,435.5,66.9,436.2,66.6z"/>
				<path class="st13" d="M427.6,44.3c-0.4-1.2-1.7-1.9-2.9-1.5c-1.2,0.4-1.9,1.7-1.5,2.9c0.4,1.2,1.7,1.9,2.9,1.5c0,0,0,0,0,0
					C427.3,46.8,428,45.5,427.6,44.3z M421.8,48.3c-2.1,0.7-3.2,2.9-2.6,4.9c0.7,2.1,2.9,3.2,4.9,2.6c2.1-0.6,3.2-2.8,2.6-4.9
					C426.2,48.8,424,47.6,421.8,48.3C421.8,48.3,421.8,48.3,421.8,48.3L421.8,48.3z M429.2,47.6c-0.9,0.3-1.5,1.3-1.2,2.3
					c0.3,0.9,1.3,1.5,2.3,1.2c0.9-0.3,1.5-1.3,1.2-2.2C431.2,47.9,430.2,47.3,429.2,47.6C429.2,47.6,429.2,47.6,429.2,47.6
					L429.2,47.6z"/>
			</g>
		</g>
		<g id="freepik--planet--inject-11_2_">
			<g id="freepik--rings--inject-11">
				<g class="st4">
					<path class="st5" d="M164.6,136.6c-2.7,0-5.4-0.4-8-1.3c-13.1-4.4-20.2-18.6-15.8-31.8s18.6-20.2,31.8-15.8
						c13.1,4.4,20.2,18.6,15.8,31.8C184.9,129.8,175.4,136.6,164.6,136.6z M164.5,86.9c-3.8,0-7.5,0.9-10.9,2.6
						c-12.1,6-17.1,20.8-11,32.9s20.8,17.1,32.9,11c12.1-6,17.1-20.8,11-32.9c0,0,0,0,0,0l0,0c-2.9-5.8-8-10.2-14.1-12.3
						C169.8,87.4,167.2,86.9,164.5,86.9z"/>
				</g>
				<g class="st6">
					<path class="st5" d="M164.6,138.4c-2.9,0-5.8-0.5-8.6-1.4c-14-4.7-21.6-20-16.8-34c4.7-14,20-21.6,34-16.8
						c14,4.7,21.6,20,16.8,34C186.3,131.1,176.1,138.4,164.6,138.4z M164.5,85.2c-14.5,0-26.3,11.9-26.3,26.4
						c0,14.5,11.9,26.3,26.4,26.3c14.5,0,26.3-11.9,26.3-26.4c0-4-1-8-2.8-11.7C183.7,90.8,174.5,85.1,164.5,85.2z"/>
				</g>
				<g class="st7">
					<path class="st5" d="M164.6,140.7c-3.2,0-6.3-0.5-9.3-1.5c-15.2-5.1-23.3-21.6-18.2-36.8c5.1-15.2,21.6-23.3,36.8-18.2
						c15.2,5.1,23.3,21.6,18.2,36.8C188.1,132.8,177,140.7,164.6,140.7z M164.5,82.9c-15.8,0-28.6,12.9-28.5,28.6
						c0,15.8,12.9,28.6,28.6,28.5c15.8,0,28.6-12.9,28.5-28.6c0-4.4-1-8.7-3-12.7l0,0C185.3,89.1,175.4,82.9,164.5,82.9z"/>
				</g>
				<g class="st8">
					<path class="st5" d="M164.6,143.5c-17.7,0-32-14.3-32.1-31.9c0-17.7,14.3-32,31.9-32.1c17.7,0,32,14.3,32.1,31.9
						c0,12.2-6.9,23.3-17.8,28.7C174.4,142.3,169.5,143.5,164.6,143.5z M164.5,80.1c-17.3,0-31.4,14.1-31.4,31.4
						c0,17.3,14.1,31.4,31.4,31.4c17.3,0,31.4-14.1,31.4-31.4c0-4.8-1.1-9.6-3.3-13.9l0,0c-3.7-7.5-10.2-13.2-18.1-15.8
						C171.3,80.7,167.9,80.1,164.5,80.1z"/>
				</g>
			</g>
			<g id="freepik--planet--inject-11_1_">
				<circle class="st5" cx="164.6" cy="111.5" r="23.1"/>
				<circle class="st14" cx="164.6" cy="111.5" r="23.1"/>
				<g class="st7">
					<path class="st5" d="M156.9,93.9c0.8,1.8,1.6,3.5,2.5,5.2s1.9,3.3,2.9,5s2.4,3.3,2.9,5.2c0.3,1.7,0.7,3.4,1.2,5
						c0.7,1.6,1.6,3.1,2.7,4.4c2.4,2.7,5.2,4.9,8.4,6.5c1.3,0.7,2.7,1.4,4.1,2c0.4-0.5,0.9-1,1.2-1.4c-1.4-0.7-2.8-1.3-4.2-2.1
						c-3-1.4-5.6-3.4-7.9-5.8c-1.1-1.2-2.1-2.7-2.7-4.2c-0.7-1.7-0.8-3.4-1.2-5.1c-0.6-1.7-1.5-3.3-2.6-4.7c-1-1.5-1.9-3-2.8-4.6
						c-1-1.8-1.9-3.7-2.8-5.5c-0.6-1.2-1-2.3-1.6-3.5l-0.2-0.4c-0.5,0.2-0.9,0.3-1.4,0.5C155.9,91.5,156.4,92.7,156.9,93.9z"/>
					<path class="st5" d="M163,95c1.2,2.7,2.9,5.2,4.8,7.4c1.9,2.1,4.4,4.1,4.7,7.1c0.2,2.3,1.1,4.6,2.6,6.4
						c2.1,2.3,4.5,4.1,7.3,5.5c0.8,0.4,1.5,0.8,2.3,1.2c0.3-0.6,0.6-1.1,0.9-1.7l-0.6-0.3l-1.9-1c-1.4-0.7-2.7-1.5-3.9-2.4
						c-1.3-1.1-2.4-2.4-3.4-3.8c-0.5-0.8-1.8-3.2-0.9-4.1c0.3-0.2,0.7-0.1,0.9,0.1c2.4,1.6,5,3,7.6,4.2c0.7,0.3,1.4,0.5,2.1,0.6
						c0.5,0,1,0,1.5-0.1l0.4-0.1c0-0.4,0.1-0.8,0.1-1.3h-0.1c-1.7,0.1-3.8-0.9-5.3-1.6c-2.1-1-4.1-2.2-5.9-3.7
						c-4.5-3.1-8.3-7.2-11-12c-1.1-2.2-2-4.6-2.5-7c-0.6,0-1.1,0.1-1.7,0.2C161.4,90.9,162,93,163,95z"/>
					<path class="st5" d="M172.2,99.9c2.7,3.8,6.1,6.9,10,9.3c1,0.6,2,1,3.1,1.3c0.7,0.2,1.5,0.3,2.3,0.3c0-0.4,0-0.7-0.1-1.1h-0.2
						c-0.5,0-0.9-0.1-1.4-0.2c-1-0.3-2-0.6-2.9-1.1c-1.9-1.1-3.6-2.4-5.1-3.9c-3.4-3.2-6.3-7-8.5-11.2c-0.8-1.5-1.5-3.1-2.1-4.8
						c-0.4,0-0.9-0.1-1.3-0.1C167.5,92.6,169.6,96.5,172.2,99.9z"/>
					<path class="st5" d="M172.2,90.9c0.4,1.4,0.9,2.7,1.5,4c1.3,2.4,2.9,4.6,4.8,6.6c1.8,2.1,3.8,4,6.1,5.6
						c0.9,0.6,1.8,1.1,2.8,1.3c-0.1-0.7-0.2-1.3-0.4-2c-0.9-0.4-1.7-0.9-2.5-1.5c-2-1.6-3.8-3.3-5.4-5.3c-1.7-1.8-3.1-3.9-4.3-6.1
						c-0.5-1.1-1-2.2-1.3-3.4c-0.6-0.2-1.1-0.5-1.7-0.7C172,90.1,172.1,90.5,172.2,90.9z"/>
					<path class="st5" d="M164.7,133.4c-2.8-0.9-5.5-2.3-7.9-4c-2.4-1.7-5-3.9-5.7-6.9c-0.3-1.5,0.4-3,0-4.5s-1.5-3-2.4-4.4
						c-1.2-1.7-2.3-3.5-3.2-5.4c-0.9-1.7-1.6-3.4-2.3-5.2c-0.3,0.7-0.5,1.4-0.7,2.2c0.6,1.8,1.4,3.6,2.3,5.2c0.9,1.7,1.9,3.3,3,4.8
						c0.5,0.7,1,1.4,1.4,2.2c0.3,0.6,0.7,3.3-0.3,3.2c-0.6-0.1-1.2-1.1-1.6-1.5c-0.5-0.6-1.1-1.2-1.6-1.8c-1.2-1.3-2.4-2.7-3.6-4.1
						l-0.6-0.8c0,0.9,0.1,1.7,0.2,2.6c0.9,1.1,1.9,2.2,2.8,3.3c1.6,1.7,3.1,3.6,4.5,5.5c1.3,2,2.8,3.8,4.5,5.4
						c2.5,2.2,5.4,4,8.5,5.2l0,0c2,0.2,4.1,0.2,6.1-0.1C167,134,165.8,133.7,164.7,133.4z"/>
					<path class="st5" d="M159.8,105.7c-1.4-1.5-2.7-3-3.8-4.8c-1.1-1.6-2-3.3-2.9-5.1c-0.5-1-1-2-1.4-3l-0.1-0.3
						c-0.4,0.3-0.8,0.6-1.2,0.9c0.4,1,0.8,2,1.2,2.9c0.8,1.9,1.9,3.8,3,5.6c1.1,1.8,2.5,3.4,3.9,4.9c1.4,1.4,3.1,2.6,4.1,4.3
						c0.1,0.2,0.5,0,0.5-0.2C163,108.7,161.3,107.2,159.8,105.7z"/>
					<path class="st5" d="M154.8,115.4c2.5,2.9,5.1,5.7,7.9,8.3c2.6,2.6,5.6,4.7,8.9,6.3c1.4,0.6,2.8,1.2,4.2,1.7
						c0.7-0.4,1.3-0.8,1.9-1.2c-1.5-0.6-3.1-1.1-4.6-1.8c-3.2-1.4-6.1-3.3-8.7-5.6c-2.6-2.4-5.1-4.9-7.4-7.6
						c-2.4-2.6-4.5-5.6-6.2-8.7c-0.9-1.7-1.6-3.4-2.1-5.2c-0.5-1.9-0.9-3.7-1.1-5.7c-0.4,0.4-0.8,0.9-1.2,1.4c0.1,3,0.9,6,2.1,8.7
						C150.2,109.3,152.3,112.5,154.8,115.4z"/>
					<path class="st5" d="M164,117.9c-1.6-1.5-3-3.1-4.4-4.9c0-0.1-0.2,0-0.2,0.1c2,3.7,4.8,7,8.1,9.6c3.2,2.5,6.7,4.4,10.5,5.7
						c0.5,0.2,1,0.3,1.5,0.5c0.4-0.3,0.7-0.7,1.1-1C174.4,126.1,168.7,122.6,164,117.9z"/>
					<path class="st5" d="M171.5,132.3c-1.9-0.8-3.8-1.7-5.7-2.6c-2.1-1-4-2.3-5.7-3.8c-0.8-0.7-1.6-1.5-2.4-2.3
						c-0.5-0.5-0.9-1-1.4-1.4c-0.4-0.5-0.8-0.9-1.2-1.3c-0.2-0.1-0.6,0.1-0.5,0.3c0.2,0.5,0.5,1,0.8,1.5c0.3,0.5,0.6,1,0.9,1.4
						c2.1,3.1,5.1,5.6,8.6,7.2c1.8,0.9,3.6,1.8,5.5,2.6c1-0.3,1.9-0.6,2.8-1C172.7,132.7,172.1,132.5,171.5,132.3z"/>
				</g>
				<path class="st15" d="M186.5,104.5c2.3,8.4-8,22.2-21.4,23c-14.2,0.8-24.3-14-22.2-24l0,0c-4.5,11.9,1.6,25.2,13.5,29.7
					c11.9,4.5,25.2-1.6,29.7-13.5C188,114.7,188.1,109.4,186.5,104.5z"/>
				<path class="st16" d="M143.9,121.8c5.7,11.4,19.5,16.1,30.9,10.4c7.2-3.6,12-10.6,12.7-18.5c-0.1,1-1.4,13-17.1,17.6
					c-16.4,4.7-26.5-9.4-27.8-12.8C142.9,119.6,143.4,120.7,143.9,121.8z"/>
				<path class="st13" d="M176.5,102.8c1.8-0.9,2.5-3,1.6-4.8c-0.9-1.8-3-2.5-4.8-1.6c-1.8,0.9-2.5,3-1.6,4.8c0,0,0,0,0,0
					C172.6,103,174.7,103.7,176.5,102.8z M168.9,94.7c-1.5-3.1-5.3-4.3-8.3-2.8c-3.1,1.5-4.3,5.3-2.8,8.3c1.5,3.1,5.3,4.3,8.3,2.8
					c0,0,0,0,0,0C169.1,101.5,170.4,97.8,168.9,94.7z M171.8,106c-0.7-1.4-2.4-2-3.8-1.3c-1.4,0.7-2,2.4-1.3,3.8
					c0.7,1.4,2.4,2,3.8,1.3C171.9,109.2,172.5,107.5,171.8,106z"/>
			</g>
			<g id="freepik--Ring--inject-11" class="st17">
				<path class="st10" d="M195.1,132.3c1.5-2,1.3-5.4,0.1-8.1c-1.8-4.2-4.4-8-7.6-11.3l-0.1,0.7c0.5,0.6,1,1.2,1.5,1.8
					c8.4,10.8,4.2,17.9-9.4,15.8c-0.8-0.1-1.6-0.3-2.4-0.5c-12.3-2.7-27.3-11.6-35.6-21.1c-0.6-0.6-1.1-1.3-1.6-1.9
					c-8.4-10.8-4.2-17.9,9.4-15.8c0.8,0.1,1.5,0.3,2.3,0.4l0.5-0.3c-4.4-1.3-9-1.7-13.5-1.1c-3.3,0.3-5.5,1.6-6.5,3.1
					c-0.8,1.2-1.1,2.7-0.8,4.2c0.3,1.5,0.8,2.9,1.4,4.3c0.9,1.8,2,3.4,3.2,5c2.2,2.7,4.6,5.3,7.2,7.6c8.4,7.4,18.1,13.1,28.6,17
					c3.3,1.2,6.6,2.1,10.1,2.7C188.4,135.7,193.2,134.8,195.1,132.3z"/>
			</g>
			<g id="freepik--ring--inject-11" class="st7">
				<path class="st5" d="M195.1,132.3c1.5-2,1.3-5.4,0.1-8.1c-1.8-4.2-4.4-8-7.6-11.3l-0.1,0.7c0.5,0.6,1,1.2,1.5,1.8
					c8.4,10.8,4.2,17.9-9.4,15.8c-0.8-0.1-1.6-0.3-2.4-0.5c-12.3-2.7-27.3-11.6-35.6-21.1c-0.6-0.6-1.1-1.3-1.6-1.9
					c-8.4-10.8-4.2-17.9,9.4-15.8c0.8,0.1,1.5,0.3,2.3,0.4l0.5-0.3c-4.4-1.3-9-1.7-13.5-1.1c-3.3,0.3-5.5,1.6-6.5,3.1
					c-0.8,1.2-1.1,2.7-0.8,4.2c0.3,1.5,0.8,2.9,1.4,4.3c0.9,1.8,2,3.4,3.2,5c2.2,2.7,4.6,5.3,7.2,7.6c8.4,7.4,18.1,13.1,28.6,17
					c3.3,1.2,6.6,2.1,10.1,2.7C188.4,135.7,193.2,134.8,195.1,132.3z"/>
			</g>
		</g>
		<g id="freepik--planet--inject-11_4_">
			<g id="freepik--rings--inject-11_1_">
				<g class="st4">
					<path class="st5" d="M129.4,333.5c-7.2,0-13.1-5.8-13.1-13.1c0-7.2,5.8-13.1,13.1-13.1c7.2,0,13.1,5.8,13.1,13.1
						c0,5.7-3.7,10.8-9.2,12.5C132,333.3,130.7,333.5,129.4,333.5z M129.4,307.6c-1.3,0-2.6,0.2-3.8,0.6c-6.7,2.1-10.4,9.3-8.3,16
						c2.1,6.7,9.3,10.4,16,8.3c6.7-2.1,10.4-9.3,8.3-16C139.9,311.2,134.9,307.6,129.4,307.6z"/>
				</g>
				<g class="st6">
					<path class="st5" d="M129.4,334.4c-7.7,0.1-14.1-6-14.2-13.8c-0.1-6.3,4-11.9,10.1-13.7l0,0c7.4-2.3,15.3,1.8,17.6,9.2
						c2.3,7.4-1.8,15.2-9.2,17.6c0,0,0,0,0,0C132.2,334.2,130.8,334.4,129.4,334.4z M125.3,307.3L125.3,307.3
						c-7.2,2.3-11.3,10-9,17.2c2.5,7.2,10.3,11,17.4,8.5c6.9-2.4,10.8-9.7,8.8-16.7C140.2,309.1,132.5,305,125.3,307.3z"/>
				</g>
				<g class="st7">
					<path class="st5" d="M129.4,335.6c-8.4-0.1-15.1-7-15-15.4c0.1-6.5,4.3-12.3,10.5-14.3l0,0c8-2.5,16.5,2,19,10
						c2.5,8-2.1,16.5-10.1,19C132.4,335.4,130.9,335.6,129.4,335.6z M124.9,306.2c-7.8,2.5-12.2,10.8-9.8,18.7
						c2.5,7.8,10.8,12.2,18.7,9.8c3.8-1.2,6.9-3.8,8.7-7.3c1.8-3.5,2.2-7.6,1-11.4C141.1,308.1,132.7,303.7,124.9,306.2L124.9,306.2
						z"/>
				</g>
				<g class="st8">
					<path class="st5" d="M129.4,337c-9.2,0-16.7-7.5-16.7-16.7c0-7.3,4.7-13.7,11.7-15.9v0.1v-0.1c8.8-2.8,18.1,2.1,20.9,10.9
						c2.8,8.8-2.1,18.1-10.9,20.9C132.8,336.8,131.1,337,129.4,337z M129.4,304c-1.7,0-3.3,0.3-4.9,0.8
						c-8.6,2.7-13.3,11.8-10.6,20.4c2.7,8.6,11.8,13.3,20.4,10.6s13.3-11.8,10.6-20.4C142.8,308.7,136.5,304.1,129.4,304z"/>
				</g>
			</g>
			<g id="freepik--planet--inject-11_3_">
				<path class="st18" d="M125.8,308.9c6.3-2,13.1,1.5,15,7.9c2,6.3-1.5,13.1-7.9,15c-6.3,2-13.1-1.5-15-7.9c0,0,0,0,0,0
					C115.9,317.6,119.5,310.9,125.8,308.9z"/>
				<path class="st12" d="M136.3,320.8c-1.1-0.4-2.4-0.1-3.2,0.8c-0.3,0.4-0.5,0.9-0.9,1.2c-0.7,0.4-1.6,0.3-2.3-0.2
					c-0.6-0.5-1.3-1-2-1.3c-0.7-0.3-1.4-0.2-2.1,0.1c-0.2,0.1-0.4,0.2-0.6,0.5c-0.3,0.6-0.2,1.3,0.1,1.8c0.3,0.8,0.7,1.7,1,2.5
					c0.4,0.6,0.4,1.4,0.1,2c-0.3,0.3-0.6,0.5-0.9,0.8c-0.6,0.7-0.7,1.8-0.2,2.6c0.1,0.1,0.1,0.2,0.2,0.3c5.4,1.8,11.3-0.3,14.2-5.2
					c0,0,0-0.1,0-0.1c-0.1-1.2-0.4-2.3-0.9-3.4C138.2,322,137.4,321.2,136.3,320.8z"/>
				<path class="st12" d="M138.4,318.1c0.1-0.5,0-1-0.1-1.5c-0.2-1.6-1.2-2.9-2.6-3.6c-0.6-0.1-1.2-0.3-1.8-0.6
					c-0.4-0.5-0.7-1.1-0.6-1.7c0-0.5,0.1-1,0.1-1.6c-5.1-1.8-10.8,0.1-13.8,4.6c0.5,0.4,1,0.6,1.6,0.7c1.2,0.1,2.4-0.4,3.5,0.1
					c1.6,0.8,1.6,3.3,3.1,4.3c1,0.7,2.4,0.4,3.6,0c1.1-0.5,2.4-0.7,3.6-0.4c0.9,0.3,1.7,1.1,2.6,0.8
					C137.9,319,138.3,318.5,138.4,318.1z"/>
				<path class="st12" d="M121.4,321c-0.3-1,0-2.2-0.4-3.2c-0.5-1.1-1.6-1.8-2.7-2c-1.8,4.3-0.9,9.2,2.2,12.6c0.6,0,1.2-0.1,1.8-0.3
					c1.1-0.3,1.9-1.3,2.1-2.4c-0.1-1-0.6-1.8-1.3-2.4C122.3,322.6,121.7,321.9,121.4,321z"/>
				<path class="st12" d="M127.6,308.5c4.5-0.5,10.8,6,10.1,12.9c-0.8,7.4-9.2,11.4-14.2,9.4l0,0c5.8,3.3,13.1,1.2,16.3-4.6
					c3.3-5.8,1.2-13.1-4.6-16.3C132.9,308.6,130.2,308.1,127.6,308.5z"/>
				<path class="st12" d="M133,331.9c6.3-2,9.9-8.7,7.9-15c-1.2-4-4.5-7.1-8.5-8.1c0.5,0.1,6.6,1.8,7.6,10.3
					c1.1,8.8-7,12.9-8.9,13.3C131.7,332.2,132.4,332,133,331.9z"/>
				<path class="st13" d="M125.9,313.5c-0.3-1-1.4-1.5-2.4-1.2c-1,0.3-1.5,1.4-1.2,2.4c0.3,1,1.4,1.5,2.4,1.2
					C125.6,315.6,126.2,314.5,125.9,313.5C125.9,313.5,125.9,313.5,125.9,313.5z M121.1,316.8c-1.7,0.5-2.7,2.3-2.1,4
					c0.5,1.7,2.3,2.7,4,2.1c1.7-0.5,2.6-2.3,2.1-4C124.6,317.2,122.8,316.3,121.1,316.8C121.1,316.8,121.1,316.8,121.1,316.8z
					 M127.2,316.2c-0.8,0.2-1.2,1.1-1,1.9c0.2,0.8,1.1,1.2,1.9,1c0.8-0.2,1.2-1.1,1-1.8C128.8,316.4,127.9,316,127.2,316.2
					C127.2,316.2,127.2,316.2,127.2,316.2L127.2,316.2z"/>
				<g class="st7">
					<path d="M133.1,313.7c-0.9,0.3-2.8,0.2-3.3-0.5c-0.2-0.3-0.3-0.7,0.4-1.3c0.6-0.6,2.6-0.4,3.4,0.3c0.3,0.3,0.4,0.8,0.1,1.1
						c0,0-0.1,0.1-0.1,0.1c-0.1,0.1-0.2,0.2-0.4,0.3l0,0C133.2,313.7,133.2,313.7,133.1,313.7z M130.9,311.9c-0.2,0-0.3,0.1-0.4,0.3
						c-0.4,0.4-0.5,0.7-0.3,0.9c0.4,0.6,2.4,0.7,3,0.4c0.1,0,0.2-0.1,0.3-0.2c0.2-0.2,0.3-0.5,0.1-0.7c0,0-0.1-0.1-0.1-0.1
						C132.7,311.8,131.8,311.7,130.9,311.9z"/>
				</g>
				<g class="st7">
					<path d="M132.2,330.3c-0.4,0.1-0.9,0.2-1.3,0.1c-0.5-0.1-1-0.4-1.3-0.8c-0.4-0.5-0.3-1.2,0.1-1.6l0,0c0.3-0.3,0.7-0.5,1.1-0.6
						c0.8,0,1.5,0.3,2.1,0.8c0.3,0.2,0.5,0.6,0.4,1c-0.1,0.4-0.4,0.7-1,1L132.2,330.3z M130.6,327.9c-0.3,0.1-0.5,0.2-0.7,0.4l0,0
						c-0.3,0.3-0.4,0.9-0.1,1.3c0.3,0.4,0.7,0.6,1.1,0.6c0.5,0.1,0.9,0,1.4-0.2c0.3-0.1,0.7-0.3,0.8-0.7c0-0.3-0.1-0.6-0.3-0.8
						c-0.5-0.5-1.2-0.7-1.9-0.7C130.8,327.8,130.7,327.8,130.6,327.9L130.6,327.9z"/>
				</g>
				<path class="st18" d="M134.4,319.9L134.4,319.9c-0.7,0.4-0.4,1.2-0.5,1.9c0,0.2,0,0.3,0,0.5c0.1,0.3,0.5,0.5,0.8,0.4
					c0.3-0.1,0.6-0.3,0.8-0.5c0.3-0.3,0.6-0.8,0.6-1.3c0.1-0.6-0.3-1.1-0.9-1.2C134.9,319.6,134.6,319.7,134.4,319.9z M133.1,317.8
					c-0.4-1.5-1.8-2.5-3.3-2.5c-1.4,0.2-2.6,2.4-2.2,3.7c0.2,0.7,0.8,1.1,1.5,1.3c0.7,0.1,1.3,0.1,2,0c0.7-0.1,1.4-0.4,1.8-1
					C133.2,318.7,133.2,318.2,133.1,317.8L133.1,317.8z M121.5,320.9c-0.3,0-0.6,0.3-0.6,0.6c0,0,0,0.1,0,0.1
					c0.1,0.4,0.5,0.6,0.8,0.5c0,0,0,0,0.1,0c0.3-0.2,0.5-0.6,0.3-0.9c0,0,0,0,0,0C121.9,321,121.7,320.9,121.5,320.9z M125.2,327.2
					c-0.1,0-0.2,0-0.3,0c-0.4,0.1-0.8,0.6-0.3,0.9c0.1,0.1,0.3,0.1,0.5,0.1c0.4-0.1,0.8-0.6,0.3-0.9
					C125.3,327.3,125.2,327.3,125.2,327.2L125.2,327.2z"/>
				<path class="st19" d="M134.4,319.9L134.4,319.9c-0.7,0.4-0.4,1.2-0.5,1.9c0,0.2,0,0.3,0,0.5c0.1,0.3,0.5,0.5,0.8,0.4
					c0.3-0.1,0.6-0.3,0.8-0.5c0.3-0.3,0.6-0.8,0.6-1.3c0.1-0.6-0.3-1.1-0.9-1.2C134.9,319.6,134.6,319.7,134.4,319.9z M133.1,317.8
					c-0.4-1.5-1.8-2.5-3.3-2.5c-1.4,0.2-2.6,2.4-2.2,3.7c0.2,0.7,0.8,1.1,1.5,1.3c0.7,0.1,1.3,0.1,2,0c0.7-0.1,1.4-0.4,1.8-1
					C133.2,318.7,133.2,318.2,133.1,317.8L133.1,317.8z M121.5,320.9c-0.3,0-0.6,0.3-0.6,0.6c0,0,0,0.1,0,0.1
					c0.1,0.4,0.5,0.6,0.8,0.5c0,0,0,0,0.1,0c0.3-0.2,0.5-0.6,0.3-0.9c0,0,0,0,0,0C121.9,321,121.7,320.9,121.5,320.9z M125.2,327.2
					c-0.1,0-0.2,0-0.3,0c-0.4,0.1-0.8,0.6-0.3,0.9c0.1,0.1,0.3,0.1,0.5,0.1c0.4-0.1,0.8-0.6,0.3-0.9
					C125.3,327.3,125.2,327.3,125.2,327.2L125.2,327.2z"/>
			</g>
		</g>
		<g id="freepik--planet--inject-11_6_">
			<g id="freepik--rings--inject-11_2_">
				<g class="st4">
					<path class="st5" d="M660.6,190c-9.4,0-17.1-7.7-17.1-17.1s7.7-17.1,17.1-17.1c9.4,0,17.1,7.7,17.1,17.1
						c0,8.2-5.9,15.3-14,16.8C662.7,189.9,661.6,190,660.6,190z M660.7,156.2c-1,0-2,0.1-3,0.3c-9.1,1.7-15.1,10.3-13.4,19.4
						s10.3,15.1,19.4,13.4c9.1-1.7,15.1-10.3,13.4-19.4C675.6,162,668.7,156.3,660.7,156.2z"/>
				</g>
				<g class="st6">
					<path class="st5" d="M660.6,191.2c-10.1,0-18.3-8.2-18.3-18.3s8.2-18.3,18.3-18.3c8.8,0,16.4,6.3,18,15l0,0
						c1.8,9.9-4.8,19.5-14.7,21.3C662.8,191.1,661.7,191.2,660.6,191.2z M660.7,155c-1.1,0-2.2,0.1-3.3,0.3
						c-9.7,1.8-16.2,11.1-14.4,20.8s11.1,16.2,20.8,14.4c9.7-1.8,16.2-11.1,14.4-20.8l0,0C676.7,161.2,669.3,155,660.7,155z"/>
				</g>
				<g class="st7">
					<path class="st5" d="M660.6,192.8c-11,0-19.8-8.9-19.8-19.8c0-11,8.9-19.8,19.8-19.8c11,0,19.8,8.9,19.8,19.8
						c0,9.6-6.9,17.8-16.3,19.5C663,192.6,661.8,192.8,660.6,192.8z M660.7,153.5c-1.2,0-2.4,0.1-3.5,0.3
						c-10.6,1.9-17.6,12-15.7,22.6s12,17.6,22.6,15.7s17.6-12,15.7-22.6c-0.9-5.1-3.8-9.6-8.1-12.5
						C668.5,154.7,664.6,153.5,660.7,153.5L660.7,153.5z"/>
				</g>
				<g class="st8">
					<path class="st5" d="M660.6,194.7c-12,0-21.8-9.7-21.8-21.8c0-12,9.7-21.8,21.8-21.8c12,0,21.8,9.7,21.8,21.8
						c0,10.5-7.5,19.5-17.8,21.4C663.2,194.5,661.9,194.7,660.6,194.7z M660.7,151.6c-1.3,0-2.6,0.1-3.9,0.4
						c-11.5,2.1-19.2,13.2-17,24.7c2.1,11.5,13.2,19.2,24.7,17c11.5-2.1,19.2-13.2,17-24.7C679.7,158.9,670.9,151.6,660.7,151.6z"/>
				</g>
			</g>
			<g id="freepik--planet--inject-11_5_">
				<path class="st5" d="M676.1,170.1c1.6,8.5-4.1,16.7-12.6,18.2s-16.7-4.1-18.2-12.6c-1.6-8.5,4.1-16.7,12.6-18.2c0,0,0,0,0,0
					C666.3,155.9,674.5,161.6,676.1,170.1z"/>
				<path class="st20" d="M646.8,171.1c0.8,0.7,1.4,1.4,2,2.3c0.6,0.9,1.7,1.3,2.7,1c0.8-0.5,1.2-1.3,1.1-2.2c0-0.9-0.3-1.8-0.3-2.6
					c0.1-2.9,2.2-3.6,4.4-4.3c1.2-0.2,2.1-1,2.7-2c0-0.1,0-0.2,0.1-0.2c0.6-2.5-2.3-3.3-3.5-5c-5.7,1.8-9.8,6.6-10.8,12.5
					C645.7,170.6,646.3,170.8,646.8,171.1z M662,157.3c-0.3,0.9-0.4,1.8-0.3,2.7c0.1,0.7,0.4,1.5,0.9,2c0.8,0.4,1.6,0.6,2.5,0.7
					c0.2,0,0.4,0.1,0.6,0.3c0.1,0.2,0.2,0.5,0.1,0.7c-0.2,1-1.4,1.7-1.5,2.7c0,0.8,0.5,1.5,1.3,1.7c1.1,0.4,2.3-0.1,3.4,0
					c0.4,0,0.7,0.2,0.9,0.4c0.5,0.6,0.3,1.7,1.3,1.9c0.7,0.1,1.4-0.5,2-0.3c0.8,0.3,0.8,1.5,0.4,2.3s-1,1.6-0.7,2.4
					c0.2,0.6,0.9,1,1.3,1.6c0.5,0.8,0.5,1.8,0,2.6c-0.5,0.8-1.1,1.4-1.8,2c-1.2,1-2.6,2.2-4.2,2.1c-1.2,0-2.4-0.7-3.5-0.5
					c-0.2,0-0.4,0.1-0.5,0.3c-0.2,0.3,0,0.7,0.1,1l1.1,2.1c-0.5,1.3-2.4,1.1-3.5,0.3s-2.1-2-3.5-2c-0.7,0.1-1.4,0.2-2.1,0.4
					c-0.9,0.1-1.8-0.2-2.5-0.8c-0.4-0.3-0.6-0.7-0.7-1.2c0-1.1,1.4-1.6,2.5-1.8c1.7-0.1,3.3-0.5,4.9-1.1c1.6-0.7,2.5-2.3,2.5-4
					c0-0.3-0.1-0.6-0.3-0.9c-0.6-0.6-1.6-0.7-2.4-0.3c-0.7,0.5-1.4,1-2,1.6c-0.2,0.2-0.5,0.3-0.7,0.3c-0.7-0.1-0.6-1.2-1-1.8
					c-0.5-0.5-1.2-0.4-1.7,0c0,0,0,0.1-0.1,0.1c-0.4,0.6-0.6,1.2-0.5,1.9c0.1,0.3,0,0.7-0.1,1c-0.3,0.5-1.1,0.4-1.6,0.1
					s-0.8-0.9-1.4-1.2c-1.7-0.9-3.6,1-5.5,0.7h-0.1c2.4,8.3,11.2,13.1,19.5,10.6c8.3-2.4,13.1-11.2,10.6-19.5
					c-1.8-6.2-7.2-10.6-13.7-11.2V157.3z"/>
				<path class="st20" d="M659.8,171.6c-0.6,0-1.8,1-1.1,1.6c0.3,0.2,0.7,0,1.1,0c0.2,0,0.4,0,0.6,0c0.2-0.1,0.3-0.2,0.4-0.4
					c0.1-0.4-0.1-0.8-0.5-1C660.1,171.7,659.9,171.6,659.8,171.6z M666.8,176.3c0.2-0.4,0.3-0.9,0.1-1.3c-0.4-0.4-0.9-0.6-1.5-0.4
					c-0.6,0.2-0.6,0.9-0.7,1.4c0,0.5-0.3,1.3,0.5,1.4C666,177.4,666.5,177,666.8,176.3L666.8,176.3z M664.7,178.3
					c-0.1,0-0.2,0-0.2,0.1c-0.2,0.1-0.3,0.2-0.4,0.4c-0.1,0.1-0.1,0.3-0.2,0.5c0,0.2,0,0.3,0.2,0.4c0.1,0,0.2,0.1,0.2,0.1
					c0.5,0,1-0.3,1.2-0.8C665.7,178.6,665.1,178.4,664.7,178.3L664.7,178.3z M667.7,177.1c-0.6,0-1.4,1-0.8,1.5
					c0.2,0.1,0.5,0.2,0.8,0.1c0.2,0,0.4-0.1,0.6-0.2c0.2-0.1,0.3-0.3,0.4-0.5C668.7,177.6,668.1,177.2,667.7,177.1L667.7,177.1z"/>
				<path class="st12" d="M676.3,172.5c-0.1,5.9-9.4,13-18.3,11c-9.4-2.2-13.3-13.7-9.9-19.9l0,0c-5.2,7-3.7,16.8,3.3,21.9
					c7,5.2,16.8,3.7,21.9-3.3C675.3,179.4,676.4,176,676.3,172.5L676.3,172.5z"/>
				<path class="st12" d="M645.2,175.7c1.6,8.5,9.8,14.1,18.3,12.6c5.3-1,9.7-4.6,11.7-9.7c-0.3,0.6-3.4,8.3-14.5,8.3
					c-11.6,0-15.5-11.2-15.8-13.6C644.9,174.1,645,174.9,645.2,175.7z"/>
				<path class="st21" d="M661.2,161.8c0.2-1.3-0.8-2.6-2.1-2.7c-1.3-0.2-2.6,0.8-2.7,2.1c-0.2,1.3,0.8,2.6,2.1,2.7
					C659.8,164.1,661,163.1,661.2,161.8z M653.7,163.1c-2.3-0.3-4.4,1.4-4.7,3.7c-0.3,2.3,1.4,4.4,3.7,4.7c2.3,0.3,4.4-1.4,4.7-3.7
					C657.7,165.5,656,163.4,653.7,163.1C653.7,163.1,653.7,163.1,653.7,163.1L653.7,163.1z M661.2,165.7c-1.1-0.1-2,0.6-2.2,1.7
					c-0.1,1.1,0.6,2,1.7,2.2c1.1,0.1,2-0.6,2.1-1.7C663,166.8,662.2,165.8,661.2,165.7C661.2,165.7,661.2,165.7,661.2,165.7
					L661.2,165.7z"/>
			</g>
		</g>
	</g>
</g>
<g id="Capa_1">
	<g id="freepik--Floor--inject-60">
		<path class="st22" d="M541.4,362c-77.4-44.7-202.5-44.7-279.4,0s-76.5,117.2,0.9,161.8s202.5,44.7,279.4,0S618.8,406.7,541.4,362z
			"/>
	</g>
	<g id="freepik--Device--inject-60">
		<path class="st23" d="M391.5,424.8l-25,14.3c-7.3,4.2-16.3,4.2-23.6,0l-18.6-10.7c-2.2-1.3-3.6-3.6-3.6-6.2v-12.7l-3.9,2.2v11
			c0,3,1.6,5.7,4.2,7.2l22,12.7c7.2,4.1,16.1,4.1,23.2,0l25.2-14.4c3.5-2,5.4-6,4.6-10C395.6,421,393.9,423.4,391.5,424.8z"/>
		<path class="st12" d="M391.5,424.8l-25,14.3c-7.3,4.2-16.3,4.2-23.6,0l-18.6-10.7c-2.2-1.3-3.6-3.6-3.6-6.2v-12.7l-3.9,2.2v11
			c0,3,1.6,5.7,4.2,7.2l22,12.7c7.2,4.1,16.1,4.1,23.2,0l25.2-14.4c3.5-2,5.4-6,4.6-10C395.6,421,393.9,423.4,391.5,424.8z"/>
		<path class="st23" d="M324.3,428.3l18.6,10.7c7.3,4.2,16.3,4.2,23.6,0l25-14.3c2.4-1.4,4.1-3.7,4.6-6.5c-0.5-2.7-2.1-5-4.4-6.4
			l-20.5-12.3c-2.5-1.5-4-4.2-4-7.1v-9.8l-46.4,26.8v12.7C320.7,424.7,322.1,427.1,324.3,428.3z"/>
		<path class="st24" d="M324.3,428.3c-2.2-1.3-3.6-3.6-3.6-6.2v-12.7l-3.9,2.2v11c0,3,1.6,5.7,4.2,7.2l7.8,4.5V431L324.3,428.3z"/>
		<path class="st25" d="M324.3,428.3l4.5,2.6l0,0l48.5-27.7l-6.2-3.7c-2.5-1.5-4-4.2-4-7.1v-9.8l-46.4,26.8v12.7
			C320.7,424.7,322.1,427.1,324.3,428.3z"/>
		<path class="st26" d="M242.3,459.9L242.3,459.9L242.3,459.9L242.3,459.9z"/>
		<path class="st23" d="M240.1,455.2l-0.4-158.6c0-4.5,3.1-10,7-12.3L444,170.8c1.9-1.1,3.7-1.2,5-0.5l-7.4-4.3l0,0
			c-1.3-0.8-3.1-0.8-5.2,0.4L239.3,280c-3.9,2.3-7.1,7.8-7,12.3l0.4,158.6c0,2.1,0.7,3.6,1.9,4.4l0,0c0.1,0.1,0.3,0.2,0.4,0.2
			l7.3,4.3C240.9,459,240.1,457.4,240.1,455.2z"/>
		<path class="st27" d="M441.6,166.1L441.6,166.1c-1.3-0.8-3.1-0.8-5.2,0.4L239.3,280c-2.3,1.5-4.2,3.6-5.4,6l7.6,4.4
			c1.2-2.5,3.1-4.6,5.4-6L444,170.8c1.9-1.1,3.7-1.2,5-0.5L441.6,166.1z"/>
		<path class="st19" d="M232.2,292.2l0.4,158.6c0,2.1,0.7,3.6,1.9,4.4l0,0c0.1,0.1,0.3,0.2,0.4,0.2l7.3,4.3c-1.3-0.7-2-2.3-2-4.5
			l-0.4-158.6c0.1-2.2,0.6-4.3,1.7-6.2l-7.6-4.4C232.8,287.9,232.3,290,232.2,292.2z"/>
		<path class="st26" d="M449.1,170.4L449.1,170.4L449.1,170.4z"/>
		<path class="st23" d="M451.1,174.9c0-2.2-0.8-3.8-2-4.5l0,0h0c-1.3-0.7-3.1-0.6-5,0.5L246.9,284.4c-3.9,2.3-7.1,7.8-7,12.3
			l0.3,158.6c0,2.2,0.8,3.8,2,4.5l0.1,0.1h0.1c1.3,0.7,3,0.5,4.9-0.6l197.2-113.5c3.9-2.3,7.1-7.8,7-12.3L451.1,174.9z M440.9,339.7
			L247.2,451.3l-0.4-154.7c0.3-2.5,1.6-4.7,3.6-6.2l193.7-111.6l0.4,154.7C444.2,336,442.9,338.2,440.9,339.7z"/>
		<path class="st23" d="M444.1,178.9l-5,2.9l0.3,149.3c-0.3,2.5-1.6,4.7-3.6,6.2L247.2,445.9v5.3l193.8-111.6c2-1.5,3.3-3.7,3.6-6.2
			L444.1,178.9z"/>
		<path class="st25" d="M444.1,178.9l-5,2.9l0.3,149.3c-0.3,2.5-1.6,4.7-3.6,6.2L247.2,445.9v5.3l193.8-111.6c2-1.5,3.3-3.7,3.6-6.2
			L444.1,178.9z"/>
		<path class="st28" d="M439.5,331.1l-0.3-149.3L250.4,290.4c-2,1.5-3.3,3.7-3.6,6.2l0.4,149.3l188.7-108.7
			C437.9,335.8,439.2,333.5,439.5,331.1z"/>
	</g>
	<g id="freepik--Windows--inject-60">
		<path class="st23" d="M270,463.3l-0.3-149.9c0.3-4.7,2.7-9,6.7-11.6l186.3-107.3c1.8-1.1,3.5-1.2,4.7-0.5l-7-4.1l0,0
			c-1.2-0.8-3-0.7-4.9,0.4L269.2,297.6c-4,2.6-6.4,6.9-6.7,11.6l0.3,149.9c0,2,0.7,3.4,1.8,4.2l0,0c0.1,0.1,0.2,0.2,0.4,0.2l6.9,4
			C270.8,466.8,270,465.3,270,463.3z"/>
		<path class="st13" d="M460.4,189.9L460.4,189.9c-1.2-0.8-3-0.7-4.9,0.4L269.2,297.6c-2.2,1.4-4,3.4-5.1,5.7l7.2,4.1
			c1.1-2.3,2.9-4.3,5.1-5.7l186.3-107.3c1.8-1.1,3.5-1.2,4.7-0.5L460.4,189.9z"/>
		<path class="st27" d="M262.5,309.2l0.3,149.9c0,2,0.7,3.4,1.8,4.2l0,0c0.1,0.1,0.2,0.2,0.4,0.2l6.9,4c-1.2-0.7-1.9-2.2-1.9-4.3
			l-0.3-149.9c0.1-2.1,0.6-4.1,1.6-5.9l-7.2-4.1C263.1,305.1,262.6,307.1,262.5,309.2z"/>
		<path class="st23" d="M269.7,322l0.3,141.2c0,2.1,0.7,3.6,1.9,4.3l0.1,0.1h0.1c1.2,0.6,2.8,0.5,4.7-0.5l186.3-107.3
			c4-2.6,6.4-6.9,6.7-11.6l-0.3-141.4L269.7,322z"/>
		<path class="st29" d="M269.7,322l0.3,141.2c0,2.1,0.7,3.6,1.9,4.3l0.1,0.1h0.1c1.2,0.6,2.8,0.5,4.7-0.5l186.3-107.3
			c4-2.6,6.4-6.9,6.7-11.6l-0.3-141.4L269.7,322z"/>
		<path class="st23" d="M461.7,216.2c1.8-1,3.1-0.2,3.1,1.8c-0.1,2.2-1.3,4.2-3.1,5.4L302,315.7c-1.8,1-3.1,0.2-3.1-1.8
			c0.1-2.2,1.3-4.2,3.1-5.4L461.7,216.2z"/>
		<g class="st30">
			<path class="st10" d="M461.7,216.2c1.8-1,3.1-0.2,3.1,1.8c-0.1,2.2-1.3,4.2-3.1,5.4L302,315.7c-1.8,1-3.1,0.2-3.1-1.8
				c0.1-2.2,1.3-4.2,3.1-5.4L461.7,216.2z"/>
		</g>
		<path class="st23" d="M278.5,323.6c0.1,0,0.1,0,0.2,0c0.1,0.1,0.1,0.3,0,0.5l-1,1.9l3.4-2c0.2-0.1,0.3,0,0.3,0.2
			c0,0.2-0.1,0.4-0.3,0.5l-3.4,2l1,0.7c0.1,0.1,0.1,0.3,0,0.5c-0.1,0.1-0.1,0.2-0.2,0.2c-0.1,0-0.2,0-0.2,0l-1.5-1c0,0,0,0-0.1-0.1
			c0,0,0-0.1,0-0.1c0,0,0-0.1,0-0.1c0-0.1,0-0.1,0.1-0.1l1.5-2.8C278.3,323.8,278.4,323.7,278.5,323.6z"/>
		<path class="st23" d="M287.1,318.7c0.1,0,0.2,0,0.2,0l1.5,1c0,0,0,0,0.1,0.1c0,0,0,0.1,0,0.1c0,0,0,0.1,0,0.1c0,0.1,0,0.1-0.1,0.1
			l-1.5,2.8c-0.1,0.1-0.1,0.2-0.2,0.3c-0.1,0-0.2,0-0.2,0c-0.1-0.1-0.1-0.3,0-0.5l1-1.9l-3.4,2c-0.2,0.1-0.3,0-0.3-0.2
			c0-0.2,0.1-0.4,0.3-0.5l3.4-2l-1-0.7c-0.1-0.1-0.1-0.3,0-0.5C287,318.8,287,318.7,287.1,318.7z"/>
		<path class="st23" d="M293.4,315c0.3-0.2,0.7-0.3,1-0.3c0-0.2,0.1-0.4,0.3-0.5l0,0c0.2-0.1,0.3,0,0.3,0.2v0.8
			c0,0.2-0.1,0.4-0.3,0.5l-0.7,0.4l0,0c-0.2,0.1-0.3,0-0.3-0.2c0-0.2,0.1-0.4,0.2-0.5c-0.2,0-0.4,0.1-0.6,0.2
			c-0.8,0.5-1.3,1.4-1.3,2.3c0,0.9,0.6,1.2,1.3,0.7c0.6-0.3,1-0.9,1.2-1.5c0-0.1,0.1-0.3,0.3-0.3c0,0,0.1,0,0.1,0
			c0.2,0,0.2,0.2,0.1,0.4c-0.3,0.9-0.9,1.7-1.8,2.2c-1.1,0.6-2,0.1-2-1.1C291.6,317,292.3,315.8,293.4,315z"/>
		<g class="st31">
			<path class="st10" d="M278.5,323.6c0.1,0,0.1,0,0.2,0c0.1,0.1,0.1,0.3,0,0.5l-1,1.9l3.4-2c0.2-0.1,0.3,0,0.3,0.2
				c0,0.2-0.1,0.4-0.3,0.5l-3.4,2l1,0.7c0.1,0.1,0.1,0.3,0,0.5c-0.1,0.1-0.1,0.2-0.2,0.2c-0.1,0-0.2,0-0.2,0l-1.5-1c0,0,0,0-0.1-0.1
				c0,0,0-0.1,0-0.1c0,0,0-0.1,0-0.1c0-0.1,0-0.1,0.1-0.1l1.5-2.8C278.3,323.8,278.4,323.7,278.5,323.6z"/>
			<path class="st10" d="M287.1,318.7c0.1,0,0.2,0,0.2,0l1.5,1c0,0,0,0,0.1,0.1c0,0,0,0.1,0,0.1c0,0,0,0.1,0,0.1
				c0,0.1,0,0.1-0.1,0.1l-1.5,2.8c-0.1,0.1-0.1,0.2-0.2,0.3c-0.1,0-0.2,0-0.2,0c-0.1-0.1-0.1-0.3,0-0.5l1-1.9l-3.4,2
				c-0.2,0.1-0.3,0-0.3-0.2c0-0.2,0.1-0.4,0.3-0.5l3.4-2l-1-0.7c-0.1-0.1-0.1-0.3,0-0.5C287,318.8,287,318.7,287.1,318.7z"/>
			<path class="st10" d="M293.4,315c0.3-0.2,0.7-0.3,1-0.3c0-0.2,0.1-0.4,0.3-0.5l0,0c0.2-0.1,0.3,0,0.3,0.2v0.8
				c0,0.2-0.1,0.4-0.3,0.5l-0.7,0.4l0,0c-0.2,0.1-0.3,0-0.3-0.2c0-0.2,0.1-0.4,0.2-0.5c-0.2,0-0.4,0.1-0.6,0.2
				c-0.8,0.5-1.3,1.4-1.3,2.3c0,0.9,0.6,1.2,1.3,0.7c0.6-0.3,1-0.9,1.2-1.5c0-0.1,0.1-0.3,0.3-0.3c0,0,0.1,0,0.1,0
				c0.2,0,0.2,0.2,0.1,0.4c-0.3,0.9-0.9,1.7-1.8,2.2c-1.1,0.6-2,0.1-2-1.1C291.6,317,292.3,315.8,293.4,315z"/>
		</g>
		<path class="st23" d="M349.8,395.1l110.3-63.7c0.9-0.5,2.1-0.2,2.6,0.7c0.2,0.3,0.3,0.6,0.3,1V347c0,1.7-0.9,3.3-2.4,4.2
			l-110.3,63.8c-0.9,0.5-2.1,0.2-2.6-0.7c-0.2-0.3-0.3-0.6-0.3-1v-13.9C347.3,397.6,348.3,396,349.8,395.1z"/>
		<path class="st23" d="M460.9,248.8v-13.9c0-1.1-0.9-1.9-1.9-1.9c-0.3,0-0.7,0.1-1,0.3l-108.3,62.1c-1.5,0.9-2.4,2.4-2.4,4.2v14.3
			c0,1.1,0.9,1.9,1.9,1.9c0.3,0,0.7-0.1,1-0.3l108.3-62.5C460,252.1,460.9,250.5,460.9,248.8z"/>
		<polygon class="st10" points="423.6,267 423.6,269.1 353.7,309.5 353.7,307.3 		"/>
		<polygon class="st10" points="423.6,263 423.6,265.1 353.6,305.5 353.6,303.3 		"/>
		<polygon class="st10" points="392.9,276.1 392.9,278.3 353.6,301 353.6,298.8 		"/>
		<polygon class="st23" points="451.1,246.8 451.1,249 438.7,256.2 438.7,254 		"/>
		<path class="st10" d="M451.7,242.2c2.6-1.5,4.6-0.3,4.7,2.6c-0.2,3.3-1.9,6.2-4.6,8l-13.7,7.9c-2.6,1.5-4.7,0.3-4.7-2.6
			c0.2-3.3,1.9-6.2,4.6-8L451.7,242.2z M451.1,249v-2.2l-12.5,7.2v2.2L451.1,249"/>
		<path class="st23" d="M411.8,352.6l47.3-27.4c2.4-1.4,3.8-3.9,3.8-6.6v-56.1c0-1.6-1.3-2.9-2.9-2.9c-0.5,0-1,0.1-1.4,0.4
			l-47.3,27.3c-2.4,1.4-3.8,3.9-3.8,6.6v56.2c0,1.6,1.3,2.9,2.9,2.9C410.9,353,411.4,352.8,411.8,352.6z"/>
		<path class="st10" d="M432,298.4l1.6-0.9c0.1-0.1,0.1-0.2,0.1-0.3c-0.1-0.1-0.2-0.2-0.3-0.1c0,0,0,0,0,0l-1.6,0.9
			c-0.1,0.1-0.1,0.2-0.1,0.3c0,0.1,0.1,0.1,0.2,0.1C431.9,298.4,431.9,298.4,432,298.4z"/>
		<path class="st10" d="M424.1,302.9l1.6-0.9c0.1-0.1,0.1-0.2,0.1-0.3c-0.1-0.1-0.2-0.1-0.3-0.1l-1.6,0.9c-0.1,0.1-0.1,0.2-0.1,0.3
			c0,0.1,0.1,0.1,0.2,0.1C424,302.9,424,302.9,424.1,302.9z"/>
		<path class="st10" d="M416.2,307.4l1.6-0.9c0.1-0.1,0.1-0.2,0-0.3c-0.1-0.1-0.2-0.1-0.3-0.1L416,307c-0.1,0.1-0.1,0.2-0.1,0.3
			c0,0.1,0.1,0.1,0.2,0.1C416.1,307.4,416.2,307.4,416.2,307.4z"/>
		<path class="st10" d="M420.1,305.1l1.6-0.9c0.1-0.1,0.2-0.2,0.1-0.3c0,0,0,0,0,0c-0.1-0.1-0.2-0.1-0.3-0.1l-1.6,0.9
			c-0.1,0.1-0.1,0.2-0.1,0.3c0,0.1,0.1,0.1,0.2,0.1L420.1,305.1z"/>
		<path class="st10" d="M428,300.6l1.6-0.9c0.1-0.1,0.1-0.2,0.1-0.3c-0.1-0.1-0.2-0.1-0.3-0.1c0,0,0,0,0,0l-1.6,0.9
			c-0.1,0.1-0.1,0.2-0.1,0.3c0,0.1,0.1,0.1,0.2,0.1C427.9,300.6,428,300.6,428,300.6z"/>
		<path class="st10" d="M451.6,287.1l1.6-0.9c0.1-0.1,0.1-0.2,0.1-0.3c-0.1-0.1-0.2-0.2-0.3-0.1c0,0,0,0,0,0l-1.6,0.9
			c-0.1,0.1-0.1,0.2-0.1,0.3c0,0.1,0.1,0.1,0.2,0.1C451.6,287.1,451.6,287.1,451.6,287.1z"/>
		<path class="st10" d="M439.8,293.8l1.6-0.9c0.1-0.1,0.1-0.2,0.1-0.3c0,0,0,0,0,0c-0.1-0.1-0.2-0.2-0.3-0.1c0,0,0,0,0,0l-1.6,0.9
			c-0.1,0.1-0.1,0.2-0.1,0.3c0,0.1,0.1,0.1,0.2,0.1C439.8,293.9,439.8,293.9,439.8,293.8z"/>
		<path class="st10" d="M447.7,289.3l1.6-0.9c0.1-0.1,0.1-0.2,0.1-0.3c-0.1-0.1-0.2-0.1-0.3-0.1c0,0,0,0,0,0l-1.6,0.9
			c-0.1,0.1-0.1,0.2-0.1,0.3c0,0.1,0.1,0.1,0.2,0.1C447.6,289.4,447.7,289.3,447.7,289.3z"/>
		<path class="st10" d="M455.5,284.8c0,0,0.1,0,0.1,0l1.6-0.9c0.1-0.1,0.1-0.2,0.1-0.3c-0.1-0.1-0.2-0.2-0.3-0.1c0,0,0,0,0,0
			l-1.6,0.9c-0.1,0.1-0.1,0.2-0.1,0.3C455.3,284.8,455.4,284.8,455.5,284.8z"/>
		<path class="st10" d="M443.8,291.6l1.6-0.9c0.1-0.1,0.1-0.2,0.1-0.3c0,0,0,0,0,0c-0.1-0.1-0.2-0.2-0.3-0.1c0,0,0,0,0,0l-1.6,0.9
			c-0.1,0.1-0.1,0.2-0.1,0.3c0,0.1,0.1,0.1,0.2,0.1C443.7,291.6,443.7,291.6,443.8,291.6z"/>
		<path class="st10" d="M460.4,294.3c0-0.1-0.1-0.2-0.2-0.2c-0.1,0-0.2,0.1-0.2,0.2v1.8c0,0.1,0.1,0.2,0.2,0.2
			c0.1,0,0.2-0.1,0.2-0.2V294.3z"/>
		<path class="st10" d="M460.4,289.9c0-0.1-0.1-0.2-0.2-0.2c-0.1,0-0.2,0.1-0.2,0.2v1.8c0,0.1,0.1,0.2,0.2,0.2
			c0.1,0,0.2-0.1,0.2-0.2V289.9z"/>
		<path class="st10" d="M460.4,298.7c0-0.1-0.1-0.2-0.2-0.2c-0.1,0-0.2,0.1-0.2,0.2l0,0v1.8c0,0.1,0.1,0.2,0.2,0.2l0,0
			c0.1,0,0.2-0.1,0.2-0.2V298.7z"/>
		<path class="st10" d="M460.4,303.2c0-0.1-0.1-0.2-0.2-0.2c0,0,0,0,0,0c-0.1,0-0.2,0.1-0.2,0.2l0,0v1.8c0,0.1,0.1,0.2,0.2,0.2l0,0
			c0.1,0,0.2-0.1,0.2-0.2V303.2z"/>
		<path class="st10" d="M460.4,307.6c0-0.1-0.1-0.2-0.2-0.2c-0.1,0-0.2,0.1-0.2,0.2v1.8c0,0.1,0.1,0.2,0.2,0.2
			c0.1,0,0.2-0.1,0.2-0.2V307.6z"/>
		<path class="st10" d="M460.2,311.8c-0.1,0-0.2,0.1-0.2,0.2v1.8c0,0.1,0.1,0.2,0.2,0.2l0,0c0.1,0,0.2-0.1,0.2-0.2c0,0,0,0,0,0V312
			C460.4,311.9,460.3,311.8,460.2,311.8z"/>
		<path class="st10" d="M460.4,285.5c0-0.1-0.1-0.2-0.2-0.2c-0.1,0-0.2,0.1-0.2,0.2l0,0v1.8c0,0.1,0.1,0.2,0.2,0.2l0,0
			c0.1,0,0.2-0.1,0.2-0.2V285.5z"/>
		<path class="st10" d="M441.2,328l-1.6,0.9c-0.1,0.1-0.2,0.2-0.1,0.3c0,0,0,0,0,0c0,0.1,0.1,0.1,0.2,0.1c0,0,0.1,0,0.1,0l1.6-0.9
			c0.1-0.1,0.1-0.2,0-0.3C441.4,328,441.3,328,441.2,328L441.2,328z"/>
		<path class="st10" d="M417.7,341.6l-1.6,0.9c-0.1,0.1-0.1,0.2-0.1,0.3c0,0.1,0.1,0.1,0.2,0.1c0,0,0.1,0,0.1,0l1.6-0.9
			c0.1-0.1,0.1-0.2,0.1-0.3C418,341.6,417.9,341.5,417.7,341.6C417.8,341.6,417.7,341.6,417.7,341.6z"/>
		<path class="st10" d="M421.6,339.3l-1.6,0.9c-0.1,0.1-0.1,0.2-0.1,0.3c0,0.1,0.1,0.1,0.2,0.1c0,0,0.1,0,0.1,0l1.6-0.9
			c0.1-0.1,0.1-0.2,0.1-0.3S421.7,339.3,421.6,339.3L421.6,339.3z"/>
		<path class="st10" d="M453,321.2l-1.6,0.9c-0.1,0.1-0.1,0.2-0.1,0.3c0,0.1,0.1,0.1,0.2,0.1c0,0,0.1,0,0.1,0l1.6-0.9
			c0.1-0.1,0.1-0.2,0.1-0.3C453.3,321.2,453.1,321.2,453,321.2L453,321.2z"/>
		<path class="st10" d="M429.5,334.8l-1.6,0.9c-0.1,0.1-0.1,0.2-0.1,0.3c0,0.1,0.1,0.1,0.2,0.1c0,0,0.1,0,0.1,0l1.6-0.9
			c0.1-0.1,0.1-0.2,0.1-0.3C429.7,334.8,429.6,334.8,429.5,334.8C429.5,334.8,429.5,334.8,429.5,334.8z"/>
		<path class="st10" d="M449.1,323.5l-1.6,0.9c-0.1,0.1-0.1,0.2-0.1,0.3c0,0.1,0.1,0.1,0.2,0.1h0.1l1.6-0.9c0.1-0.1,0.1-0.2,0.1-0.3
			C449.3,323.5,449.2,323.4,449.1,323.5C449.1,323.4,449.1,323.4,449.1,323.5z"/>
		<path class="st10" d="M433.4,332.5l-1.6,0.9c-0.1,0.1-0.1,0.2-0.1,0.3c0,0.1,0.1,0.1,0.2,0.1c0,0,0.1,0,0.1,0l1.6-0.9
			c0.1-0.1,0.1-0.2,0.1-0.3C433.6,332.5,433.5,332.5,433.4,332.5C433.4,332.5,433.4,332.5,433.4,332.5z"/>
		<path class="st10" d="M456.9,319l-1.6,0.9c-0.1,0.1-0.2,0.2-0.1,0.3c0,0,0,0,0,0c0,0.1,0.1,0.1,0.2,0.1c0,0,0.1,0,0.1,0l1.6-0.9
			c0.1,0,0.2-0.2,0.1-0.3C457.3,319,457.1,318.9,456.9,319C457,319,457,319,456.9,319L456.9,319z"/>
		<path class="st10" d="M445.2,325.8l-1.6,0.9c-0.1,0.1-0.1,0.2-0.1,0.3c0,0.1,0.1,0.1,0.2,0.1h0.1l1.6-0.9c0.1,0,0.2-0.2,0.1-0.3
			C445.5,325.8,445.4,325.7,445.2,325.8C445.2,325.7,445.2,325.8,445.2,325.8L445.2,325.8z"/>
		<path class="st10" d="M425.5,337.1L424,338c-0.1,0.1-0.1,0.2-0.1,0.3c0,0.1,0.1,0.1,0.2,0.1c0,0,0.1,0,0.1,0l1.6-0.9
			c0.1-0.1,0.2-0.2,0.1-0.3c0,0,0,0,0,0C425.8,337.1,425.7,337,425.5,337.1C425.6,337.1,425.5,337.1,425.5,337.1z"/>
		<path class="st10" d="M413,325.6L413,325.6c-0.1,0-0.2,0.1-0.2,0.2v1.8c0,0.1,0.1,0.2,0.2,0.2l0,0c0.1,0,0.2-0.1,0.2-0.2v-1.8
			C413.3,325.7,413.2,325.6,413,325.6z"/>
		<path class="st10" d="M413.1,330.1L413.1,330.1c-0.1,0-0.2,0.1-0.2,0.2v1.8c0,0.1,0.1,0.2,0.2,0.2l0,0c0.1,0,0.2-0.1,0.2-0.2l0,0
			v-1.8C413.3,330.2,413.2,330.1,413.1,330.1z"/>
		<path class="st10" d="M413,312.3L413,312.3c-0.1,0-0.2,0.1-0.2,0.2v1.8c0,0.1,0.1,0.2,0.2,0.2l0,0c0.1,0,0.2-0.1,0.2-0.2v-1.8
			C413.2,312.4,413.1,312.3,413,312.3z"/>
		<path class="st10" d="M413.1,338.9c-0.1,0-0.2,0.1-0.2,0.2c0,0,0,0,0,0v1.8c0,0.1,0.1,0.2,0.2,0.2l0,0l0,0c0.1,0,0.2-0.1,0.2-0.2
			v-1.8C413.3,339,413.2,338.9,413.1,338.9L413.1,338.9z"/>
		<path class="st10" d="M413,316.8L413,316.8c-0.1,0-0.2,0.1-0.2,0.2l0,0v1.8c0,0.1,0.1,0.2,0.2,0.2l0,0l0,0c0.1,0,0.2-0.1,0.2-0.2
			V317C413.2,316.9,413.1,316.8,413,316.8C413,316.8,413,316.8,413,316.8z"/>
		<path class="st10" d="M413,321.2L413,321.2c-0.1,0-0.2,0.1-0.2,0.2v1.8c0,0.1,0.1,0.2,0.2,0.2l0,0c0.1,0,0.2-0.1,0.2-0.2v-1.8
			C413.2,321.3,413.1,321.2,413,321.2z"/>
		<path class="st10" d="M413.1,334.5L413.1,334.5c-0.1,0-0.2,0.1-0.2,0.2v1.8c0,0.1,0.1,0.2,0.2,0.2l0,0c0.1,0,0.2-0.1,0.2-0.2v-1.8
			C413.3,334.6,413.2,334.5,413.1,334.5z"/>
		<path class="st10" d="M415.2,306.8c-0.1,0-0.2,0-0.2,0l-2.6,1.5c-0.1,0-0.1,0.1-0.1,0.2v3c0,0.1,0,0.2,0.1,0.2c0,0,0.1,0,0.1,0
			c0,0,0.1,0,0.1,0l2.6-1.5c0.1,0,0.1-0.1,0.1-0.2v-3C415.3,306.9,415.3,306.9,415.2,306.8z M414.8,307.4v2.5l-2.1,1.3v-2.5
			L414.8,307.4z"/>
		<path class="st10" d="M438,293.6c-0.1,0-0.2,0-0.2,0l-2.6,1.5c-0.1,0-0.1,0.1-0.1,0.2v3c0,0.1,0,0.2,0.1,0.2c0,0,0.1,0,0.1,0
			c0,0,0.1,0,0.1,0l2.6-1.5c0.1,0,0.1-0.1,0.1-0.2v-3C438.1,293.7,438,293.6,438,293.6z M437.6,294.2v2.5l-2.2,1.2v-2.5L437.6,294.2
			z"/>
		<path class="st10" d="M457.7,286c0.1,0,0.2,0,0.2,0l2.6-1.5c0.1,0,0.1-0.1,0.1-0.2v-3c0-0.1,0-0.2-0.1-0.2c-0.1,0-0.2,0-0.2,0
			l-2.6,1.5c-0.1,0-0.1,0.1-0.1,0.2v3C457.6,285.8,457.6,285.9,457.7,286z M460.2,281.7v2.5l-2.2,1.2v-2.5L460.2,281.7z"/>
		<path class="st10" d="M415.2,341.3c-0.1,0-0.2,0-0.2,0l-2.6,1.5c-0.1,0-0.1,0.1-0.1,0.2v3c0,0.1,0,0.2,0.1,0.2h0.1
			c0,0,0.1,0,0.1,0l2.6-1.5c0.1,0,0.1-0.1,0.1-0.2v-3C415.3,341.5,415.3,341.4,415.2,341.3z M414.8,341.9v2.5l-2.2,1.2v-2.5
			L414.8,341.9z"/>
		<path class="st10" d="M438,328.1c-0.1,0-0.2,0-0.2,0l-2.6,1.5c-0.1,0-0.1,0.1-0.1,0.2v3c0,0.1,0,0.2,0.1,0.2c0,0,0.1,0,0.1,0
			c0,0,0.1,0,0.1,0l2.6-1.5c0.1,0,0.1-0.1,0.1-0.2v-3C438.1,328.2,438,328.2,438,328.1z M437.6,328.7v2.5l-2.2,1.2V330L437.6,328.7z
			"/>
		<path class="st10" d="M460.5,315.6c-0.1,0-0.2,0-0.2,0l-2.6,1.5c-0.1,0-0.1,0.1-0.1,0.2v3c0,0.1,0,0.2,0.1,0.2c0.1,0,0.2,0,0.2,0
			l2.6-1.5c0.1,0,0.1-0.1,0.1-0.2v-3C460.6,315.7,460.6,315.7,460.5,315.6z M460.2,316.2v2.5l-2.2,1.3v-2.5L460.2,316.2z"/>
		<polygon class="st10" points="459.1,274.5 459.1,276.7 412.5,303.4 412.4,301.2 		"/>
		<polygon class="st10" points="459.1,270.5 459.1,272.7 412.4,299.4 412.4,297.2 		"/>
		<polygon class="st10" points="430.9,282 430.9,284.2 412.4,294.9 412.4,292.7 		"/>
		<path class="st23" d="M339.5,301.2l-58.3,33.4c-1.8,1-2.9,2.9-2.9,5l0.2,83.7c0,1.1,0.9,1.9,1.9,1.9c0.3,0,0.7-0.1,1-0.3
			l58.1-33.5c1.8-1,2.9-2.9,2.9-5v-83.6c0-1.1-0.9-1.9-1.9-1.9C340.1,300.9,339.8,301,339.5,301.2z"/>
		<path class="st10" d="M305.4,328.7l1.7-1c0.1-0.1,0.2-0.2,0.1-0.3c-0.1-0.1-0.2-0.2-0.3-0.1c0,0,0,0-0.1,0l-1.7,1
			c-0.1,0.1-0.2,0.2-0.1,0.3c0,0,0,0,0,0c0,0.1,0.1,0.1,0.2,0.1C305.4,328.8,305.4,328.8,305.4,328.7z"/>
		<path class="st10" d="M297,333.6l1.7-1c0.1-0.1,0.2-0.2,0.1-0.3c-0.1-0.1-0.2-0.2-0.3-0.1l-1.7,1c-0.1,0.1-0.1,0.2-0.1,0.3
			c0,0.1,0.1,0.1,0.2,0.1C296.9,333.6,297,333.6,297,333.6z"/>
		<path class="st10" d="M288.6,338.4l1.7-0.9c0.1-0.1,0.2-0.2,0.1-0.3c0,0,0,0,0,0c-0.1-0.1-0.2-0.2-0.3-0.1c0,0,0,0,0,0l-1.7,1
			c-0.1,0.1-0.2,0.2-0.1,0.3c0,0,0,0,0,0c0,0.1,0.1,0.1,0.2,0.1C288.5,338.5,288.5,338.5,288.6,338.4z"/>
		<path class="st10" d="M292.8,336l1.7-1c0.1-0.1,0.2-0.2,0.1-0.3c0,0,0,0,0,0c-0.1-0.1-0.2-0.2-0.3-0.1l-1.7,1
			c-0.1,0.1-0.2,0.2-0.1,0.3c0,0.1,0.1,0.1,0.2,0.1C292.7,336.1,292.8,336,292.8,336z"/>
		<path class="st10" d="M301.2,331.2l1.7-1c0.1-0.1,0.2-0.2,0.1-0.3c-0.1-0.1-0.2-0.2-0.3-0.1l0,0l-1.7,1c-0.1,0.1-0.2,0.2-0.1,0.3
			c0,0,0,0,0,0c0,0.1,0.1,0.1,0.2,0.1C301.1,331.2,301.2,331.2,301.2,331.2z"/>
		<path class="st10" d="M326.5,316.7l1.7-1c0.1-0.1,0.2-0.2,0.1-0.3c0,0,0,0,0,0c-0.1-0.1-0.2-0.1-0.3-0.1l-1.7,1
			c-0.1,0.1-0.2,0.2-0.1,0.3c0,0.1,0.1,0.1,0.2,0.1C326.4,316.7,326.5,316.7,326.5,316.7z"/>
		<path class="st10" d="M313.9,323.9l1.7-1c0.1-0.1,0.2-0.2,0.1-0.3s-0.2-0.2-0.3-0.1l0,0l-1.7,1c-0.1,0.1-0.2,0.2-0.1,0.3
			c0,0,0,0,0,0c0,0.1,0.1,0.1,0.2,0.1C313.8,324,313.8,323.9,313.9,323.9z"/>
		<path class="st10" d="M322.3,319.1l1.7-1c0.1-0.1,0.2-0.2,0.1-0.3c-0.1-0.1-0.2-0.2-0.3-0.1c0,0,0,0,0,0l-1.7,1
			c-0.1,0.1-0.2,0.2-0.1,0.3c0,0.1,0.1,0.1,0.2,0.1C322.2,319.1,322.3,319.1,322.3,319.1z"/>
		<path class="st10" d="M330.6,314.3c0,0,0.1,0,0.1,0l1.7-1c0.1-0.1,0.2-0.2,0.1-0.3c0,0,0,0,0,0c-0.1-0.1-0.2-0.2-0.3-0.1l-1.7,1
			c-0.1,0.1-0.2,0.2-0.1,0.3C330.4,314.3,330.5,314.3,330.6,314.3L330.6,314.3z"/>
		<path class="st10" d="M318.1,321.5l1.7-1c0.1-0.1,0.2-0.2,0.1-0.3c-0.1-0.1-0.2-0.2-0.3-0.1l-1.7,1c-0.1,0.1-0.2,0.2-0.1,0.3
			c0,0.1,0.1,0.1,0.2,0.1C318,321.5,318.1,321.5,318.1,321.5z"/>
		<path class="st10" d="M336,324.4c0-0.1-0.2-0.2-0.3-0.2c-0.1,0-0.2,0.1-0.2,0.2v1.9c0,0.1,0.2,0.2,0.3,0.2c0.1,0,0.2-0.1,0.2-0.2
			V324.4z"/>
		<path class="st10" d="M336,319.7c0-0.1-0.1-0.3-0.2-0.3c-0.1,0-0.3,0.1-0.3,0.2c0,0,0,0.1,0,0.1v1.9c0,0.1,0.1,0.3,0.2,0.3
			c0.1,0,0.3-0.1,0.3-0.2c0,0,0-0.1,0-0.1V319.7z"/>
		<path class="st10" d="M336,329.2c0-0.1-0.1-0.3-0.2-0.3c-0.1,0-0.3,0.1-0.3,0.2c0,0,0,0.1,0,0.1v1.9c0,0.1,0.1,0.3,0.2,0.3
			c0.1,0,0.3-0.1,0.3-0.2c0,0,0-0.1,0-0.1V329.2z"/>
		<path class="st10" d="M336,333.9c0-0.1-0.2-0.2-0.3-0.2c-0.1,0-0.2,0.1-0.2,0.2v1.9c0,0.1,0.2,0.2,0.3,0.2c0.1,0,0.2-0.1,0.2-0.2
			V333.9z"/>
		<path class="st10" d="M336,338.7c0-0.1-0.1-0.3-0.2-0.3c-0.1,0-0.3,0.1-0.3,0.2c0,0,0,0.1,0,0.1v1.9c0,0.1,0.2,0.2,0.3,0.2
			c0.1,0,0.2-0.1,0.2-0.2V338.7z"/>
		<path class="st10" d="M335.7,343.2c-0.1,0-0.2,0.1-0.2,0.2c0,0,0,0,0,0v1.9c0,0.1,0.2,0.2,0.3,0.2c0.1,0,0.2-0.1,0.2-0.2v-1.9
			C335.9,343.3,335.8,343.2,335.7,343.2C335.7,343.2,335.7,343.2,335.7,343.2z"/>
		<path class="st10" d="M336,314.9c0-0.1-0.2-0.2-0.3-0.2c-0.1,0-0.2,0.1-0.2,0.2v1.9c0,0.1,0.2,0.2,0.3,0.2c0.1,0,0.2-0.1,0.2-0.2
			V314.9z"/>
		<path class="st10" d="M315.4,360.5l-1.7,1c-0.1,0.1-0.2,0.2-0.1,0.3c0,0.1,0.1,0.1,0.2,0.1c0,0,0.1,0,0.1,0l1.7-1
			c0.1-0.1,0.2-0.2,0.1-0.3c0,0,0,0,0,0C315.7,360.5,315.5,360.5,315.4,360.5C315.4,360.5,315.4,360.5,315.4,360.5z"/>
		<path class="st10" d="M290.2,375.1l-1.7,1c-0.1,0.1-0.2,0.2-0.1,0.3c0,0.1,0.1,0.1,0.2,0.1c0,0,0.1,0,0.1,0l1.7-1
			c0.1-0.1,0.2-0.2,0.1-0.3c0,0,0,0,0,0C290.4,375.1,290.3,375,290.2,375.1C290.2,375.1,290.2,375.1,290.2,375.1z"/>
		<path class="st10" d="M294.4,372.7l-1.7,1c-0.1,0.1-0.2,0.2-0.1,0.3c0,0,0,0,0,0c0,0.1,0.1,0.1,0.2,0.1c0,0,0.1,0,0.1,0l1.7-1
			c0.1-0.1,0.2-0.2,0.1-0.3C294.6,372.7,294.5,372.6,294.4,372.7C294.4,372.7,294.4,372.7,294.4,372.7z"/>
		<path class="st10" d="M328,353.3l-1.7,1c-0.1,0.1-0.2,0.2-0.1,0.3c0,0.1,0.1,0.1,0.2,0.1c0,0,0.1,0,0.1,0l1.7-1
			c0.1-0.1,0.2-0.2,0.1-0.3c0,0,0,0,0,0C328.2,353.3,328.1,353.2,328,353.3z"/>
		<path class="st10" d="M302.8,367.8l-1.7,1c-0.1,0.1-0.2,0.2-0.1,0.3c0,0.1,0.1,0.1,0.2,0.1c0,0,0.1,0,0.1,0l1.7-1
			c0.1-0.1,0.2-0.2,0.1-0.3C303,367.8,302.9,367.8,302.8,367.8L302.8,367.8L302.8,367.8z"/>
		<path class="st10" d="M323.8,355.7l-1.7,1c-0.1,0.1-0.1,0.2-0.1,0.3c0,0.1,0.1,0.1,0.2,0.1c0,0,0.1,0,0.1,0l1.7-1
			c0.1-0.1,0.2-0.2,0.1-0.3C324.1,355.7,323.9,355.7,323.8,355.7L323.8,355.7z"/>
		<path class="st10" d="M306.9,365.4l-1.7,1c-0.1,0.1-0.2,0.2-0.1,0.3c0,0,0,0,0,0c0,0.1,0.1,0.1,0.2,0.1c0,0,0.1,0,0.1,0l1.7-1
			c0.1-0.1,0.2-0.2,0.1-0.3C307.3,365.4,307.1,365.3,306.9,365.4C307,365.4,307,365.4,306.9,365.4L306.9,365.4z"/>
		<path class="st10" d="M332.2,350.8l-1.7,1c-0.1,0.1-0.2,0.2-0.1,0.3c0,0,0,0,0,0c0,0.1,0.1,0.1,0.2,0.1c0,0,0.1,0,0.1,0l1.7-1
			c0.1-0.1,0.2-0.2,0.1-0.3C332.5,350.8,332.4,350.8,332.2,350.8C332.2,350.8,332.2,350.9,332.2,350.8L332.2,350.8z"/>
		<path class="st10" d="M319.6,358.1l-1.7,1c-0.1,0.1-0.2,0.2-0.1,0.3c0,0,0,0,0,0c0,0.1,0.1,0.1,0.2,0.1c0,0,0.1,0,0.1,0l1.7-1
			c0.1-0.1,0.2-0.2,0.1-0.3C319.9,358.1,319.8,358.1,319.6,358.1C319.6,358.1,319.6,358.1,319.6,358.1L319.6,358.1z"/>
		<path class="st10" d="M298.6,370.2l-1.7,1c-0.1,0.1-0.2,0.2-0.1,0.3c0,0.1,0.1,0.1,0.2,0.1c0,0,0.1,0,0.1,0l1.7-1
			c0.1-0.1,0.2-0.2,0.1-0.3C298.8,370.2,298.7,370.2,298.6,370.2L298.6,370.2L298.6,370.2z"/>
		<path class="st10" d="M285.2,358L285.2,358c-0.1,0-0.2,0.1-0.2,0.2v1.9c0,0.1,0.1,0.2,0.2,0.2l0,0c0.1,0,0.2-0.1,0.2-0.2v-1.9
			C285.4,358.1,285.3,358,285.2,358z"/>
		<path class="st10" d="M285.2,362.7L285.2,362.7c-0.1,0-0.2,0.1-0.2,0.2v1.9c0,0.1,0.1,0.2,0.2,0.2l0,0c0.1,0,0.2-0.1,0.2-0.2V363
			C285.4,362.9,285.4,362.8,285.2,362.7C285.2,362.7,285.2,362.7,285.2,362.7z"/>
		<path class="st10" d="M285.1,343.7L285.1,343.7c-0.1,0-0.2,0.1-0.2,0.2l0,0v1.9c0,0.1,0.1,0.2,0.2,0.2l0,0l0,0
			c0.1,0,0.2-0.1,0.2-0.2l0,0V344C285.3,343.8,285.2,343.7,285.1,343.7L285.1,343.7z"/>
		<path class="st10" d="M285.2,372.2c-0.1,0-0.2,0.1-0.2,0.2v1.9c0,0.1,0.1,0.2,0.2,0.2l0,0c0.1,0,0.2-0.1,0.2-0.2c0,0,0,0,0,0v-1.9
			C285.5,372.3,285.4,372.2,285.2,372.2L285.2,372.2z"/>
		<path class="st10" d="M285.1,348.5L285.1,348.5c-0.1,0-0.2,0.1-0.2,0.2l0,0v1.9c0,0.1,0.1,0.2,0.2,0.2l0,0c0.1,0,0.2-0.1,0.2-0.2
			v-1.9C285.4,348.6,285.3,348.5,285.1,348.5z"/>
		<path class="st10" d="M285.1,353.2L285.1,353.2c-0.1,0-0.2,0.1-0.2,0.2v1.9c0,0.1,0.1,0.2,0.2,0.2l0,0c0.1,0,0.2-0.1,0.2-0.2v-1.9
			C285.4,353.3,285.3,353.2,285.1,353.2L285.1,353.2z"/>
		<path class="st10" d="M285.2,367.5L285.2,367.5c-0.1,0-0.2,0.1-0.2,0.2c0,0,0,0,0,0v1.9c0,0.1,0.1,0.2,0.2,0.2l0,0
			c0.1,0,0.2-0.1,0.2-0.2v-1.9C285.4,367.6,285.3,367.5,285.2,367.5z"/>
		<path class="st10" d="M287.5,337.8c-0.1,0-0.2,0-0.2,0l-2.8,1.6c-0.1,0-0.1,0.1-0.1,0.2v3.2c0,0.1,0,0.2,0.1,0.2
			c0.1,0,0.2,0,0.2,0l2.8-1.6c0.1,0,0.1-0.1,0.1-0.2V338C287.6,337.9,287.5,337.9,287.5,337.8z M287.1,338.4v2.6l-2.3,1.3v-2.6
			L287.1,338.4z"/>
		<path class="st10" d="M311.9,323.7c-0.1,0-0.2,0-0.2,0l-2.8,1.6c-0.1,0-0.1,0.1-0.1,0.2v3.2c0,0.1,0,0.2,0.1,0.2
			c0.1,0,0.2,0,0.2,0l2.8-1.6c0.1,0,0.1-0.1,0.1-0.2v-3.2C312,323.8,312,323.7,311.9,323.7z M311.5,324.3v2.6l-2.3,1.3v-2.6
			L311.5,324.3z"/>
		<path class="st10" d="M333,315.5c0,0,0.1,0,0.1,0c0,0,0.1,0,0.1,0l2.8-1.6c0.1,0,0.1-0.1,0.1-0.2v-3.2c0-0.1,0-0.2-0.1-0.2
			c-0.1,0-0.2,0-0.2,0l-2.8,1.6c-0.1,0-0.1,0.1-0.1,0.2v3.2C332.9,315.4,332.9,315.5,333,315.5z M335.6,310.9v2.6l-2.3,1.3v-2.6
			L335.6,310.9z"/>
		<path class="st10" d="M287.5,374.8c-0.1,0-0.2,0-0.2,0l-2.8,1.6c-0.1,0-0.1,0.1-0.1,0.2v3.2c0,0.1,0,0.2,0.1,0.2
			c0.1,0,0.2,0,0.2,0l2.8-1.6c0.1,0,0.1-0.1,0.1-0.2V375C287.6,374.9,287.5,374.8,287.5,374.8z M287.1,375.4v2.6l-2.3,1.3v-2.6
			L287.1,375.4z"/>
		<path class="st10" d="M311.9,360.7c-0.1,0-0.2,0-0.2,0l-2.8,1.6c-0.1,0-0.1,0.1-0.1,0.2v3.2c0,0.1,0,0.2,0.1,0.2
			c0.1,0,0.2,0,0.2,0l2.8-1.6c0.1,0,0.1-0.1,0.1-0.2v-3.2C312,360.8,312,360.7,311.9,360.7z M311.5,361.3v2.6l-2.3,1.3v-2.6
			L311.5,361.3z"/>
		<path class="st10" d="M336,347.3c-0.1,0-0.2,0-0.2,0l-2.8,1.6c-0.1,0-0.1,0.1-0.1,0.2v3.2c0,0.1,0,0.2,0.1,0.2c0,0,0.1,0,0.1,0
			c0,0,0.1,0,0.1,0l2.8-1.6c0.1,0,0.1-0.1,0.1-0.2v-3.2C336.1,347.4,336.1,347.3,336,347.3z M335.7,347.9v2.6l-2.3,1.3v-2.6
			L335.7,347.9z"/>
		<polygon class="st10" points="336.2,363 336.2,365.1 285,394.9 285,392.8 		"/>
		<polygon class="st10" points="336.1,359 336.2,361.1 285,390.9 285,388.7 		"/>
		<polygon class="st10" points="336.2,371.1 336.2,373.3 285,403.1 285,400.9 		"/>
		<polygon class="st10" points="336.1,367.1 336.2,369.3 285,399.1 285,396.9 		"/>
		<polygon class="st10" points="314.7,392 314.7,394.1 285,411.4 285,409.2 		"/>
		<polygon class="st10" points="336.1,375.4 336.2,377.6 285,407.4 285,405.2 		"/>
		<polygon class="st10" points="298.3,376.4 298.3,378.6 285,386.4 285,384.3 		"/>
		<path class="st23" d="M351.7,386.9l47.3-27.3c2.4-1.4,3.8-3.9,3.8-6.6v-56.2c0-1.6-1.3-2.9-2.9-2.9c-0.5,0-1,0.1-1.4,0.4
			l-47.3,27.3c-2.4,1.4-3.8,3.9-3.8,6.7v56.2c0,1.6,1.3,2.9,2.9,2.9C350.7,387.3,351.2,387.1,351.7,386.9z"/>
		<polygon class="st10" points="376.2,362.6 376.2,364.7 352.4,378.4 352.4,376.2 		"/>
		<polygon class="st10" points="399.1,345.5 399.1,347.6 352.4,374.4 352.4,372.2 		"/>
		<polygon class="st10" points="387.6,347.3 387.6,349.4 352.4,369.9 352.4,367.7 		"/>
		<polygon class="st18" points="384.5,332.5 391.9,328.3 384.5,341 		"/>
		<polygon class="st10" points="391.8,308.9 391.9,328.3 384.5,332.5 384.5,341 391.9,328.3 384.5,341 358.4,356.1 358.3,328.3 		
			"/>
		<path class="st23" d="M469.4,198.3c0-2.1-0.7-3.5-1.9-4.3l0,0h0c-1.2-0.7-2.9-0.6-4.7,0.5L276.4,301.8c-4,2.6-6.4,6.9-6.7,11.6
			v8.7l199.7-115.3L469.4,198.3z"/>
		<path class="st25" d="M469.4,198.3c0-2.1-0.7-3.5-1.9-4.3l0,0h0c-1.2-0.7-2.9-0.6-4.7,0.5L276.4,301.8c-4,2.6-6.4,6.9-6.7,11.6
			v8.7l199.7-115.3L469.4,198.3z"/>
		<g class="st4">
			<path class="st10" d="M278.5,307.8c1-0.6,1.8-0.1,1.8,1c-0.1,1.3-0.7,2.5-1.8,3.2c-1,0.6-1.8,0.1-1.8-1
				C276.8,309.7,277.5,308.5,278.5,307.8z"/>
			<path class="st10" d="M283.5,305c1-0.6,1.8-0.1,1.8,1c-0.1,1.3-0.7,2.5-1.8,3.2c-1,0.6-1.8,0.1-1.8-1
				C281.8,306.9,282.5,305.7,283.5,305z"/>
			<path class="st10" d="M288.5,302.1c1-0.6,1.8-0.1,1.8,1c-0.1,1.3-0.8,2.5-1.8,3.2c-1,0.6-1.8,0.1-1.8-1
				C286.8,303.9,287.5,302.8,288.5,302.1z"/>
		</g>
		<path class="st23" d="M278.5,307.8c1-0.6,1.8-0.1,1.8,1c-0.1,1.3-0.7,2.5-1.8,3.2c-1,0.6-1.8,0.1-1.8-1
			C276.8,309.7,277.5,308.5,278.5,307.8z"/>
		<path class="st23" d="M283.5,305c1-0.6,1.8-0.1,1.8,1c-0.1,1.3-0.7,2.5-1.8,3.2c-1,0.6-1.8,0.1-1.8-1
			C281.8,306.9,282.5,305.7,283.5,305z"/>
		<path class="st23" d="M288.5,302.1c1-0.6,1.8-0.1,1.8,1c-0.1,1.3-0.8,2.5-1.8,3.2c-1,0.6-1.8,0.1-1.8-1
			C286.8,303.9,287.5,302.8,288.5,302.1z"/>
		<g class="st17">
			<path class="st10" d="M272.1,467.6L272.1,467.6L272.1,467.6L272.1,467.6z"/>
			<path class="st10" d="M467.5,194L467.5,194L467.5,194z"/>
			<path class="st10" d="M469.4,198.3c0-2.1-0.7-3.5-1.9-4.3l0,0h0c-0.5-0.3-1-0.4-1.5-0.4c0.5,0,1.1,0.2,1.5,0.4l-7-4.1l0,0
				c-1.2-0.8-3-0.7-4.9,0.4L269.2,297.6c-0.2,0.1-0.5,0.3-0.7,0.5l-0.2,0.2c-0.2,0.1-0.3,0.2-0.5,0.4l-0.2,0.2
				c-0.1,0.1-0.3,0.3-0.4,0.4l-0.2,0.2c-0.1,0.1-0.3,0.3-0.4,0.4c-0.1,0.1-0.1,0.2-0.2,0.2c-0.1,0.1-0.3,0.3-0.4,0.5l-0.2,0.2
				c-0.1,0.2-0.3,0.4-0.4,0.6l-0.1,0.2c-0.1,0.2-0.3,0.4-0.4,0.7c0,0.1-0.1,0.1-0.1,0.1c-0.2,0.3-0.3,0.6-0.5,0.9l0,0
				c-0.1,0.2-0.2,0.4-0.2,0.5c0,0.1-0.1,0.2-0.1,0.2c-0.1,0.2-0.1,0.3-0.2,0.5l-0.1,0.3l-0.2,0.4l-0.1,0.4l-0.1,0.4l-0.1,0.4
				c0,0.1-0.1,0.3-0.1,0.4c0,0.1-0.1,0.3-0.1,0.4s0,0.2-0.1,0.3c-0.1,0.1,0,0.3-0.1,0.5v0.3c0,0.3,0,0.5,0,0.8l0.3,149.9
				c0,2,0.7,3.4,1.8,4.2l0,0c0.1,0.1,0.2,0.2,0.4,0.2l6.9,4l0.1,0.1h0.1c1.2,0.6,2.8,0.5,4.7-0.5l186.3-107.3
				c4-2.6,6.4-6.9,6.7-11.6L469.4,198.3z"/>
		</g>
		<path class="st23" d="M560.2,260.9v-3.3c-0.1-1.4-0.8-2.7-2-3.5l-59-34.1c-0.4-0.3-1-0.4-1.5-0.1l0,0l-2,1.4c0,0,1.3,0.8,1.3,0.9
			h0.1v4.6l61.2,35.3L560.2,260.9z"/>
		<path class="st32" d="M560.2,260.9v-3.3c-0.1-1.4-0.8-2.7-2-3.5l-59-34.1c-0.4-0.3-1-0.4-1.5-0.1l0,0l-2,1.4c0,0,1.3,0.8,1.3,0.9
			h0.1v4.6l61.2,35.3L560.2,260.9z"/>
		<path class="st0" d="M558.3,262.1l-61.2-35.3l-0.1,42c0.1,1.4,0.8,2.7,2,3.5l58.1,33.5l-0.5,0.7l1,1.4l2-1.4l0,0
			c0.4-0.3,0.6-0.8,0.5-1.2l0.1-44.3L558.3,262.1z"/>
		<path class="st23" d="M556.3,255.5c1.2,0.8,2,2.1,2,3.5v3.1l-63.1-36.5v-3.1c0-1.3,0.9-1.8,2-1.2L556.3,255.5z"/>
		<g class="st4">
			<path class="st10" d="M556.3,255.5c1.2,0.8,2,2.1,2,3.5v3.1l-63.1-36.5v-3.1c0-1.3,0.9-1.8,2-1.2L556.3,255.5z"/>
		</g>
		<path class="st28" d="M558.3,262.1l-0.1,44.5c0,1.3-0.9,1.8-2,1.2l-59.1-34.1c-1.2-0.8-2-2.1-2-3.5l0.1-44.5L558.3,262.1z"/>
		<polygon class="st23" points="515.9,274.4 515.9,276.3 498.4,266.1 498.4,264.3 		"/>
		<polygon class="st23" points="555.1,269.4 555.1,271.3 510,245.2 510,243.4 		"/>
		<polygon class="st23" points="516,242.8 516,244.7 498.4,234.6 498.5,232.7 		"/>
		<g class="st4">
			<polygon class="st10" points="515.9,274.4 515.9,276.3 498.4,266.1 498.4,264.3 			"/>
			<polygon class="st10" points="555.1,269.4 555.1,271.3 510,245.2 510,243.4 			"/>
			<polygon class="st10" points="516,242.8 516,244.7 498.4,234.6 498.5,232.7 			"/>
			<polygon class="st10" points="515.9,262.9 515.9,264.8 498.4,254.6 498.4,252.8 			"/>
			<polygon class="st10" points="510.7,251.8 510.7,253.7 498.4,246.6 498.4,244.8 			"/>
			<polygon class="st10" points="532.5,288 532.5,289.8 509.9,276.8 509.9,275 			"/>
			<polygon class="st10" points="538.1,283.2 538.1,285.1 509.9,268.8 509.9,266.9 			"/>
			<polygon class="st10" points="523.9,254.9 523.9,256.8 510,248.7 510,246.9 			"/>
			<polygon class="st10" points="544.3,275.3 544.3,277.2 510,257.3 510,255.4 			"/>
			<polygon class="st10" points="555,289.5 555,291.4 509.9,265.3 509.9,263.5 			"/>
		</g>
		<path class="st23" d="M249.6,439.2V436c0.1-1.4,0.8-2.7,2-3.5l59.1-34.1c0.4-0.3,1-0.4,1.5-0.1l0,0l2,1.4c0,0-1.3,0.8-1.3,0.9
			c0,0.1-0.1,0-0.1,0v4.6l-61.2,35.2L249.6,439.2z"/>
		<path class="st27" d="M249.6,439.2V436c0.1-1.4,0.8-2.7,2-3.5l59.1-34.1c0.4-0.3,1-0.4,1.5-0.1l0,0l2,1.4c0,0-1.3,0.8-1.3,0.9
			c0,0.1-0.1,0-0.1,0v4.6l-61.2,35.2L249.6,439.2z"/>
		<path class="st0" d="M251.6,440.5l61.2-35.3l0.1,42c-0.1,1.4-0.8,2.7-2,3.5l-58.1,33.6l0.5,0.7l-1,1.4l-2-1.4l0,0
			c-0.4-0.3-0.6-0.8-0.5-1.3l-0.1-44.3L251.6,440.5z"/>
		<path class="st23" d="M253.6,433.9c-1.2,0.8-2,2.1-2,3.5v3.1l63.1-36.5v-3.1c0-1.3-0.9-1.8-2-1.2L253.6,433.9z"/>
		<g class="st8">
			<path class="st10" d="M253.6,433.9c-1.2,0.8-2,2.1-2,3.5v3.1l63.1-36.5v-3.1c0-1.3-0.9-1.8-2-1.2L253.6,433.9z"/>
		</g>
		<path class="st28" d="M251.6,440.5l0.1,44.5c0,1.3,0.9,1.8,2.1,1.2l59-34.1c1.2-0.8,2-2.1,2-3.5l-0.1-44.5L251.6,440.5z"/>
		<polygon class="st23" points="254.9,475.7 254.9,477.6 272.4,467.5 272.4,465.6 		"/>
		<polygon class="st23" points="254.8,464.2 254.8,466.1 272.3,456 272.3,454.1 		"/>
		<polygon class="st23" points="254.8,456.3 254.8,458.2 267.1,451.1 267.1,449.2 		"/>
		<polygon class="st23" points="267.1,472.3 267.1,474.2 289.7,461.1 289.7,459.3 		"/>
		<polygon class="st23" points="267.2,464.3 267.2,466.2 295.3,449.9 295.3,448.1 		"/>
		<polygon class="st23" points="266.1,444.8 266.1,446.7 280.1,438.6 280.1,436.8 		"/>
		<polygon class="st23" points="267.2,452.4 267.2,454.2 301.6,434.4 301.6,432.5 		"/>
		<polygon class="st23" points="267.2,461 267.2,462.9 312.3,436.8 312.3,435 		"/>
		<polygon class="st23" points="266.1,441.5 266.1,443.4 311.2,417.3 311.2,415.5 		"/>
		<polygon class="st23" points="254.8,444.1 254.8,446 272.3,435.9 272.3,434 		"/>
		<g class="st4">
			<polygon class="st10" points="254.9,475.7 254.9,477.6 272.4,467.5 272.4,465.6 			"/>
			<polygon class="st10" points="254.8,464.2 254.8,466.1 272.3,456 272.3,454.1 			"/>
			<polygon class="st10" points="254.8,456.3 254.8,458.2 267.1,451.1 267.1,449.2 			"/>
			<polygon class="st10" points="267.1,472.3 267.1,474.2 289.7,461.1 289.7,459.3 			"/>
			<polygon class="st10" points="267.2,464.3 267.2,466.2 295.3,449.9 295.3,448.1 			"/>
			<polygon class="st10" points="266.1,444.8 266.1,446.7 280.1,438.6 280.1,436.8 			"/>
			<polygon class="st10" points="267.2,452.4 267.2,454.2 301.6,434.4 301.6,432.5 			"/>
			<polygon class="st10" points="267.2,461 267.2,462.9 312.3,436.8 312.3,435 			"/>
			<polygon class="st10" points="266.1,441.5 266.1,443.4 311.2,417.3 311.2,415.5 			"/>
			<polygon class="st10" points="254.8,444.1 254.8,446 272.3,435.9 272.3,434 			"/>
		</g>
		<path class="st28" d="M413.3,415.1l-0.1-26.1c0.1-1.2,0.7-2.3,1.8-3l35.9-20.8c0.3-0.2,0.8-0.3,1.2-0.1l-2.2-1.3l0,0
			c-0.4-0.2-0.9-0.1-1.2,0.1l-36,20.8c-1,0.7-1.7,1.8-1.8,3l0.1,26.1c0,0.4,0.2,0.9,0.5,1.1l2.2,1.3l0,0
			C413.5,416,413.3,415.6,413.3,415.1z"/>
		<path class="st28" d="M452.7,366.3c0-0.4-0.1-0.8-0.4-1l-0.1-0.1h-0.1c-0.4-0.2-0.8-0.1-1.2,0.1l-36,20.8c-1,0.7-1.7,1.8-1.8,3
			l0.1,26.1c0,0.4,0.1,0.9,0.5,1.1c0.4,0.2,0.9,0.2,1.3-0.1l36-20.8c1-0.7,1.7-1.8,1.8-3L452.7,366.3z"/>
		<path class="st25" d="M413.3,415.1l-0.1-26.1c0.1-1.2,0.7-2.3,1.8-3l35.9-20.8c0.3-0.2,0.8-0.3,1.2-0.1l-2.2-1.3l0,0
			c-0.4-0.2-0.9-0.1-1.2,0.1l-36,20.8c-1,0.7-1.7,1.8-1.8,3l0.1,26.1c0,0.4,0.2,0.9,0.5,1.1l2.2,1.3l0,0
			C413.5,416,413.3,415.6,413.3,415.1z"/>
		<polygon class="st33" points="429,389 429,391 421.7,398.5 429,397.5 429,399.5 419.7,400.6 419.7,398.6 		"/>
		<polygon class="st33" points="438.4,377.1 431.6,403.4 429.8,404.5 436.6,378.2 		"/>
		<polygon class="st33" points="439,383.2 448.3,382.1 448.3,384.1 439,393.7 439,391.7 446.4,384.2 439,385.2 		"/>
		<polygon class="st10" points="443.7,298.9 452.7,306 452.8,313 422.6,330.4 422.6,323.4 428.3,312 433.5,316 431.7,321.7 
			434.3,316.6 		"/>
		<path class="st10" d="M433.8,302.3c1.4-0.8,2.6-0.2,2.6,1.5c-0.1,1.8-1.1,3.4-2.6,4.4c-1.4,0.8-2.6,0.2-2.6-1.5
			C431.3,305,432.3,303.3,433.8,302.3z"/>
		<polygon class="st10" points="318,329.3 327.7,337 327.7,344.4 295.4,363.1 295.4,355.6 301.6,343.4 307.1,347.7 305.1,353.7 
			308,348.3 		"/>
		<path class="st10" d="M307.4,333.1c1.5-0.9,2.8-0.2,2.8,1.6c-0.1,1.9-1.1,3.7-2.7,4.7c-1.5,0.9-2.8,0.2-2.8-1.6
			C304.7,335.9,305.8,334.2,307.4,333.1z"/>
		<polygon class="st23" points="515.9,262.9 515.9,264.8 498.4,254.6 498.4,252.8 		"/>
		<polygon class="st23" points="510.7,251.8 510.7,253.7 498.4,246.6 498.4,244.8 		"/>
		<polygon class="st23" points="532.5,288 532.5,289.8 509.9,276.8 509.9,275 		"/>
		<polygon class="st23" points="538.1,283.2 538.1,285.1 509.9,268.8 509.9,266.9 		"/>
		<polygon class="st23" points="523.9,254.9 523.9,256.8 510,248.7 510,246.9 		"/>
		<polygon class="st23" points="544.3,275.3 544.3,277.2 510,257.3 510,255.4 		"/>
		<polygon class="st23" points="555,289.5 555,291.4 509.9,265.3 509.9,263.5 		"/>
	</g>
	<g id="freepik--Clouds--inject-60">
		<path class="st34" d="M511,125.4c-2.7-1.6-5-0.8-5.7,1.6c-0.7-1.3-1.7-2.5-2.9-3.3c-2.1-1.2-3.8-0.2-3.9,2.2v1.1l-2.8-1.6
			c-1.5-0.9-2.7-0.2-2.7,1.5c0.1,1.9,1.1,3.6,2.7,4.6l24.1,13.9c1.5,0.9,2.7,0.2,2.7-1.5c-0.1-1.9-1.1-3.6-2.7-4.6l-2.8-1.6v-2.1
			C516.7,131.5,514.5,127.6,511,125.4z"/>
		<path class="st34" d="M544.7,162.4c-7.1-4.1-13.2-2.1-15.1,4.3c-1.7-3.5-4.4-6.5-7.7-8.6c-5.6-3.2-10.1-0.6-10.2,5.8v2.9l-7.5-4.3
			c-3.9-2.3-7.1-0.4-7.1,4.1c0,4.5,3.1,10,7,12.2l63.6,36.7c3.9,2.3,7.1,0.4,7.1-4.1c0-4.5-3.2-10-7-12.2l-7.5-4.3v-5.4
			C560.4,179.5,553.4,167.4,544.7,162.4z"/>
		<polygon class="st28" points="532.7,175.2 540.4,189.3 535.8,186.6 535.7,197 529.6,193.4 529.6,183.1 525,180.4 		"/>
		<polygon class="st28" points="535.8,198.4 535.7,202.4 529.6,198.8 529.6,194.9 		"/>
		<polygon class="st28" points="535.8,204 535.7,205.9 529.6,202.4 529.6,200.4 		"/>
		<polygon class="st28" points="535.8,207.3 535.7,208.5 529.6,204.9 529.6,203.7 		"/>
		<g class="st4">
			<polygon class="st10" points="532.7,175.2 540.4,189.3 535.8,186.6 535.7,197 529.6,193.4 529.6,183.1 525,180.4 			"/>
			<polygon class="st10" points="535.8,198.4 535.7,202.4 529.6,198.8 529.6,194.9 			"/>
			<polygon class="st10" points="535.8,204 535.7,205.9 529.6,202.4 529.6,200.4 			"/>
			<polygon class="st10" points="535.8,207.3 535.7,208.5 529.6,204.9 529.6,203.7 			"/>
		</g>
		<path class="st34" d="M330.1,137.6c7.1-4.1,13.2-2.1,15.1,4.3c1.7-3.5,4.4-6.5,7.7-8.6c5.6-3.2,10.1-0.6,10.2,5.8v3l7.5-4.3
			c3.9-2.3,7.1-0.4,7.1,4.1c0,4.5-3.1,10-7,12.2L307,190.7c-3.9,2.3-7.1,0.5-7.1-4c0-4.5,3.1-10,7-12.2l7.5-4.3v-5.4
			C314.4,154.8,321.4,142.6,330.1,137.6z"/>
		<polygon class="st28" points="341.3,190.9 349,176.9 344.3,179.6 344.3,169.2 338.2,172.7 338.2,183.1 333.6,185.8 		"/>
		<polygon class="st28" points="344.3,167.7 344.3,163.8 338.2,167.3 338.2,171.3 		"/>
		<polygon class="st28" points="344.3,162.2 344.3,160.2 338.2,163.7 338.2,165.7 		"/>
		<polygon class="st28" points="344.3,158.9 344.3,157.7 338.2,161.2 338.2,162.4 		"/>
		<g class="st4">
			<polygon class="st10" points="341.3,190.9 349,176.9 344.3,179.6 344.3,169.2 338.2,172.7 338.2,183.1 333.6,185.8 			"/>
			<polygon class="st10" points="344.3,167.7 344.3,163.8 338.2,167.3 338.2,171.3 			"/>
			<polygon class="st10" points="344.3,162.2 344.3,160.2 338.2,163.7 338.2,165.7 			"/>
			<polygon class="st10" points="344.3,158.9 344.3,157.7 338.2,161.2 338.2,162.4 			"/>
		</g>
	</g>
</g>
<g id="Capa_4">
	<g id="freepik--character-1--inject-11_2_">
		<g id="freepik--character--inject-11_2_">
			<path class="st26" d="M525.7,492c-0.4,3-1.7,13.5-1.8,15.9c0.2,0.7,0.3,1.4,0.3,2.1c0.1,1.2-0.1,2.5-0.6,3.6
				c-3,4.8-6.3,9.3-9.9,13.7c-3.3,3.7-8.3,6.4-10.2,5.1c-0.1,0-0.2-0.1-0.2-0.1c-0.7-0.5-0.8-1.4-0.4-2.1c0.5-0.9,2-3,2.6-4.1
				c2.8-5,2.2-7,3.8-12c1.5-4.8-0.2-14.1-1-21.5L525.7,492z"/>
			<path class="st35" d="M491.8,533.8c-1.3,0.7-0.7,3.7-0.7,3.7s0.9,3.2,6.6,3.6c4.6,0.4,9.2-0.7,13.2-3c3-1.8,5.4-4.3,6.5-7.5
				c0.5-2.1,1.8-3.8,3.6-4.9c1.3-0.8,4.7-3.2,5-4.2c0.1-0.6,0.1-1.2,0-1.8C526.1,519.7,493.2,533.1,491.8,533.8z"/>
			<path class="st0" d="M523.8,508.6c0,1-0.7,1.9-1.7,2.2c-1,0.4-2.1,0.2-2.9-0.5c-0.5-0.5-0.9-1.3-1.4-1.8
				c-0.7-0.8-1.7-1.3-2.8-1.4c-1.1-0.2-2.1-0.2-3.2-0.1c-0.7,0-1.3,0.1-1.9,0.5c-0.5,0.5-0.8,1.1-0.9,1.7c-0.3,1.4-0.6,2.8-1.1,4.2
				c-0.6,1.3-1.3,2.6-2,3.9c0,0-5.6,8.8-10.2,12.1c-4.4,3.1-5.4,5.2-3.8,7.1c1.6,1.9,7.5,3.6,14.6,1.2c7.1-2.3,8.8-6.5,10.6-9.9
				c1.9-3.4,6.4-4.7,9-8.1c0.5-2.1-0.7-5.1-1-6.6c-0.3-1.5-0.4-4.2-0.5-4.4c-0.2-0.6-0.5-0.7-0.7-0.7
				C523.9,508.1,523.8,508.4,523.8,508.6z"/>
			<path class="st36" d="M502.7,538.8c-5.6,0.6-8.8-0.1-11-2.3c-2-2,0.5-5.4,2.3-7c1.5-1.4,4.7-3.6,10.5-1.5
				c3.3,1.1,5.8,3.9,6.4,7.3C511,535.3,508.3,538.2,502.7,538.8z"/>
			<path class="st36" d="M516.8,517.1C516.8,517.1,516.9,517.1,516.8,517.1c0.3-0.3,0.3-0.7,0.1-0.9c-0.9-1-5.1-3.6-9.1-2.7
				c-0.7,0.6-1,1.1-0.8,1.5c3.7-1.5,8.2,1.3,8.9,2c0.1,0.2,0.3,0.2,0.5,0.2C516.6,517.3,516.7,517.2,516.8,517.1z"/>
			<path class="st36" d="M513.7,520.4c0.1,0.2,0.3,0.2,0.5,0.2c0.1,0,0.3-0.1,0.4-0.1c0,0,0,0,0.1-0.1c0.2-0.2,0.2-0.6,0-0.8
				c-0.9-0.9-4.7-3.4-8.6-2.8c-0.5,0.3-0.9,0.9-0.9,1.5C508.8,516.9,513,519.6,513.7,520.4z"/>
			<path class="st36" d="M509.3,527c0.1,0.2,0.3,0.2,0.5,0.2c0.1,0,0.3-0.1,0.4-0.1c0,0,0,0,0,0c0.2-0.2,0.2-0.6,0-0.8
				c-0.9-0.9-5-3.5-8.9-2.8c-0.7,0.4-1.3,1.1-1.5,1.8C503.7,523,508.6,526.1,509.3,527z"/>
			<path class="st36" d="M512.4,523.7C512.5,523.7,512.5,523.7,512.4,523.7c0.3-0.3,0.3-0.7,0.1-0.9c-0.9-0.9-4.7-3.4-8.6-2.8
				c-0.6,0.3-1,0.9-1.1,1.5c3.7-1.4,8,1.3,8.8,2.1c0.1,0.2,0.3,0.2,0.5,0.2C512.2,523.8,512.3,523.8,512.4,523.7z"/>
			<path class="st5" d="M590.8,454.3l-10,25.9l-52.8-3.6l-2.8,21.9c-5.5,6.2-16.5,2.7-16.5,2.7c-1.4-10.3-2-14.6-3.8-29.5
				c-0.9-7.9,0.8-14.5,2.6-16.7c2.8-3.6,5.3-5.7,11.7-6.7c12.9-2,26.5-3.9,48.2-2.7L590.8,454.3z"/>
			<g class="st37">
				<path class="st10" d="M590.8,454.3l-10,25.9l-52.8-3.6l-2.8,21.9c-5.5,6.2-16.5,2.7-16.5,2.7c-1.4-10.3-2-14.6-3.8-29.5
					c-0.9-7.9,0.8-14.5,2.6-16.7c2.8-3.6,5.3-5.7,11.7-6.7c12.9-2,26.5-3.9,48.2-2.7L590.8,454.3z"/>
			</g>
			<path class="st38" d="M521.9,472.4c0.1,3.1-1.1,13-1.9,19.6c-0.8,6.2-0.8,6.7-0.7,7l0.7-0.2l0.4,0c0-0.4,0.4-3.4,0.8-6.6
				c0.9-7,2.1-16.5,2-19.8c-0.2-4-0.2-6.5,0.7-7.4c0.7-0.7,2.1-0.8,4.8-0.6c5.7,0.3,30.9,3.4,34.4,3.9c0.3,0.8,0.6,1.3,0.6,1.3
				l-10.4,8.7l3.7,0.3l11-8.8c0,0-5-3.6-6.3-12.6c-1,3.5-0.1,7.4,0.8,9.8c-5.2-0.7-28.4-3.5-33.9-3.8c-3-0.1-4.6,0-5.6,1
				C521.8,465.3,521.7,467.6,521.9,472.4z M530.2,476.7c0.6-8-4.3-11.5-4.3-11.5c1.7,3.5,2.4,7.4,2.2,11.3L530.2,476.7L530.2,476.7z
				"/>
			<path class="st5" d="M526.5,491.8c0,0-0.8,7-0.8,7.1c0,0.2-1.5,2.9-6.8,4c-5.3,1.1-10.4-1.2-10.4-1.2l-1.1-7.2
				C520.4,499.9,526.5,491.8,526.5,491.8z"/>
			<path class="st26" d="M551.8,545.5c-0.9,2.9-3.7,13.1-4.2,15.5c0.1,0.7,0.1,1.4,0,2.2c-0.1,1.3-0.5,2.5-1.2,3.5
				c-3.7,4.2-7.7,8.2-11.9,12c-3.8,3.1-9.1,5-10.9,3.5c-0.1-0.1-0.2-0.1-0.2-0.2c-0.6-0.6-0.6-1.5,0-2.1c0.6-0.8,2.4-2.6,3.2-3.6
				c3.5-4.5,3.3-6.6,5.6-11.3c2.2-4.5,2.1-14,2.3-21.4L551.8,545.5z"/>
			<path class="st35" d="M511.9,581.6c-1.4,0.4-1.2,3.6-1.2,3.6s0.3,3.3,5.9,4.5c4.5,1.1,9.2,0.8,13.5-0.9c3.2-1.4,6.1-3.4,7.6-6.4
				c0.9-1.9,2.4-3.5,4.4-4.3c1.4-0.6,5.1-2.5,5.6-3.4c0.2-0.6,0.3-1.2,0.3-1.8C547.9,572.9,513.3,581.1,511.9,581.6z"/>
			<path class="st0" d="M547.3,561.6c-0.2,1-1,1.8-2,1.9c-1,0.2-2.1-0.1-2.8-1c-0.5-0.6-0.7-1.4-1.1-2.1c-0.6-0.9-1.5-1.5-2.5-1.9
				c-1-0.3-2.1-0.5-3.1-0.6c-0.7-0.1-1.3-0.1-2,0.2c-0.5,0.4-1,0.9-1.2,1.5c-0.5,1.4-1.1,2.7-1.7,3.9c-0.8,1.2-1.7,2.4-2.6,3.5
				c0,0-6.9,7.8-12,10.4c-4.8,2.4-6.1,4.3-4.8,6.5c1.3,2.1,6.8,4.6,14.2,3.5c7.4-1.2,9.7-5,12-8.1s7.1-3.7,10.2-6.6
				c0.8-2,0.1-5.2,0-6.7s0.2-4.2,0.2-4.4c-0.1-0.7-0.4-0.8-0.5-0.8C547.5,561.2,547.4,561.4,547.3,561.6z"/>
			<path class="st36" d="M521.8,588.2c-5.7-0.3-8.7-1.5-10.5-4c-1.7-2.3,1.3-5.2,3.4-6.6c1.7-1.2,5.2-2.9,10.6,0.2
				c3.1,1.6,5.1,4.7,5.2,8.2C530.5,586,527.5,588.5,521.8,588.2z"/>
			<path class="st36" d="M539.2,569C539.2,569,539.2,569,539.2,569c0.3-0.2,0.4-0.6,0.2-0.9c-0.7-1.1-4.5-4.3-8.6-4.1
				c-0.8,0.5-1.2,0.9-1,1.4c3.9-1,7.9,2.5,8.5,3.4c0.1,0.2,0.3,0.3,0.5,0.3C538.9,569.1,539,569,539.2,569z"/>
			<path class="st36" d="M535.6,571.7c0.1,0.2,0.3,0.3,0.5,0.3c0.1,0,0.3,0,0.4-0.1c0,0,0,0,0,0c0.3-0.2,0.4-0.6,0.2-0.8
				c-0.7-1-4.2-4.1-8.1-4.1c-0.6,0.2-1,0.7-1.2,1.3C531.3,567.6,535,570.8,535.6,571.7z"/>
			<path class="st36" d="M530.2,577.6c0.1,0.2,0.3,0.3,0.5,0.3c0.1,0,0.3,0,0.4-0.1c0,0,0,0,0.1,0c0.3-0.2,0.3-0.6,0.1-0.8
				c-0.7-1.1-4.4-4.2-8.4-4.1c-0.8,0.3-1.4,0.9-1.8,1.6C525.3,572.8,529.6,576.6,530.2,577.6z"/>
			<path class="st36" d="M533.8,574.8C533.8,574.8,533.9,574.8,533.8,574.8c0.3-0.2,0.4-0.6,0.2-0.9c-0.7-1-4.2-4.1-8.1-4.1
				c-0.6,0.2-1.1,0.7-1.4,1.4c3.9-0.8,7.7,2.5,8.3,3.4c0.1,0.2,0.3,0.3,0.5,0.3C533.6,574.9,533.7,574.9,533.8,574.8z"/>
			<path class="st5" d="M537,504c-1.1,7.9-3.2,46.2-3.2,46.2c3.4,3.8,14.9,4,16.9,1.1c0,0,2.1-6.5,3.8-12.5
				c1.7-5.5,4.8-15.2,4.9-21.4c0.2-9.6,1.3-8.9,5.2-11.4c2.7-1.8,15.6-7.5,27-14.3c9.7-5.7,15-10.8,17.2-19.6L567,444.9
				c1.2,14.9,1.1,24.9,1.1,24.9s-20.8,16.3-25,20.7C538.2,495.6,537.6,499.6,537,504z"/>
			<g class="st37">
				<path class="st10" d="M537,504c-1.1,7.9-3.2,46.2-3.2,46.2c3.4,3.8,14.9,4,16.9,1.1c0,0,2.1-6.5,3.8-12.5
					c1.7-5.5,4.8-15.2,4.9-21.4c0.2-9.6,1.3-8.9,5.2-11.4c2.7-1.8,15.6-7.5,27-14.3c9.7-5.7,15-10.8,17.2-19.6L567,444.9
					c1.2,14.9,1.1,24.9,1.1,24.9s-20.8,16.3-25,20.7C538.2,495.6,537.6,499.6,537,504z"/>
			</g>
			<path class="st38" d="M553.9,506.2c-0.2,1.9-0.2,4.1-0.3,6.7c-0.1,6.2,0.3,8-1.6,16.8c-1.6,7.4-4.2,18.4-5.3,23.4
				c0.4-0.1,0.9-0.1,1.3-0.3c1.2-5,3.7-15.7,5.2-22.9c1.9-8.9,1.5-10.8,1.6-17c0-2.6,0.1-4.8,0.3-6.7c0.4-4.3,11.2-10.1,22.6-16.3
				c4.3-2.3,8.7-4.7,13-7.2c14.8-8.7,14.1-15.9,13-26.8c-0.1-1-0.2-2.1-0.3-3.2l-1.2-0.2c0.1,1.2,0.2,2.4,0.3,3.5
				c0.9,9.4,1.6,15.6-7.6,22.5c-1-0.9-3.2-3.8-2.1-9.5c1.8-8.7,1.3-13,0.5-19l-1.2,0.2c0.8,5.8,1.3,9.8-0.5,18.5
				c-1.2,6,1,9.2,2.3,10.4c-1.1,0.8-2.4,1.6-3.7,2.4c-4.3,2.5-8.7,4.9-13,7.2C564.4,495.8,554.3,501.2,553.9,506.2z"/>
			<path class="st5" d="M533.7,551.5c4.2,4.3,12.2,4.7,16.5,1.7l1.7-5.8c-5.7,3-16.2,0.8-18.1-2.2L533.7,551.5z"/>
			<g id="freepik--top--inject-11_2_">
				<g id="freepik--arm--inject-11_2_">
					<path class="st39" d="M564.3,361.4c2.7-9.2,7.2-19.2,11.1-27.9c2.4-5.5,1.5-6.3,2.7-10.8c0.5-1.6,1.3-3.1,2.2-4.6
						c0.8-1.5,1.8-2.8,2.9-4.1c1.4-1.5,2.9-2.8,4.6-4c1.5-1.2,2.5-0.7,3.1-0.2c0,0,0.7-0.6,0.9-0.8c0.7-0.6,1.8-0.6,2.5,0l0.9-0.7
						c0.7-0.5,1.6-0.8,2.1,0.2c0.3,0.5,0.3,1.2,0,1.7c0.2-0.1,0.4-0.2,0.7-0.3c0.6-0.1,1.1,0.6,1.1,1.4c0,1.8-1.2,3.5-2.9,5.3
						c-3.1,3.2-5.2,6.5-4.4,6.4s3.5-1.9,4.5-2.1c1.3-0.4,2.7,0.2,3.3,1.5c0.2,0.6-1.2,0.8-3,2.4c-2.2,2-4,4.3-6.9,5.8
						c-1,0.5-1.8,1.3-2.2,2.3c-2.5,6.2-7.2,25.8-7.9,30.6c3,10,7.7,24.4,7.7,24.4c0.4,1.3,3.4,5.6,5.2,7.4
						c5.4,5.6-11.3,19.6-17.7,18c0.3-7.2-2.5-15-8.5-37.3C564.6,370,563.5,364.4,564.3,361.4z"/>
					<path class="st40" d="M582.5,329.9c0.2-3,3.1-6.6,7-7.2C584.2,322.3,581.7,326.1,582.5,329.9z"/>
					<path class="st35" d="M583.7,412.2c-7.2,9.4-10.4,6.3-10.4,6.3s1.1-3.8-0.5-14s-5.8-24.6-5.8-24.6c2.5,0.2,5.1-0.3,7.3-1.5
						c7-3.7,7.3-8.5,7.3-8.5s5,14.9,6,17.4c0.8,2.4,2.1,4.5,3.8,6.4C591.4,393.8,590.9,402.8,583.7,412.2z"/>
					<path class="st5" d="M584,376.7c-1.9,4.6-8,9.6-15.2,9.2c-0.3-1.1-0.6-2.1-0.8-3c7,0.4,13-4.6,15-9.2L584,376.7z"/>
				</g>
				<path id="freepik--Chest--inject-11_2_" class="st41" d="M600.6,397.2l-9.1-3.5c-4.3,1.6-13.4,10.1-18.5,25.9
					c-3.7,11.7-11.6,25.6-11.6,25.6s3.3,15.1,18,23.1c20.3,11.1,28.9,7.6,28.9,7.6c2.6-7.4,3.7-11.8,6.7-20.7c2.3-7,5-13.7,6.8-17.8
					c5.6-12.3,10.2-23.3,10.2-23.3c-2.7-2.5-5.7-4.6-8.9-6.4c-6.1-3.3-7.6-4.3-7.6-4.3L600.6,397.2z"/>
				<path class="st0" d="M598.7,404.1c-4.3-3.5-2.4-6,0.1-7.5l1.8,0.7l14.9,6.2c0,0,0.4,0.2,1.3,0.8c-0.9,1-2,1.9-3.3,2.4
					C610.2,408,603.3,407.8,598.7,404.1z"/>
				<g id="freepik--Head--inject-11_2_">
					<path class="st35" d="M603.4,361.4c-1.7,0.3-3,1.6-3.4,3.3c-0.3,1.5,0.1,3.1,1.1,4.3c1.1,1.3,2.1,2.8,3.1,4.2
						c2.2,3,4.4,6,6.4,9.1c1.8,2.9,3.4,5.9,4.7,9c0.5,1.2,1,2.4,1.5,3.6c0.3,1,0.4,2.6,1.7,1.6c2.8-2.2,5.4-4.7,7.7-7.3
						c2.1-2.3,4.6-5.1,5.6-8.1c0.7-2.2,0.4-5-1.4-6.5c1.1-2.2,1.1-4.8,0.1-7.1c-2.1-4.6-7.4-6.9-11.8-8.7c-2.4-1-4.9-2-6.1-4.3
						c0-0.1-0.1-0.2-0.2-0.3c-0.1,0-0.3,0-0.4,0c-1.5,0.7-2.6,2.1-2.9,3.7c-1.1-0.8-2.6-0.9-3.9-0.2
						C604.1,358.7,603.4,360,603.4,361.4C603.4,361.4,603.4,361.4,603.4,361.4z"/>
					<path class="st39" d="M624.5,394.4c3.3-0.4,5.6-3.3,5.3-6.6c0-0.3-0.1-0.7-0.2-1c-0.7-1.9-2.8-2.9-4.7-2.2
						c-1.2,0.6-3,2.4-3.8,1.4c-0.8-0.9-0.2-2.8-0.1-3c-1.4-2.9,0.9-6.5,2.9-8.5c0.2-0.2,0.8-0.8,1.1-0.7c-3.8-0.7-7-3.1-9.7-5.8
						c-1.2-1.4-2.7-2.7-4.3-3.7c-3.1-1.6-6.5,0.1-8.3,2.8c-4.4,6.8-6.9,11.9-7.8,17.3c-0.6,4.4,1.5,6.7,3.9,8.4
						c0.8,0.6,1.7,1.1,2.6,1.6l-1,2.9c-8.6,3.5,6,12.2,14.8,6.5l5-12c0,0,0.5,2.9,4.1,2.6C624.5,394.4,624.5,394.4,624.5,394.4z"/>
					<path class="st40" d="M600.8,396.5c2.4,0.8,6.1,2.1,9.9,1.6c3.8-0.5,7.2-4.8,8.1-7c-1.7,2.7-4.6,4.5-7.8,5
						c-2.4,0.4-6-0.2-9.6-1.5L600.8,396.5z"/>
					<path class="st35" d="M614.9,375.2c0.8-0.5,1.8-0.4,2.4,0.4c0.5,0.8,0.4,1.9-0.4,2.5L614.9,375.2
						C614.9,375.2,614.9,375.2,614.9,375.2z"/>
					<path class="st35" d="M604.9,369C604.9,369,605,369,604.9,369c1,0,1.8,0.8,1.7,1.7l-3.5,0.1C603.1,369.8,603.9,369,604.9,369z"
						/>
					<polygon class="st40" points="601.3,379.3 605.1,382.9 609.4,373.7 					"/>
					<path class="st35" d="M604.8,375.1c0.3-0.6,0.2-1.4-0.3-1.8c-0.6-0.5-1.5-0.4-2,0.2c-0.4,0.6,0.7,0.1,1.3,0.6
						C604.4,374.6,604.3,375.8,604.8,375.1L604.8,375.1z"/>
					<path class="st35" d="M613.5,379.8c0.4-0.6,0.2-1.4-0.3-1.8c-0.6-0.5-1.5-0.4-2,0.2c-0.4,0.6,0.7,0.2,1.3,0.6
						C613.1,379.2,613.1,380.5,613.5,379.8L613.5,379.8z"/>
					<path class="st42" d="M606.3,388.5C606.3,388.5,606.3,388.5,606.3,388.5c-1.5-0.1-2.5-1.4-2.4-2.8l5.2,0.2
						C609,387.4,607.8,388.6,606.3,388.5z"/>
					<path class="st40" d="M605.5,388.3c0,0,0.1,0,0.1,0.1c1.3,0.4,2.8-0.3,3.2-1.6c-0.2-0.1-0.4-0.1-0.6-0.1
						C607.1,386.4,605.8,387.1,605.5,388.3z"/>
				</g>
				<g id="freepik--arm--inject-11_1_">
					<path class="st39" d="M623.1,435.2c8.7-11.2,29-17.1,39.7-22.9c8-4.4,7.4-4.6,7.7-12.5c0.1-3.4,0-8.5,0-10.9c0-4.2,0-6.9,0-11
						c0-1.4,0.1-2.9,0.5-4.3c1-4,2.8-7.9,3.1-12.1c0.2-3.1-0.2-4.8-0.8-7.8c-0.2-1-0.3-2-1.2-2.5c-0.6-0.3-0.6-0.3-0.7-0.9
						c-0.3-1.5-1.4-2.6-2.9-2.8c-0.1-0.8-0.6-1.4-1.3-1.8c-0.4-0.2-0.8-0.3-1.2-0.4c-0.1-0.9-0.3-2-1.3-1.7
						c-0.8,0.3-1.4,0.9-1.7,1.7c-0.5,1.4-0.8,2.8-0.9,4.3c-0.1,2.1-0.2,3.9-0.1,5c0.1,1.1,0,2.1-0.1,3.1c-0.1,0.6-0.1,2.6-1,2.2
						c-1.2-0.5-1.5-2.7-1.9-3.8c-0.4-0.8-1-1.4-1.7-1.9c-0.8-0.5-2.4-0.5-2,1c0.4,1.1,0.6,2.3,0.6,3.4c0,1.8,0.3,3.6,0.8,5.4
						c0.6,2,2.6,4.3,3.1,5.9c0.1,2.3-0.1,4.7-0.6,6.9c-0.6,3.7-4.2,21.1-4.2,21.1s-12.8,5.2-17.8,7.8c-1.4,0.7-4.2,1.4-7.3,2.2
						c-1.9,0.5-3.8,0.9-5.8,1C616.5,419.5,618.9,428.1,623.1,435.2z"/>
					<path class="st40" d="M665.9,370.2c1.3-2.7,0.4-7.3-2.6-9.7C668,362.8,668.4,367.3,665.9,370.2z"/>
					<path class="st40" d="M653.5,398.5c-0.3,1.8-0.5,7.2,3.1,8.7c-2.3-1.8-2.1-7.5-1.9-9.2L653.5,398.5z"/>
					<path class="st35" d="M621.8,437.5c1.9-3.2,5.5-6.1,11.1-10.1s13.5-7.3,13.5-7.3s-2-2.1-3.1-8.3c-1.1-6.2,1.8-9.7,1.8-9.7
						s-1.9,0.6-4.9,1.9c-2.7,1.2-5.5,2.1-8.3,2.8c-2.8,0.7-6.5,2.1-8.8,1.1C615.4,417,616.2,434.6,621.8,437.5z"/>
					<path class="st5" d="M643,421.5c-1,0.5-2.1,1.1-3.4,1.7c-4.9-5.4-4.6-13.5-2.9-18c1.1-0.4,2.3-0.9,3.5-1.4l0.7-0.3
						C639.1,407.9,638.3,416.1,643,421.5z"/>
				</g>
			</g>
		</g>
	</g>
</g>
</svg>
